<svg width="50" height="51" viewBox="0 0 50 51" fill="none" xmlns="http://www.w3.org/2000/svg">
<g clip-path="url(#clip0_680_1998)">
<path d="M37.1498 42.9601H35.0449V39.4643C38.4932 37.4515 41.256 34.4476 42.9739 30.8433C44.6918 27.239 45.2853 23.2012 44.6771 19.255C44.0689 15.3088 42.2872 11.637 39.5639 8.71717C36.8405 5.79736 33.3014 3.76471 29.4071 2.88363L29.617 2.46464C29.7205 2.25765 29.7694 2.02764 29.759 1.79644C29.7486 1.56524 29.6793 1.34054 29.5576 1.14369C29.4359 0.946829 29.2659 0.784354 29.0638 0.671694C28.8616 0.559033 28.634 0.499931 28.4026 0.5H21.5974C21.3661 0.500008 21.1386 0.559123 20.9365 0.671735C20.7345 0.784348 20.5646 0.946722 20.4429 1.14345C20.3213 1.34017 20.2519 1.56473 20.2414 1.7958C20.2309 2.02686 20.2796 2.25678 20.3829 2.46373L20.5929 2.88363C16.6988 3.76488 13.16 5.79758 10.4368 8.71731C7.71365 11.637 5.93211 15.3087 5.32394 19.2547C4.71577 23.2006 5.30912 27.2383 7.02681 30.8425C8.74449 34.4466 11.507 37.4505 14.9551 39.4634V42.9592H12.8502C11.447 42.9611 10.1019 43.5194 9.10985 44.5116C8.11777 45.5039 7.5597 46.8491 7.55803 48.2522V48.7237C7.5585 49.1943 7.7456 49.6455 8.07827 49.9783C8.41094 50.3112 8.86204 50.4985 9.33263 50.4992H40.6664C41.1371 50.4987 41.5885 50.3115 41.9213 49.9786C42.2542 49.6458 42.4414 49.1944 42.4419 48.7237V48.2522C42.4402 46.8491 41.8821 45.5039 40.8901 44.5116C39.898 43.5194 38.5529 42.962 37.1498 42.9601ZM27.6696 2.30989L25 7.64998L22.3295 2.30989H27.6696ZM18.5477 9.07527L22.696 19.0894C22.3529 19.3374 22.0517 19.6386 21.8037 19.9817L11.7877 15.8334C13.2167 12.8844 15.5983 10.5035 18.5477 9.07527ZM27.1402 22.2857C27.1402 22.7092 27.0146 23.1232 26.7793 23.4753C26.5439 23.8274 26.2095 24.1019 25.8182 24.2639C25.4269 24.4259 24.9964 24.4683 24.581 24.3856C24.1657 24.3029 23.7842 24.0989 23.4847 23.7993C23.1853 23.4998 22.9815 23.1182 22.899 22.7028C22.8165 22.2874 22.859 21.8569 23.0212 21.4657C23.1834 21.0745 23.458 20.7401 23.8102 20.505C24.1624 20.2698 24.5765 20.1444 25 20.1446C25.5676 20.1453 26.1118 20.3711 26.5132 20.7725C26.9145 21.1739 27.1394 21.718 27.1402 22.2857ZM10.31 22.2857C10.3123 20.6612 10.582 19.0481 11.1081 17.5112L21.1114 21.6549C21.0264 22.0711 21.0264 22.5002 21.1114 22.9164L11.1208 27.0547C10.5872 25.5212 10.3131 23.9094 10.31 22.2857ZM21.8028 24.5888C22.051 24.9322 22.3525 25.2337 22.696 25.4819L18.5604 35.468C15.6285 34.0287 13.2568 31.6576 11.8167 28.7262L21.8028 24.5888ZM24.3683 26.1733C24.7845 26.2584 25.2136 26.2584 25.6298 26.1733L29.7681 36.1648C26.6805 37.2453 23.3176 37.2453 20.23 36.1648L24.3683 26.1733ZM31.4387 35.468L27.303 25.4819C27.6462 25.2337 27.9474 24.9321 28.1953 24.5888L38.1814 28.7253C36.7417 31.6569 34.3703 34.0283 31.4387 35.468ZM39.6881 22.2857C39.6853 23.9093 39.4116 25.5212 38.8782 27.0547L28.8867 22.9164C28.9717 22.5002 28.9717 22.0711 28.8867 21.6549L38.89 17.5103C39.4162 19.0475 39.6859 20.6609 39.6881 22.2857ZM28.1953 19.9817C27.9471 19.6385 27.6455 19.3373 27.3021 19.0894L31.4522 9.07527C34.4016 10.5035 36.7832 12.8844 38.2122 15.8334L28.1953 19.9817ZM25.6298 18.398C25.2136 18.3129 24.7845 18.3129 24.3683 18.398L20.2264 8.39656C21.1351 8.08922 22.0716 7.871 23.0227 7.745L23.7855 9.26893C23.8982 9.49458 24.0715 9.68437 24.286 9.81702C24.5005 9.94968 24.7477 10.0199 25 10.0199C25.2522 10.0199 25.4994 9.94968 25.7139 9.81702C25.9284 9.68437 26.1017 9.49458 26.2144 9.26893L26.9764 7.7441C27.9274 7.87009 28.8639 8.08831 29.7726 8.39566L25.6298 18.398ZM6.90103 22.2857C6.88588 18.1029 8.32767 14.0453 10.9788 10.81C13.6299 7.57459 17.3249 5.36332 21.429 4.55597L22.1702 6.03827C18.1014 6.74661 14.4463 8.95513 11.9268 12.2275C9.40731 15.5 8.20673 19.5983 8.56221 23.7129C8.9177 27.8276 10.8034 31.6592 13.8468 34.4511C16.8902 37.2429 20.87 38.7918 25 38.7918C29.1299 38.7918 33.1097 37.2429 36.1531 34.4511C39.1965 31.6592 41.0822 27.8276 41.4377 23.7129C41.7932 19.5983 40.5926 15.5 38.0731 12.2275C35.5536 8.95513 31.8985 6.74661 27.8297 6.03827L28.5709 4.55597C31.9287 5.23324 35.0252 6.84981 37.5004 9.21768C39.9756 11.5856 41.7278 14.6074 42.5532 17.9319C43.3785 21.2564 43.2432 24.7469 42.1628 27.9975C41.0825 31.2481 39.1016 34.1252 36.4505 36.2943C33.7993 38.4634 30.5869 39.8354 27.1868 40.2506C23.7866 40.6658 20.3384 40.1072 17.2432 38.6399C14.148 37.1725 11.5329 34.8566 9.70212 31.9615C7.8713 29.0664 6.89995 25.7111 6.90103 22.2857ZM16.765 40.4045C19.3501 41.5842 22.1584 42.1947 25 42.1947C27.8415 42.1947 30.6499 41.5842 33.235 40.4045V42.9601H16.765V40.4045ZM40.632 48.6902L9.36792 48.7246V48.2531C9.36888 47.3298 9.73603 46.4445 10.3888 45.7915C11.0417 45.1386 11.9268 44.7712 12.8502 44.77H37.1498C38.0731 44.7712 38.9583 45.1386 39.6111 45.7915C40.2639 46.4445 40.631 47.3298 40.632 48.2531V48.6902Z" fill="#000001"/>
</g>
<defs>
<clipPath id="clip0_680_1998">
<rect width="50" height="50" fill="white" transform="translate(0 0.5)"/>
</clipPath>
</defs>
</svg>
