<svg width="50" height="51" viewBox="0 0 50 51" fill="none" xmlns="http://www.w3.org/2000/svg">
<g clip-path="url(#clip0_680_210)">
<path d="M45.521 10.7031V46.16C45.521 47.7479 44.2337 49.0352 42.6458 49.0352H9.529C7.94111 49.0352 6.65381 47.7479 6.65381 46.16V17.6581C6.6538 17.0792 6.76783 16.5059 6.98937 15.971C7.21092 15.4362 7.53565 14.9502 7.94502 14.5408L19.2298 3.25605C19.6392 2.84668 20.1251 2.52195 20.66 2.30041C21.1949 2.07886 21.7681 1.96484 22.3471 1.96484H36.7827C41.6087 1.96484 45.521 5.87715 45.521 10.7031Z" stroke="#000001" stroke-width="2.2" stroke-miterlimit="10" stroke-linecap="round" stroke-linejoin="round"/>
<path d="M8.45557 13.6406L4.479 9.66406L12.1782 1.96484L16.1548 5.94141M21.6929 27.8438H30.4819M21.6929 27.8438V36.6328M21.6929 27.8438L16.2241 22.375M30.4819 27.8438V36.6328M30.4819 27.8438L35.9507 22.375M30.4819 36.6328H21.6929M30.4819 36.6328L35.9507 42.1016M21.6929 36.6328L16.2241 42.1016M36.7319 13.6836H26.6733C25.0553 13.6836 23.7436 12.372 23.7436 10.7539C23.7436 9.13584 25.0553 7.82422 26.6733 7.82422H36.7319C38.35 7.82422 39.6616 9.13584 39.6616 10.7539C39.6616 12.372 38.35 13.6836 36.7319 13.6836Z" stroke="#000001" stroke-width="2.2" stroke-miterlimit="10" stroke-linecap="round" stroke-linejoin="round"/>
</g>
<defs>
<clipPath id="clip0_680_210">
<rect width="50" height="50" fill="white" transform="translate(0 0.5)"/>
</clipPath>
</defs>
</svg>
