<svg width="50" height="51" viewBox="0 0 50 51" fill="none" xmlns="http://www.w3.org/2000/svg">
<g clip-path="url(#clip0_660_2951)">
<path d="M11.225 23.5001C10.9616 23.5001 10.7311 23.4013 10.5336 23.2038C10.336 23.0062 10.2373 22.7692 10.2373 22.4926C10.2373 22.3872 10.2504 22.2885 10.2768 22.1963C10.3163 22.0909 10.3624 21.979 10.4151 21.8605L16.0845 10.0869H10.0792C9.78952 10.0869 9.54588 9.99475 9.34834 9.81038C9.16396 9.61283 9.07178 9.3692 9.07178 9.07947C9.07178 8.78974 9.16396 8.55269 9.34834 8.36831C9.54588 8.17077 9.78952 8.072 10.0792 8.072H17.6056C17.8822 8.072 18.1192 8.17077 18.3168 8.36831C18.5143 8.56586 18.6131 8.80291 18.6131 9.07947C18.6131 9.17165 18.5999 9.26384 18.5736 9.35603C18.5472 9.43504 18.5143 9.52065 18.4748 9.61283L12.1534 22.947C11.9427 23.3157 11.6332 23.5001 11.225 23.5001Z" fill="black"/>
<path d="M24.5264 23.5001C23.5255 23.5001 22.6695 23.1972 21.9583 22.5914C21.2604 21.9724 20.727 21.0901 20.3582 19.9443C19.9895 18.7854 19.8051 17.396 19.8051 15.7762C19.8051 14.1563 19.9895 12.7735 20.3582 11.6278C20.727 10.4689 21.2604 9.58649 21.9583 8.9807C22.6695 8.36173 23.5255 8.05225 24.5264 8.05225C25.5273 8.05225 26.3767 8.36831 27.0747 9.00045C27.7858 9.61942 28.3258 10.5084 28.6945 11.6673C29.0633 12.813 29.2477 14.1826 29.2477 15.7762C29.2477 17.3697 29.0633 18.7459 28.6945 19.9048C28.3258 21.0505 27.7858 21.9395 27.0747 22.5716C26.3767 23.1906 25.5273 23.5001 24.5264 23.5001ZM24.5264 21.4456C25.1322 21.4456 25.6326 21.202 26.0277 20.7147C26.4228 20.2143 26.7191 19.5361 26.9167 18.68C27.1142 17.824 27.213 16.8561 27.213 15.7762C27.213 14.6963 27.1142 13.7283 26.9167 12.8723C26.7191 12.0163 26.4228 11.338 26.0277 10.8376C25.6326 10.3372 25.1322 10.0869 24.5264 10.0869C23.9206 10.0869 23.4202 10.3372 23.0251 10.8376C22.63 11.3249 22.3337 11.9965 22.1361 12.8525C21.9386 13.7085 21.8398 14.6831 21.8398 15.7762C21.8398 16.8692 21.9386 17.8438 22.1361 18.6998C22.3337 19.5558 22.63 20.2275 23.0251 20.7147C23.4333 21.202 23.9338 21.4456 24.5264 21.4456Z" fill="black"/>
<path d="M32.5293 23.5001C32.2396 23.5001 31.996 23.4013 31.7984 23.2038C31.614 23.0062 31.5219 22.7692 31.5219 22.4926C31.5219 22.2029 31.614 21.9658 31.7984 21.7815L37.4086 15.223C37.8037 14.7621 38.1066 14.3275 38.3173 13.9193C38.5412 13.511 38.6531 13.1225 38.6531 12.7538C38.6531 12.1743 38.5544 11.6739 38.3568 11.2524C38.1593 10.831 37.8761 10.5084 37.5074 10.2845C37.1387 10.0474 36.6975 9.9289 36.1839 9.9289C35.6834 9.9289 35.2291 10.0606 34.8208 10.324C34.4257 10.5742 34.1097 10.9166 33.8726 11.3512C33.6487 11.7726 33.5368 12.2401 33.5368 12.7538C33.5368 13.0171 33.438 13.2476 33.2405 13.4452C33.0561 13.6427 32.8191 13.7415 32.5293 13.7415C32.2528 13.7415 32.0157 13.6427 31.8182 13.4452C31.6206 13.2476 31.5219 13.0171 31.5219 12.7538C31.5219 11.8582 31.726 11.0615 32.1342 10.3635C32.5425 9.65234 33.0956 9.09264 33.7936 8.68438C34.5048 8.27613 35.3015 8.072 36.1839 8.072C37.0794 8.072 37.8564 8.26296 38.5149 8.64487C39.1733 9.02679 39.6804 9.56674 40.0359 10.2647C40.4047 10.9627 40.5891 11.7924 40.5891 12.7538C40.5891 13.1752 40.4969 13.6032 40.3125 14.0378C40.1413 14.4724 39.9174 14.8872 39.6409 15.2823C39.3775 15.6774 39.1075 16.033 38.8309 16.349L34.3072 21.4851H39.8384C40.1281 21.4851 40.3718 21.5905 40.5693 21.8012C40.7669 21.9987 40.8656 22.2292 40.8656 22.4926C40.8656 22.7692 40.7669 23.0062 40.5693 23.2038C40.3718 23.4013 40.1281 23.5001 39.8384 23.5001H32.5293Z" fill="black"/>
<path d="M9 28.5H41V33.5H9V28.5Z" fill="white"/>
<path d="M9 33.5H41V38.5H9V33.5Z" fill="#0065B2"/>
<path d="M9 38.5H41V43.5H9V38.5Z" fill="#EC1B24"/>
<rect x="2" y="2.5" width="47" height="47" rx="4" stroke="black" stroke-width="2"/>
<rect x="9.5" y="29" width="31" height="14" stroke="black"/>
</g>
<defs>
<clipPath id="clip0_660_2951">
<rect width="50" height="50" fill="white" transform="translate(0 0.5)"/>
</clipPath>
</defs>
</svg>
