<svg width="197" height="18" viewBox="0 0 197 18" fill="none" xmlns="http://www.w3.org/2000/svg">
<g id="new_logo">
<g id="&#208;&#161;&#208;&#187;&#208;&#190;&#208;&#185;_1">
<g id="Group">
<path id="Vector" d="M29.7703 13.4008H20.4058L18.4732 17.8015H15.8869L23.8588 0.213135H26.3456L34.3459 17.8015H31.7029L29.7703 13.4008ZM28.8892 11.3851L25.0951 2.76834L21.301 11.3851H28.8892Z" fill="black"/>
<path id="Vector_2" d="M97.6809 10.1926C98.2919 10.9166 98.6045 11.8535 98.6045 12.9892C98.6045 14.5081 98.0503 15.7005 96.9277 16.5381C95.8051 17.3756 94.1852 17.8015 92.0536 17.8015H83.9965V0.213135H91.5705C93.5031 0.213135 95.0093 0.596409 96.0893 1.37717C97.1693 2.15792 97.7093 3.27937 97.7093 4.72732C97.7093 5.67843 97.4677 6.50178 96.9988 7.16897C96.5156 7.83617 95.8478 8.34721 94.9667 8.6737C96.1746 8.95762 97.0698 9.46865 97.6809 10.1926ZM86.4974 7.94973H91.4C92.622 7.94973 93.5599 7.70841 94.1994 7.22576C94.8388 6.74311 95.1657 6.03333 95.1657 5.09642C95.1657 4.15951 94.8388 3.43552 94.1852 2.95287C93.5315 2.45603 92.5936 2.21471 91.3858 2.21471H86.4832V7.94973H86.4974ZM96.0609 12.8046C96.0609 11.7967 95.7199 11.0586 95.0378 10.5759C94.3557 10.0933 93.3468 9.86614 92.011 9.86614H86.4974V15.8283H92.011C94.7109 15.8141 96.0609 14.8062 96.0609 12.8046Z" fill="black"/>
<path id="Vector_3" d="M120.588 16.836C119.167 16.0552 118.044 14.9763 117.234 13.5994C116.424 12.2224 116.012 10.6893 116.012 9.00001C116.012 7.31073 116.424 5.77761 117.234 4.40063C118.044 3.02366 119.167 1.94479 120.588 1.16403C122.009 0.383274 123.614 0 125.391 0C127.153 0 128.744 0.383274 130.165 1.16403C131.586 1.94479 132.709 3.00947 133.505 4.38644C134.315 5.74922 134.713 7.28234 134.713 9.00001C134.713 10.7177 134.315 12.2508 133.505 13.6136C132.695 14.9764 131.586 16.0552 130.165 16.836C128.744 17.6167 127.153 18 125.391 18C123.614 18 122.023 17.6167 120.588 16.836ZM128.886 14.8912C129.924 14.3092 130.734 13.5 131.331 12.4637C131.927 11.4274 132.226 10.2776 132.226 9.0142C132.226 7.7366 131.927 6.58675 131.331 5.56466C130.734 4.52839 129.924 3.71924 128.886 3.13722C127.849 2.5552 126.698 2.2571 125.405 2.2571C124.112 2.2571 122.947 2.5552 121.895 3.13722C120.843 3.71924 120.019 4.52839 119.422 5.56466C118.826 6.60094 118.527 7.75079 118.527 9.0142C118.527 10.2918 118.826 11.4416 119.422 12.4637C120.019 13.5 120.843 14.3092 121.895 14.8912C122.947 15.4732 124.112 15.7713 125.405 15.7713C126.684 15.7713 127.849 15.4732 128.886 14.8912Z" fill="black"/>
<path id="Vector_4" d="M159.182 16.836C157.761 16.0552 156.639 14.9763 155.829 13.5994C155.019 12.2224 154.607 10.6893 154.607 9.00001C154.607 7.31073 155.019 5.77761 155.829 4.40063C156.639 3.02366 157.761 1.94479 159.182 1.16403C160.604 0.383274 162.209 0 163.986 0C165.748 0 167.339 0.383274 168.76 1.16403C170.181 1.94479 171.304 3.00947 172.1 4.38644C172.91 5.74922 173.307 7.28234 173.307 9.00001C173.307 10.7177 172.91 12.2508 172.1 13.6136C171.29 14.9764 170.181 16.0552 168.76 16.836C167.339 17.6167 165.748 18 163.986 18C162.209 18 160.618 17.6167 159.182 16.836ZM167.481 14.8912C168.519 14.3092 169.329 13.5 169.925 12.4637C170.522 11.4274 170.821 10.2776 170.821 9.0142C170.821 7.7366 170.522 6.58675 169.925 5.56466C169.329 4.52839 168.519 3.71924 167.481 3.13722C166.444 2.5552 165.293 2.2571 164 2.2571C162.707 2.2571 161.541 2.5552 160.49 3.13722C159.438 3.71924 158.614 4.52839 158.017 5.56466C157.42 6.60094 157.122 7.75079 157.122 9.0142C157.122 10.2918 157.42 11.4416 158.017 12.4637C158.614 13.5 159.438 14.3092 160.49 14.8912C161.541 15.4732 162.707 15.7713 164 15.7713C165.279 15.7713 166.444 15.4732 167.481 14.8912Z" fill="black"/>
<path id="Vector_5" d="M59.4554 13.3299V0.213135H56.9828V15.6154H49.6646V0.213135H47.2062V15.6154H39.8738V0.213135H37.387V17.8015H57.4944L59.4554 13.3299Z" fill="black"/>
<path id="Vector_6" d="M114.648 0.241519V0.213135H100.139V2.39926H106.15V17.8015H108.623V2.39926H113.71L114.648 0.241519Z" fill="black"/>
<g id="Group_2">
<path id="Vector_7" d="M2.48678 8.70209V2.34247H12.3344L13.2865 0.269921V0.213135H0V14.1958L2.48678 8.70209Z" fill="black"/>
<path id="Vector_8" d="M12.7607 8.67342C11.6665 7.80749 10.075 7.36743 7.98607 7.36743H6.15295L5.27192 9.35481H7.44609C10.4018 9.35481 11.8797 10.4195 11.8797 12.5488C11.8797 13.6277 11.496 14.4368 10.7428 14.9905C9.9897 15.5441 8.89552 15.8138 7.44609 15.8138H2.48673V15.6719L2.15989 16.4242L1.54886 17.8012H7.54555C9.74813 17.8012 11.4391 17.3469 12.6186 16.4242C13.798 15.5015 14.3949 14.1813 14.3949 12.4494C14.3949 10.8028 13.8407 9.55355 12.7607 8.67342Z" fill="black"/>
</g>
<g id="Group_3">
<path id="Vector_9" d="M72.813 0.213135H70.4683L62.4964 17.8015H65.0826L72.813 0.213135Z" fill="black"/>
<path id="Vector_10" d="M78.0566 11.3848H70.4968L70.4826 11.4274L69.6158 13.4006H76.3798L78.3266 17.8012H80.9697L78.0566 11.3848Z" fill="black"/>
</g>
<g id="Group_4">
<path id="Vector_11" d="M196.172 0.18457H195.518L192.392 7.25398L193.756 4.9685L193.784 17.7871H196.2L196.172 0.18457Z" fill="black"/>
<path id="Vector_12" d="M186.693 12.265L179.517 0.18457H177.443V17.7871H179.858V5.03947L185.613 14.6357L186.693 12.265Z" fill="black"/>
</g>
<g id="Group_5">
<path id="Vector_13" d="M150.528 0.213135L144.176 9.00021L150.642 17.7873L150.656 17.8015H153.527L146.933 8.73049L153.228 0.213135H150.528Z" fill="black"/>
<path id="Vector_14" d="M141.278 7.85035V0.213135H138.805V17.8015H141.278V10.0649V7.85035Z" fill="black"/>
</g>
</g>
</g>
</g>
</svg>
