<svg width="18" height="18" viewBox="0 0 18 18" fill="none" xmlns="http://www.w3.org/2000/svg">
<path fill-rule="evenodd" clip-rule="evenodd" d="M0.666748 8.99996C0.666748 4.39996 4.40008 0.666626 9.00008 0.666626C13.6001 0.666626 17.3334 4.39996 17.3334 8.99996V10.1916C17.3334 11.8333 16.0584 13.1666 14.4167 13.1666C13.4251 13.1666 12.4917 12.6833 11.9501 11.9416C11.2001 12.7 10.1501 13.1666 9.00008 13.1666C6.70008 13.1666 4.83341 11.3 4.83341 8.99996C4.83341 6.69996 6.70008 4.83329 9.00008 4.83329C11.3001 4.83329 13.1667 6.69996 13.1667 8.99996V10.1916C13.1667 10.85 13.7584 11.5 14.4167 11.5C15.0751 11.5 15.6667 10.85 15.6667 10.1916V8.99996C15.6667 5.38329 12.6167 2.33329 9.00008 2.33329C5.38341 2.33329 2.33341 5.38329 2.33341 8.99996C2.33341 12.6166 5.38341 15.6666 9.00008 15.6666H13.1667V17.3333H9.00008C4.40008 17.3333 0.666748 13.6 0.666748 8.99996ZM6.50008 8.99996C6.50008 10.3833 7.61675 11.5 9.00008 11.5C10.3834 11.5 11.5001 10.3833 11.5001 8.99996C11.5001 7.61663 10.3834 6.49996 9.00008 6.49996C7.61675 6.49996 6.50008 7.61663 6.50008 8.99996Z" fill="#FF6400"/>
</svg>
