<svg width="217" height="26" viewBox="0 0 217 26" fill="none" xmlns="http://www.w3.org/2000/svg">
<path d="M194.745 15.993V0H182.629V25.9999H216.666V15.993H194.745Z" fill="#626970"/>
<path d="M26.2103 7.68095H12.1154V0H0V25.9999H12.1154V17.6878H26.2103V25.9999H38.3256V0H26.2103V7.68095Z" fill="#626970"/>
<path d="M75.68 0H74.9652H60.9619L67.9635 11.9361L76.2115 25.9999H90.9479L75.6983 0H75.68Z" fill="#626970"/>
<path d="M45.5835 25.9992H59.715L67.2299 13.1976L60.1733 1.15332L45.5835 25.9992Z" fill="#626970"/>
<path d="M160.103 0H159.388H145.367L152.387 11.9361L160.635 25.9999H175.353H175.371L160.103 0Z" fill="#626970"/>
<path d="M130.007 25.9992H144.12L151.635 13.1976L144.578 1.15332L130.007 25.9992Z" fill="#626970"/>
<path d="M133.159 0H118.441L110.174 14.0637L103.173 25.9999H117.176H117.891H117.909L133.177 0H133.159Z" fill="#626970"/>
<path d="M101.927 0H87.7954L102.385 24.8459L109.442 12.8196L101.927 0Z" fill="#626970"/>
</svg>
