<svg width="267" height="60" viewBox="0 0 267 60" fill="none" xmlns="http://www.w3.org/2000/svg">
<path d="M7.60004 17.2856V31.8513C7.60004 32.5885 7.99432 33.2628 8.62861 33.6342L21.24 40.9142C21.8743 41.2799 22.6629 41.2799 23.2972 40.9142L35.9086 33.6342C36.5429 33.2685 36.9372 32.5885 36.9372 31.8513V17.2856C36.9372 16.5485 36.5429 15.8742 35.9086 15.5028L23.2972 8.22277C22.6629 7.85706 21.8743 7.85706 21.24 8.22277L8.62861 15.5028C7.99432 15.8685 7.60004 16.5485 7.60004 17.2856Z" fill="url(#paint0_linear_396_2827)"/>
<path d="M16.0686 31.8513V46.417C16.0686 47.1542 16.4629 47.8284 17.0972 48.1999L29.7086 55.4799C30.3429 55.8456 31.1315 55.8456 31.7657 55.4799L44.3772 48.1999C45.0115 47.8342 45.4058 47.1542 45.4058 46.417V31.8513C45.4058 31.1142 45.0115 30.4399 44.3772 30.0684L31.7657 22.7884C31.1315 22.4227 30.3429 22.4227 29.7086 22.7884L17.0972 30.0684C16.4629 30.4342 16.0686 31.1142 16.0686 31.8513Z" fill="#149D4F"/>
<path d="M53.2001 31.8457V17.28C53.2001 16.5429 52.8058 15.8686 52.1715 15.4972L39.5601 8.21716C38.9258 7.85144 38.1372 7.85144 37.5029 8.21716L24.8915 15.4972C24.2572 15.8629 23.8629 16.5429 23.8629 17.28V31.8457C23.8629 32.5829 24.2572 33.2572 24.8915 33.6286L37.5029 40.9086C38.1372 41.2743 38.9258 41.2743 39.5601 40.9086L43.7543 38.4857L52.1715 33.6286C52.8058 33.2629 53.2001 32.5829 53.2001 31.8457Z" fill="url(#paint1_linear_396_2827)"/>
<path d="M48.7029 7.25146L57.6343 12.9315L57.84 22.5543" stroke="#FEA31B" stroke-width="1.71429" stroke-miterlimit="10"/>
<path d="M51.5715 39.7544L51.4915 50.343L43.4343 55.6115" stroke="#149D4F" stroke-width="1.71429" stroke-miterlimit="10"/>
<path d="M10.6172 41.3485L1.68576 35.6685L1.48004 26.0457" stroke="#1041EE" stroke-width="1.71429" stroke-miterlimit="10"/>
<path d="M53.5143 4.8457L62.4458 10.5257L62.6515 20.1486" stroke="#FEA31B" stroke-width="1.71429" stroke-miterlimit="10"/>
<path d="M44.3829 30.0684L31.7715 22.7884C31.1372 22.4227 30.3486 22.4227 29.7143 22.7884L23.8629 26.1656V31.8456C23.8629 32.5827 24.2572 33.257 24.8915 33.6284L37.5029 40.9084C38.1372 41.2742 38.9258 41.2742 39.5601 40.9084L43.7543 38.4856L45.4058 37.5313V31.8513C45.4058 31.1142 45.0115 30.4399 44.3772 30.0684H44.3829Z" fill="url(#paint2_linear_396_2827)"/>
<path d="M31.7657 22.7884C31.1315 22.4227 30.3429 22.4227 29.7086 22.7884L17.0972 30.0684C16.4629 30.4342 16.0686 31.1142 16.0686 31.8513V37.9256L21.24 40.9142C21.8743 41.2799 22.6629 41.2799 23.2972 40.9142L35.9086 33.6342C36.5429 33.2684 36.9372 32.5884 36.9372 31.8513V25.777L31.7657 22.7884Z" fill="#149D4F"/>
<path d="M23.8629 17.2858V31.8515C23.8629 32.5886 24.2572 33.2629 24.8915 33.6344L30.4001 36.8172L35.9086 33.6344C36.5429 33.2686 36.9372 32.5886 36.9372 31.8515V17.2858C36.9372 16.5486 36.5429 15.8744 35.9086 15.5029L30.4001 12.3201L24.8915 15.5029C24.2572 15.8686 23.8629 16.5486 23.8629 17.2858Z" fill="url(#paint3_linear_396_2827)"/>
<path d="M29.7086 22.7886L23.8572 26.1657V31.8457C23.8572 32.5828 24.2515 33.2571 24.8858 33.6286L30.3943 36.8114L35.9029 33.6286C36.5372 33.2628 36.9315 32.5828 36.9315 31.8457V25.7714L31.76 22.7828C31.1257 22.4171 30.3372 22.4171 29.7029 22.7828L29.7086 22.7886Z" fill="white"/>
<path d="M79.4228 30.1256V18.0742H85.0342C86.4342 18.0742 87.5257 18.3428 88.3028 18.8856C89.0857 19.4228 89.4742 20.1942 89.4742 21.1942C89.4742 22.1942 89.1085 22.9485 88.3714 23.4914C87.6342 24.0342 86.6628 24.3085 85.4457 24.3085L85.7714 23.5828C87.1257 23.5828 88.1771 23.8514 88.92 24.3942C89.6685 24.9314 90.04 25.7142 90.04 26.7371C90.04 27.7599 89.64 28.6228 88.8457 29.2228C88.0457 29.8228 86.8857 30.1256 85.36 30.1256H79.4171H79.4228ZM82.1942 23.0685H84.7943C85.4 23.0685 85.8628 22.9485 86.1714 22.6971C86.48 22.4514 86.6342 22.0856 86.6342 21.6056C86.6342 21.1256 86.48 20.7599 86.1714 20.5142C85.8628 20.2685 85.4 20.1428 84.7943 20.1428H82.1942V23.0685ZM82.1942 28.0628H85.2571C85.8971 28.0628 86.3885 27.9371 86.72 27.6856C87.0514 27.4342 87.2171 27.0456 87.2171 26.5142C87.2171 25.9828 87.0514 25.6342 86.72 25.3885C86.3885 25.1428 85.8971 25.0171 85.2571 25.0171H82.1942V28.0628Z" fill="#272727"/>
<path d="M95.0228 27.8856H101.583V30.1256H92.2514V18.0742H101.36V20.3142H95.0228V27.8914V27.8856ZM94.8171 22.9256H100.617V25.0971H94.8171V22.9256Z" fill="#272727"/>
<path d="M106.629 30.1256H103.84V18.0742H106.629V30.1256ZM112.309 25.1828H106.423V22.8228H112.309V25.1828ZM112.103 18.0742H114.891V30.1256H112.103V18.0742Z" fill="#272727"/>
<path d="M125.097 25.6284C124.503 25.8684 123.926 26.0512 123.377 26.1712C122.829 26.2912 122.297 26.3541 121.794 26.3541C120.177 26.3541 118.937 25.9655 118.074 25.1941C117.211 24.4169 116.783 23.3026 116.783 21.8455V18.0741H119.537V21.5369C119.537 22.3655 119.76 22.9884 120.211 23.4055C120.663 23.8227 121.297 24.0341 122.12 24.0341C122.646 24.0341 123.16 23.9712 123.651 23.8512C124.143 23.7312 124.606 23.5541 125.029 23.3255L125.097 25.6341V25.6284ZM124.703 30.1198V18.0684H127.457V30.1198H124.703Z" fill="#272727"/>
<path d="M134.554 28.2112L129.114 18.0684H132.091L136.086 26.1598L134.554 28.2055V28.2112ZM130.869 27.8512C131.537 28.0455 132.091 28.1026 132.549 28.0169C133 27.9312 133.406 27.6112 133.76 27.0626L134.343 26.1827L134.6 25.8912L138.594 18.0741H141.331L136.2 27.6112C135.743 28.4741 135.2 29.1312 134.571 29.5884C133.943 30.0455 133.263 30.3084 132.514 30.3712C131.766 30.4341 130.994 30.3026 130.189 29.9655L130.857 27.8455L130.869 27.8512Z" fill="#272727"/>
<path d="M142.663 30.1256V18.0742H147.88C148.96 18.0742 149.891 18.2514 150.669 18.5999C151.451 18.9485 152.051 19.4514 152.474 20.1085C152.897 20.7599 153.114 21.5428 153.114 22.4514C153.114 23.3599 152.903 24.1199 152.474 24.7771C152.051 25.4285 151.446 25.9314 150.669 26.2856C149.886 26.6342 148.96 26.8114 147.88 26.8114H144.211L145.451 25.5542V30.1314H142.663V30.1256ZM145.451 25.8571L144.211 24.5314H147.726C148.589 24.5314 149.229 24.3485 149.651 23.9828C150.074 23.6171 150.291 23.1028 150.291 22.4514C150.291 21.7999 150.08 21.2685 149.651 20.9028C149.229 20.5371 148.583 20.3542 147.726 20.3542H144.211L145.451 19.0285V25.8628V25.8571Z" fill="#272727"/>
<path d="M157.743 30.1256H154.954V18.0742H157.743V30.1256ZM163.423 25.1828H157.537V22.8228H163.423V25.1828ZM163.217 18.0742H166.006V30.1256H163.217V18.0742Z" fill="#272727"/>
<path d="M174.857 22.0284C176.314 22.0284 177.44 22.3541 178.234 22.9998C179.029 23.6512 179.423 24.6226 179.423 25.9198C179.423 27.2969 178.983 28.3426 178.109 29.0512C177.229 29.7655 176.017 30.1198 174.469 30.1198H169.029V18.0684H171.8V22.0284H174.863H174.857ZM174.309 28.0569C175.023 28.0569 175.583 27.8798 175.994 27.5255C176.406 27.1712 176.611 26.6512 176.611 25.9769C176.611 25.3027 176.406 24.8341 176 24.5369C175.594 24.2455 175.029 24.0969 174.303 24.0969H171.789V28.0569H174.303H174.309ZM180.954 30.1255V18.0741H183.726V30.1255H180.954Z" fill="#272727"/>
<path d="M186.72 30.1256V18.0741H189.491V25.9256L195.24 18.0741H197.857V30.1256H195.103V22.2913L189.354 30.1256H186.72ZM192.28 17.297C191.131 17.297 190.291 17.0684 189.76 16.6056C189.229 16.1484 188.954 15.497 188.943 14.657H190.851C190.863 15.0684 190.989 15.3827 191.223 15.5941C191.457 15.8056 191.811 15.9141 192.28 15.9141C192.749 15.9141 193.091 15.8056 193.331 15.5941C193.571 15.3827 193.697 15.0684 193.709 14.657H195.617C195.606 15.497 195.331 16.1427 194.789 16.6056C194.246 17.0684 193.411 17.297 192.274 17.297H192.28Z" fill="#272727"/>
<path d="M212.097 29.3656C210.537 29.3656 209.211 29.1599 208.126 28.7485C207.04 28.3371 206.217 27.7371 205.657 26.9485C205.097 26.1599 204.811 25.1999 204.811 24.0628C204.811 22.9256 205.091 21.9656 205.657 21.1771C206.217 20.3885 207.04 19.7885 208.126 19.3771C209.211 18.9656 210.531 18.7599 212.097 18.7599H212.806C214.354 18.7599 215.669 18.9656 216.737 19.3771C217.806 19.7885 218.623 20.3942 219.171 21.1828C219.72 21.9771 220 22.9313 220 24.0571C220 25.1828 219.726 26.1256 219.183 26.9256C218.64 27.7256 217.84 28.3313 216.789 28.7428C215.737 29.1542 214.457 29.3599 212.943 29.3599H212.097V29.3656ZM212.354 27.2113H212.611C213.669 27.2113 214.543 27.0913 215.234 26.8571C215.926 26.6228 216.446 26.2742 216.794 25.8056C217.143 25.3371 217.309 24.7542 217.309 24.0399C217.309 23.3256 217.131 22.7428 216.777 22.2856C216.423 21.8285 215.903 21.4856 215.217 21.2628C214.531 21.0399 213.674 20.9256 212.646 20.9256H212.354C211.263 20.9256 210.366 21.0342 209.651 21.2513C208.937 21.4685 208.406 21.8113 208.051 22.2742C207.697 22.7371 207.52 23.3313 207.52 24.0571C207.52 24.7828 207.709 25.3713 208.086 25.8399C208.463 26.3085 209.011 26.6513 209.731 26.8742C210.451 27.0971 211.326 27.2113 212.354 27.2113ZM211.131 30.6571V17.5542H213.697V30.6571H211.131Z" fill="#272727"/>
<path d="M227.851 30.3312C226.897 30.3312 226.017 30.1769 225.211 29.8683C224.4 29.5597 223.703 29.1197 223.109 28.5597C222.514 27.9997 222.057 27.3369 221.731 26.5826C221.406 25.8226 221.24 24.9997 221.24 24.1026C221.24 23.2054 221.406 22.3826 221.731 21.6226C222.057 20.8626 222.52 20.2055 223.114 19.6455C223.709 19.0855 224.411 18.6455 225.217 18.3369C226.023 18.0283 226.891 17.874 227.834 17.874C228.777 17.874 229.663 18.0283 230.457 18.3369C231.257 18.6455 231.949 19.0855 232.543 19.6455C233.137 20.2055 233.594 20.8626 233.931 21.6169C234.263 22.3712 234.429 23.1997 234.429 24.1026C234.429 25.0054 234.263 25.8283 233.931 26.5883C233.6 27.354 233.137 28.0112 232.543 28.5655C231.949 29.1197 231.257 29.554 230.457 29.8626C229.657 30.1712 228.789 30.3255 227.851 30.3255V30.3312ZM227.834 27.954C228.371 27.954 228.869 27.8626 229.326 27.6797C229.777 27.4969 230.177 27.234 230.52 26.8855C230.863 26.5369 231.131 26.1312 231.32 25.6626C231.509 25.194 231.606 24.6683 231.606 24.0969C231.606 23.5255 231.509 22.9997 231.32 22.5312C231.131 22.0626 230.869 21.6512 230.526 21.3083C230.189 20.9654 229.789 20.7026 229.331 20.514C228.874 20.3312 228.371 20.2397 227.834 20.2397C227.297 20.2397 226.8 20.3312 226.343 20.514C225.891 20.6969 225.491 20.9597 225.149 21.3083C224.806 21.6512 224.537 22.0626 224.349 22.5312C224.16 22.9997 224.063 23.5255 224.063 24.0969C224.063 24.6683 224.16 25.1769 224.349 25.6569C224.537 26.1312 224.8 26.5426 225.143 26.8855C225.48 27.2283 225.88 27.4912 226.337 27.6797C226.794 27.8626 227.297 27.954 227.834 27.954Z" fill="#272727"/>
<path d="M239.366 30.1256H236.577V18.0742H239.366V30.1256ZM245.046 25.1828H239.16V22.8228H245.046V25.1828ZM244.84 18.0742H247.629V30.1256H244.84V18.0742Z" fill="#272727"/>
<path d="M249.32 32.6227L249.337 27.8513H262.989V32.6227H260.406V30.1255H251.903V32.6227H249.32ZM258.549 28.8855V20.3484H254.417L254.366 22.1027C254.331 22.8513 254.28 23.5541 254.217 24.2227C254.154 24.8913 254.057 25.4913 253.931 26.0398C253.806 26.5884 253.64 27.0456 253.44 27.4227C253.24 27.7998 252.989 28.0684 252.691 28.2341L249.714 27.857C250.126 27.8684 250.469 27.7255 250.737 27.4284C251.006 27.1313 251.223 26.7084 251.383 26.1655C251.543 25.6227 251.663 24.9827 251.737 24.2455C251.811 23.5084 251.869 22.7141 251.903 21.8513L252.04 18.0798H261.303V28.8913H258.549V28.8855Z" fill="#272727"/>
<path d="M80.0454 46.4685V38.6685H82.9654C83.6283 38.6685 84.194 38.777 84.6683 38.9885C85.1426 39.1999 85.5083 39.5027 85.7654 39.9027C86.0226 40.3027 86.1483 40.7827 86.1483 41.3485C86.1483 41.9142 86.0226 42.3713 85.7654 42.7713C85.5083 43.1713 85.1426 43.4742 84.6683 43.6913C84.194 43.9085 83.6226 44.017 82.9654 44.017H80.5026L80.8683 43.6285V46.4799H80.0454V46.4685ZM80.8683 43.6799L80.5026 43.2799H82.9426C83.7197 43.2799 84.314 43.1142 84.7197 42.7713C85.1254 42.4342 85.3254 41.9542 85.3254 41.337C85.3254 40.7199 85.1254 40.2285 84.7197 39.8856C84.314 39.5427 83.7197 39.3713 82.9426 39.3713H80.5026L80.8683 38.9827V43.6742V43.6799Z" fill="#272727"/>
<path d="M88.6627 45.7542H93.3541V46.4685H87.8398V38.6685H93.1884V39.3827H88.6627V45.7542ZM88.5713 42.1542H92.697V42.857H88.5713V42.1542Z" fill="#272727"/>
<path d="M98.5654 46.5371C97.9768 46.5371 97.434 46.44 96.9368 46.24C96.4397 46.04 96.0111 45.7657 95.6454 45.4114C95.2797 45.0571 94.9997 44.6343 94.794 44.1543C94.5883 43.6686 94.4854 43.1429 94.4854 42.5714C94.4854 42 94.5883 41.4743 94.794 40.9886C94.9997 40.5086 95.2854 40.0857 95.6511 39.7314C96.0168 39.3771 96.4511 39.0971 96.9483 38.9029C97.4454 38.7086 97.9883 38.6057 98.5768 38.6057C99.1654 38.6057 99.674 38.7029 100.171 38.8914C100.668 39.08 101.091 39.3657 101.428 39.7429L100.903 40.2686C100.583 39.9429 100.228 39.7029 99.8454 39.56C99.4568 39.4171 99.0454 39.3429 98.5997 39.3429C98.1311 39.3429 97.6968 39.4229 97.2968 39.5829C96.8968 39.7429 96.5483 39.9714 96.2511 40.2629C95.954 40.5543 95.7197 40.8971 95.554 41.2857C95.3883 41.6743 95.3026 42.1029 95.3026 42.5714C95.3026 43.04 95.3883 43.4686 95.554 43.8571C95.7197 44.2457 95.954 44.5886 96.2511 44.88C96.5483 45.1714 96.8968 45.4 97.2968 45.56C97.6968 45.72 98.1311 45.8 98.5997 45.8C99.0683 45.8 99.4626 45.7257 99.8454 45.5771C100.234 45.4286 100.583 45.1886 100.903 44.8629L101.428 45.3886C101.085 45.7657 100.668 46.0514 100.171 46.2457C99.674 46.44 99.1368 46.5371 98.5654 46.5371Z" fill="#272727"/>
<path d="M103.137 46.4685V38.6685H109.703V46.4685H108.891V39.1599L109.103 39.3827H103.743L103.954 39.1599V46.4685H103.143H103.137Z" fill="#272727"/>
<path d="M114.623 45.0628L111.245 38.6686H112.125L115.068 44.3828L114.623 45.0628ZM112.194 45.6971C112.571 45.8457 112.931 45.88 113.263 45.8057C113.594 45.7314 113.903 45.4686 114.188 45.0171L114.565 44.4171L114.645 44.3143L117.634 38.6628H118.457L114.914 45.1943C114.674 45.6457 114.394 45.9828 114.074 46.2057C113.748 46.4286 113.411 46.5486 113.051 46.56C112.691 46.5771 112.331 46.5086 111.965 46.36L112.2 45.6914L112.194 45.6971Z" fill="#272727"/>
<path d="M119.737 46.4685V38.6685H125.44V39.3713H120.548V41.9256H123.103C124.023 41.9256 124.725 42.1142 125.205 42.4856C125.685 42.8627 125.925 43.4113 125.925 44.1427C125.925 44.8742 125.668 45.4685 125.148 45.8685C124.634 46.2685 123.891 46.4685 122.925 46.4685H119.737ZM120.548 45.8113H122.908C123.628 45.8113 124.171 45.6742 124.543 45.3942C124.914 45.1142 125.097 44.7085 125.097 44.177C125.097 43.1142 124.371 42.5827 122.914 42.5827H120.554V45.817L120.548 45.8113Z" fill="#272727"/>
<path d="M127.045 46.5372C126.943 46.5372 126.84 46.5372 126.743 46.52C126.645 46.5029 126.537 46.4858 126.417 46.4572L126.485 45.72C126.611 45.7486 126.737 45.7657 126.851 45.7657C127.183 45.7657 127.457 45.6343 127.657 45.3715C127.863 45.1086 128.017 44.6972 128.12 44.1486C128.223 43.5943 128.291 42.8857 128.32 42.0172L128.434 38.6743H133.725V46.4743H132.914V39.1657L133.125 39.3886H128.96L129.16 39.1543L129.057 41.9943C129.028 42.7772 128.971 43.4457 128.891 44.0172C128.811 44.5886 128.691 45.0572 128.537 45.4343C128.383 45.8115 128.183 46.0857 127.937 46.2686C127.691 46.4515 127.394 46.5429 127.045 46.5429V46.5372Z" fill="#272727"/>
<path d="M136.36 46.4685V38.6685H137.171V45.1313L142.165 38.6685H142.914V46.4685H142.103V40.017L137.108 46.4685H136.36Z" fill="#272727"/>
<path d="M145.543 46.4685V38.6685H146.343V46.4685H145.543ZM146.103 42.8913V42.1656H148.543V42.8913H146.103ZM148.623 42.657L147.863 42.5256L150.771 38.6685H151.663L148.623 42.657ZM150.885 46.4685L147.885 42.577L148.554 42.177L151.828 46.4685H150.88H150.885Z" fill="#272727"/>
<path d="M153.097 46.4685V38.6685H153.908V45.1313L158.903 38.6685H159.651V46.4685H158.84V40.017L153.845 46.4685H153.097Z" fill="#272727"/>
<path d="M165.2 46.4685V38.6685H170.903V39.3713H166.011V41.9256H168.565C169.485 41.9256 170.188 42.1142 170.668 42.4856C171.148 42.8627 171.388 43.4113 171.388 44.1427C171.388 44.8742 171.131 45.4685 170.617 45.8685C170.103 46.2685 169.36 46.4685 168.394 46.4685H165.205H165.2ZM166.011 45.8113H168.371C169.091 45.8113 169.634 45.6742 170.005 45.3942C170.377 45.1142 170.56 44.7085 170.56 44.177C170.56 43.1142 169.834 42.5827 168.377 42.5827H166.017V45.817L166.011 45.8113Z" fill="#272727"/>
<path d="M172.143 46.4685L175.708 38.6685H176.52L180.085 46.4685H179.217L175.943 39.1485H176.274L173 46.4685H172.143ZM173.548 44.3827L173.794 43.7142H178.331L178.577 44.3827H173.554H173.548Z" fill="#272727"/>
<path d="M186.16 45.7542L185.96 45.977V38.6685H186.771V45.977L186.548 45.7542H190.548L190.325 45.977V38.6685H191.137V46.4685H181.577V38.6685H182.388V45.977L182.177 45.7542H186.154H186.16Z" fill="#272727"/>
<path d="M193.771 46.4685V38.6685H194.571V46.4685H193.771ZM194.331 42.8913V42.1656H196.771V42.8913H194.331ZM196.851 42.657L196.091 42.5256L199 38.6685H199.891L196.851 42.657ZM199.114 46.4685L196.114 42.577L196.783 42.177L200.057 46.4685H199.108H199.114Z" fill="#272727"/>
<path d="M204.737 46.5371C204.148 46.5371 203.605 46.44 203.103 46.24C202.6 46.0457 202.165 45.7657 201.8 45.4057C201.434 45.0457 201.148 44.6229 200.943 44.1486C200.737 43.6686 200.634 43.1429 200.634 42.5714C200.634 42 200.737 41.4743 200.943 40.9943C201.148 40.5143 201.434 40.0971 201.8 39.7371C202.165 39.3771 202.6 39.0971 203.097 38.9029C203.594 38.7086 204.143 38.6057 204.737 38.6057C205.331 38.6057 205.868 38.7029 206.365 38.9029C206.863 39.0971 207.297 39.3771 207.663 39.7314C208.028 40.0857 208.314 40.5086 208.52 40.9886C208.725 41.4686 208.828 42 208.828 42.5714C208.828 43.1429 208.725 43.6686 208.52 44.1543C208.314 44.6343 208.028 45.0571 207.663 45.4114C207.297 45.7657 206.863 46.0457 206.365 46.24C205.868 46.4343 205.325 46.5371 204.737 46.5371ZM204.737 45.8C205.205 45.8 205.64 45.72 206.034 45.56C206.434 45.4 206.777 45.1714 207.068 44.88C207.36 44.5886 207.588 44.2457 207.754 43.8571C207.92 43.4686 208 43.04 208 42.5714C208 42.1029 207.92 41.6743 207.754 41.2857C207.588 40.8971 207.36 40.5543 207.068 40.2629C206.777 39.9714 206.428 39.7429 206.034 39.5829C205.634 39.4229 205.205 39.3429 204.737 39.3429C204.268 39.3429 203.834 39.4229 203.434 39.5829C203.034 39.7429 202.685 39.9714 202.394 40.2629C202.103 40.5543 201.868 40.8971 201.703 41.2857C201.537 41.6743 201.451 42.1029 201.451 42.5714C201.451 43.04 201.537 43.4571 201.703 43.8514C201.868 44.2457 202.103 44.5886 202.394 44.88C202.685 45.1714 203.034 45.4 203.434 45.56C203.834 45.72 204.268 45.8 204.737 45.8Z" fill="#272727"/>
<path d="M210.794 46.4685V38.6685H213.714C214.377 38.6685 214.943 38.777 215.417 38.9885C215.891 39.1999 216.257 39.5027 216.514 39.9027C216.771 40.3027 216.897 40.7827 216.897 41.3485C216.897 41.9142 216.771 42.3713 216.514 42.7713C216.257 43.1713 215.891 43.4742 215.417 43.6913C214.943 43.9085 214.371 44.017 213.714 44.017H211.251L211.617 43.6285V46.4799H210.794V46.4685ZM211.617 43.6799L211.251 43.2799H213.691C214.474 43.2799 215.063 43.1142 215.468 42.7713C215.874 42.4342 216.074 41.9542 216.074 41.337C216.074 40.7199 215.874 40.2285 215.468 39.8856C215.063 39.5427 214.468 39.3713 213.691 39.3713H211.251L211.617 38.9827V43.6742V43.6799Z" fill="#272727"/>
<path d="M219.88 46.4685V39.1599L220.103 39.3827H217.137V38.6685H223.434V39.3827H220.48L220.691 39.1599V46.4685H219.88Z" fill="#272727"/>
<path d="M228.188 46.5371C227.6 46.5371 227.057 46.44 226.554 46.24C226.051 46.0457 225.617 45.7657 225.251 45.4057C224.885 45.0457 224.6 44.6229 224.394 44.1486C224.188 43.6686 224.085 43.1429 224.085 42.5714C224.085 42 224.188 41.4743 224.394 40.9943C224.6 40.5143 224.885 40.0971 225.251 39.7371C225.617 39.3771 226.051 39.0971 226.548 38.9029C227.045 38.7086 227.594 38.6057 228.188 38.6057C228.783 38.6057 229.32 38.7029 229.817 38.9029C230.314 39.0971 230.748 39.3771 231.114 39.7314C231.48 40.0857 231.765 40.5086 231.971 40.9886C232.177 41.4686 232.28 42 232.28 42.5714C232.28 43.1429 232.177 43.6686 231.971 44.1543C231.765 44.6343 231.48 45.0571 231.114 45.4114C230.748 45.7657 230.314 46.0457 229.817 46.24C229.32 46.4343 228.777 46.5371 228.188 46.5371ZM228.188 45.8C228.657 45.8 229.091 45.72 229.485 45.56C229.885 45.4 230.228 45.1714 230.52 44.88C230.811 44.5886 231.04 44.2457 231.205 43.8571C231.371 43.4686 231.451 43.04 231.451 42.5714C231.451 42.1029 231.371 41.6743 231.205 41.2857C231.04 40.8971 230.811 40.5543 230.52 40.2629C230.228 39.9714 229.88 39.7429 229.485 39.5829C229.085 39.4229 228.657 39.3429 228.188 39.3429C227.72 39.3429 227.285 39.4229 226.885 39.5829C226.485 39.7429 226.137 39.9714 225.845 40.2629C225.554 40.5543 225.32 40.8971 225.154 41.2857C224.988 41.6743 224.903 42.1029 224.903 42.5714C224.903 43.04 224.988 43.4571 225.154 43.8514C225.32 44.2457 225.554 44.5886 225.845 44.88C226.137 45.1714 226.485 45.4 226.885 45.56C227.285 45.72 227.72 45.8 228.188 45.8Z" fill="#272727"/>
<path d="M237.663 46.5371C237.074 46.5371 236.531 46.44 236.034 46.24C235.537 46.04 235.108 45.7657 234.743 45.4114C234.377 45.0571 234.097 44.6343 233.891 44.1543C233.685 43.6686 233.583 43.1429 233.583 42.5714C233.583 42 233.685 41.4743 233.891 40.9886C234.097 40.5029 234.383 40.0857 234.748 39.7314C235.114 39.3771 235.548 39.0971 236.045 38.9029C236.543 38.7086 237.085 38.6057 237.674 38.6057C238.263 38.6057 238.771 38.7029 239.268 38.8914C239.765 39.08 240.188 39.3657 240.525 39.7429L240 40.2686C239.68 39.9429 239.325 39.7029 238.943 39.56C238.554 39.4171 238.143 39.3429 237.697 39.3429C237.228 39.3429 236.794 39.4229 236.394 39.5829C235.994 39.7429 235.645 39.9714 235.348 40.2629C235.051 40.5543 234.817 40.8971 234.651 41.2857C234.485 41.6743 234.4 42.1029 234.4 42.5714C234.4 43.04 234.485 43.4686 234.651 43.8571C234.817 44.2457 235.051 44.5886 235.348 44.88C235.645 45.1714 235.994 45.4 236.394 45.56C236.794 45.72 237.228 45.8 237.697 45.8C238.165 45.8 238.56 45.7257 238.943 45.5771C239.331 45.4286 239.68 45.1886 240 44.8629L240.525 45.3886C240.183 45.7657 239.765 46.0514 239.268 46.2457C238.771 46.44 238.234 46.5371 237.663 46.5371Z" fill="#272727"/>
<path d="M243.68 46.4685V39.1599L243.903 39.3827H240.937V38.6685H247.234V39.3827H244.28L244.491 39.1599V46.4685H243.68Z" fill="#272727"/>
<path d="M247.143 46.4685L250.708 38.6685H251.52L255.085 46.4685H254.217L250.943 39.1485H251.274L248 46.4685H247.143ZM248.548 44.3827L248.794 43.7142H253.331L253.577 44.3827H248.554H248.548Z" fill="#272727"/>
<path d="M257.405 46.4685H256.583V38.6685H257.405V46.4685ZM262.365 42.8685H257.32V42.1427H262.365V42.8685ZM262.285 38.6685H263.097V46.4685H262.285V38.6685Z" fill="#272727"/>
<defs>
<linearGradient id="paint0_linear_396_2827" x1="28.1543" y1="6.90849" x2="16.1943" y2="42.7999" gradientUnits="userSpaceOnUse">
<stop stop-color="#1862E5"/>
<stop offset="1" stop-color="#0000FF"/>
</linearGradient>
<linearGradient id="paint1_linear_396_2827" x1="48.4229" y1="10.9657" x2="37.9201" y2="25.4057" gradientUnits="userSpaceOnUse">
<stop stop-color="#FEA31B"/>
<stop offset="1" stop-color="#F7931E"/>
</linearGradient>
<linearGradient id="paint2_linear_396_2827" x1="23.8629" y1="31.8513" x2="45.4115" y2="31.8513" gradientUnits="userSpaceOnUse">
<stop stop-color="#FEA31B"/>
<stop offset="1" stop-color="#F7931E"/>
</linearGradient>
<linearGradient id="paint3_linear_396_2827" x1="35.5486" y1="8.58864" x2="24.7486" y2="42.1086" gradientUnits="userSpaceOnUse">
<stop stop-color="#1862E5"/>
<stop offset="1" stop-color="#0000FF"/>
</linearGradient>
</defs>
</svg>
