<svg width="41" height="40" viewBox="0 0 41 40" fill="none" xmlns="http://www.w3.org/2000/svg">
<g clip-path="url(#clip0_26_3800)">
<path d="M40.6588 19.1325C40.6588 16.0643 38.1619 13.5592 35.0856 13.5592H26.4687V7.34954C26.4687 4.72204 25.7017 2.82893 24.1839 1.71918C21.7849 -0.0433655 18.4883 0.960307 18.3496 1.00927C17.9334 1.13983 17.6478 1.52334 17.6478 1.96398V8.94072C17.6478 14.4324 11.2749 16.301 11.0056 16.3826C10.924 16.4071 10.8506 16.4315 10.7853 16.4723C10.312 15.5258 9.33284 14.873 8.20677 14.873H3.53929C1.95626 14.873 0.666992 16.1623 0.666992 17.7453V34.7098C0.666992 36.2928 1.95626 37.5821 3.53929 37.5821H6.24023C6.7951 37.5821 7.2439 37.1333 7.2439 36.5784C7.2439 36.0235 6.78694 35.5829 6.24023 35.5829H3.53929C3.05785 35.5829 2.66618 35.1912 2.66618 34.7098V17.7453C2.66618 17.2639 3.05785 16.8722 3.53929 16.8722H8.21493C8.69637 16.8722 9.08804 17.2639 9.08804 17.7453V33.7469C9.08804 36.8151 11.585 39.3202 14.6613 39.3202H31.7319C35.5181 39.3202 37.9253 37.3373 38.3496 33.9101L40.6507 19.467C40.6588 19.4181 40.667 19.361 40.667 19.312V19.1325H40.6588ZM38.6596 19.2222L36.3667 33.6245C36.0648 36.0725 34.5062 37.321 31.7319 37.321H14.6613C12.6947 37.321 11.0872 35.7216 11.0872 33.7469V18.3165C11.2341 18.3491 11.3891 18.341 11.5442 18.3002C11.8787 18.2104 19.647 15.9583 19.647 8.93256V2.76365C20.4956 2.63309 21.9481 2.55965 23.0007 3.32669C23.9718 4.04476 24.4695 5.39115 24.4695 7.34954V14.5629C24.4695 15.1178 24.9183 15.5666 25.4732 15.5666H35.0938C37.0603 15.5666 38.6678 17.1659 38.6678 19.1406V19.2222H38.6596Z" fill="#3C3C3C"/>
</g>
<defs>
<clipPath id="clip0_26_3800">
<rect width="40" height="40" fill="white" transform="translate(0.666992)"/>
</clipPath>
</defs>
</svg>
