<svg width="41" height="40" viewBox="0 0 41 40" fill="none" xmlns="http://www.w3.org/2000/svg">
<g clip-path="url(#clip0_26_3803)">
<path d="M20.3213 7.9707C15.706 7.9707 11.958 11.7268 11.958 16.334C11.958 20.9412 15.706 24.7056 20.3213 24.7056C24.9367 24.7056 28.6847 20.9494 28.6847 16.3422C28.6847 11.735 24.9367 7.9707 20.3213 7.9707ZM20.3213 22.7007C16.8107 22.7007 13.9629 19.8447 13.9629 16.3422C13.9629 12.8398 16.8189 9.9838 20.3213 9.9838C23.8238 9.9838 26.6798 12.8398 26.6798 16.3422C26.6798 19.8447 23.832 22.7007 20.3213 22.7007Z" fill="#3C3C3C"/>
<path d="M20.3211 0C20.1329 0 19.9365 0 19.7483 0.00818331C11.6796 0.286416 5.01018 6.55483 4.24095 14.5827C4.09365 16.1375 4.1673 17.7005 4.45371 19.1899C4.45371 19.1899 4.47826 19.3781 4.56828 19.73C4.81378 20.8347 5.18203 21.9067 5.64848 22.9051C7.30969 26.8412 10.9513 32.9051 18.8563 39.4681C19.2737 39.8118 19.7974 40 20.3375 40C20.8776 40 21.4013 39.8118 21.8187 39.4681C29.7156 32.9133 33.3572 26.8412 35.0102 22.9378C35.4848 21.9149 35.8531 20.8347 36.0986 19.7381C36.1477 19.5417 36.1804 19.3781 36.2049 19.2226C36.4013 18.216 36.4995 17.1849 36.4995 16.1538C36.4832 7.25041 29.2328 0 20.3211 0ZM34.2164 18.8789C34.2164 18.8953 34.1918 19.0344 34.1346 19.2881C33.9136 20.2537 33.5945 21.1948 33.1689 22.1277C31.5896 25.8592 28.1198 31.6285 20.5339 37.9214C20.4603 37.9787 20.3866 37.9951 20.3293 37.9951C20.2802 37.9951 20.1984 37.9787 20.1247 37.9214C12.5388 31.6203 9.06091 25.8511 7.47335 22.0949C7.056 21.1948 6.73686 20.2537 6.51591 19.2799C6.46681 19.0671 6.44226 18.9362 6.43407 18.8953C6.43407 18.8789 6.42589 18.8625 6.42589 18.8462C6.17221 17.5123 6.10674 16.1375 6.23767 14.7791C6.91689 7.74959 12.7516 2.25859 19.822 2.01309C27.8498 1.73486 34.4783 8.18331 34.4783 16.162C34.4783 17.0622 34.3882 17.9624 34.2164 18.8789Z" fill="#3C3C3C"/>
</g>
<defs>
<clipPath id="clip0_26_3803">
<rect width="40" height="40" fill="white" transform="translate(0.333008)"/>
</clipPath>
</defs>
</svg>
