<svg width="24" height="22" viewBox="0 0 24 22" fill="none" xmlns="http://www.w3.org/2000/svg">
<path d="M23.0354 5.50902C22.4257 4.26172 21.5294 3.20506 20.3715 2.36844C18.3189 0.885453 15.4241 0.101562 12 0.101562C8.57592 0.101562 5.68111 0.885406 3.62855 2.36844C2.47064 3.20506 1.57434 4.26172 0.964594 5.50902C0.324562 6.81833 0 8.34242 0 10.0391C0 13.7086 1.51336 16.5159 4.3882 18.2045C3.99052 19.6075 3.47452 20.4577 3.46988 20.4653L2.58005 21.896L4.26544 21.8984H4.27031C4.27514 21.8984 4.28006 21.8984 4.28527 21.8984C4.81716 21.8984 7.25742 21.7837 9.24159 19.7933C10.1163 19.915 11.0418 19.9766 12 19.9766C15.4241 19.9766 18.3189 19.1927 20.3715 17.7097C21.5294 16.873 22.4257 15.8164 23.0354 14.5691C23.6754 13.2598 24 11.7357 24 10.0391C24 8.34242 23.6754 6.81828 23.0354 5.50902ZM19.2733 16.1899C17.5424 17.4405 15.0273 18.1016 12 18.1016C10.9598 18.1016 9.96727 18.0226 9.04992 17.8668L8.52792 17.7781L8.1825 18.1794C7.44028 19.0414 6.58341 19.5017 5.856 19.7468C6.04491 19.2372 6.2362 18.6256 6.39056 17.9287L6.5497 17.2106L5.89003 16.8852C3.22584 15.5711 1.875 13.2677 1.875 10.0391C1.875 7.32486 2.83444 5.25542 4.72669 3.88827C6.45759 2.63764 8.97267 1.97656 12 1.97656C15.0273 1.97656 17.5424 2.63759 19.2733 3.88827C21.1656 5.25542 22.125 7.32491 22.125 10.0391C22.125 12.7532 21.1656 14.8227 19.2733 16.1899Z" fill="#E43228"/>
</svg>
