<svg width="18" height="18" viewBox="0 0 18 18" fill="none" xmlns="http://www.w3.org/2000/svg">
<path d="M17.2766 4.88176C16.8192 3.94629 16.147 3.1538 15.2786 2.52633C13.7392 1.41409 11.5681 0.826172 9 0.826172C6.43194 0.826172 4.26083 1.41405 2.72141 2.52633C1.85298 3.1538 1.18076 3.94629 0.723445 4.88176C0.243422 5.86375 0 7.00682 0 8.2793C0 11.0315 1.13502 13.1369 3.29115 14.4033C2.99289 15.4556 2.60589 16.0933 2.60241 16.099L1.93504 17.172L3.19908 17.1738H3.20273C3.20636 17.1738 3.21005 17.1738 3.21395 17.1738C3.61287 17.1738 5.44307 17.0878 6.9312 15.595C7.58721 15.6863 8.28134 15.7324 9 15.7324C11.5681 15.7324 13.7392 15.1445 15.2786 14.0323C16.147 13.4048 16.8192 12.6123 17.2766 11.6768C17.7566 10.6948 18 9.55178 18 8.2793C18 7.00682 17.7566 5.86371 17.2766 4.88176ZM14.455 12.8924C13.1568 13.8304 11.2705 14.3262 9 14.3262C8.21985 14.3262 7.47545 14.2669 6.78744 14.1501L6.39594 14.0836L6.13688 14.3845C5.58021 15.0311 4.93755 15.3763 4.392 15.5601C4.53368 15.1779 4.67715 14.7192 4.79292 14.1966L4.91228 13.6579L4.41752 13.4139C2.41938 12.4283 1.40625 10.7008 1.40625 8.2793C1.40625 6.24364 2.12583 4.69157 3.54502 3.6662C4.8432 2.72823 6.7295 2.23242 9 2.23242C11.2705 2.23242 13.1568 2.7282 14.455 3.6662C15.8742 4.69157 16.5938 6.24368 16.5938 8.2793C16.5938 10.3149 15.8742 11.867 14.455 12.8924Z" fill="#25252E"/>
</svg>
