<svg width="16" height="17" viewBox="0 0 16 17" fill="none" xmlns="http://www.w3.org/2000/svg">
<g clip-path="url(#clip0_143_2216)">
<path d="M7.99524 3.6882C6.14908 3.6882 4.6499 5.19066 4.6499 7.03354C4.6499 8.87642 6.14908 10.3821 7.99524 10.3821C9.84139 10.3821 11.3406 8.87969 11.3406 7.03681C11.3406 5.19393 9.84139 3.6882 7.99524 3.6882ZM7.99524 9.58018C6.59098 9.58018 5.45187 8.43779 5.45187 7.03681C5.45187 5.63583 6.59426 4.49344 7.99524 4.49344C9.39622 4.49344 10.5386 5.63583 10.5386 7.03681C10.5386 8.43779 9.39949 9.58018 7.99524 9.58018Z" fill="white"/>
<path d="M7.99535 0.5C7.92007 0.5 7.84151 0.5 7.76622 0.503273C4.53872 0.614566 1.87097 3.12193 1.56327 6.33306C1.50435 6.95499 1.53381 7.5802 1.64838 8.17594C1.64838 8.17594 1.6582 8.25123 1.69421 8.39198C1.79241 8.83388 1.93971 9.26268 2.12629 9.66203C2.79077 11.2365 4.2474 13.662 7.40943 16.2872C7.57637 16.4247 7.78586 16.5 8.0019 16.5C8.21794 16.5 8.42743 16.4247 8.59437 16.2872C11.7531 13.6653 13.2098 11.2365 13.871 9.67512C14.0608 9.26596 14.2081 8.83388 14.3063 8.39525C14.326 8.31669 14.3391 8.25123 14.3489 8.18903C14.4274 7.78642 14.4667 7.37398 14.4667 6.96154C14.4602 3.40016 11.56 0.5 7.99535 0.5ZM13.5535 8.05155C13.5535 8.0581 13.5436 8.11375 13.5207 8.21522C13.4323 8.60147 13.3047 8.97791 13.1345 9.35106C12.5027 10.8437 11.1148 13.1514 8.08046 15.6686C8.051 15.6915 8.02154 15.698 7.99863 15.698C7.97899 15.698 7.94625 15.6915 7.91679 15.6686C4.88242 13.1481 3.49126 10.8404 2.85624 9.33797C2.6893 8.97791 2.56164 8.60147 2.47326 8.21195C2.45362 8.12684 2.4438 8.07447 2.44052 8.0581C2.44052 8.05155 2.43725 8.04501 2.43725 8.03846C2.33578 7.50491 2.30959 6.95499 2.36196 6.41162C2.63365 3.59984 4.96753 1.40344 7.79568 1.30524C11.0068 1.19394 13.6582 3.77332 13.6582 6.96481C13.6582 7.32488 13.6222 7.68494 13.5535 8.05155Z" fill="white"/>
</g>
<defs>
<clipPath id="clip0_143_2216">
<rect width="16" height="16" fill="white" transform="translate(0 0.5)"/>
</clipPath>
</defs>
</svg>
