<?xml version="1.0" encoding="utf-8"?>
<!-- Generator: Adobe Illustrator 26.0.1, SVG Export Plug-In . SVG Version: 6.00 Build 0)  -->
<svg version="1.1" id="Слой_1" xmlns="http://www.w3.org/2000/svg" xmlns:xlink="http://www.w3.org/1999/xlink" x="0px" y="0px"
	 viewBox="0 0 562.5 231.7" style="enable-background:new 0 0 562.5 231.7;" xml:space="preserve">
<style type="text/css">
	.st0{fill:#E43228;}
	.st1{fill:#FFFFFF;}
</style>
<polygon class="st0" points="503.7,231.7 0,231.7 58.8,0 562.5,0 "/>
<g>
	<path class="st1" d="M82.8,174.7l31.5-117.6h93.4c4.5,0,8.2,1.1,11.3,3.3c3.1,2.2,5.2,5.1,6.5,8.8c1.2,3.7,1.3,7.7,0.1,12.1
		l-8.1,30.4c-1.2,4.4-3.4,8.4-6.6,12.1c-3.2,3.7-7,6.7-11.2,8.8c-4.2,2.2-8.6,3.3-13.1,3.3l-68.1,0.2l-10.3,38.6H82.8z M192.1,110.4
		l7.5-28h-66.7l-7.5,28H192.1z"/>
	<path class="st1" d="M252.4,174.7l24.7-92.2H231l6.8-25.5h117.7l-6.8,25.5h-46.1l-24.7,92.2H252.4z"/>
	<path class="st1" d="M360.2,174.7c-4.4,0-8.1-1.1-11.2-3.3c-3.1-2.2-5.3-5.1-6.5-8.8c-1.2-3.7-1.2-7.7,0-12.1l2.9-11h25.3l-2.6,9.6
		h66.7l5.5-20.6h-67.9c-4.4,0-8.1-1.1-11.2-3.3c-3.1-2.2-5.3-5.1-6.5-8.7c-1.2-3.6-1.2-7.7,0-12.2l6.2-23.2
		c1.2-4.5,3.4-8.5,6.5-12.2c3.2-3.7,6.9-6.6,11.2-8.7c4.3-2.2,8.6-3.3,13-3.3h69.3c4.4,0,8.1,1.1,11.1,3.3c3.1,2.2,5.2,5.1,6.5,8.7
		c1.3,3.7,1.3,7.7,0.1,12.2l-2.9,11h-25.7l2.6-9.6H386l-5.5,20.6h68.2c4.4,0,8.1,1.1,11.1,3.3c3.1,2.2,5.2,5.1,6.5,8.7
		c1.3,3.7,1.3,7.7,0.1,12.2l-6.2,23.2c-1.2,4.4-3.4,8.4-6.6,12.1c-3.2,3.7-7,6.7-11.2,8.8c-4.2,2.2-8.5,3.3-12.9,3.3H360.2z"/>
</g>
</svg>
