<svg width="28" height="28" viewBox="0 0 28 28" fill="none" xmlns="http://www.w3.org/2000/svg">
<path d="M22.9022 18.2989C23.7531 17.6597 24.3694 16.7858 24.6851 15.7707L28 5.95678H6.6903L6.4552 3.34983C6.37432 2.43294 5.95591 1.58555 5.27707 0.963977C4.59818 0.342398 3.71738 0 2.79688 0H0V2.18597H2.79688C3.57284 2.18597 4.20946 2.76888 4.27782 3.54408L5.9885 22.5123C5.98877 22.5157 5.9891 22.519 5.98943 22.5224C6.15617 24.197 7.41349 25.5052 9.01994 25.7777C9.44831 27.0563 10.6566 27.9805 12.0775 27.9805C13.4718 27.9805 14.662 27.0906 15.1107 25.8491H17.6788C18.1275 27.0906 19.3176 27.9805 20.712 27.9805C22.4899 27.9805 23.9363 26.534 23.9363 24.7562C23.9363 22.9783 22.4899 21.5318 20.712 21.5318C19.3176 21.5318 18.1275 22.4217 17.6788 23.6632H15.1107C14.662 22.4217 13.4718 21.5318 12.0775 21.5318C10.7297 21.5318 9.57321 22.3633 9.09207 23.5399C8.59119 23.341 8.2233 22.8779 8.16512 22.3103L7.89283 19.2912H19.9469C21.0161 19.2912 22.038 18.9481 22.9022 18.2989ZM20.7121 23.7179C21.2847 23.7179 21.7505 24.1836 21.7505 24.7562C21.7505 25.3288 21.2847 25.7946 20.7121 25.7946C20.1395 25.7946 19.6738 25.3288 19.6738 24.7562C19.6738 24.1836 20.1395 23.7179 20.7121 23.7179ZM12.0775 23.7179C12.6501 23.7179 13.1159 24.1836 13.1159 24.7562C13.1159 25.3288 12.6501 25.7946 12.0775 25.7946C11.5049 25.7946 11.0392 25.3288 11.0392 24.7562C11.0392 24.1836 11.5049 23.7179 12.0775 23.7179ZM7.69573 17.1053V17.1053L6.8874 8.14275H24.9543L22.6096 15.0843L22.6004 15.1127C22.2395 16.2859 21.1484 17.1053 19.947 17.1053H7.69573Z" fill="#E43228"/>
</svg>
