<svg width="18" height="18" viewBox="0 0 18 18" fill="none" xmlns="http://www.w3.org/2000/svg">
<path d="M14.7228 11.7636C15.2698 11.3527 15.666 10.7909 15.869 10.1383L18 3.82936H4.30091L4.14977 2.15346C4.09778 1.56403 3.8288 1.01929 3.3924 0.619699C2.95597 0.220113 2.38975 0 1.798 0H0V1.40527H1.798C2.29683 1.40527 2.70608 1.78 2.75003 2.27834L3.84975 14.4722C3.84993 14.4744 3.85014 14.4765 3.85035 14.4787C3.95754 15.5552 4.76582 16.3962 5.79853 16.5714C6.07391 17.3933 6.85065 17.9874 7.76408 17.9874C8.66046 17.9874 9.42557 17.4154 9.71402 16.6173H11.3649C11.6534 17.4154 12.4185 17.9874 13.3149 17.9874C14.4578 17.9874 15.3876 17.0576 15.3876 15.9147C15.3876 14.7718 14.4578 13.8419 13.3149 13.8419C12.4185 13.8419 11.6534 14.414 11.3649 15.212H9.71402C9.42557 14.414 8.66046 13.8419 7.76408 13.8419C6.89769 13.8419 6.15421 14.3764 5.8449 15.1328C5.52291 15.0049 5.28641 14.7072 5.249 14.3423L5.07396 12.4015H12.823C13.5103 12.4015 14.1673 12.1809 14.7228 11.7636ZM13.3149 15.2472C13.683 15.2472 13.9824 15.5466 13.9824 15.9147C13.9824 16.2828 13.683 16.5822 13.3149 16.5822C12.9469 16.5822 12.6474 16.2828 12.6474 15.9147C12.6474 15.5466 12.9469 15.2472 13.3149 15.2472ZM7.76412 15.2472C8.1322 15.2472 8.43163 15.5466 8.43163 15.9147C8.43163 16.2828 8.1322 16.5822 7.76412 16.5822C7.39603 16.5822 7.09661 16.2828 7.09661 15.9147C7.09661 15.5466 7.39603 15.2472 7.76412 15.2472ZM4.94726 10.9963V10.9962L4.42761 5.23463H16.042L14.5347 9.69708L14.5288 9.71532C14.2968 10.4695 13.5954 10.9963 12.8231 10.9963H4.94726Z" fill="#25252E"/>
</svg>
