<svg width="18" height="18" viewBox="0 0 18 18" fill="none" xmlns="http://www.w3.org/2000/svg">
<path d="M0.876383 2.34994L3.23445 0L8.13156 4.88899L6.23309 6.84966C6.55126 7.41447 7.24158 8.49641 8.41809 9.67287C9.59473 10.8496 10.6846 11.5478 11.2548 11.871L13.177 9.97328L17.9976 14.7652L15.6524 17.1261C14.756 18.0225 13.3919 18.2548 12.2582 17.7042C10.5282 16.864 7.91725 15.3136 5.303 12.6993C2.68882 10.0851 1.13847 7.47417 0.29817 5.74413C0.0990791 5.33421 0.00236511 4.89423 0.00236511 4.4571C0.00236511 3.68521 0.304039 2.92225 0.876383 2.34994ZM1.56214 5.13017C2.35533 6.76328 3.82057 9.22969 6.29662 11.7057C8.77274 14.1819 11.2391 15.6471 12.8722 16.4402C13.4675 16.7294 14.1856 16.6057 14.6572 16.1341L16.0108 14.7715L13.1735 11.9512L11.5359 13.5678L11.0978 13.3727C11.0266 13.341 9.33218 12.5743 7.4244 10.6665C5.51535 8.75744 4.76455 7.07733 4.73354 7.0067L4.54356 6.57445L6.15941 4.90569L3.23346 1.98457L1.86926 3.34402C1.39659 3.8174 1.27308 4.53511 1.56214 5.13017Z" fill="#E43228"/>
</svg>
