<svg width="16" height="18" viewBox="0 0 16 18" fill="none" xmlns="http://www.w3.org/2000/svg">
<path d="M8 0C4.02379 0 0.788925 3.2349 0.788925 7.21107V7.41041C0.788925 9.42135 1.94184 11.7647 4.21575 14.3753C5.86415 16.2679 7.48953 17.5875 7.55787 17.6427L8 18L8.44212 17.6428C8.5105 17.5875 10.1359 16.2679 11.7843 14.3754C14.0581 11.7647 15.2111 9.42138 15.2111 7.41045V7.21111C15.2111 3.2349 11.9762 0 8 0ZM13.804 7.41045C13.804 10.8088 9.4253 14.9226 8 16.1715C6.57431 14.9222 2.19595 10.8086 2.19595 7.41045V7.21111C2.19595 4.01077 4.79966 1.40706 8 1.40706C11.2003 1.40706 13.804 4.01077 13.804 7.21111V7.41045Z" fill="#E43228"/>
</svg>
