<svg width="18" height="18" viewBox="0 0 18 18" fill="none" xmlns="http://www.w3.org/2000/svg">
<path d="M9 3.86937C7.15739 3.86937 5.65829 5.36846 5.65829 7.21107C5.65829 9.05368 7.15739 10.5528 9 10.5528C10.8426 10.5528 12.3417 9.05368 12.3417 7.21107C12.3417 5.36846 10.8426 3.86937 9 3.86937ZM9 9.14576C7.93322 9.14576 7.06532 8.27786 7.06532 7.21107C7.06532 6.14429 7.93322 5.27639 9 5.27639C10.0668 5.27639 10.9347 6.14429 10.9347 7.21107C10.9347 8.27786 10.0668 9.14576 9 9.14576Z" fill="#E43228"/>
<path d="M9 0C5.02379 0 1.78893 3.2349 1.78893 7.21107V7.41041C1.78893 9.42135 2.94184 11.7647 5.21575 14.3753C6.86415 16.2679 8.48953 17.5875 8.55787 17.6427L9 18L9.44212 17.6428C9.5105 17.5875 11.1359 16.2679 12.7843 14.3754C15.0581 11.7647 16.2111 9.42138 16.2111 7.41045V7.21111C16.2111 3.2349 12.9762 0 9 0ZM14.804 7.41045C14.804 10.8088 10.4253 14.9226 9 16.1715C7.57431 14.9222 3.19595 10.8086 3.19595 7.41045V7.21111C3.19595 4.01077 5.79966 1.40706 9 1.40706C12.2003 1.40706 14.804 4.01077 14.804 7.21111V7.41045Z" fill="#E43228"/>
</svg>
