<svg width="28" height="28" viewBox="0 0 28 28" fill="none" xmlns="http://www.w3.org/2000/svg">
<g clip-path="url(#clip0_867_1413)">
<path d="M17.0655 0C11.0363 0 6.13106 4.9052 6.13106 10.9345C6.13106 13.5562 7.05885 15.965 8.60286 17.8508L0 26.4536L1.54635 28L10.1492 19.3971C12.035 20.9411 14.4438 21.8689 17.0655 21.8689C23.0948 21.8689 28 16.9637 28 10.9345C28 4.9052 23.0948 0 17.0655 0V0ZM17.0655 19.682C12.2421 19.682 8.31796 15.7579 8.31796 10.9345C8.31796 6.11105 12.2421 2.18689 17.0655 2.18689C21.8889 2.18689 25.8131 6.11105 25.8131 10.9345C25.8131 15.7579 21.8889 19.682 17.0655 19.682Z" fill="white"/>
</g>
<defs>
<clipPath id="clip0_867_1413">
<rect width="28" height="28" fill="white"/>
</clipPath>
</defs>
</svg>
