<svg width="18" height="18" viewBox="0 0 18 18" fill="none" xmlns="http://www.w3.org/2000/svg">
<path d="M10.9707 0C7.09474 0 3.9414 3.15334 3.9414 7.0293C3.9414 8.71468 4.53784 10.2632 5.53041 11.4755L0 17.0059L0.994084 18L6.52449 12.4696C7.73676 13.4622 9.28532 14.0586 10.9707 14.0586C14.8467 14.0586 18 10.9053 18 7.0293C18 3.15334 14.8467 0 10.9707 0V0ZM10.9707 12.6527C7.86993 12.6527 5.34726 10.1301 5.34726 7.0293C5.34726 3.92854 7.86993 1.40586 10.9707 1.40586C14.0715 1.40586 16.5941 3.92854 16.5941 7.0293C16.5941 10.1301 14.0715 12.6527 10.9707 12.6527Z" fill="#25252E"/>
</svg>
