<svg width="64" height="64" viewBox="0 0 64 64" fill="none" xmlns="http://www.w3.org/2000/svg">
<rect width="62.8571" height="62.8571" transform="translate(0.570801 0.572052)"/>
<path d="M19.2228 39.0606C23.4499 44.1136 28.5384 48.092 34.3462 50.9071C36.5575 51.955 39.5147 53.1983 42.8093 53.4114C43.0136 53.4203 43.209 53.4292 43.4132 53.4292C45.6244 53.4292 47.4005 52.6655 48.848 51.0936C48.8569 51.0847 48.8747 51.067 48.8836 51.0492C49.3986 50.4276 49.9847 49.8681 50.5975 49.2731C51.0149 48.8735 51.4411 48.4561 51.8496 48.0299C53.7412 46.0584 53.7412 43.5541 51.8319 41.6448L46.4947 36.3076C45.5889 35.3663 44.5055 34.869 43.3688 34.869C42.2321 34.869 41.1398 35.3663 40.2074 36.2988L37.0281 39.478C36.7351 39.3092 36.4332 39.1583 36.149 39.0162C35.7938 38.8386 35.4652 38.6699 35.1721 38.4834C32.2771 36.6451 29.6485 34.2474 27.1353 31.1659C25.8654 29.5585 25.0129 28.2087 24.4179 26.8322C25.2526 26.0774 26.0341 25.287 26.789 24.5144C27.0554 24.2391 27.3307 23.9638 27.606 23.6885C28.5651 22.7294 29.0801 21.6194 29.0801 20.4915C29.0801 19.3637 28.5739 18.2537 27.606 17.2946L24.9596 14.6482C24.6488 14.3374 24.3557 14.0354 24.0538 13.7246C23.4677 13.1207 22.8549 12.4991 22.251 11.9396C21.3364 11.0427 20.2618 10.5721 19.1251 10.5721C17.9973 10.5721 16.9139 11.0427 15.9637 11.9485L12.6424 15.2698C11.4346 16.4776 10.7508 17.9428 10.6088 19.639C10.44 21.7614 10.8308 24.0171 11.8431 26.7434C13.3972 30.9616 15.7417 34.8779 19.2228 39.0606ZM12.7756 19.8255C12.8822 18.6444 13.3351 17.6587 14.1876 16.8061L17.4911 13.5026C18.0062 13.0053 18.5745 12.7478 19.1251 12.7478C19.6668 12.7478 20.2174 13.0053 20.7236 13.5204C21.3186 14.071 21.8781 14.6482 22.4819 15.2609C22.7839 15.5718 23.0947 15.8826 23.4055 16.2023L26.0519 18.8486C26.6025 19.3992 26.8867 19.9587 26.8867 20.5093C26.8867 21.0599 26.6025 21.6194 26.0519 22.1699C25.7766 22.4452 25.5013 22.7294 25.226 23.0047C24.4001 23.8395 23.6275 24.6298 22.775 25.3847L22.7306 25.4291C21.9935 26.1662 22.109 26.8677 22.2866 27.4005C22.2955 27.4272 22.3043 27.4449 22.3132 27.4716C22.997 29.1145 23.9472 30.6774 25.4303 32.5423C28.0944 35.8281 30.9006 38.3768 33.991 40.3394C34.3729 40.588 34.7814 40.7834 35.1632 40.9788C35.5185 41.1564 35.847 41.3251 36.1401 41.5116C36.1756 41.5294 36.2023 41.5471 36.2378 41.5649C36.5308 41.7159 36.815 41.7869 37.0992 41.7869C37.8096 41.7869 38.2714 41.334 38.4224 41.183L41.7437 37.8617C42.2587 37.3467 42.8182 37.0714 43.3688 37.0714C44.0437 37.0714 44.5943 37.4888 44.9406 37.8617L50.2956 43.2078C51.3612 44.2734 51.3523 45.4279 50.2689 46.5557C49.8959 46.9553 49.5052 47.3372 49.0878 47.7368C48.4662 48.3407 47.8179 48.9623 47.2318 49.6639C46.2105 50.7651 44.9939 51.2801 43.4221 51.2801C43.2711 51.2801 43.1113 51.2712 42.9603 51.2624C40.0475 51.0759 37.339 49.9392 35.3053 48.9712C29.7817 46.2982 24.9329 42.5062 20.9101 37.693C17.5977 33.7057 15.3687 29.9936 13.8945 26.0152C12.9798 23.5731 12.6335 21.6105 12.7756 19.8255Z" fill="white"/>
</svg>
