<?xml version="1.0" standalone="no"?>
<!DOCTYPE svg PUBLIC "-//W3C//DTD SVG 20010904//EN"
 "http://www.w3.org/TR/2001/REC-SVG-20010904/DTD/svg10.dtd">
<svg version="1.0" xmlns="http://www.w3.org/2000/svg"
 width="944.000000pt" height="944.000000pt" viewBox="0 0 944.000000 944.000000"
 preserveAspectRatio="xMidYMid meet">
<metadata>
Created by potrace 1.14, written by Peter Selinger 2001-2017
</metadata>
<g transform="translate(0.000000,944.000000) scale(0.100000,-0.100000)"
fill="#000000" stroke="none">
<path d="M2786 7123 c-3 -4 -27 -7 -52 -7 -45 -1 -46 -1 -77 -61 -18 -33 -35
-62 -38 -65 -4 -3 -21 -32 -38 -65 -18 -33 -40 -73 -51 -90 -10 -16 -27 -46
-37 -65 -10 -19 -80 -143 -155 -275 -75 -132 -145 -256 -155 -275 -11 -19 -32
-55 -47 -80 -15 -25 -29 -53 -33 -62 -3 -10 -10 -18 -15 -18 -5 0 -7 -4 -4 -9
3 -5 -1 -14 -9 -21 -8 -7 -15 -16 -15 -21 0 -5 -20 -43 -45 -85 -25 -41 -45
-80 -45 -85 0 -5 -5 -9 -11 -9 -5 0 -8 -4 -4 -9 3 -5 1 -12 -4 -15 -5 -3 -23
-34 -41 -68 -18 -35 -38 -70 -44 -78 -6 -8 -22 -35 -36 -60 -13 -25 -28 -48
-34 -52 -6 -4 -7 -8 -2 -8 5 0 4 -6 -1 -12 -6 -7 -22 -33 -35 -58 -29 -52 -59
-105 -100 -175 -16 -27 -32 -58 -35 -67 -3 -10 -9 -18 -14 -18 -5 0 -9 -9 -9
-19 0 -11 -4 -21 -8 -23 -5 -1 -28 -39 -52 -83 -24 -44 -47 -81 -52 -83 -4 -2
-8 -12 -8 -22 0 -10 -4 -22 -10 -25 -5 -3 -35 -53 -67 -111 -75 -137 -76 -139
-92 -158 -7 -9 -10 -16 -7 -16 4 0 -1 -12 -12 -27 -16 -25 -122 -209 -182
-320 -12 -21 -32 -56 -46 -78 -13 -22 -29 -52 -35 -67 -6 -16 -15 -28 -20 -28
-5 0 -9 -9 -9 -19 0 -11 -4 -21 -8 -23 -8 -3 -113 -187 -141 -245 -8 -18 -19
-33 -23 -33 -4 0 -8 -4 -8 -9 0 -9 -143 -267 -178 -321 -9 -14 -17 -32 -19
-40 -1 -8 -7 -16 -12 -18 -6 -2 -11 -7 -11 -12 0 -4 -37 -72 -82 -151 -103
-183 -115 -203 -150 -264 -16 -27 -34 -62 -39 -77 -6 -16 -15 -28 -19 -28 -5
0 -12 -10 -16 -22 -3 -13 -13 -31 -22 -40 -8 -10 -11 -18 -6 -18 5 0 4 -4 -2
-8 -7 -4 -20 -24 -30 -44 -39 -76 -158 -284 -172 -300 -8 -10 -11 -18 -6 -18
5 0 5 -4 -1 -8 -5 -4 -20 -25 -32 -48 l-22 -41 1087 1 c1076 1 1087 1 1097 21
6 11 27 48 47 81 19 34 39 71 43 83 3 11 12 27 18 34 7 6 27 41 45 77 18 36
46 90 63 120 18 30 45 80 61 110 16 30 33 62 38 70 9 15 71 127 150 275 36 67
84 154 153 279 7 11 14 23 17 26 3 3 25 37 50 75 25 39 47 72 51 75 4 3 23 26
43 53 80 105 261 291 366 376 36 29 72 58 81 65 93 75 389 245 449 258 8 2 17
5 20 8 5 5 116 43 133 46 4 1 8 2 10 4 1 1 10 3 21 5 10 2 39 9 65 15 77 18
105 22 244 35 26 2 53 7 59 11 7 5 8 3 3 -6 -6 -9 -4 -11 4 -5 7 4 45 8 86 10
40 1 76 4 81 7 9 5 817 1 916 -5 32 -2 60 -6 64 -10 4 -3 14 -2 23 3 10 5 23
5 30 1 7 -5 22 -6 32 -4 25 7 24 1 -7 -55 -15 -26 -43 -76 -62 -112 -20 -36
-53 -96 -74 -135 -21 -38 -47 -86 -56 -105 -9 -19 -19 -37 -22 -40 -7 -6 -137
-243 -228 -415 -15 -27 -29 -52 -32 -55 -3 -3 -12 -18 -20 -35 -8 -16 -29 -55
-46 -85 -17 -30 -47 -84 -66 -120 -57 -105 -89 -163 -108 -195 -10 -16 -36
-64 -58 -105 -22 -41 -57 -104 -77 -140 -20 -36 -42 -77 -48 -92 -6 -16 -15
-28 -18 -28 -4 0 -13 -16 -19 -35 -6 -19 -16 -35 -21 -35 -5 0 -9 -9 -9 -20 0
-11 -4 -20 -10 -20 -5 0 -10 -4 -10 -9 0 -5 -17 -40 -38 -78 -22 -37 -55 -99
-76 -136 -20 -37 -45 -83 -56 -102 -11 -19 -16 -36 -12 -38 4 -2 493 -4 1086
-3 l1079 1 18 30 c10 17 22 35 26 40 5 6 10 15 11 20 1 6 24 48 51 95 27 47
49 89 49 94 0 5 4 12 9 15 9 6 37 54 106 181 17 30 40 71 52 90 11 19 26 46
33 60 7 14 23 42 35 62 12 20 32 54 43 75 68 122 157 279 163 288 5 6 22 35
38 65 16 30 60 108 96 172 37 65 67 122 67 127 0 5 4 11 8 13 5 2 24 32 44 68
19 36 44 81 55 100 53 93 273 481 296 523 15 26 39 68 53 95 15 26 30 52 34
57 4 6 23 39 42 75 20 36 45 81 56 100 11 19 29 51 40 70 11 19 65 116 121
214 55 98 101 181 101 184 0 3 6 13 14 21 7 9 29 45 48 81 19 36 48 87 63 114
54 97 86 151 95 166 5 8 20 35 32 60 13 25 25 47 29 50 3 3 31 52 64 110 32
58 71 128 87 155 16 28 32 58 35 68 3 9 9 17 14 17 5 0 9 4 9 10 0 5 45 89
100 185 55 97 100 180 100 186 0 5 4 9 9 9 5 0 13 10 16 22 4 11 20 42 35 68
15 26 43 74 61 106 18 33 40 73 50 89 21 35 88 155 115 205 11 19 21 37 24 40
9 9 40 68 40 75 0 4 -9 5 -20 2 -11 -3 -20 -1 -20 4 0 6 -6 7 -17 1 -9 -5 -29
-6 -44 -2 -15 5 -30 6 -32 3 -3 -2 -31 -4 -64 -4 -32 1 -71 1 -88 2 -16 0 -56
-1 -88 -2 -31 -1 -60 0 -63 4 -3 3 -16 2 -28 -2 -11 -4 -31 -5 -44 -2 -13 3
-55 4 -94 1 -38 -3 -72 -2 -74 1 -2 4 -20 3 -39 -1 -20 -4 -38 -4 -41 1 -3 5
-10 6 -16 3 -5 -4 -36 -6 -69 -5 -85 2 -107 2 -172 0 -31 -1 -60 0 -63 4 -3 3
-16 2 -28 -2 -11 -4 -31 -5 -44 -2 -13 3 -55 4 -94 1 -38 -3 -72 -2 -74 1 -2
4 -20 3 -39 -1 -20 -4 -38 -4 -41 1 -3 5 -10 6 -16 3 -5 -4 -36 -6 -69 -5 -67
2 -102 2 -176 0 -28 0 -55 1 -60 4 -4 2 -17 1 -28 -3 -11 -4 -29 -4 -40 0 -11
4 -29 4 -40 0 -11 -4 -29 -4 -40 0 -11 4 -29 4 -40 0 -11 -4 -30 -4 -42 1 -13
5 -23 5 -23 -1 0 -5 -12 -5 -28 0 -16 4 -36 4 -45 -1 -8 -5 -18 -6 -20 -2 -3
5 -28 6 -56 5 -49 -4 -52 -6 -78 -50 -15 -26 -31 -48 -35 -50 -4 -2 -8 -9 -8
-15 0 -7 -18 -40 -40 -75 -22 -34 -40 -66 -40 -70 0 -4 -8 -18 -17 -32 -20
-26 -69 -111 -105 -177 -12 -24 -26 -43 -30 -43 -4 0 -8 -6 -8 -12 0 -7 -18
-41 -40 -76 -22 -34 -40 -65 -40 -67 0 -4 -88 -154 -120 -205 -5 -8 -22 -39
-37 -67 -15 -29 -31 -53 -35 -53 -4 0 -8 -5 -8 -10 0 -6 -18 -40 -40 -76 -22
-36 -40 -67 -40 -69 0 -2 -28 -50 -61 -107 -34 -56 -71 -119 -82 -138 -11 -19
-28 -48 -38 -65 -10 -16 -25 -44 -34 -61 -9 -17 -25 -40 -35 -52 -10 -11 -16
-23 -13 -26 7 -7 6 -7 -92 -9 -41 -1 -75 0 -75 3 0 7 -97 3 -109 -4 -5 -4 -13
-2 -16 4 -5 7 -11 8 -19 1 -7 -6 -18 -6 -26 -1 -7 4 -23 4 -36 0 -12 -5 -24
-6 -27 -3 -7 7 -117 10 -117 3 0 -7 -79 -4 -86 3 -3 3 -18 2 -33 -3 -15 -4
-34 -4 -42 -1 -12 6 -34 7 -41 2 -2 -1 -111 -4 -243 -6 -245 -4 -361 -9 -520
-21 -49 -4 -110 -8 -135 -9 -25 -2 -45 -3 -45 -4 0 -1 -29 -4 -65 -6 -72 -5
-145 -13 -145 -15 0 -1 -18 -3 -40 -4 -22 -1 -44 -4 -50 -7 -5 -3 -27 -5 -47
-5 -21 1 -38 -1 -38 -4 0 -3 -8 -6 -17 -6 -16 -1 -56 -7 -123 -19 -14 -3 -61
-14 -105 -24 -44 -11 -81 -18 -83 -16 -2 1 17 37 42 80 26 42 46 80 46 85 0 5
3 10 8 12 4 2 14 17 23 33 9 17 54 95 101 175 46 80 91 156 99 170 8 14 18 28
22 31 5 3 7 8 6 10 -2 2 21 45 51 94 29 50 61 104 70 120 9 17 32 56 51 88 19
32 39 66 44 75 6 10 41 71 79 137 39 66 75 123 80 127 6 4 7 8 3 8 -5 0 0 12
11 28 10 15 36 59 57 97 22 39 41 72 44 75 6 5 13 17 59 99 14 25 36 63 49 83
12 21 23 41 23 45 0 5 9 19 20 33 11 14 20 28 20 33 0 4 -31 7 -69 6 -38 -1
-74 2 -80 5 -6 4 -11 4 -11 -1 0 -9 -112 -8 -134 0 -8 3 -17 3 -20 -1 -9 -8
-103 -5 -118 4 -7 4 -8 3 -4 -4 5 -9 0 -9 -18 -2 -14 5 -26 6 -26 2 0 -9 -105
-6 -119 3 -6 3 -11 2 -11 -2 0 -9 -73 -8 -97 1 -7 3 -13 2 -13 -2 0 -9 -105
-6 -119 3 -6 3 -11 3 -11 -2 0 -9 -147 -9 -156 0 -3 3 -18 2 -32 -2 -15 -5
-36 -5 -47 -1 -11 4 -24 5 -29 2 -8 -4 -119 -6 -141 -2 -6 1 -14 1 -20 0 -23
-5 -106 -1 -117 6 -7 4 -8 3 -4 -4 5 -9 0 -9 -18 -2 -14 5 -26 6 -26 2 0 -9
-105 -6 -119 3 -6 3 -11 2 -11 -2 0 -9 -73 -8 -97 1 -7 3 -13 2 -13 -2 0 -9
-105 -6 -119 3 -6 3 -11 3 -11 -2 0 -9 -147 -9 -156 0 -3 3 -18 2 -32 -3 -15
-4 -37 -4 -49 1 -11 4 -24 5 -27 2z"/>
</g>
</svg>
