<svg width="76" height="26" viewBox="0 0 76 26" fill="none" xmlns="http://www.w3.org/2000/svg">
<path d="M13.923 6.065C13.923 7.30167 13.6897 8.57333 13.223 9.88C12.7797 11.1633 12.1847 12.4583 11.438 13.765C10.7147 15.0717 9.89799 16.355 8.98799 17.615C8.07799 18.8517 7.16799 20.03 6.25799 21.15L4.54299 22.655V22.795L6.78299 22.41H14.413V25H0.482988V23.985C0.996322 23.4483 1.61466 22.7833 2.33799 21.99C3.06132 21.1967 3.80799 20.3217 4.57799 19.365C5.37132 18.385 6.14132 17.3583 6.88799 16.285C7.65799 15.1883 8.34632 14.08 8.95299 12.96C9.58299 11.84 10.0847 10.7317 10.458 9.635C10.8313 8.53833 11.018 7.5 11.018 6.52C11.018 5.37667 10.6913 4.43167 10.038 3.685C9.38466 2.915 8.39299 2.53 7.06299 2.53C6.17632 2.53 5.31299 2.71667 4.47299 3.09C3.63299 3.44 2.90966 3.84833 2.30299 4.315L1.14799 2.32C1.96466 1.62 2.93299 1.07167 4.05299 0.674998C5.17299 0.278332 6.37466 0.0799996 7.65799 0.0799996C8.66132 0.0799996 9.54799 0.231666 10.318 0.534998C11.088 0.814998 11.7413 1.22333 12.278 1.76C12.8147 2.29667 13.223 2.93833 13.503 3.685C13.783 4.40833 13.923 5.20167 13.923 6.065ZM33.4853 3.09H23.2653V25H20.3603V0.499998H33.4853V3.09ZM50.8237 8.41L51.0337 5.61H50.8937L49.3887 8.48L37.5587 25H35.8437V0.499998H38.7487V17.3L38.5037 20.065H38.6437L40.1837 17.195L52.0137 0.499998H53.7287V25H50.8237V8.41ZM75.3469 23.985C74.6469 24.5217 73.7602 24.895 72.6869 25.105C71.6136 25.315 70.4702 25.42 69.2569 25.42C67.7869 25.42 66.4102 25.175 65.1269 24.685C63.8436 24.1717 62.7236 23.4017 61.7669 22.375C60.8102 21.3483 60.0519 20.0417 59.4919 18.455C58.9319 16.845 58.6519 14.9433 58.6519 12.75C58.6519 10.4633 58.9552 8.52667 59.5619 6.94C60.1919 5.33 61.0086 4.02333 62.0119 3.02C63.0386 1.99333 64.1819 1.24667 65.4419 0.779999C66.7019 0.313333 67.9852 0.0799996 69.2919 0.0799996C70.6919 0.0799996 71.8352 0.161666 72.7219 0.324998C73.6086 0.464998 74.3669 0.663332 74.9969 0.919999L74.2969 3.475C73.1769 2.93833 71.5786 2.67 69.5019 2.67C68.5452 2.67 67.6002 2.845 66.6669 3.195C65.7336 3.545 64.8936 4.11667 64.1469 4.91C63.4236 5.70333 62.8402 6.74167 62.3969 8.025C61.9536 9.30833 61.7319 10.8833 61.7319 12.75C61.7319 14.43 61.9419 15.9 62.3619 17.16C62.7819 18.42 63.3536 19.47 64.0769 20.31C64.8236 21.15 65.6869 21.78 66.6669 22.2C67.6702 22.62 68.7552 22.83 69.9219 22.83C70.9719 22.83 71.8819 22.725 72.6519 22.515C73.4452 22.305 74.1102 22.0367 74.6469 21.71L75.3469 23.985Z" fill="black"/>
</svg>
