<svg width="20" height="20" viewBox="0 0 20 20" fill="none" xmlns="http://www.w3.org/2000/svg">
<path fill-rule="evenodd" clip-rule="evenodd" d="M9.825 0.0129534C9.825 0.0210104 9.75416 0.0259067 9.6375 0.0259067C9.52084 0.0259067 9.45 0.0308031 9.45 0.0388601C9.45 0.0465415 9.40416 0.0518135 9.3375 0.0518135C9.27084 0.0518135 9.225 0.0570855 9.225 0.0647668C9.225 0.0721632 9.1875 0.0777202 9.1375 0.0777202C9.0875 0.0777202 9.05 0.0832772 9.05 0.0906736C9.05 0.0977979 9.02188 0.103627 8.9875 0.103627C8.95312 0.103627 8.925 0.109456 8.925 0.11658C8.925 0.123705 8.89688 0.129534 8.8625 0.129534C8.82812 0.129534 8.8 0.135363 8.8 0.142487C8.8 0.149611 8.77188 0.15544 8.7375 0.15544C8.70312 0.15544 8.675 0.161269 8.675 0.168394C8.675 0.175518 8.6525 0.181347 8.625 0.181347C8.5975 0.181347 8.575 0.187176 8.575 0.194301C8.575 0.201425 8.55813 0.207254 8.5375 0.207254C8.51688 0.207254 8.5 0.213083 8.5 0.220207C8.5 0.227332 8.4775 0.233161 8.45 0.233161C8.4225 0.233161 8.4 0.23899 8.4 0.246114C8.4 0.253238 8.38313 0.259067 8.3625 0.259067C8.34188 0.259067 8.325 0.264896 8.325 0.272021C8.325 0.279145 8.30813 0.284974 8.2875 0.284974C8.26688 0.284974 8.25 0.290803 8.25 0.297927C8.25 0.305052 8.2275 0.310881 8.2 0.310881C8.1725 0.310881 8.15 0.31671 8.15 0.323834C8.15 0.330959 8.13875 0.336788 8.125 0.336788C8.11125 0.336788 8.1 0.342617 8.1 0.349741C8.1 0.356865 8.08313 0.362694 8.0625 0.362694C8.04187 0.362694 8.025 0.368523 8.025 0.375648C8.025 0.382772 8.00813 0.388601 7.9875 0.388601C7.96688 0.388601 7.95 0.39443 7.95 0.401554C7.95 0.408679 7.93875 0.414508 7.925 0.414508C7.91125 0.414508 7.9 0.420337 7.9 0.427461C7.9 0.434586 7.88313 0.440415 7.8625 0.440415C7.84188 0.440415 7.825 0.446244 7.825 0.453368C7.825 0.460492 7.81375 0.466321 7.8 0.466321C7.78625 0.466321 7.775 0.47215 7.775 0.479275C7.775 0.486399 7.76375 0.492228 7.75 0.492228C7.73625 0.492228 7.725 0.498057 7.725 0.505181C7.725 0.512306 7.70813 0.518135 7.6875 0.518135C7.66687 0.518135 7.65 0.523964 7.65 0.531088C7.65 0.538212 7.63875 0.544041 7.625 0.544041C7.61125 0.544041 7.6 0.54987 7.6 0.556995C7.6 0.564119 7.58875 0.569948 7.575 0.569948C7.56125 0.569948 7.55 0.575777 7.55 0.582902C7.55 0.590026 7.53875 0.595855 7.525 0.595855C7.51125 0.595855 7.5 0.601684 7.5 0.608808C7.5 0.615933 7.48875 0.621762 7.475 0.621762C7.46125 0.621762 7.45 0.627591 7.45 0.634715C7.45 0.641839 7.43875 0.647668 7.425 0.647668C7.41125 0.647668 7.4 0.653497 7.4 0.660622C7.4 0.667746 7.38875 0.673575 7.375 0.673575C7.36125 0.673575 7.35 0.679404 7.35 0.686529C7.35 0.693653 7.33875 0.699482 7.325 0.699482C7.31125 0.699482 7.3 0.705311 7.3 0.712435C7.3 0.71956 7.28875 0.725389 7.275 0.725389C7.26125 0.725389 7.25 0.731218 7.25 0.738342C7.25 0.745466 7.23999 0.751295 7.22776 0.751295C7.21553 0.751295 7.19741 0.762953 7.1875 0.777202C7.17759 0.791451 7.15947 0.803109 7.14724 0.803109C7.13501 0.803109 7.125 0.808938 7.125 0.816062C7.125 0.823187 7.11499 0.829016 7.10276 0.829016C7.09053 0.829016 7.07241 0.840674 7.0625 0.854922C7.05259 0.869171 7.03447 0.880829 7.02224 0.880829C7.01001 0.880829 7 0.886658 7 0.893782C7 0.900907 6.98999 0.906736 6.97776 0.906736C6.96553 0.906736 6.94741 0.918394 6.9375 0.932643C6.92759 0.946891 6.91071 0.958549 6.9 0.958549C6.88929 0.958549 6.87241 0.970207 6.8625 0.984456C6.85259 0.998705 6.83571 1.01036 6.825 1.01036C6.81429 1.01036 6.79741 1.02202 6.7875 1.03627C6.77759 1.05052 6.76172 1.06218 6.75225 1.06218C6.74279 1.06218 6.71926 1.07966 6.7 1.10104C6.68074 1.12241 6.65721 1.1399 6.64775 1.1399C6.63828 1.1399 6.62241 1.15155 6.6125 1.1658C6.60259 1.18005 6.58685 1.19171 6.57751 1.19171C6.56817 1.19171 6.53893 1.21503 6.5125 1.24352C6.48607 1.27202 6.45802 1.29534 6.45016 1.29534C6.44231 1.29534 6.40849 1.32448 6.375 1.3601C6.34151 1.39573 6.30786 1.42487 6.30021 1.42487C6.29255 1.42487 6.24746 1.46567 6.2 1.51554C6.15254 1.56541 6.10775 1.60622 6.10046 1.60622C6.0832 1.60622 5.825 1.87372 5.825 1.89159C5.825 1.89911 5.78 1.95139 5.725 2.00777C5.67 2.06416 5.625 2.11683 5.625 2.12482C5.625 2.1328 5.6025 2.16174 5.575 2.18912C5.5475 2.2165 5.525 2.24565 5.525 2.25389C5.525 2.26212 5.5025 2.29127 5.475 2.31865C5.4475 2.34604 5.425 2.37635 5.425 2.38602C5.425 2.3957 5.41375 2.41201 5.4 2.42228C5.38625 2.43255 5.375 2.44899 5.375 2.45881C5.375 2.46861 5.35813 2.49299 5.3375 2.51295C5.31687 2.53291 5.3 2.55729 5.3 2.5671C5.3 2.57692 5.28875 2.59335 5.275 2.60363C5.26125 2.6139 5.25 2.63139 5.25 2.64249C5.25 2.65359 5.23875 2.67108 5.225 2.68135C5.21125 2.69162 5.2 2.70911 5.2 2.72021C5.2 2.73131 5.18875 2.7488 5.175 2.75907C5.16125 2.76934 5.15 2.78811 5.15 2.80079C5.15 2.81346 5.14437 2.82383 5.1375 2.82383C5.13063 2.82383 5.125 2.83421 5.125 2.84688C5.125 2.85956 5.11375 2.87833 5.1 2.8886C5.08625 2.89887 5.075 2.91764 5.075 2.93032C5.075 2.94299 5.06938 2.95337 5.0625 2.95337C5.05562 2.95337 5.05 2.96374 5.05 2.97641C5.05 2.98909 5.03875 3.00786 5.025 3.01813C5.01125 3.02841 5 3.04718 5 3.05986C5 3.07253 4.99438 3.0829 4.9875 3.0829C4.98063 3.0829 4.975 3.09456 4.975 3.10881C4.975 3.12306 4.96938 3.13472 4.9625 3.13472C4.95563 3.13472 4.95 3.14637 4.95 3.16062C4.95 3.17487 4.94438 3.18653 4.9375 3.18653C4.93062 3.18653 4.925 3.19819 4.925 3.21244C4.925 3.22668 4.91937 3.23834 4.9125 3.23834C4.90562 3.23834 4.9 3.25 4.9 3.26425C4.9 3.2785 4.89437 3.29016 4.8875 3.29016C4.88063 3.29016 4.875 3.30181 4.875 3.31606C4.875 3.33031 4.86938 3.34197 4.8625 3.34197C4.85563 3.34197 4.85 3.35363 4.85 3.36788C4.85 3.38212 4.84438 3.39378 4.8375 3.39378C4.83063 3.39378 4.825 3.40544 4.825 3.41969C4.825 3.43394 4.81938 3.4456 4.8125 3.4456C4.80562 3.4456 4.8 3.45725 4.8 3.4715C4.8 3.48575 4.79437 3.49741 4.7875 3.49741C4.78062 3.49741 4.775 3.5149 4.775 3.53627C4.775 3.55764 4.76937 3.57513 4.7625 3.57513C4.75563 3.57513 4.75 3.58679 4.75 3.60104C4.75 3.61528 4.74438 3.62694 4.7375 3.62694C4.73063 3.62694 4.725 3.6386 4.725 3.65285C4.725 3.6671 4.71938 3.67876 4.7125 3.67876C4.70563 3.67876 4.7 3.69624 4.7 3.71762C4.7 3.73899 4.69438 3.75648 4.6875 3.75648C4.68062 3.75648 4.675 3.76813 4.675 3.78238C4.675 3.79663 4.66937 3.80829 4.6625 3.80829C4.65562 3.80829 4.65 3.82578 4.65 3.84715C4.65 3.86852 4.64437 3.88601 4.6375 3.88601C4.63063 3.88601 4.625 3.9035 4.625 3.92487C4.625 3.94624 4.61938 3.96373 4.6125 3.96373C4.60563 3.96373 4.6 3.98122 4.6 4.00259C4.6 4.02396 4.59438 4.04145 4.5875 4.04145C4.58063 4.04145 4.575 4.05894 4.575 4.08031C4.575 4.10168 4.56938 4.11917 4.5625 4.11917C4.55562 4.11917 4.55 4.13666 4.55 4.15803C4.55 4.1794 4.54437 4.19689 4.5375 4.19689C4.53062 4.19689 4.525 4.21438 4.525 4.23575C4.525 4.25712 4.51937 4.27461 4.5125 4.27461C4.50563 4.27461 4.5 4.29793 4.5 4.32643C4.5 4.35492 4.49438 4.37824 4.4875 4.37824C4.48063 4.37824 4.475 4.39573 4.475 4.4171C4.475 4.43847 4.46938 4.45596 4.4625 4.45596C4.45563 4.45596 4.45 4.47927 4.45 4.50777C4.45 4.53627 4.44438 4.55959 4.4375 4.55959C4.43062 4.55959 4.425 4.58873 4.425 4.62435C4.425 4.65997 4.41937 4.68912 4.4125 4.68912C4.40562 4.68912 4.4 4.71826 4.4 4.75389C4.4 4.78951 4.39437 4.81865 4.3875 4.81865C4.38055 4.81865 4.375 4.8532 4.375 4.89637C4.375 4.93955 4.36945 4.97409 4.3625 4.97409C4.35555 4.97409 4.35 5.00864 4.35 5.05181C4.35 5.09499 4.34445 5.12953 4.3375 5.12953C4.33021 5.12953 4.325 5.17271 4.325 5.23316C4.325 5.29361 4.31979 5.33679 4.3125 5.33679C4.30473 5.33679 4.3 5.41019 4.3 5.53109C4.3 5.65198 4.29528 5.72539 4.2875 5.72539C4.27969 5.72539 4.275 5.80311 4.275 5.93264C4.275 6.06218 4.27969 6.1399 4.2875 6.1399C4.29524 6.1399 4.3 6.20898 4.3 6.32124C4.3 6.43351 4.30476 6.50259 4.3125 6.50259C4.31991 6.50259 4.325 6.55009 4.325 6.61917C4.325 6.68825 4.33009 6.73575 4.3375 6.73575C4.34445 6.73575 4.35 6.7703 4.35 6.81347C4.35 6.85665 4.35555 6.89119 4.3625 6.89119C4.36945 6.89119 4.375 6.92574 4.375 6.96891C4.375 7.01209 4.38055 7.04663 4.3875 7.04663C4.39437 7.04663 4.4 7.07578 4.4 7.1114C4.4 7.14702 4.40562 7.17617 4.4125 7.17617C4.41937 7.17617 4.425 7.19948 4.425 7.22798C4.425 7.25648 4.43062 7.27979 4.4375 7.27979C4.44438 7.27979 4.45 7.30311 4.45 7.33161C4.45 7.3601 4.45563 7.38342 4.4625 7.38342C4.46938 7.38342 4.475 7.40674 4.475 7.43523C4.475 7.46373 4.48063 7.48705 4.4875 7.48705C4.49438 7.48705 4.5 7.51036 4.5 7.53886C4.5 7.56736 4.50563 7.59067 4.5125 7.59067C4.51937 7.59067 4.525 7.60816 4.525 7.62953C4.525 7.65091 4.53062 7.66839 4.5375 7.66839C4.54437 7.66839 4.55 7.68588 4.55 7.70725C4.55 7.72863 4.55562 7.74611 4.5625 7.74611C4.56938 7.74611 4.575 7.7636 4.575 7.78497C4.575 7.80635 4.58063 7.82383 4.5875 7.82383C4.59438 7.82383 4.6 7.84132 4.6 7.86269C4.6 7.88407 4.60563 7.90155 4.6125 7.90155C4.61938 7.90155 4.625 7.91904 4.625 7.94041C4.625 7.96179 4.63063 7.97927 4.6375 7.97927C4.64437 7.97927 4.65 7.99676 4.65 8.01814C4.65 8.03951 4.65562 8.05699 4.6625 8.05699C4.66937 8.05699 4.675 8.06865 4.675 8.0829C4.675 8.09715 4.68062 8.10881 4.6875 8.10881C4.69438 8.10881 4.7 8.12047 4.7 8.13472C4.7 8.14896 4.70563 8.16062 4.7125 8.16062C4.71938 8.16062 4.725 8.17811 4.725 8.19948C4.725 8.22085 4.73063 8.23834 4.7375 8.23834C4.74438 8.23834 4.75 8.25 4.75 8.26425C4.75 8.2785 4.75563 8.29016 4.7625 8.29016C4.76937 8.29016 4.775 8.30764 4.775 8.32902C4.775 8.35039 4.78062 8.36788 4.7875 8.36788C4.79437 8.36788 4.8 8.37953 4.8 8.39378C4.8 8.40803 4.80562 8.41969 4.8125 8.41969C4.81938 8.41969 4.825 8.43135 4.825 8.4456C4.825 8.45984 4.83063 8.4715 4.8375 8.4715C4.84438 8.4715 4.85 8.48316 4.85 8.49741C4.85 8.51166 4.85563 8.52332 4.8625 8.52332C4.86938 8.52332 4.875 8.53497 4.875 8.54922C4.875 8.56347 4.88063 8.57513 4.8875 8.57513C4.89437 8.57513 4.9 8.58679 4.9 8.60104C4.9 8.61528 4.90562 8.62694 4.9125 8.62694C4.91937 8.62694 4.925 8.6386 4.925 8.65285C4.925 8.6671 4.93062 8.67876 4.9375 8.67876C4.94438 8.67876 4.95 8.69041 4.95 8.70466C4.95 8.71891 4.95563 8.73057 4.9625 8.73057C4.96938 8.73057 4.975 8.74095 4.975 8.75361C4.975 8.7663 4.98625 8.78506 5 8.79534C5.01375 8.80561 5.025 8.82438 5.025 8.83706C5.025 8.84973 5.03062 8.8601 5.0375 8.8601C5.04437 8.8601 5.05 8.87176 5.05 8.88601C5.05 8.90026 5.05562 8.91192 5.0625 8.91192C5.06938 8.91192 5.075 8.92229 5.075 8.93496C5.075 8.94764 5.08625 8.96641 5.1 8.97668C5.11375 8.98696 5.125 9.00444 5.125 9.01554C5.125 9.02664 5.13625 9.04413 5.15 9.0544C5.16375 9.06468 5.175 9.08345 5.175 9.09613C5.175 9.1088 5.18062 9.11917 5.1875 9.11917C5.19438 9.11917 5.2 9.12955 5.2 9.14221C5.2 9.1549 5.21125 9.17367 5.225 9.18394C5.23875 9.19421 5.25 9.21065 5.25 9.22047C5.25 9.23027 5.26688 9.25465 5.2875 9.27461C5.30813 9.29457 5.325 9.31895 5.325 9.32876C5.325 9.33858 5.33625 9.35501 5.35 9.36528C5.36375 9.37556 5.375 9.392 5.375 9.40181C5.375 9.41162 5.39188 9.436 5.4125 9.45596C5.43313 9.47592 5.45 9.49912 5.45 9.50751C5.45 9.51589 5.4725 9.54516 5.5 9.57254C5.5275 9.59992 5.55 9.62899 5.55 9.63714C5.55 9.64527 5.57812 9.68032 5.6125 9.71503C5.64687 9.74973 5.675 9.78435 5.675 9.79197C5.675 9.81009 6.25826 10.4145 6.27575 10.4145C6.2831 10.4145 6.31651 10.4437 6.35 10.4793C6.38349 10.5149 6.41731 10.544 6.42516 10.544C6.43302 10.544 6.46108 10.5674 6.4875 10.5959C6.51393 10.6244 6.54216 10.6477 6.55025 10.6477C6.55835 10.6477 6.58074 10.6652 6.6 10.6865C6.61926 10.7079 6.64279 10.7254 6.65225 10.7254C6.66173 10.7254 6.67759 10.737 6.6875 10.7513C6.69741 10.7655 6.71327 10.7772 6.72275 10.7772C6.73221 10.7772 6.75574 10.7947 6.775 10.8161C6.79426 10.8374 6.81903 10.8549 6.83001 10.8549C6.84101 10.8549 6.85 10.8608 6.85 10.8679C6.85 10.875 6.86001 10.8808 6.87224 10.8808C6.88448 10.8808 6.90259 10.8925 6.9125 10.9067C6.92241 10.921 6.93929 10.9326 6.95 10.9326C6.96071 10.9326 6.97759 10.9443 6.9875 10.9585C6.99741 10.9728 7.01553 10.9845 7.02776 10.9845C7.03999 10.9845 7.05 10.9903 7.05 10.9974C7.05 11.0045 7.06001 11.0104 7.07224 11.0104C7.08448 11.0104 7.10259 11.022 7.1125 11.0363C7.12241 11.0505 7.14053 11.0622 7.15276 11.0622C7.16499 11.0622 7.175 11.068 7.175 11.0751C7.175 11.0823 7.18625 11.0881 7.2 11.0881C7.21375 11.0881 7.225 11.0939 7.225 11.101C7.225 11.1082 7.23501 11.114 7.24724 11.114C7.25948 11.114 7.27759 11.1256 7.2875 11.1399C7.29741 11.1541 7.31553 11.1658 7.32776 11.1658C7.33999 11.1658 7.35 11.1716 7.35 11.1788C7.35 11.1859 7.36125 11.1917 7.375 11.1917C7.38875 11.1917 7.4 11.1975 7.4 11.2047C7.4 11.2118 7.41125 11.2176 7.425 11.2176C7.43875 11.2176 7.45 11.2234 7.45 11.2306C7.45 11.2377 7.46125 11.2435 7.475 11.2435C7.48875 11.2435 7.5 11.2494 7.5 11.2565C7.5 11.2636 7.51125 11.2694 7.525 11.2694C7.53875 11.2694 7.55 11.2753 7.55 11.2824C7.55 11.2895 7.56125 11.2953 7.575 11.2953C7.58875 11.2953 7.6 11.3012 7.6 11.3083C7.6 11.3154 7.61688 11.3212 7.6375 11.3212C7.65812 11.3212 7.675 11.3271 7.675 11.3342C7.675 11.3413 7.68625 11.3472 7.7 11.3472C7.71375 11.3472 7.725 11.353 7.725 11.3601C7.725 11.3672 7.73625 11.3731 7.75 11.3731C7.76375 11.3731 7.775 11.3789 7.775 11.386C7.775 11.3931 7.79187 11.399 7.8125 11.399C7.83313 11.399 7.85 11.4048 7.85 11.4119C7.85 11.419 7.86125 11.4249 7.875 11.4249C7.88875 11.4249 7.9 11.4307 7.9 11.4378C7.9 11.4449 7.91687 11.4508 7.9375 11.4508C7.95813 11.4508 7.975 11.4566 7.975 11.4637C7.975 11.4709 7.98625 11.4767 8 11.4767C8.01375 11.4767 8.025 11.4825 8.025 11.4896C8.025 11.4968 8.04187 11.5026 8.0625 11.5026C8.08313 11.5026 8.1 11.5084 8.1 11.5155C8.1 11.5227 8.11687 11.5285 8.1375 11.5285C8.15812 11.5285 8.175 11.5343 8.175 11.5415C8.175 11.5486 8.19188 11.5544 8.2125 11.5544C8.23312 11.5544 8.25 11.5602 8.25 11.5674C8.25 11.5745 8.26688 11.5803 8.2875 11.5803C8.30813 11.5803 8.325 11.5861 8.325 11.5933C8.325 11.6004 8.3475 11.6062 8.375 11.6062C8.4025 11.6062 8.425 11.612 8.425 11.6192C8.425 11.6263 8.44188 11.6321 8.4625 11.6321C8.48312 11.6321 8.5 11.638 8.5 11.6451C8.5 11.6522 8.5225 11.658 8.55 11.658C8.5775 11.658 8.6 11.6639 8.6 11.671C8.6 11.6781 8.6225 11.6839 8.65 11.6839C8.6775 11.6839 8.7 11.6898 8.7 11.6969C8.7 11.704 8.72813 11.7098 8.7625 11.7098C8.79688 11.7098 8.825 11.7157 8.825 11.7228C8.825 11.7299 8.85313 11.7358 8.8875 11.7358C8.92188 11.7358 8.95 11.7416 8.95 11.7487C8.95 11.7559 8.98334 11.7617 9.025 11.7617C9.06666 11.7617 9.1 11.7674 9.1 11.7746C9.1 11.782 9.1375 11.7876 9.1875 11.7876C9.2375 11.7876 9.275 11.7931 9.275 11.8005C9.275 11.8082 9.32084 11.8135 9.3875 11.8135C9.45416 11.8135 9.5 11.8187 9.5 11.8264C9.5 11.8348 9.675 11.8394 10 11.8394C10.325 11.8394 10.5 11.8348 10.5 11.8264C10.5 11.8187 10.5458 11.8135 10.6125 11.8135C10.6792 11.8135 10.725 11.8082 10.725 11.8005C10.725 11.7931 10.7625 11.7876 10.8125 11.7876C10.8625 11.7876 10.9 11.782 10.9 11.7746C10.9 11.7674 10.9333 11.7617 10.975 11.7617C11.0167 11.7617 11.05 11.7559 11.05 11.7487C11.05 11.7416 11.0781 11.7358 11.1125 11.7358C11.1469 11.7358 11.175 11.7299 11.175 11.7228C11.175 11.7157 11.1975 11.7098 11.225 11.7098C11.2525 11.7098 11.275 11.704 11.275 11.6969C11.275 11.6898 11.2975 11.6839 11.325 11.6839C11.3525 11.6839 11.375 11.6781 11.375 11.671C11.375 11.6639 11.3975 11.658 11.425 11.658C11.4525 11.658 11.475 11.6522 11.475 11.6451C11.475 11.638 11.4975 11.6321 11.525 11.6321C11.5525 11.6321 11.575 11.6263 11.575 11.6192C11.575 11.612 11.5919 11.6062 11.6125 11.6062C11.6331 11.6062 11.65 11.6004 11.65 11.5933C11.65 11.5861 11.6669 11.5803 11.6875 11.5803C11.7081 11.5803 11.725 11.5745 11.725 11.5674C11.725 11.5602 11.7419 11.5544 11.7625 11.5544C11.7831 11.5544 11.8 11.5486 11.8 11.5415C11.8 11.5343 11.8169 11.5285 11.8375 11.5285C11.8581 11.5285 11.875 11.5227 11.875 11.5155C11.875 11.5084 11.8919 11.5026 11.9125 11.5026C11.9331 11.5026 11.95 11.4968 11.95 11.4896C11.95 11.4825 11.9669 11.4767 11.9875 11.4767C12.0081 11.4767 12.025 11.4709 12.025 11.4637C12.025 11.4566 12.0363 11.4508 12.05 11.4508C12.0638 11.4508 12.075 11.4449 12.075 11.4378C12.075 11.4307 12.0919 11.4249 12.1125 11.4249C12.1331 11.4249 12.15 11.419 12.15 11.4119C12.15 11.4048 12.1613 11.399 12.175 11.399C12.1888 11.399 12.2 11.3931 12.2 11.386C12.2 11.3789 12.2113 11.3731 12.225 11.3731C12.2388 11.3731 12.25 11.3672 12.25 11.3601C12.25 11.353 12.2669 11.3472 12.2875 11.3472C12.3081 11.3472 12.325 11.3413 12.325 11.3342C12.325 11.3271 12.3363 11.3212 12.35 11.3212C12.3638 11.3212 12.375 11.3154 12.375 11.3083C12.375 11.3012 12.3863 11.2953 12.4 11.2953C12.4138 11.2953 12.425 11.2895 12.425 11.2824C12.425 11.2753 12.4362 11.2694 12.45 11.2694C12.4637 11.2694 12.475 11.2636 12.475 11.2565C12.475 11.2494 12.4862 11.2435 12.5 11.2435C12.5138 11.2435 12.525 11.2377 12.525 11.2306C12.525 11.2234 12.5363 11.2176 12.55 11.2176C12.5638 11.2176 12.575 11.2118 12.575 11.2047C12.575 11.1975 12.5863 11.1917 12.6 11.1917C12.6138 11.1917 12.625 11.1859 12.625 11.1788C12.625 11.1716 12.6363 11.1658 12.65 11.1658C12.6638 11.1658 12.675 11.16 12.675 11.1529C12.675 11.1457 12.6862 11.1399 12.7 11.1399C12.7137 11.1399 12.725 11.1341 12.725 11.1269C12.725 11.1198 12.735 11.114 12.7472 11.114C12.7595 11.114 12.7776 11.1023 12.7875 11.0881C12.7974 11.0738 12.8155 11.0622 12.8278 11.0622C12.84 11.0622 12.85 11.0563 12.85 11.0492C12.85 11.0421 12.86 11.0363 12.8722 11.0363C12.8845 11.0363 12.9026 11.0246 12.9125 11.0104C12.9224 10.9961 12.9405 10.9845 12.9528 10.9845C12.965 10.9845 12.975 10.9786 12.975 10.9715C12.975 10.9644 13.0031 10.9585 13.0375 10.9585C13.0719 10.9585 13.1 10.9644 13.1 10.9715C13.1 10.9786 13.1112 10.9845 13.125 10.9845C13.1388 10.9845 13.15 10.9903 13.15 10.9974C13.15 11.0045 13.1669 11.0104 13.1875 11.0104C13.2081 11.0104 13.225 11.0162 13.225 11.0233C13.225 11.0304 13.2362 11.0363 13.25 11.0363C13.2638 11.0363 13.275 11.0421 13.275 11.0492C13.275 11.0563 13.2863 11.0622 13.3 11.0622C13.3138 11.0622 13.325 11.068 13.325 11.0751C13.325 11.0823 13.3419 11.0881 13.3625 11.0881C13.3831 11.0881 13.4 11.0939 13.4 11.101C13.4 11.1082 13.4113 11.114 13.425 11.114C13.4388 11.114 13.45 11.1198 13.45 11.1269C13.45 11.1341 13.4613 11.1399 13.475 11.1399C13.4888 11.1399 13.5 11.1457 13.5 11.1529C13.5 11.16 13.5169 11.1658 13.5375 11.1658C13.5581 11.1658 13.575 11.1716 13.575 11.1788C13.575 11.1859 13.5863 11.1917 13.6 11.1917C13.6138 11.1917 13.625 11.1975 13.625 11.2047C13.625 11.2118 13.6363 11.2176 13.65 11.2176C13.6638 11.2176 13.675 11.2234 13.675 11.2306C13.675 11.2377 13.6862 11.2435 13.7 11.2435C13.7137 11.2435 13.725 11.2494 13.725 11.2565C13.725 11.2636 13.7362 11.2694 13.75 11.2694C13.7638 11.2694 13.775 11.2753 13.775 11.2824C13.775 11.2895 13.7863 11.2953 13.8 11.2953C13.8138 11.2953 13.825 11.3012 13.825 11.3083C13.825 11.3154 13.8363 11.3212 13.85 11.3212C13.8638 11.3212 13.875 11.3271 13.875 11.3342C13.875 11.3413 13.8863 11.3472 13.9 11.3472C13.9138 11.3472 13.925 11.353 13.925 11.3601C13.925 11.3672 13.9362 11.3731 13.95 11.3731C13.9637 11.3731 13.975 11.3789 13.975 11.386C13.975 11.3931 13.9862 11.399 14 11.399C14.0138 11.399 14.025 11.4048 14.025 11.4119C14.025 11.419 14.0363 11.4249 14.05 11.4249C14.0638 11.4249 14.075 11.4307 14.075 11.4378C14.075 11.4449 14.085 11.4508 14.0972 11.4508C14.1095 11.4508 14.1276 11.4624 14.1375 11.4767C14.1474 11.4909 14.1655 11.5026 14.1778 11.5026C14.19 11.5026 14.2 11.5084 14.2 11.5155C14.2 11.5227 14.2113 11.5285 14.225 11.5285C14.2388 11.5285 14.25 11.5343 14.25 11.5415C14.25 11.5486 14.26 11.5544 14.2722 11.5544C14.2845 11.5544 14.3026 11.5661 14.3125 11.5803C14.3224 11.5946 14.3405 11.6062 14.3528 11.6062C14.365 11.6062 14.375 11.612 14.375 11.6192C14.375 11.6263 14.385 11.6321 14.3972 11.6321C14.4095 11.6321 14.4276 11.6438 14.4375 11.658C14.4474 11.6723 14.4655 11.6839 14.4778 11.6839C14.49 11.6839 14.5 11.6898 14.5 11.6969C14.5 11.704 14.51 11.7098 14.5222 11.7098C14.5345 11.7098 14.5526 11.7215 14.5625 11.7358C14.5724 11.75 14.5905 11.7617 14.6028 11.7617C14.615 11.7617 14.625 11.7675 14.625 11.7746C14.625 11.7817 14.635 11.7876 14.6472 11.7876C14.6595 11.7876 14.6776 11.7992 14.6875 11.8135C14.6974 11.8277 14.7133 11.8394 14.7227 11.8394C14.7322 11.8394 14.7557 11.8569 14.775 11.8782C14.7943 11.8996 14.8178 11.9171 14.8273 11.9171C14.8367 11.9171 14.8526 11.9288 14.8625 11.943C14.8724 11.9573 14.8893 11.9689 14.9 11.9689C14.9107 11.9689 14.9276 11.9806 14.9375 11.9948C14.9474 12.0091 14.9633 12.0207 14.9727 12.0207C14.9822 12.0207 15.0057 12.0382 15.025 12.0596C15.0443 12.081 15.0678 12.0984 15.0773 12.0984C15.0867 12.0984 15.1026 12.1101 15.1125 12.1244C15.1224 12.1386 15.1381 12.1503 15.1475 12.1503C15.1568 12.1503 15.1861 12.1736 15.2125 12.2021C15.2389 12.2306 15.267 12.2539 15.275 12.2539C15.283 12.2539 15.3111 12.2772 15.3375 12.3057C15.3639 12.3342 15.392 12.3575 15.4 12.3575C15.408 12.3575 15.4361 12.3808 15.4625 12.4093C15.4889 12.4378 15.5169 12.4611 15.5246 12.4611C15.5324 12.4611 15.5775 12.5019 15.625 12.5518C15.6725 12.6017 15.7172 12.6425 15.7245 12.6425C15.7417 12.6425 16.375 13.2988 16.375 13.3166C16.375 13.3241 16.4144 13.3705 16.4625 13.4197C16.5106 13.4689 16.55 13.5156 16.55 13.5235C16.55 13.5315 16.5781 13.5663 16.6125 13.601C16.6469 13.6357 16.675 13.6708 16.675 13.6789C16.675 13.6871 16.6975 13.7161 16.725 13.7435C16.7525 13.7709 16.775 13.8002 16.775 13.8085C16.775 13.8169 16.7919 13.8401 16.8125 13.8601C16.8331 13.8801 16.85 13.9034 16.85 13.9119C16.85 13.9205 16.8669 13.9438 16.8875 13.9637C16.9081 13.9837 16.925 14.007 16.925 14.0155C16.925 14.0241 16.9419 14.0474 16.9625 14.0674C16.9831 14.0873 17 14.1117 17 14.1215C17 14.1313 17.0112 14.1478 17.025 14.158C17.0387 14.1683 17.05 14.1858 17.05 14.1969C17.05 14.208 17.0613 14.2255 17.075 14.2358C17.0888 14.246 17.1 14.2635 17.1 14.2746C17.1 14.2857 17.1112 14.3032 17.125 14.3135C17.1388 14.3237 17.15 14.3412 17.15 14.3523C17.15 14.3634 17.1613 14.3809 17.175 14.3912C17.1887 14.4015 17.2 14.419 17.2 14.4301C17.2 14.4412 17.2113 14.4586 17.225 14.4689C17.2388 14.4792 17.25 14.498 17.25 14.5106C17.25 14.5233 17.2556 14.5337 17.2625 14.5337C17.2694 14.5337 17.275 14.5441 17.275 14.5567C17.275 14.5694 17.2863 14.5882 17.3 14.5984C17.3137 14.6087 17.325 14.6262 17.325 14.6373C17.325 14.6484 17.3363 14.6659 17.35 14.6762C17.3638 14.6864 17.375 14.7052 17.375 14.7179C17.375 14.7306 17.3806 14.7409 17.3875 14.7409C17.3944 14.7409 17.4 14.7526 17.4 14.7668C17.4 14.7811 17.4056 14.7927 17.4125 14.7927C17.4194 14.7927 17.425 14.8031 17.425 14.8158C17.425 14.8285 17.4363 14.8472 17.45 14.8575C17.4638 14.8678 17.475 14.8866 17.475 14.8992C17.475 14.9119 17.4806 14.9223 17.4875 14.9223C17.4944 14.9223 17.5 14.9339 17.5 14.9482C17.5 14.9624 17.5056 14.9741 17.5125 14.9741C17.5194 14.9741 17.525 14.9858 17.525 15C17.525 15.0142 17.5306 15.0259 17.5375 15.0259C17.5444 15.0259 17.55 15.0376 17.55 15.0518C17.55 15.0661 17.5556 15.0777 17.5625 15.0777C17.5694 15.0777 17.575 15.0881 17.575 15.1008C17.575 15.1134 17.5863 15.1322 17.6 15.1425C17.6138 15.1528 17.625 15.1715 17.625 15.1842C17.625 15.1969 17.6306 15.2073 17.6375 15.2073C17.6444 15.2073 17.65 15.2189 17.65 15.2332C17.65 15.2474 17.6556 15.2591 17.6625 15.2591C17.6694 15.2591 17.675 15.2707 17.675 15.285C17.675 15.2992 17.6806 15.3109 17.6875 15.3109C17.6944 15.3109 17.7 15.3225 17.7 15.3368C17.7 15.351 17.7056 15.3627 17.7125 15.3627C17.7194 15.3627 17.725 15.3744 17.725 15.3886C17.725 15.4029 17.7306 15.4145 17.7375 15.4145C17.7444 15.4145 17.75 15.432 17.75 15.4534C17.75 15.4747 17.7556 15.4922 17.7625 15.4922C17.7694 15.4922 17.775 15.5039 17.775 15.5181C17.775 15.5324 17.7806 15.544 17.7875 15.544C17.7944 15.544 17.8 15.5557 17.8 15.5699C17.8 15.5842 17.8056 15.5959 17.8125 15.5959C17.8194 15.5959 17.825 15.6075 17.825 15.6218C17.825 15.636 17.8306 15.6477 17.8375 15.6477C17.8444 15.6477 17.85 15.6652 17.85 15.6865C17.85 15.7079 17.8556 15.7254 17.8625 15.7254C17.8694 15.7254 17.875 15.737 17.875 15.7513C17.875 15.7655 17.8806 15.7772 17.8875 15.7772C17.8944 15.7772 17.9 15.7889 17.9 15.8031C17.9 15.8174 17.9056 15.829 17.9125 15.829C17.9194 15.829 17.925 15.8465 17.925 15.8679C17.925 15.8892 17.9306 15.9067 17.9375 15.9067C17.9444 15.9067 17.95 15.9184 17.95 15.9326C17.95 15.9469 17.9556 15.9585 17.9625 15.9585C17.9694 15.9585 17.975 15.976 17.975 15.9974C17.975 16.0188 17.9806 16.0363 17.9875 16.0363C17.9944 16.0363 18 16.0479 18 16.0622C18 16.0764 18.0056 16.0881 18.0125 16.0881C18.0194 16.0881 18.025 16.1056 18.025 16.1269C18.025 16.1483 18.0306 16.1658 18.0375 16.1658C18.0444 16.1658 18.05 16.1833 18.05 16.2047C18.05 16.226 18.0556 16.2435 18.0625 16.2435C18.0694 16.2435 18.075 16.261 18.075 16.2824C18.075 16.3038 18.0806 16.3212 18.0875 16.3212C18.0944 16.3212 18.1 16.3329 18.1 16.3472C18.1 16.3614 18.1056 16.3731 18.1125 16.3731C18.1194 16.3731 18.125 16.3905 18.125 16.4119C18.125 16.4333 18.1306 16.4508 18.1375 16.4508C18.1444 16.4508 18.15 16.4683 18.15 16.4896C18.15 16.511 18.1556 16.5285 18.1625 16.5285C18.1694 16.5285 18.175 16.5518 18.175 16.5803C18.175 16.6088 18.1806 16.6321 18.1875 16.6321C18.1944 16.6321 18.2 16.6496 18.2 16.671C18.2 16.6924 18.2056 16.7098 18.2125 16.7098C18.2194 16.7098 18.225 16.7273 18.225 16.7487C18.225 16.7701 18.2306 16.7876 18.2375 16.7876C18.2444 16.7876 18.25 16.8109 18.25 16.8394C18.25 16.8679 18.2556 16.8912 18.2625 16.8912C18.2694 16.8912 18.275 16.9087 18.275 16.9301C18.275 16.9514 18.2806 16.9689 18.2875 16.9689C18.2944 16.9689 18.3 16.9922 18.3 17.0207C18.3 17.0492 18.3056 17.0725 18.3125 17.0725C18.3194 17.0725 18.325 17.0959 18.325 17.1244C18.325 17.1528 18.3306 17.1762 18.3375 17.1762C18.3444 17.1762 18.35 17.1995 18.35 17.228C18.35 17.2565 18.3556 17.2798 18.3625 17.2798C18.3694 17.2798 18.375 17.3143 18.375 17.3575C18.375 17.4007 18.3806 17.4352 18.3875 17.4352C18.3944 17.4352 18.4 17.4585 18.4 17.487C18.4 17.5155 18.4056 17.5389 18.4125 17.5389C18.4195 17.5389 18.425 17.5734 18.425 17.6166C18.425 17.6598 18.4305 17.6943 18.4375 17.6943C18.4444 17.6943 18.45 17.7234 18.45 17.7591C18.45 17.7947 18.4556 17.8238 18.4625 17.8238C18.4696 17.8238 18.475 17.8627 18.475 17.9145C18.475 17.9663 18.4804 18.0052 18.4875 18.0052C18.4948 18.0052 18.5 18.0484 18.5 18.1088C18.5 18.1693 18.5052 18.2124 18.5125 18.2124C18.52 18.2124 18.525 18.2642 18.525 18.342C18.525 18.4197 18.53 18.4715 18.5375 18.4715C18.5444 18.4715 18.55 18.4773 18.55 18.4845C18.55 18.4931 15.6958 18.4974 10.0125 18.4974H1.475V18.3679C1.475 18.2902 1.48 18.2383 1.4875 18.2383C1.49491 18.2383 1.5 18.1908 1.5 18.1218C1.5 18.0527 1.50509 18.0052 1.5125 18.0052C1.51945 18.0052 1.525 17.9706 1.525 17.9275C1.525 17.8843 1.53055 17.8497 1.5375 17.8497C1.54445 17.8497 1.55 17.8152 1.55 17.772C1.55 17.7288 1.55555 17.6943 1.5625 17.6943C1.56938 17.6943 1.575 17.6652 1.575 17.6295C1.575 17.5939 1.58063 17.5648 1.5875 17.5648C1.59438 17.5648 1.6 17.5356 1.6 17.5C1.6 17.4644 1.60563 17.4352 1.6125 17.4352C1.61937 17.4352 1.625 17.4061 1.625 17.3705C1.625 17.3348 1.63063 17.3057 1.6375 17.3057C1.64437 17.3057 1.65 17.2824 1.65 17.2539C1.65 17.2254 1.65562 17.2021 1.6625 17.2021C1.66938 17.2021 1.675 17.1788 1.675 17.1503C1.675 17.1218 1.68063 17.0984 1.6875 17.0984C1.69438 17.0984 1.7 17.0751 1.7 17.0466C1.7 17.0181 1.70563 16.9948 1.7125 16.9948C1.71938 16.9948 1.725 16.9715 1.725 16.943C1.725 16.9145 1.73063 16.8912 1.7375 16.8912C1.74437 16.8912 1.75 16.8679 1.75 16.8394C1.75 16.8109 1.75563 16.7876 1.7625 16.7876C1.76938 16.7876 1.775 16.7701 1.775 16.7487C1.775 16.7273 1.78062 16.7098 1.7875 16.7098C1.79438 16.7098 1.8 16.6924 1.8 16.671C1.8 16.6496 1.80563 16.6321 1.8125 16.6321C1.81938 16.6321 1.825 16.6146 1.825 16.5933C1.825 16.5719 1.83063 16.5544 1.8375 16.5544C1.84438 16.5544 1.85 16.5311 1.85 16.5026C1.85 16.4741 1.85563 16.4508 1.8625 16.4508C1.86937 16.4508 1.875 16.4391 1.875 16.4249C1.875 16.4106 1.88063 16.399 1.8875 16.399C1.89438 16.399 1.9 16.3815 1.9 16.3601C1.9 16.3387 1.90562 16.3212 1.9125 16.3212C1.91938 16.3212 1.925 16.3038 1.925 16.2824C1.925 16.261 1.93063 16.2435 1.9375 16.2435C1.94438 16.2435 1.95 16.226 1.95 16.2047C1.95 16.1833 1.95563 16.1658 1.9625 16.1658C1.96938 16.1658 1.975 16.1483 1.975 16.1269C1.975 16.1056 1.98063 16.0881 1.9875 16.0881C1.99437 16.0881 2 16.0764 2 16.0622C2 16.0479 2.00563 16.0363 2.0125 16.0363C2.01938 16.0363 2.025 16.0188 2.025 15.9974C2.025 15.976 2.03063 15.9585 2.0375 15.9585C2.04437 15.9585 2.05 15.9469 2.05 15.9326C2.05 15.9184 2.05562 15.9067 2.0625 15.9067C2.06938 15.9067 2.075 15.8892 2.075 15.8679C2.075 15.8465 2.08063 15.829 2.0875 15.829C2.09438 15.829 2.1 15.8174 2.1 15.8031C2.1 15.7889 2.10562 15.7772 2.1125 15.7772C2.11937 15.7772 2.125 15.7655 2.125 15.7513C2.125 15.737 2.13063 15.7254 2.1375 15.7254C2.14438 15.7254 2.15 15.7079 2.15 15.6865C2.15 15.6652 2.15563 15.6477 2.1625 15.6477C2.16937 15.6477 2.175 15.636 2.175 15.6218C2.175 15.6075 2.18062 15.5959 2.1875 15.5959C2.19438 15.5959 2.2 15.5842 2.2 15.5699C2.2 15.5557 2.20563 15.544 2.2125 15.544C2.21938 15.544 2.225 15.5324 2.225 15.5181C2.225 15.5039 2.23062 15.4922 2.2375 15.4922C2.24437 15.4922 2.25 15.4806 2.25 15.4663C2.25 15.4521 2.25563 15.4404 2.2625 15.4404C2.26938 15.4404 2.275 15.4288 2.275 15.4145C2.275 15.4003 2.28063 15.3886 2.2875 15.3886C2.29437 15.3886 2.3 15.3769 2.3 15.3627C2.3 15.3484 2.30562 15.3368 2.3125 15.3368C2.31938 15.3368 2.325 15.3251 2.325 15.3109C2.325 15.2966 2.33063 15.285 2.3375 15.285C2.34438 15.285 2.35 15.2733 2.35 15.2591C2.35 15.2448 2.35563 15.2332 2.3625 15.2332C2.36937 15.2332 2.375 15.2215 2.375 15.2073C2.375 15.193 2.38063 15.1813 2.3875 15.1813C2.39438 15.1813 2.4 15.1697 2.4 15.1554C2.4 15.1412 2.40563 15.1295 2.4125 15.1295C2.41937 15.1295 2.425 15.1179 2.425 15.1036C2.425 15.0894 2.43062 15.0777 2.4375 15.0777C2.44438 15.0777 2.45 15.0661 2.45 15.0518C2.45 15.0376 2.45563 15.0259 2.4625 15.0259C2.46938 15.0259 2.475 15.0142 2.475 15C2.475 14.9858 2.48063 14.9741 2.4875 14.9741C2.49437 14.9741 2.5 14.9637 2.5 14.951C2.5 14.9384 2.51125 14.9196 2.525 14.9093C2.53875 14.8991 2.55 14.8803 2.55 14.8676C2.55 14.8549 2.55562 14.8446 2.5625 14.8446C2.56938 14.8446 2.575 14.8329 2.575 14.8187C2.575 14.8044 2.58063 14.7927 2.5875 14.7927C2.59438 14.7927 2.6 14.7824 2.6 14.7697C2.6 14.757 2.61125 14.7383 2.625 14.728C2.63875 14.7177 2.65 14.6989 2.65 14.6863C2.65 14.6736 2.65563 14.6632 2.6625 14.6632C2.66937 14.6632 2.675 14.6528 2.675 14.6402C2.675 14.6275 2.68625 14.6087 2.7 14.5984C2.71375 14.5882 2.725 14.5694 2.725 14.5567C2.725 14.5441 2.73063 14.5337 2.7375 14.5337C2.74437 14.5337 2.75 14.5233 2.75 14.5106C2.75 14.498 2.76125 14.4792 2.775 14.4689C2.78875 14.4586 2.8 14.4412 2.8 14.4301C2.8 14.419 2.81125 14.4015 2.825 14.3912C2.83875 14.3809 2.85 14.3634 2.85 14.3523C2.85 14.3412 2.86125 14.3237 2.875 14.3135C2.88875 14.3032 2.9 14.2857 2.9 14.2746C2.9 14.2635 2.91125 14.246 2.925 14.2358C2.93875 14.2255 2.95 14.209 2.95 14.1992C2.95 14.1894 2.96688 14.165 2.9875 14.1451C3.00813 14.1251 3.025 14.1007 3.025 14.0909C3.025 14.0811 3.03625 14.0647 3.05 14.0544C3.06375 14.0441 3.075 14.0277 3.075 14.0179C3.075 14.0081 3.09188 13.9837 3.1125 13.9637C3.13313 13.9438 3.15 13.9205 3.15 13.9119C3.15 13.9034 3.16688 13.8801 3.1875 13.8601C3.20813 13.8401 3.225 13.8169 3.225 13.8085C3.225 13.8002 3.2475 13.7709 3.275 13.7435C3.3025 13.7161 3.325 13.6871 3.325 13.6789C3.325 13.6708 3.35313 13.6357 3.3875 13.601C3.42188 13.5663 3.45 13.5315 3.45 13.5235C3.45 13.5156 3.48938 13.4689 3.5375 13.4197C3.58562 13.3705 3.625 13.3241 3.625 13.3166C3.625 13.2991 4.25821 12.6425 4.27514 12.6425C4.29385 12.6425 4.475 12.4515 4.475 12.4318C4.475 12.4226 4.48625 12.4066 4.5 12.3964C4.51375 12.3861 4.525 12.3673 4.525 12.3547C4.525 12.342 4.53062 12.3316 4.5375 12.3316C4.54437 12.3316 4.55 12.3199 4.55 12.3057C4.55 12.2915 4.55562 12.2798 4.5625 12.2798C4.56938 12.2798 4.575 12.2623 4.575 12.2409C4.575 12.2196 4.58063 12.2021 4.5875 12.2021C4.59438 12.2021 4.6 12.1729 4.6 12.1373C4.6 12.1017 4.60563 12.0725 4.6125 12.0725C4.61945 12.0725 4.625 12.038 4.625 11.9948C4.625 11.9516 4.61945 11.9171 4.6125 11.9171C4.60563 11.9171 4.6 11.888 4.6 11.8523C4.6 11.8167 4.59438 11.7876 4.5875 11.7876C4.58063 11.7876 4.575 11.7701 4.575 11.7487C4.575 11.7273 4.56938 11.7098 4.5625 11.7098C4.55562 11.7098 4.55 11.6982 4.55 11.6839C4.55 11.6697 4.54437 11.658 4.5375 11.658C4.53062 11.658 4.525 11.6477 4.525 11.635C4.525 11.6223 4.51375 11.6035 4.5 11.5933C4.48625 11.583 4.475 11.567 4.475 11.5577C4.475 11.5358 4.34296 11.399 4.32177 11.399C4.31284 11.399 4.29741 11.3873 4.2875 11.3731C4.27759 11.3588 4.25947 11.3472 4.24724 11.3472C4.23501 11.3472 4.225 11.3413 4.225 11.3342C4.225 11.3271 4.21375 11.3212 4.2 11.3212C4.18625 11.3212 4.175 11.3154 4.175 11.3083C4.175 11.3012 4.15812 11.2953 4.1375 11.2953C4.11688 11.2953 4.1 11.2895 4.1 11.2824C4.1 11.2753 4.07188 11.2694 4.0375 11.2694C4.00313 11.2694 3.975 11.2636 3.975 11.2565C3.975 11.2494 3.94688 11.2435 3.9125 11.2435C3.87812 11.2435 3.85 11.2494 3.85 11.2565C3.85 11.2637 3.81666 11.2694 3.775 11.2694C3.73334 11.2694 3.7 11.2752 3.7 11.2824C3.7 11.2895 3.68313 11.2953 3.6625 11.2953C3.64188 11.2953 3.625 11.3012 3.625 11.3083C3.625 11.3154 3.61375 11.3212 3.6 11.3212C3.58625 11.3212 3.575 11.3271 3.575 11.3342C3.575 11.3413 3.56499 11.3472 3.55276 11.3472C3.54053 11.3472 3.52241 11.3588 3.5125 11.3731C3.50259 11.3873 3.48705 11.399 3.47795 11.399C3.46886 11.399 3.41691 11.4456 3.3625 11.5026C3.30809 11.5596 3.25767 11.6062 3.25047 11.6062C3.23336 11.6062 2.625 12.2366 2.625 12.2544C2.625 12.2618 2.58 12.3141 2.525 12.3705C2.47 12.4269 2.425 12.4794 2.425 12.4872C2.425 12.495 2.39125 12.5358 2.35 12.5777C2.30875 12.6197 2.275 12.6606 2.275 12.6687C2.275 12.6768 2.2525 12.7058 2.225 12.7332C2.1975 12.7605 2.175 12.7898 2.175 12.7982C2.175 12.8066 2.15812 12.8298 2.1375 12.8497C2.11687 12.8697 2.1 12.8929 2.1 12.9013C2.1 12.9097 2.0775 12.9389 2.05 12.9663C2.0225 12.9937 2 13.023 2 13.0313C2 13.0397 1.98312 13.0629 1.9625 13.0829C1.94187 13.1029 1.925 13.1272 1.925 13.137C1.925 13.1469 1.91375 13.1633 1.9 13.1736C1.88625 13.1838 1.875 13.2003 1.875 13.2101C1.875 13.2199 1.85812 13.2443 1.8375 13.2642C1.81687 13.2842 1.8 13.3086 1.8 13.3184C1.8 13.3282 1.78875 13.3447 1.775 13.3549C1.76125 13.3652 1.75 13.3827 1.75 13.3938C1.75 13.4049 1.73875 13.4224 1.725 13.4326C1.71125 13.4429 1.7 13.4604 1.7 13.4715C1.7 13.4826 1.68875 13.5001 1.675 13.5104C1.66125 13.5206 1.65 13.5381 1.65 13.5492C1.65 13.5603 1.63875 13.5778 1.625 13.5881C1.61125 13.5984 1.6 13.6158 1.6 13.6269C1.6 13.638 1.58875 13.6555 1.575 13.6658C1.56125 13.6761 1.55 13.6948 1.55 13.7075C1.55 13.7202 1.54438 13.7306 1.5375 13.7306C1.53062 13.7306 1.525 13.7409 1.525 13.7536C1.525 13.7663 1.51375 13.7851 1.5 13.7953C1.48625 13.8056 1.475 13.8244 1.475 13.8371C1.475 13.8497 1.46938 13.8601 1.4625 13.8601C1.45563 13.8601 1.45 13.8705 1.45 13.8831C1.45 13.8958 1.43875 13.9146 1.425 13.9249C1.41125 13.9351 1.4 13.9526 1.4 13.9637C1.4 13.9748 1.38875 13.9923 1.375 14.0026C1.36125 14.0129 1.35 14.0316 1.35 14.0443C1.35 14.057 1.34438 14.0674 1.3375 14.0674C1.33063 14.0674 1.325 14.079 1.325 14.0933C1.325 14.1075 1.31938 14.1192 1.3125 14.1192C1.30562 14.1192 1.3 14.1295 1.3 14.1422C1.3 14.1549 1.28875 14.1737 1.275 14.1839C1.26125 14.1942 1.25 14.213 1.25 14.2257C1.25 14.2383 1.24437 14.2487 1.2375 14.2487C1.23063 14.2487 1.225 14.2604 1.225 14.2746C1.225 14.2889 1.21938 14.3005 1.2125 14.3005C1.20563 14.3005 1.2 14.3122 1.2 14.3264C1.2 14.3407 1.19438 14.3523 1.1875 14.3523C1.18062 14.3523 1.175 14.364 1.175 14.3782C1.175 14.3925 1.16938 14.4041 1.1625 14.4041C1.15562 14.4041 1.15 14.4158 1.15 14.4301C1.15 14.4443 1.14437 14.456 1.1375 14.456C1.13063 14.456 1.125 14.4676 1.125 14.4819C1.125 14.4961 1.11937 14.5078 1.1125 14.5078C1.10563 14.5078 1.1 14.5194 1.1 14.5337C1.1 14.5479 1.09438 14.5596 1.0875 14.5596C1.08063 14.5596 1.075 14.5712 1.075 14.5855C1.075 14.5997 1.06938 14.6114 1.0625 14.6114C1.05562 14.6114 1.05 14.6231 1.05 14.6373C1.05 14.6516 1.04438 14.6632 1.0375 14.6632C1.03062 14.6632 1.025 14.6749 1.025 14.6891C1.025 14.7034 1.01937 14.715 1.0125 14.715C1.00563 14.715 1 14.7267 1 14.7409C1 14.7552 0.994375 14.7668 0.9875 14.7668C0.980625 14.7668 0.975 14.7785 0.975 14.7927C0.975 14.807 0.969375 14.8187 0.9625 14.8187C0.955625 14.8187 0.95 14.8303 0.95 14.8446C0.95 14.8588 0.944375 14.8705 0.9375 14.8705C0.930625 14.8705 0.925 14.8821 0.925 14.8964C0.925 14.9106 0.919375 14.9223 0.9125 14.9223C0.905625 14.9223 0.9 14.9339 0.9 14.9482C0.9 14.9624 0.894375 14.9741 0.8875 14.9741C0.880625 14.9741 0.875 14.9916 0.875 15.013C0.875 15.0343 0.869375 15.0518 0.8625 15.0518C0.855625 15.0518 0.85 15.0635 0.85 15.0777C0.85 15.092 0.844375 15.1036 0.8375 15.1036C0.830625 15.1036 0.825 15.1153 0.825 15.1295C0.825 15.1438 0.819375 15.1554 0.8125 15.1554C0.805625 15.1554 0.8 15.1671 0.8 15.1813C0.8 15.1956 0.794375 15.2073 0.7875 15.2073C0.780625 15.2073 0.775 15.2247 0.775 15.2461C0.775 15.2675 0.769375 15.285 0.7625 15.285C0.755625 15.285 0.75 15.2966 0.75 15.3109C0.75 15.3251 0.744375 15.3368 0.7375 15.3368C0.730625 15.3368 0.725 15.3543 0.725 15.3756C0.725 15.397 0.719375 15.4145 0.7125 15.4145C0.705625 15.4145 0.7 15.4262 0.7 15.4404C0.7 15.4547 0.694375 15.4663 0.6875 15.4663C0.680625 15.4663 0.675 15.4838 0.675 15.5052C0.675 15.5266 0.669375 15.544 0.6625 15.544C0.655625 15.544 0.65 15.5557 0.65 15.5699C0.65 15.5842 0.644375 15.5959 0.6375 15.5959C0.630625 15.5959 0.625 15.6133 0.625 15.6347C0.625 15.6561 0.619375 15.6736 0.6125 15.6736C0.605625 15.6736 0.6 15.6911 0.6 15.7124C0.6 15.7338 0.594375 15.7513 0.5875 15.7513C0.580625 15.7513 0.575 15.7688 0.575 15.7902C0.575 15.8115 0.569375 15.829 0.5625 15.829C0.555625 15.829 0.55 15.8465 0.55 15.8679C0.55 15.8892 0.544375 15.9067 0.5375 15.9067C0.530625 15.9067 0.525 15.9184 0.525 15.9326C0.525 15.9469 0.519375 15.9585 0.5125 15.9585C0.505625 15.9585 0.5 15.9819 0.5 16.0104C0.5 16.0389 0.494375 16.0622 0.4875 16.0622C0.480625 16.0622 0.475 16.0797 0.475 16.101C0.475 16.1224 0.469375 16.1399 0.4625 16.1399C0.455625 16.1399 0.45 16.1574 0.45 16.1788C0.45 16.2001 0.444375 16.2176 0.4375 16.2176C0.430625 16.2176 0.425 16.2351 0.425 16.2565C0.425 16.2778 0.419375 16.2953 0.4125 16.2953C0.405625 16.2953 0.4 16.3187 0.4 16.3472C0.4 16.3756 0.394375 16.399 0.3875 16.399C0.380625 16.399 0.375 16.4165 0.375 16.4378C0.375 16.4592 0.369375 16.4767 0.3625 16.4767C0.355625 16.4767 0.35 16.5 0.35 16.5285C0.35 16.557 0.344375 16.5803 0.3375 16.5803C0.330625 16.5803 0.325 16.6036 0.325 16.6321C0.325 16.6606 0.319375 16.6839 0.3125 16.6839C0.305625 16.6839 0.3 16.7073 0.3 16.7358C0.3 16.7642 0.294375 16.7876 0.2875 16.7876C0.280625 16.7876 0.275 16.8109 0.275 16.8394C0.275 16.8679 0.269375 16.8912 0.2625 16.8912C0.255625 16.8912 0.25 16.9145 0.25 16.943C0.25 16.9715 0.244375 16.9948 0.2375 16.9948C0.230625 16.9948 0.225 17.024 0.225 17.0596C0.225 17.0952 0.219375 17.1244 0.2125 17.1244C0.205625 17.1244 0.2 17.1535 0.2 17.1891C0.2 17.2247 0.194375 17.2539 0.1875 17.2539C0.180625 17.2539 0.175 17.283 0.175 17.3187C0.175 17.3543 0.169375 17.3834 0.1625 17.3834C0.15555 17.3834 0.15 17.418 0.15 17.4611C0.15 17.5043 0.14445 17.5389 0.1375 17.5389C0.13055 17.5389 0.125 17.5734 0.125 17.6166C0.125 17.6598 0.11945 17.6943 0.1125 17.6943C0.105363 17.6943 0.1 17.7332 0.1 17.785C0.1 17.8368 0.0946375 17.8756 0.0875 17.8756C0.0802125 17.8756 0.075 17.9188 0.075 17.9793C0.075 18.0397 0.0697875 18.0829 0.0625 18.0829C0.054925 18.0829 0.05 18.139 0.05 18.2254C0.05 18.3117 0.045075 18.3679 0.0375 18.3679C0.0297625 18.3679 0.025 18.437 0.025 18.5492C0.025 18.6615 0.0202375 18.7306 0.0125 18.7306C0.0045 18.7306 0 18.8472 0 19.0544C0 19.2617 0.0045 19.3782 0.0125 19.3782C0.019375 19.3782 0.025 19.4016 0.025 19.4301C0.025 19.4585 0.030625 19.4819 0.0375 19.4819C0.044375 19.4819 0.05 19.4994 0.05 19.5207C0.05 19.5421 0.055625 19.5596 0.0625 19.5596C0.069375 19.5596 0.075 19.57 0.075 19.5826C0.075 19.5953 0.08625 19.6141 0.1 19.6244C0.11375 19.6346 0.125 19.6506 0.125 19.6598C0.125 19.6834 0.308 19.8705 0.33105 19.8705C0.341475 19.8705 0.35 19.8763 0.35 19.8834C0.35 19.8905 0.36125 19.8964 0.375 19.8964C0.38875 19.8964 0.4 19.9022 0.4 19.9093C0.4 19.9165 0.41125 19.9223 0.425 19.9223C0.43875 19.9223 0.45 19.9281 0.45 19.9352C0.45 19.9424 0.466875 19.9482 0.4875 19.9482C0.508125 19.9482 0.525 19.954 0.525 19.9611C0.525 19.9683 0.558338 19.9741 0.6 19.9741C0.641663 19.9741 0.675 19.9798 0.675 19.987C0.675 19.9957 3.79166 20 10 20C16.2083 20 19.325 19.9957 19.325 19.987C19.325 19.9798 19.3583 19.9741 19.4 19.9741C19.4417 19.9741 19.475 19.9683 19.475 19.9611C19.475 19.954 19.4919 19.9482 19.5125 19.9482C19.5331 19.9482 19.55 19.9424 19.55 19.9352C19.55 19.9281 19.5613 19.9223 19.575 19.9223C19.5888 19.9223 19.6 19.9165 19.6 19.9093C19.6 19.9022 19.6112 19.8964 19.625 19.8964C19.6388 19.8964 19.65 19.8905 19.65 19.8834C19.65 19.8763 19.6585 19.8705 19.669 19.8705C19.692 19.8705 19.875 19.6834 19.875 19.6598C19.875 19.6506 19.8862 19.6346 19.9 19.6244C19.9137 19.6141 19.925 19.5953 19.925 19.5826C19.925 19.57 19.9306 19.5596 19.9375 19.5596C19.9444 19.5596 19.95 19.5421 19.95 19.5207C19.95 19.4994 19.9556 19.4819 19.9625 19.4819C19.9694 19.4819 19.975 19.4585 19.975 19.4301C19.975 19.4016 19.9806 19.3782 19.9875 19.3782C19.9955 19.3782 20 19.2617 20 19.0544C20 18.8472 19.9955 18.7306 19.9875 18.7306C19.9798 18.7306 19.975 18.6615 19.975 18.5492C19.975 18.437 19.9702 18.3679 19.9625 18.3679C19.9549 18.3679 19.95 18.3117 19.95 18.2254C19.95 18.139 19.9451 18.0829 19.9375 18.0829C19.9302 18.0829 19.925 18.0397 19.925 17.9793C19.925 17.9188 19.9198 17.8756 19.9125 17.8756C19.9054 17.8756 19.9 17.8368 19.9 17.785C19.9 17.7332 19.8946 17.6943 19.8875 17.6943C19.8806 17.6943 19.875 17.6598 19.875 17.6166C19.875 17.5734 19.8694 17.5389 19.8625 17.5389C19.8556 17.5389 19.85 17.5043 19.85 17.4611C19.85 17.418 19.8444 17.3834 19.8375 17.3834C19.8306 17.3834 19.825 17.3543 19.825 17.3187C19.825 17.283 19.8194 17.2539 19.8125 17.2539C19.8056 17.2539 19.8 17.2247 19.8 17.1891C19.8 17.1535 19.7944 17.1244 19.7875 17.1244C19.7806 17.1244 19.775 17.0952 19.775 17.0596C19.775 17.024 19.7694 16.9948 19.7625 16.9948C19.7556 16.9948 19.75 16.9715 19.75 16.943C19.75 16.9145 19.7444 16.8912 19.7375 16.8912C19.7306 16.8912 19.725 16.862 19.725 16.8264C19.725 16.7908 19.7194 16.7617 19.7125 16.7617C19.7056 16.7617 19.7 16.7383 19.7 16.7098C19.7 16.6813 19.6944 16.658 19.6875 16.658C19.6806 16.658 19.675 16.6405 19.675 16.6192C19.675 16.5978 19.6694 16.5803 19.6625 16.5803C19.6556 16.5803 19.65 16.557 19.65 16.5285C19.65 16.5 19.6444 16.4767 19.6375 16.4767C19.6306 16.4767 19.625 16.4592 19.625 16.4378C19.625 16.4165 19.6194 16.399 19.6125 16.399C19.6056 16.399 19.6 16.3756 19.6 16.3472C19.6 16.3187 19.5944 16.2953 19.5875 16.2953C19.5806 16.2953 19.575 16.2778 19.575 16.2565C19.575 16.2351 19.5694 16.2176 19.5625 16.2176C19.5556 16.2176 19.55 16.2001 19.55 16.1788C19.55 16.1574 19.5444 16.1399 19.5375 16.1399C19.5306 16.1399 19.525 16.1224 19.525 16.101C19.525 16.0797 19.5194 16.0622 19.5125 16.0622C19.5056 16.0622 19.5 16.0389 19.5 16.0104C19.5 15.9819 19.4944 15.9585 19.4875 15.9585C19.4806 15.9585 19.475 15.9411 19.475 15.9197C19.475 15.8983 19.4694 15.8808 19.4625 15.8808C19.4556 15.8808 19.45 15.8692 19.45 15.8549C19.45 15.8407 19.4444 15.829 19.4375 15.829C19.4306 15.829 19.425 15.8115 19.425 15.7902C19.425 15.7688 19.4194 15.7513 19.4125 15.7513C19.4056 15.7513 19.4 15.7338 19.4 15.7124C19.4 15.6911 19.3944 15.6736 19.3875 15.6736C19.3806 15.6736 19.375 15.6561 19.375 15.6347C19.375 15.6133 19.3694 15.5959 19.3625 15.5959C19.3556 15.5959 19.35 15.5842 19.35 15.5699C19.35 15.5557 19.3444 15.544 19.3375 15.544C19.3306 15.544 19.325 15.5266 19.325 15.5052C19.325 15.4838 19.3194 15.4663 19.3125 15.4663C19.3056 15.4663 19.3 15.4547 19.3 15.4404C19.3 15.4262 19.2944 15.4145 19.2875 15.4145C19.2806 15.4145 19.275 15.397 19.275 15.3756C19.275 15.3543 19.2694 15.3368 19.2625 15.3368C19.2556 15.3368 19.25 15.3251 19.25 15.3109C19.25 15.2966 19.2444 15.285 19.2375 15.285C19.2306 15.285 19.225 15.2675 19.225 15.2461C19.225 15.2247 19.2194 15.2073 19.2125 15.2073C19.2056 15.2073 19.2 15.1956 19.2 15.1813C19.2 15.1671 19.1944 15.1554 19.1875 15.1554C19.1806 15.1554 19.175 15.1438 19.175 15.1295C19.175 15.1153 19.1694 15.1036 19.1625 15.1036C19.1556 15.1036 19.15 15.0861 19.15 15.0648C19.15 15.0434 19.1444 15.0259 19.1375 15.0259C19.1306 15.0259 19.125 15.0142 19.125 15C19.125 14.9858 19.1194 14.9741 19.1125 14.9741C19.1056 14.9741 19.1 14.9624 19.1 14.9482C19.1 14.9339 19.0944 14.9223 19.0875 14.9223C19.0806 14.9223 19.075 14.9106 19.075 14.8964C19.075 14.8821 19.0694 14.8705 19.0625 14.8705C19.0556 14.8705 19.05 14.8588 19.05 14.8446C19.05 14.8303 19.0444 14.8187 19.0375 14.8187C19.0306 14.8187 19.025 14.807 19.025 14.7927C19.025 14.7785 19.0194 14.7668 19.0125 14.7668C19.0056 14.7668 19 14.7552 19 14.7409C19 14.7267 18.9944 14.715 18.9875 14.715C18.9806 14.715 18.975 14.7034 18.975 14.6891C18.975 14.6749 18.9694 14.6632 18.9625 14.6632C18.9556 14.6632 18.95 14.647 18.95 14.6272C18.95 14.6061 18.9397 14.5835 18.925 14.5725C18.9113 14.5623 18.9 14.5435 18.9 14.5308C18.9 14.5181 18.8944 14.5078 18.8875 14.5078C18.8806 14.5078 18.875 14.4961 18.875 14.4819C18.875 14.4676 18.8694 14.456 18.8625 14.456C18.8556 14.456 18.85 14.4443 18.85 14.4301C18.85 14.4158 18.8444 14.4041 18.8375 14.4041C18.8306 14.4041 18.825 14.3925 18.825 14.3782C18.825 14.364 18.8194 14.3523 18.8125 14.3523C18.8056 14.3523 18.8 14.3407 18.8 14.3264C18.8 14.3122 18.7944 14.3005 18.7875 14.3005C18.7806 14.3005 18.775 14.2889 18.775 14.2746C18.775 14.2604 18.7694 14.2487 18.7625 14.2487C18.7556 14.2487 18.75 14.2383 18.75 14.2257C18.75 14.213 18.7388 14.1942 18.725 14.1839C18.7113 14.1737 18.7 14.1549 18.7 14.1422C18.7 14.1295 18.6944 14.1192 18.6875 14.1192C18.6806 14.1192 18.675 14.1075 18.675 14.0933C18.675 14.079 18.6694 14.0674 18.6625 14.0674C18.6556 14.0674 18.65 14.057 18.65 14.0443C18.65 14.0316 18.6388 14.0129 18.625 14.0026C18.6112 13.9923 18.6 13.9735 18.6 13.9609C18.6 13.9482 18.5944 13.9378 18.5875 13.9378C18.5806 13.9378 18.575 13.9274 18.575 13.9148C18.575 13.9021 18.5638 13.8833 18.55 13.8731C18.5363 13.8628 18.525 13.8453 18.525 13.8342C18.525 13.8231 18.5138 13.8056 18.5 13.7953C18.4862 13.7851 18.475 13.7663 18.475 13.7536C18.475 13.7409 18.4694 13.7306 18.4625 13.7306C18.4556 13.7306 18.45 13.7202 18.45 13.7075C18.45 13.6948 18.4388 13.6761 18.425 13.6658C18.4113 13.6555 18.4 13.638 18.4 13.6269C18.4 13.6158 18.3888 13.5984 18.375 13.5881C18.3612 13.5778 18.35 13.5603 18.35 13.5492C18.35 13.5381 18.3388 13.5206 18.325 13.5104C18.3113 13.5001 18.3 13.4826 18.3 13.4715C18.3 13.4604 18.2887 13.4429 18.275 13.4326C18.2612 13.4224 18.25 13.4049 18.25 13.3938C18.25 13.3827 18.2388 13.3652 18.225 13.3549C18.2113 13.3447 18.2 13.3272 18.2 13.3161C18.2 13.305 18.1888 13.2875 18.175 13.2772C18.1613 13.2669 18.15 13.2505 18.15 13.2407C18.15 13.2309 18.1331 13.2065 18.1125 13.1865C18.0919 13.1666 18.075 13.1433 18.075 13.1347C18.075 13.1262 18.0581 13.1029 18.0375 13.0829C18.0169 13.0629 18 13.0396 18 13.0311C18 13.0226 17.9831 12.9992 17.9625 12.9793C17.9419 12.9593 17.925 12.9361 17.925 12.9277C17.925 12.9193 17.9025 12.8901 17.875 12.8627C17.8475 12.8353 17.825 12.8062 17.825 12.7979C17.825 12.7897 17.8025 12.7605 17.775 12.7332C17.7475 12.7058 17.725 12.6768 17.725 12.6687C17.725 12.6606 17.6912 12.6197 17.65 12.5777C17.6087 12.5358 17.575 12.495 17.575 12.4872C17.575 12.4794 17.53 12.4269 17.475 12.3705C17.42 12.3141 17.375 12.2618 17.375 12.2544C17.375 12.2366 16.7666 11.6062 16.7495 11.6062C16.7422 11.6062 16.6975 11.5654 16.65 11.5155C16.6025 11.4657 16.5575 11.4249 16.5499 11.4249C16.5423 11.4249 16.503 11.3899 16.4625 11.3472C16.422 11.3044 16.3825 11.2694 16.3747 11.2694C16.3669 11.2694 16.3389 11.2461 16.3125 11.2176C16.2861 11.1891 16.2579 11.1658 16.25 11.1658C16.2421 11.1658 16.2139 11.1425 16.1875 11.114C16.1611 11.0855 16.1328 11.0622 16.1248 11.0622C16.1166 11.0622 16.0943 11.0447 16.075 11.0233C16.0557 11.0019 16.0332 10.9845 16.025 10.9845C16.0168 10.9845 15.9943 10.967 15.975 10.9456C15.9557 10.9242 15.9332 10.9067 15.925 10.9067C15.9168 10.9067 15.8943 10.8892 15.875 10.8679C15.8557 10.8465 15.8322 10.829 15.8227 10.829C15.8133 10.829 15.7974 10.8174 15.7875 10.8031C15.7776 10.7889 15.7617 10.7772 15.7523 10.7772C15.7428 10.7772 15.7193 10.7597 15.7 10.7383C15.6807 10.717 15.6572 10.6995 15.6477 10.6995C15.6383 10.6995 15.6224 10.6878 15.6125 10.6736C15.6026 10.6593 15.5857 10.6477 15.575 10.6477C15.5643 10.6477 15.5474 10.636 15.5375 10.6218C15.5276 10.6075 15.5107 10.5959 15.5 10.5959C15.4893 10.5959 15.4724 10.5842 15.4625 10.5699C15.4526 10.5557 15.4345 10.544 15.4222 10.544C15.41 10.544 15.4 10.5382 15.4 10.5311C15.4 10.524 15.39 10.5181 15.3778 10.5181C15.3655 10.5181 15.3474 10.5065 15.3375 10.4922C15.3276 10.478 15.3107 10.4663 15.3 10.4663C15.2893 10.4663 15.2724 10.4547 15.2625 10.4404C15.2526 10.4262 15.2345 10.4145 15.2222 10.4145C15.21 10.4145 15.2 10.4087 15.2 10.4016C15.2 10.3944 15.19 10.3886 15.1778 10.3886C15.1655 10.3886 15.1474 10.3769 15.1375 10.3627C15.1276 10.3484 15.1095 10.3368 15.0972 10.3368C15.085 10.3368 15.075 10.331 15.075 10.3238C15.075 10.3167 15.0638 10.3109 15.05 10.3109C15.0363 10.3109 15.025 10.3051 15.025 10.2979C15.025 10.2908 15.015 10.285 15.0028 10.285C14.9905 10.285 14.9724 10.2733 14.9625 10.2591C14.9526 10.2448 14.9345 10.2332 14.9222 10.2332C14.91 10.2332 14.9 10.2273 14.9 10.2202C14.9 10.2131 14.8888 10.2073 14.875 10.2073C14.8612 10.2073 14.85 10.2014 14.85 10.1943C14.85 10.1872 14.84 10.1813 14.8278 10.1813C14.8155 10.1813 14.7974 10.1697 14.7875 10.1554C14.7776 10.1412 14.7595 10.1295 14.7472 10.1295C14.735 10.1295 14.725 10.1237 14.725 10.1166C14.725 10.1095 14.7137 10.1036 14.7 10.1036C14.6863 10.1036 14.675 10.0978 14.675 10.0907C14.675 10.0835 14.6638 10.0777 14.65 10.0777C14.6363 10.0777 14.625 10.0719 14.625 10.0648C14.625 10.0576 14.6138 10.0518 14.6 10.0518C14.5863 10.0518 14.575 10.046 14.575 10.0389C14.575 10.0317 14.5638 10.0259 14.55 10.0259C14.5363 10.0259 14.525 10.0201 14.525 10.013C14.525 10.0058 14.5138 10 14.5 10C14.4862 10 14.475 9.99417 14.475 9.98705C14.475 9.97992 14.4637 9.97409 14.45 9.97409C14.4363 9.97409 14.425 9.96826 14.425 9.96114C14.425 9.95402 14.4138 9.94819 14.4 9.94819C14.3863 9.94819 14.375 9.94236 14.375 9.93523C14.375 9.92811 14.3638 9.92228 14.35 9.92228C14.3363 9.92228 14.325 9.91645 14.325 9.90933C14.325 9.9022 14.3138 9.89637 14.3 9.89637C14.2815 9.89637 14.275 9.88773 14.275 9.86328C14.275 9.83992 14.2971 9.80768 14.35 9.75389C14.3913 9.71193 14.425 9.67087 14.425 9.66265C14.425 9.65443 14.4419 9.63136 14.4625 9.6114C14.4831 9.59144 14.5 9.56824 14.5 9.55984C14.5 9.55146 14.5225 9.5222 14.55 9.49482C14.5775 9.46743 14.6 9.43712 14.6 9.42745C14.6 9.41777 14.6112 9.40146 14.625 9.39119C14.6388 9.38092 14.65 9.36448 14.65 9.35466C14.65 9.34486 14.6669 9.32048 14.6875 9.30052C14.7081 9.28056 14.725 9.25618 14.725 9.24637C14.725 9.23655 14.7362 9.22012 14.75 9.20984C14.7638 9.19957 14.775 9.18209 14.775 9.17098C14.775 9.15988 14.7863 9.1424 14.8 9.13212C14.8138 9.12185 14.825 9.10308 14.825 9.0904C14.825 9.07773 14.8306 9.06736 14.8375 9.06736C14.8444 9.06736 14.85 9.05698 14.85 9.04431C14.85 9.03163 14.8612 9.01286 14.875 9.00259C14.8888 8.99232 14.9 8.97355 14.9 8.96087C14.9 8.9482 14.9056 8.93782 14.9125 8.93782C14.9194 8.93782 14.925 8.92745 14.925 8.91478C14.925 8.9021 14.9363 8.88333 14.95 8.87306C14.9637 8.86279 14.975 8.84402 14.975 8.83133C14.975 8.81867 14.9806 8.80829 14.9875 8.80829C14.9944 8.80829 15 8.79663 15 8.78238C15 8.76814 15.0056 8.75648 15.0125 8.75648C15.0194 8.75648 15.025 8.74482 15.025 8.73057C15.025 8.71632 15.0306 8.70466 15.0375 8.70466C15.0444 8.70466 15.05 8.69301 15.05 8.67876C15.05 8.66451 15.0556 8.65285 15.0625 8.65285C15.0694 8.65285 15.075 8.64247 15.075 8.62981C15.075 8.61712 15.0863 8.59836 15.1 8.58808C15.1147 8.57711 15.125 8.55455 15.125 8.53341C15.125 8.51361 15.1306 8.49741 15.1375 8.49741C15.1444 8.49741 15.15 8.48575 15.15 8.4715C15.15 8.45725 15.1556 8.4456 15.1625 8.4456C15.1694 8.4456 15.175 8.43394 15.175 8.41969C15.175 8.40544 15.1806 8.39378 15.1875 8.39378C15.1944 8.39378 15.2 8.38212 15.2 8.36788C15.2 8.35363 15.2056 8.34197 15.2125 8.34197C15.2194 8.34197 15.225 8.33031 15.225 8.31606C15.225 8.30181 15.2306 8.29016 15.2375 8.29016C15.2444 8.29016 15.25 8.2785 15.25 8.26425C15.25 8.25 15.2556 8.23834 15.2625 8.23834C15.2694 8.23834 15.275 8.22085 15.275 8.19948C15.275 8.17811 15.2806 8.16062 15.2875 8.16062C15.2944 8.16062 15.3 8.14896 15.3 8.13472C15.3 8.12047 15.3056 8.10881 15.3125 8.10881C15.3194 8.10881 15.325 8.09132 15.325 8.06995C15.325 8.04858 15.3306 8.03109 15.3375 8.03109C15.3444 8.03109 15.35 8.01943 15.35 8.00518C15.35 7.99093 15.3556 7.97927 15.3625 7.97927C15.3694 7.97927 15.375 7.96179 15.375 7.94041C15.375 7.91904 15.3806 7.90155 15.3875 7.90155C15.3944 7.90155 15.4 7.88407 15.4 7.86269C15.4 7.84132 15.4056 7.82383 15.4125 7.82383C15.4194 7.82383 15.425 7.80635 15.425 7.78497C15.425 7.7636 15.4306 7.74611 15.4375 7.74611C15.4444 7.74611 15.45 7.72863 15.45 7.70725C15.45 7.68588 15.4556 7.66839 15.4625 7.66839C15.4694 7.66839 15.475 7.65091 15.475 7.62953C15.475 7.60816 15.4806 7.59067 15.4875 7.59067C15.4944 7.59067 15.5 7.56736 15.5 7.53886C15.5 7.51036 15.5056 7.48705 15.5125 7.48705C15.5194 7.48705 15.525 7.46373 15.525 7.43523C15.525 7.40674 15.5306 7.38342 15.5375 7.38342C15.5444 7.38342 15.55 7.3601 15.55 7.33161C15.55 7.30311 15.5556 7.27979 15.5625 7.27979C15.5694 7.27979 15.575 7.25648 15.575 7.22798C15.575 7.19948 15.5806 7.17617 15.5875 7.17617C15.5944 7.17617 15.6 7.14702 15.6 7.1114C15.6 7.07578 15.6056 7.04663 15.6125 7.04663C15.6195 7.04663 15.625 7.01209 15.625 6.96891C15.625 6.92574 15.6306 6.89119 15.6375 6.89119C15.6445 6.89119 15.65 6.85665 15.65 6.81347C15.65 6.7703 15.6556 6.73575 15.6625 6.73575C15.6699 6.73575 15.675 6.68825 15.675 6.61917C15.675 6.55009 15.6801 6.50259 15.6875 6.50259C15.6953 6.50259 15.7 6.42918 15.7 6.30829C15.7 6.1874 15.7047 6.11399 15.7125 6.11399C15.7202 6.11399 15.725 6.04491 15.725 5.93264C15.725 5.82038 15.7202 5.7513 15.7125 5.7513C15.7047 5.7513 15.7 5.67358 15.7 5.54404C15.7 5.41451 15.6953 5.33679 15.6875 5.33679C15.6802 5.33679 15.675 5.29361 15.675 5.23316C15.675 5.17271 15.6698 5.12953 15.6625 5.12953C15.6556 5.12953 15.65 5.09499 15.65 5.05181C15.65 5.00864 15.6445 4.97409 15.6375 4.97409C15.6306 4.97409 15.625 4.93955 15.625 4.89637C15.625 4.8532 15.6195 4.81865 15.6125 4.81865C15.6056 4.81865 15.6 4.78951 15.6 4.75389C15.6 4.71826 15.5944 4.68912 15.5875 4.68912C15.5806 4.68912 15.575 4.6658 15.575 4.63731C15.575 4.60881 15.5694 4.58549 15.5625 4.58549C15.5556 4.58549 15.55 4.55635 15.55 4.52073C15.55 4.4851 15.5444 4.45596 15.5375 4.45596C15.5306 4.45596 15.525 4.43847 15.525 4.4171C15.525 4.39573 15.5194 4.37824 15.5125 4.37824C15.5056 4.37824 15.5 4.35492 15.5 4.32643C15.5 4.29793 15.4944 4.27461 15.4875 4.27461C15.4806 4.27461 15.475 4.25712 15.475 4.23575C15.475 4.21438 15.4694 4.19689 15.4625 4.19689C15.4556 4.19689 15.45 4.1794 15.45 4.15803C15.45 4.13666 15.4444 4.11917 15.4375 4.11917C15.4306 4.11917 15.425 4.10168 15.425 4.08031C15.425 4.05894 15.4194 4.04145 15.4125 4.04145C15.4056 4.04145 15.4 4.02396 15.4 4.00259C15.4 3.98122 15.3944 3.96373 15.3875 3.96373C15.3806 3.96373 15.375 3.94624 15.375 3.92487C15.375 3.9035 15.3694 3.88601 15.3625 3.88601C15.3556 3.88601 15.35 3.86852 15.35 3.84715C15.35 3.82578 15.3444 3.80829 15.3375 3.80829C15.3306 3.80829 15.325 3.79663 15.325 3.78238C15.325 3.76813 15.3194 3.75648 15.3125 3.75648C15.3056 3.75648 15.3 3.73899 15.3 3.71762C15.3 3.69624 15.2944 3.67876 15.2875 3.67876C15.2806 3.67876 15.275 3.6671 15.275 3.65285C15.275 3.6386 15.2694 3.62694 15.2625 3.62694C15.2556 3.62694 15.25 3.61528 15.25 3.60104C15.25 3.58679 15.2444 3.57513 15.2375 3.57513C15.2306 3.57513 15.225 3.55764 15.225 3.53627C15.225 3.5149 15.2194 3.49741 15.2125 3.49741C15.2056 3.49741 15.2 3.48575 15.2 3.4715C15.2 3.45725 15.1944 3.4456 15.1875 3.4456C15.1806 3.4456 15.175 3.43394 15.175 3.41969C15.175 3.40544 15.1694 3.39378 15.1625 3.39378C15.1556 3.39378 15.15 3.38212 15.15 3.36788C15.15 3.35363 15.1444 3.34197 15.1375 3.34197C15.1306 3.34197 15.125 3.33031 15.125 3.31606C15.125 3.30181 15.1194 3.29016 15.1125 3.29016C15.1056 3.29016 15.1 3.2785 15.1 3.26425C15.1 3.25 15.0944 3.23834 15.0875 3.23834C15.0806 3.23834 15.075 3.22668 15.075 3.21244C15.075 3.19819 15.0694 3.18653 15.0625 3.18653C15.0556 3.18653 15.05 3.17487 15.05 3.16062C15.05 3.14637 15.0444 3.13472 15.0375 3.13472C15.0306 3.13472 15.025 3.12306 15.025 3.10881C15.025 3.09456 15.0194 3.0829 15.0125 3.0829C15.0056 3.0829 15 3.07253 15 3.05986C15 3.04718 14.9888 3.02841 14.975 3.01813C14.9613 3.00786 14.95 2.98909 14.95 2.97641C14.95 2.96374 14.9444 2.95337 14.9375 2.95337C14.9306 2.95337 14.925 2.94299 14.925 2.93032C14.925 2.91764 14.9138 2.89887 14.9 2.8886C14.8863 2.87833 14.875 2.85956 14.875 2.84688C14.875 2.83421 14.8694 2.82383 14.8625 2.82383C14.8556 2.82383 14.85 2.81346 14.85 2.80079C14.85 2.78811 14.8387 2.76934 14.825 2.75907C14.8113 2.7488 14.8 2.73131 14.8 2.72021C14.8 2.70911 14.7888 2.69162 14.775 2.68135C14.7613 2.67108 14.75 2.65359 14.75 2.64249C14.75 2.63139 14.7388 2.6139 14.725 2.60363C14.7113 2.59335 14.7 2.57692 14.7 2.5671C14.7 2.55729 14.6831 2.53291 14.6625 2.51295C14.6419 2.49299 14.625 2.46861 14.625 2.45881C14.625 2.44899 14.6138 2.43255 14.6 2.42228C14.5863 2.41201 14.575 2.3957 14.575 2.38602C14.575 2.37635 14.5525 2.34604 14.525 2.31865C14.4975 2.29127 14.475 2.26212 14.475 2.25389C14.475 2.24565 14.4525 2.2165 14.425 2.18912C14.3975 2.16174 14.375 2.1328 14.375 2.12482C14.375 2.11683 14.33 2.06416 14.275 2.00777C14.22 1.95139 14.175 1.89911 14.175 1.89159C14.175 1.87377 13.9168 1.60622 13.8996 1.60622C13.8924 1.60622 13.8419 1.55959 13.7875 1.50259C13.7331 1.4456 13.6823 1.39896 13.6746 1.39896C13.6669 1.39896 13.6389 1.37565 13.6125 1.34715C13.5861 1.31865 13.558 1.29534 13.55 1.29534C13.5421 1.29534 13.5139 1.27202 13.4875 1.24352C13.4611 1.21503 13.4318 1.19171 13.4225 1.19171C13.4131 1.19171 13.3974 1.18005 13.3875 1.1658C13.3776 1.15155 13.3617 1.1399 13.3523 1.1399C13.3428 1.1399 13.3193 1.12241 13.3 1.10104C13.2807 1.07966 13.2572 1.06218 13.2477 1.06218C13.2383 1.06218 13.2224 1.05052 13.2125 1.03627C13.2026 1.02202 13.1857 1.01036 13.175 1.01036C13.1643 1.01036 13.1474 0.998705 13.1375 0.984456C13.1276 0.970207 13.1107 0.958549 13.1 0.958549C13.0893 0.958549 13.0724 0.946891 13.0625 0.932643C13.0526 0.918394 13.0345 0.906736 13.0222 0.906736C13.01 0.906736 13 0.900907 13 0.893782C13 0.886658 12.99 0.880829 12.9778 0.880829C12.9655 0.880829 12.9474 0.869171 12.9375 0.854922C12.9276 0.840674 12.9095 0.829016 12.8972 0.829016C12.885 0.829016 12.875 0.823187 12.875 0.816062C12.875 0.808938 12.865 0.803109 12.8528 0.803109C12.8405 0.803109 12.8224 0.791451 12.8125 0.777202C12.8026 0.762953 12.7845 0.751295 12.7722 0.751295C12.76 0.751295 12.75 0.745466 12.75 0.738342C12.75 0.731218 12.7388 0.725389 12.725 0.725389C12.7113 0.725389 12.7 0.71956 12.7 0.712435C12.7 0.705311 12.6888 0.699482 12.675 0.699482C12.6613 0.699482 12.65 0.693653 12.65 0.686529C12.65 0.679404 12.6388 0.673575 12.625 0.673575C12.6112 0.673575 12.6 0.667746 12.6 0.660622C12.6 0.653497 12.5887 0.647668 12.575 0.647668C12.5612 0.647668 12.55 0.641839 12.55 0.634715C12.55 0.627591 12.5388 0.621762 12.525 0.621762C12.5113 0.621762 12.5 0.615933 12.5 0.608808C12.5 0.601684 12.4888 0.595855 12.475 0.595855C12.4613 0.595855 12.45 0.590026 12.45 0.582902C12.45 0.575777 12.4388 0.569948 12.425 0.569948C12.4113 0.569948 12.4 0.564119 12.4 0.556995C12.4 0.54987 12.3888 0.544041 12.375 0.544041C12.3612 0.544041 12.35 0.538212 12.35 0.531088C12.35 0.523964 12.3331 0.518135 12.3125 0.518135C12.2919 0.518135 12.275 0.512306 12.275 0.505181C12.275 0.498057 12.2638 0.492228 12.25 0.492228C12.2362 0.492228 12.225 0.486399 12.225 0.479275C12.225 0.47215 12.2137 0.466321 12.2 0.466321C12.1862 0.466321 12.175 0.460492 12.175 0.453368C12.175 0.446244 12.1581 0.440415 12.1375 0.440415C12.1169 0.440415 12.1 0.434586 12.1 0.427461C12.1 0.420337 12.0887 0.414508 12.075 0.414508C12.0612 0.414508 12.05 0.408679 12.05 0.401554C12.05 0.39443 12.0331 0.388601 12.0125 0.388601C11.9919 0.388601 11.975 0.382772 11.975 0.375648C11.975 0.368523 11.9581 0.362694 11.9375 0.362694C11.9169 0.362694 11.9 0.356865 11.9 0.349741C11.9 0.342617 11.8888 0.336788 11.875 0.336788C11.8612 0.336788 11.85 0.330959 11.85 0.323834C11.85 0.31671 11.8331 0.310881 11.8125 0.310881C11.7919 0.310881 11.775 0.305052 11.775 0.297927C11.775 0.290803 11.7525 0.284974 11.725 0.284974C11.6975 0.284974 11.675 0.279145 11.675 0.272021C11.675 0.264896 11.6581 0.259067 11.6375 0.259067C11.6169 0.259067 11.6 0.253238 11.6 0.246114C11.6 0.23899 11.5831 0.233161 11.5625 0.233161C11.5419 0.233161 11.525 0.227332 11.525 0.220207C11.525 0.213083 11.5025 0.207254 11.475 0.207254C11.4475 0.207254 11.425 0.201425 11.425 0.194301C11.425 0.187176 11.4025 0.181347 11.375 0.181347C11.3475 0.181347 11.325 0.175518 11.325 0.168394C11.325 0.161269 11.2969 0.15544 11.2625 0.15544C11.2281 0.15544 11.2 0.149611 11.2 0.142487C11.2 0.135363 11.1719 0.129534 11.1375 0.129534C11.1031 0.129534 11.075 0.123705 11.075 0.11658C11.075 0.109456 11.0469 0.103627 11.0125 0.103627C10.9781 0.103627 10.95 0.0977979 10.95 0.0906736C10.95 0.0832772 10.9125 0.0777202 10.8625 0.0777202C10.8125 0.0777202 10.775 0.0721632 10.775 0.0647668C10.775 0.0570855 10.7292 0.0518135 10.6625 0.0518135C10.5958 0.0518135 10.55 0.0465415 10.55 0.0388601C10.55 0.0308031 10.4792 0.0259067 10.3625 0.0259067C10.2458 0.0259067 10.175 0.0210104 10.175 0.0129534C10.175 0.00493523 10.1083 0 10 0C9.89166 0 9.825 0.00493523 9.825 0.0129534ZM10.45 1.51554C10.45 1.52294 10.4875 1.5285 10.5375 1.5285C10.5875 1.5285 10.625 1.53405 10.625 1.54145C10.625 1.54885 10.6625 1.5544 10.7125 1.5544C10.7625 1.5544 10.8 1.55996 10.8 1.56736C10.8 1.57448 10.8281 1.58031 10.8625 1.58031C10.8969 1.58031 10.925 1.58614 10.925 1.59326C10.925 1.60039 10.9475 1.60622 10.975 1.60622C11.0025 1.60622 11.025 1.61205 11.025 1.61917C11.025 1.6263 11.0475 1.63212 11.075 1.63212C11.1025 1.63212 11.125 1.63795 11.125 1.64508C11.125 1.6522 11.1419 1.65803 11.1625 1.65803C11.1831 1.65803 11.2 1.66386 11.2 1.67098C11.2 1.67811 11.2225 1.68394 11.25 1.68394C11.2775 1.68394 11.3 1.68977 11.3 1.69689C11.3 1.70402 11.3169 1.70984 11.3375 1.70984C11.3581 1.70984 11.375 1.71567 11.375 1.7228C11.375 1.72992 11.3863 1.73575 11.4 1.73575C11.4137 1.73575 11.425 1.74158 11.425 1.7487C11.425 1.75583 11.4419 1.76166 11.4625 1.76166C11.4831 1.76166 11.5 1.76749 11.5 1.77461C11.5 1.78174 11.5169 1.78756 11.5375 1.78756C11.5581 1.78756 11.575 1.79339 11.575 1.80052C11.575 1.80764 11.5863 1.81347 11.6 1.81347C11.6138 1.81347 11.625 1.8193 11.625 1.82642C11.625 1.83355 11.6419 1.83938 11.6625 1.83938C11.6831 1.83938 11.7 1.84521 11.7 1.85233C11.7 1.85946 11.7113 1.86529 11.725 1.86529C11.7388 1.86529 11.75 1.87111 11.75 1.87824C11.75 1.88536 11.7613 1.89119 11.775 1.89119C11.7888 1.89119 11.8 1.89702 11.8 1.90415C11.8 1.91127 11.8112 1.9171 11.825 1.9171C11.8387 1.9171 11.85 1.92293 11.85 1.93005C11.85 1.93718 11.8612 1.94301 11.875 1.94301C11.8888 1.94301 11.9 1.94883 11.9 1.95596C11.9 1.96308 11.9113 1.96891 11.925 1.96891C11.9388 1.96891 11.95 1.97474 11.95 1.98187C11.95 1.98899 11.9613 1.99482 11.975 1.99482C11.9888 1.99482 12 2.00065 12 2.00777C12 2.0149 12.0113 2.02073 12.025 2.02073C12.0388 2.02073 12.05 2.02655 12.05 2.03368C12.05 2.0408 12.0612 2.04663 12.075 2.04663C12.0887 2.04663 12.1 2.05246 12.1 2.05959C12.1 2.06671 12.11 2.07254 12.1222 2.07254C12.1345 2.07254 12.1526 2.0842 12.1625 2.09845C12.1724 2.11269 12.1905 2.12435 12.2028 2.12435C12.215 2.12435 12.225 2.13018 12.225 2.13731C12.225 2.14443 12.235 2.15026 12.2472 2.15026C12.2595 2.15026 12.2776 2.16192 12.2875 2.17617C12.2974 2.19041 12.3143 2.20207 12.325 2.20207C12.3357 2.20207 12.3526 2.21373 12.3625 2.22798C12.3724 2.24223 12.3893 2.25389 12.4 2.25389C12.4107 2.25389 12.4276 2.26554 12.4375 2.27979C12.4474 2.29404 12.4633 2.3057 12.4727 2.3057C12.4822 2.3057 12.5057 2.32319 12.525 2.34456C12.5443 2.36593 12.5667 2.38342 12.5747 2.38342C12.5828 2.38342 12.6111 2.40674 12.6375 2.43523C12.6639 2.46373 12.6919 2.48705 12.6997 2.48705C12.7075 2.48705 12.747 2.52202 12.7875 2.56477C12.828 2.60751 12.8671 2.64249 12.8744 2.64249C12.8918 2.64249 13.175 2.93592 13.175 2.95395C13.175 2.96154 13.2087 3.00209 13.25 3.04404C13.2913 3.086 13.325 3.12693 13.325 3.13501C13.325 3.1431 13.3475 3.1721 13.375 3.19948C13.4025 3.22687 13.425 3.25613 13.425 3.26451C13.425 3.2729 13.4419 3.2961 13.4625 3.31606C13.4831 3.33602 13.5 3.3604 13.5 3.37021C13.5 3.38003 13.5113 3.39646 13.525 3.40674C13.5388 3.41701 13.55 3.43449 13.55 3.4456C13.55 3.4567 13.5612 3.47418 13.575 3.48446C13.5887 3.49473 13.6 3.51222 13.6 3.52332C13.6 3.53442 13.6112 3.5519 13.625 3.56218C13.6388 3.57245 13.65 3.59122 13.65 3.6039C13.65 3.61657 13.6556 3.62694 13.6625 3.62694C13.6694 3.62694 13.675 3.63732 13.675 3.64999C13.675 3.66267 13.6862 3.68144 13.7 3.69171C13.7137 3.70198 13.725 3.72075 13.725 3.73343C13.725 3.7461 13.7306 3.75648 13.7375 3.75648C13.7444 3.75648 13.75 3.76813 13.75 3.78238C13.75 3.79663 13.7556 3.80829 13.7625 3.80829C13.7694 3.80829 13.775 3.81995 13.775 3.8342C13.775 3.84845 13.7806 3.8601 13.7875 3.8601C13.7944 3.8601 13.8 3.87176 13.8 3.88601C13.8 3.90026 13.8056 3.91192 13.8125 3.91192C13.8194 3.91192 13.825 3.92358 13.825 3.93782C13.825 3.95207 13.8306 3.96373 13.8375 3.96373C13.8444 3.96373 13.85 3.97539 13.85 3.98964C13.85 4.00389 13.8556 4.01554 13.8625 4.01554C13.8694 4.01554 13.875 4.0272 13.875 4.04145C13.875 4.0557 13.8806 4.06736 13.8875 4.06736C13.8944 4.06736 13.9 4.07902 13.9 4.09326C13.9 4.10751 13.9056 4.11917 13.9125 4.11917C13.9194 4.11917 13.925 4.13083 13.925 4.14508C13.925 4.15933 13.9306 4.17098 13.9375 4.17098C13.9444 4.17098 13.95 4.18847 13.95 4.20984C13.95 4.23122 13.9556 4.2487 13.9625 4.2487C13.9694 4.2487 13.975 4.26036 13.975 4.27461C13.975 4.28886 13.9806 4.30052 13.9875 4.30052C13.9944 4.30052 14 4.31801 14 4.33938C14 4.36075 14.0056 4.37824 14.0125 4.37824C14.0194 4.37824 14.025 4.3899 14.025 4.40415C14.025 4.41839 14.0306 4.43005 14.0375 4.43005C14.0444 4.43005 14.05 4.44754 14.05 4.46891C14.05 4.49028 14.0556 4.50777 14.0625 4.50777C14.0694 4.50777 14.075 4.52526 14.075 4.54663C14.075 4.56801 14.0806 4.58549 14.0875 4.58549C14.0944 4.58549 14.1 4.60881 14.1 4.63731C14.1 4.6658 14.1056 4.68912 14.1125 4.68912C14.1194 4.68912 14.125 4.70661 14.125 4.72798C14.125 4.74935 14.1306 4.76684 14.1375 4.76684C14.1444 4.76684 14.15 4.79016 14.15 4.81865C14.15 4.84715 14.1556 4.87047 14.1625 4.87047C14.1694 4.87047 14.175 4.89961 14.175 4.93523C14.175 4.97085 14.1806 5 14.1875 5C14.1944 5 14.2 5.02915 14.2 5.06477C14.2 5.10039 14.2056 5.12953 14.2125 5.12953C14.2194 5.12953 14.225 5.15868 14.225 5.1943C14.225 5.22992 14.2306 5.25907 14.2375 5.25907C14.2448 5.25907 14.25 5.30224 14.25 5.36269C14.25 5.42315 14.2552 5.46632 14.2625 5.46632C14.2706 5.46632 14.275 5.6304 14.275 5.93264C14.275 6.23488 14.2706 6.39896 14.2625 6.39896C14.2554 6.39896 14.25 6.43782 14.25 6.48964C14.25 6.54145 14.2446 6.58031 14.2375 6.58031C14.2305 6.58031 14.225 6.61486 14.225 6.65803C14.225 6.7012 14.2194 6.73575 14.2125 6.73575C14.2056 6.73575 14.2 6.7649 14.2 6.80052C14.2 6.83614 14.1944 6.86528 14.1875 6.86528C14.1806 6.86528 14.175 6.89443 14.175 6.93005C14.175 6.96567 14.1694 6.99482 14.1625 6.99482C14.1556 6.99482 14.15 7.01813 14.15 7.04663C14.15 7.07513 14.1444 7.09845 14.1375 7.09845C14.1306 7.09845 14.125 7.11593 14.125 7.13731C14.125 7.15868 14.1194 7.17617 14.1125 7.17617C14.1056 7.17617 14.1 7.19365 14.1 7.21503C14.1 7.2364 14.0944 7.25389 14.0875 7.25389C14.0806 7.25389 14.075 7.27137 14.075 7.29275C14.075 7.31412 14.0694 7.33161 14.0625 7.33161C14.0556 7.33161 14.05 7.34909 14.05 7.37047C14.05 7.39184 14.0444 7.40933 14.0375 7.40933C14.0306 7.40933 14.025 7.42681 14.025 7.44819C14.025 7.46956 14.0194 7.48705 14.0125 7.48705C14.0056 7.48705 14 7.50453 14 7.52591C14 7.54728 13.9944 7.56477 13.9875 7.56477C13.9806 7.56477 13.975 7.57643 13.975 7.59067C13.975 7.60492 13.9694 7.61658 13.9625 7.61658C13.9556 7.61658 13.95 7.63407 13.95 7.65544C13.95 7.67681 13.9444 7.6943 13.9375 7.6943C13.9306 7.6943 13.925 7.70596 13.925 7.72021C13.925 7.73446 13.9194 7.74611 13.9125 7.74611C13.9056 7.74611 13.9 7.75777 13.9 7.77202C13.9 7.78627 13.8944 7.79793 13.8875 7.79793C13.8806 7.79793 13.875 7.80959 13.875 7.82383C13.875 7.83808 13.8694 7.84974 13.8625 7.84974C13.8556 7.84974 13.85 7.8614 13.85 7.87565C13.85 7.8899 13.8444 7.90155 13.8375 7.90155C13.8306 7.90155 13.825 7.91321 13.825 7.92746C13.825 7.94171 13.8194 7.95337 13.8125 7.95337C13.8056 7.95337 13.8 7.96503 13.8 7.97927C13.8 7.99352 13.7944 8.00518 13.7875 8.00518C13.7806 8.00518 13.775 8.01684 13.775 8.03109C13.775 8.04534 13.7694 8.05699 13.7625 8.05699C13.7556 8.05699 13.75 8.06737 13.75 8.08004C13.75 8.09272 13.7388 8.11149 13.725 8.12176C13.7113 8.13203 13.7 8.1508 13.7 8.16348C13.7 8.17615 13.6944 8.18653 13.6875 8.18653C13.6806 8.18653 13.675 8.1969 13.675 8.20957C13.675 8.22225 13.6638 8.24102 13.65 8.2513C13.6363 8.26157 13.625 8.27905 13.625 8.29016C13.625 8.30126 13.6138 8.31874 13.6 8.32902C13.5863 8.33929 13.575 8.35677 13.575 8.36788C13.575 8.37898 13.5638 8.39646 13.55 8.40674C13.5363 8.41701 13.525 8.43449 13.525 8.4456C13.525 8.4567 13.5138 8.47418 13.5 8.48446C13.4862 8.49473 13.475 8.51117 13.475 8.52098C13.475 8.53079 13.4581 8.55517 13.4375 8.57513C13.4169 8.59509 13.4 8.61829 13.4 8.62668C13.4 8.63507 13.3775 8.66433 13.35 8.69171C13.3225 8.71909 13.3 8.74803 13.3 8.75601C13.3 8.764 13.255 8.81667 13.2 8.87306C13.145 8.92944 13.1 8.98176 13.1 8.98933C13.1 9.00729 12.942 9.17098 12.9246 9.17098C12.9173 9.17098 12.8725 9.21179 12.825 9.26166C12.7775 9.31153 12.7324 9.35233 12.7246 9.35233C12.7169 9.35233 12.6889 9.37565 12.6625 9.40415C12.6361 9.43264 12.6078 9.45596 12.5997 9.45596C12.5917 9.45596 12.5693 9.47345 12.55 9.49482C12.5307 9.51619 12.5072 9.53368 12.4977 9.53368C12.4883 9.53368 12.4724 9.54534 12.4625 9.55959C12.4526 9.57383 12.4357 9.58549 12.425 9.58549C12.4143 9.58549 12.3974 9.59715 12.3875 9.6114C12.3776 9.62565 12.3607 9.63731 12.35 9.63731C12.3393 9.63731 12.3224 9.64896 12.3125 9.66321C12.3026 9.67746 12.2857 9.68912 12.275 9.68912C12.2643 9.68912 12.2474 9.70078 12.2375 9.71503C12.2276 9.72927 12.2095 9.74093 12.1972 9.74093C12.185 9.74093 12.175 9.74676 12.175 9.75389C12.175 9.76101 12.165 9.76684 12.1528 9.76684C12.1405 9.76684 12.1224 9.7785 12.1125 9.79275C12.1026 9.807 12.0845 9.81865 12.0722 9.81865C12.06 9.81865 12.05 9.82448 12.05 9.83161C12.05 9.83873 12.0388 9.84456 12.025 9.84456C12.0113 9.84456 12 9.85039 12 9.85751C12 9.86464 11.9888 9.87047 11.975 9.87047C11.9613 9.87047 11.95 9.8763 11.95 9.88342C11.95 9.89054 11.9388 9.89637 11.925 9.89637C11.9113 9.89637 11.9 9.9022 11.9 9.90933C11.9 9.91645 11.8888 9.92228 11.875 9.92228C11.8612 9.92228 11.85 9.92811 11.85 9.93523C11.85 9.94236 11.8387 9.94819 11.825 9.94819C11.8112 9.94819 11.8 9.95402 11.8 9.96114C11.8 9.96826 11.7888 9.97409 11.775 9.97409C11.7613 9.97409 11.75 9.97992 11.75 9.98705C11.75 9.99417 11.7331 10 11.7125 10C11.6919 10 11.675 10.0058 11.675 10.013C11.675 10.0201 11.6638 10.0259 11.65 10.0259C11.6363 10.0259 11.625 10.0317 11.625 10.0389C11.625 10.046 11.6081 10.0518 11.5875 10.0518C11.5669 10.0518 11.55 10.0576 11.55 10.0648C11.55 10.0719 11.5388 10.0777 11.525 10.0777C11.5113 10.0777 11.5 10.0835 11.5 10.0907C11.5 10.0978 11.4831 10.1036 11.4625 10.1036C11.4419 10.1036 11.425 10.1095 11.425 10.1166C11.425 10.1237 11.4081 10.1295 11.3875 10.1295C11.3669 10.1295 11.35 10.1354 11.35 10.1425C11.35 10.1496 11.3331 10.1554 11.3125 10.1554C11.2919 10.1554 11.275 10.1613 11.275 10.1684C11.275 10.1755 11.2525 10.1813 11.225 10.1813C11.1975 10.1813 11.175 10.1872 11.175 10.1943C11.175 10.2014 11.1581 10.2073 11.1375 10.2073C11.1169 10.2073 11.1 10.2131 11.1 10.2202C11.1 10.2273 11.0775 10.2332 11.05 10.2332C11.0225 10.2332 11 10.239 11 10.2461C11 10.2532 10.9775 10.2591 10.95 10.2591C10.9225 10.2591 10.9 10.2649 10.9 10.272C10.9 10.2792 10.8667 10.285 10.825 10.285C10.7833 10.285 10.75 10.2907 10.75 10.2979C10.75 10.3051 10.7167 10.3109 10.675 10.3109C10.6333 10.3109 10.6 10.3166 10.6 10.3238C10.6 10.3314 10.5583 10.3368 10.5 10.3368C10.4417 10.3368 10.4 10.3422 10.4 10.3497C10.4 10.3581 10.2583 10.3627 10 10.3627C9.74166 10.3627 9.6 10.3581 9.6 10.3497C9.6 10.3422 9.55834 10.3368 9.5 10.3368C9.44166 10.3368 9.4 10.3314 9.4 10.3238C9.4 10.3166 9.36666 10.3109 9.325 10.3109C9.28334 10.3109 9.25 10.3051 9.25 10.2979C9.25 10.2907 9.21666 10.285 9.175 10.285C9.13334 10.285 9.1 10.2792 9.1 10.272C9.1 10.2649 9.0775 10.2591 9.05 10.2591C9.0225 10.2591 9 10.2532 9 10.2461C9 10.239 8.9775 10.2332 8.95 10.2332C8.9225 10.2332 8.9 10.2273 8.9 10.2202C8.9 10.2131 8.88313 10.2073 8.8625 10.2073C8.84188 10.2073 8.825 10.2014 8.825 10.1943C8.825 10.1872 8.8025 10.1813 8.775 10.1813C8.7475 10.1813 8.725 10.1755 8.725 10.1684C8.725 10.1613 8.70813 10.1554 8.6875 10.1554C8.66687 10.1554 8.65 10.1496 8.65 10.1425C8.65 10.1354 8.63313 10.1295 8.6125 10.1295C8.59188 10.1295 8.575 10.1237 8.575 10.1166C8.575 10.1095 8.55813 10.1036 8.5375 10.1036C8.51688 10.1036 8.5 10.0978 8.5 10.0907C8.5 10.0835 8.48875 10.0777 8.475 10.0777C8.46125 10.0777 8.45 10.0719 8.45 10.0648C8.45 10.0576 8.43313 10.0518 8.4125 10.0518C8.39188 10.0518 8.375 10.046 8.375 10.0389C8.375 10.0317 8.36375 10.0259 8.35 10.0259C8.33625 10.0259 8.325 10.0201 8.325 10.013C8.325 10.0058 8.31375 10 8.3 10C8.28625 10 8.275 9.99417 8.275 9.98705C8.275 9.97992 8.25813 9.97409 8.2375 9.97409C8.21688 9.97409 8.2 9.96826 8.2 9.96114C8.2 9.95402 8.18875 9.94819 8.175 9.94819C8.16125 9.94819 8.15 9.94236 8.15 9.93523C8.15 9.92811 8.13875 9.92228 8.125 9.92228C8.11125 9.92228 8.1 9.91645 8.1 9.90933C8.1 9.9022 8.08875 9.89637 8.075 9.89637C8.06125 9.89637 8.05 9.89054 8.05 9.88342C8.05 9.8763 8.03875 9.87047 8.025 9.87047C8.01125 9.87047 8 9.86464 8 9.85751C8 9.85039 7.98875 9.84456 7.975 9.84456C7.96125 9.84456 7.95 9.83873 7.95 9.83161C7.95 9.82448 7.93999 9.81865 7.92776 9.81865C7.91553 9.81865 7.89741 9.807 7.8875 9.79275C7.87759 9.7785 7.85948 9.76684 7.84724 9.76684C7.83501 9.76684 7.825 9.76101 7.825 9.75389C7.825 9.74676 7.81499 9.74093 7.80276 9.74093C7.79053 9.74093 7.77241 9.72927 7.7625 9.71503C7.75259 9.70078 7.73571 9.68912 7.725 9.68912C7.71429 9.68912 7.69741 9.67746 7.6875 9.66321C7.67759 9.64896 7.66071 9.63731 7.65 9.63731C7.63929 9.63731 7.62241 9.62565 7.6125 9.6114C7.60259 9.59715 7.58571 9.58549 7.575 9.58549C7.56429 9.58549 7.54741 9.57383 7.5375 9.55959C7.52759 9.54534 7.51172 9.53368 7.50225 9.53368C7.49279 9.53368 7.46926 9.51619 7.45 9.49482C7.43074 9.47345 7.40835 9.45596 7.40025 9.45596C7.39216 9.45596 7.36392 9.43264 7.3375 9.40415C7.31108 9.37565 7.28315 9.35233 7.27545 9.35233C7.26774 9.35233 7.21691 9.3057 7.1625 9.2487C7.10809 9.19171 7.05759 9.14508 7.05026 9.14508C7.03293 9.14508 6.9 9.00733 6.9 8.98937C6.9 8.98177 6.855 8.92944 6.8 8.87306C6.745 8.81667 6.7 8.764 6.7 8.75601C6.7 8.74803 6.6775 8.71909 6.65 8.69171C6.6225 8.66433 6.6 8.63507 6.6 8.62668C6.6 8.61829 6.58313 8.59509 6.5625 8.57513C6.54187 8.55517 6.525 8.53185 6.525 8.52332C6.525 8.51478 6.50813 8.49146 6.4875 8.4715C6.46688 8.45154 6.45 8.42716 6.45 8.41736C6.45 8.40754 6.43875 8.3911 6.425 8.38083C6.41125 8.37056 6.4 8.35179 6.4 8.33911C6.4 8.32644 6.39438 8.31606 6.3875 8.31606C6.38063 8.31606 6.375 8.30569 6.375 8.29302C6.375 8.28034 6.36375 8.26157 6.35 8.2513C6.33625 8.24102 6.325 8.22225 6.325 8.20957C6.325 8.1969 6.31938 8.18653 6.3125 8.18653C6.30562 8.18653 6.3 8.17615 6.3 8.16348C6.3 8.1508 6.28875 8.13203 6.275 8.12176C6.26125 8.11149 6.25 8.09272 6.25 8.08004C6.25 8.06737 6.24438 8.05699 6.2375 8.05699C6.23063 8.05699 6.225 8.04534 6.225 8.03109C6.225 8.01684 6.21938 8.00518 6.2125 8.00518C6.20563 8.00518 6.2 7.99352 6.2 7.97927C6.2 7.96503 6.19438 7.95337 6.1875 7.95337C6.18062 7.95337 6.175 7.94171 6.175 7.92746C6.175 7.91321 6.16937 7.90155 6.1625 7.90155C6.15562 7.90155 6.15 7.8899 6.15 7.87565C6.15 7.8614 6.14438 7.84974 6.1375 7.84974C6.13063 7.84974 6.125 7.83808 6.125 7.82383C6.125 7.80959 6.11938 7.79793 6.1125 7.79793C6.10563 7.79793 6.1 7.78627 6.1 7.77202C6.1 7.75777 6.09438 7.74611 6.0875 7.74611C6.08063 7.74611 6.075 7.73446 6.075 7.72021C6.075 7.70596 6.06938 7.6943 6.0625 7.6943C6.05562 7.6943 6.05 7.67681 6.05 7.65544C6.05 7.63407 6.04437 7.61658 6.0375 7.61658C6.03062 7.61658 6.025 7.60492 6.025 7.59067C6.025 7.57643 6.01938 7.56477 6.0125 7.56477C6.00563 7.56477 6 7.54728 6 7.52591C6 7.50453 5.99438 7.48705 5.9875 7.48705C5.98063 7.48705 5.975 7.46956 5.975 7.44819C5.975 7.42681 5.96938 7.40933 5.9625 7.40933C5.95563 7.40933 5.95 7.39184 5.95 7.37047C5.95 7.34909 5.94438 7.33161 5.9375 7.33161C5.93062 7.33161 5.925 7.31412 5.925 7.29275C5.925 7.27137 5.91937 7.25389 5.9125 7.25389C5.90562 7.25389 5.9 7.2364 5.9 7.21503C5.9 7.19365 5.89438 7.17617 5.8875 7.17617C5.88063 7.17617 5.875 7.15868 5.875 7.13731C5.875 7.11593 5.86938 7.09845 5.8625 7.09845C5.85563 7.09845 5.85 7.07513 5.85 7.04663C5.85 7.01813 5.84438 6.99482 5.8375 6.99482C5.83063 6.99482 5.825 6.96567 5.825 6.93005C5.825 6.89443 5.81938 6.86528 5.8125 6.86528C5.80562 6.86528 5.8 6.83614 5.8 6.80052C5.8 6.7649 5.79437 6.73575 5.7875 6.73575C5.78062 6.73575 5.775 6.70661 5.775 6.67098C5.775 6.63536 5.76938 6.60622 5.7625 6.60622C5.75521 6.60622 5.75 6.56304 5.75 6.50259C5.75 6.44214 5.74479 6.39896 5.7375 6.39896C5.7294 6.39896 5.725 6.23488 5.725 5.93264C5.725 5.6304 5.7294 5.46632 5.7375 5.46632C5.74479 5.46632 5.75 5.42315 5.75 5.36269C5.75 5.30224 5.75521 5.25907 5.7625 5.25907C5.76938 5.25907 5.775 5.22992 5.775 5.1943C5.775 5.15868 5.78062 5.12953 5.7875 5.12953C5.79437 5.12953 5.8 5.10039 5.8 5.06477C5.8 5.02915 5.80562 5 5.8125 5C5.81938 5 5.825 4.97085 5.825 4.93523C5.825 4.89961 5.83063 4.87047 5.8375 4.87047C5.84438 4.87047 5.85 4.84715 5.85 4.81865C5.85 4.79016 5.85563 4.76684 5.8625 4.76684C5.86938 4.76684 5.875 4.74935 5.875 4.72798C5.875 4.70661 5.88063 4.68912 5.8875 4.68912C5.89438 4.68912 5.9 4.67163 5.9 4.65026C5.9 4.62889 5.90562 4.6114 5.9125 4.6114C5.91937 4.6114 5.925 4.59391 5.925 4.57254C5.925 4.55117 5.93062 4.53368 5.9375 4.53368C5.94438 4.53368 5.95 4.51036 5.95 4.48187C5.95 4.45337 5.95563 4.43005 5.9625 4.43005C5.96938 4.43005 5.975 4.41839 5.975 4.40415C5.975 4.3899 5.98063 4.37824 5.9875 4.37824C5.99438 4.37824 6 4.36075 6 4.33938C6 4.31801 6.00563 4.30052 6.0125 4.30052C6.01938 4.30052 6.025 4.28886 6.025 4.27461C6.025 4.26036 6.03062 4.2487 6.0375 4.2487C6.04437 4.2487 6.05 4.23122 6.05 4.20984C6.05 4.18847 6.05562 4.17098 6.0625 4.17098C6.06938 4.17098 6.075 4.15933 6.075 4.14508C6.075 4.13083 6.08063 4.11917 6.0875 4.11917C6.09438 4.11917 6.1 4.10751 6.1 4.09326C6.1 4.07902 6.10563 4.06736 6.1125 4.06736C6.11938 4.06736 6.125 4.0557 6.125 4.04145C6.125 4.0272 6.13063 4.01554 6.1375 4.01554C6.14438 4.01554 6.15 4.00389 6.15 3.98964C6.15 3.97539 6.15562 3.96373 6.1625 3.96373C6.16937 3.96373 6.175 3.95207 6.175 3.93782C6.175 3.92358 6.18062 3.91192 6.1875 3.91192C6.19438 3.91192 6.2 3.90026 6.2 3.88601C6.2 3.87176 6.20563 3.8601 6.2125 3.8601C6.21938 3.8601 6.225 3.84845 6.225 3.8342C6.225 3.81995 6.23063 3.80829 6.2375 3.80829C6.24438 3.80829 6.25 3.79663 6.25 3.78238C6.25 3.76813 6.25563 3.75648 6.2625 3.75648C6.26938 3.75648 6.275 3.7461 6.275 3.73343C6.275 3.72075 6.28625 3.70198 6.3 3.69171C6.31375 3.68144 6.325 3.66267 6.325 3.64999C6.325 3.63732 6.33063 3.62694 6.3375 3.62694C6.34438 3.62694 6.35 3.61657 6.35 3.6039C6.35 3.59122 6.36125 3.57245 6.375 3.56218C6.38875 3.5519 6.4 3.53442 6.4 3.52332C6.4 3.51222 6.41125 3.49473 6.425 3.48446C6.43875 3.47418 6.45 3.4567 6.45 3.4456C6.45 3.43449 6.46125 3.41701 6.475 3.40674C6.48875 3.39646 6.5 3.38003 6.5 3.37021C6.5 3.3604 6.51688 3.33602 6.5375 3.31606C6.55813 3.2961 6.575 3.2729 6.575 3.26451C6.575 3.25613 6.5975 3.22687 6.625 3.19948C6.6525 3.1721 6.675 3.1431 6.675 3.13501C6.675 3.12693 6.70875 3.086 6.75 3.04404C6.79125 3.00209 6.825 2.96154 6.825 2.95395C6.825 2.93592 7.10816 2.64249 7.12556 2.64249C7.13289 2.64249 7.17201 2.60751 7.2125 2.56477C7.25299 2.52202 7.29249 2.48705 7.30029 2.48705C7.30809 2.48705 7.33608 2.46373 7.3625 2.43523C7.38893 2.40674 7.41817 2.38342 7.42751 2.38342C7.43685 2.38342 7.45259 2.37176 7.4625 2.35751C7.47241 2.34326 7.48828 2.33161 7.49775 2.33161C7.50721 2.33161 7.53074 2.31412 7.55 2.29275C7.56926 2.27137 7.59279 2.25389 7.60225 2.25389C7.61172 2.25389 7.62759 2.24223 7.6375 2.22798C7.64741 2.21373 7.66429 2.20207 7.675 2.20207C7.68571 2.20207 7.70259 2.19041 7.7125 2.17617C7.72241 2.16192 7.74053 2.15026 7.75276 2.15026C7.76499 2.15026 7.775 2.14443 7.775 2.13731C7.775 2.13018 7.78501 2.12435 7.79724 2.12435C7.80947 2.12435 7.82759 2.11269 7.8375 2.09845C7.84741 2.0842 7.86553 2.07254 7.87776 2.07254C7.88999 2.07254 7.9 2.06671 7.9 2.05959C7.9 2.05246 7.91125 2.04663 7.925 2.04663C7.93875 2.04663 7.95 2.0408 7.95 2.03368C7.95 2.02655 7.96125 2.02073 7.975 2.02073C7.98875 2.02073 8 2.0149 8 2.00777C8 2.00065 8.01125 1.99482 8.025 1.99482C8.03875 1.99482 8.05 1.98899 8.05 1.98187C8.05 1.97474 8.06125 1.96891 8.075 1.96891C8.08875 1.96891 8.1 1.96308 8.1 1.95596C8.1 1.94883 8.11125 1.94301 8.125 1.94301C8.13875 1.94301 8.15 1.93718 8.15 1.93005C8.15 1.92293 8.16125 1.9171 8.175 1.9171C8.18875 1.9171 8.2 1.91127 8.2 1.90415C8.2 1.89702 8.21125 1.89119 8.225 1.89119C8.23875 1.89119 8.25 1.88536 8.25 1.87824C8.25 1.87111 8.26125 1.86529 8.275 1.86529C8.28875 1.86529 8.3 1.85946 8.3 1.85233C8.3 1.84521 8.31688 1.83938 8.3375 1.83938C8.35812 1.83938 8.375 1.83355 8.375 1.82642C8.375 1.8193 8.38625 1.81347 8.4 1.81347C8.41375 1.81347 8.425 1.80764 8.425 1.80052C8.425 1.79339 8.44188 1.78756 8.4625 1.78756C8.48312 1.78756 8.5 1.78174 8.5 1.77461C8.5 1.76749 8.51125 1.76166 8.525 1.76166C8.53875 1.76166 8.55 1.75583 8.55 1.7487C8.55 1.74158 8.56688 1.73575 8.5875 1.73575C8.60812 1.73575 8.625 1.72992 8.625 1.7228C8.625 1.71567 8.64188 1.70984 8.6625 1.70984C8.68313 1.70984 8.7 1.70402 8.7 1.69689C8.7 1.68977 8.7225 1.68394 8.75 1.68394C8.7775 1.68394 8.8 1.67811 8.8 1.67098C8.8 1.66386 8.81688 1.65803 8.8375 1.65803C8.85812 1.65803 8.875 1.6522 8.875 1.64508C8.875 1.63795 8.8975 1.63212 8.925 1.63212C8.9525 1.63212 8.975 1.6263 8.975 1.61917C8.975 1.61205 9.00313 1.60622 9.0375 1.60622C9.07188 1.60622 9.1 1.60039 9.1 1.59326C9.1 1.58614 9.1225 1.58031 9.15 1.58031C9.1775 1.58031 9.2 1.57448 9.2 1.56736C9.2 1.56016 9.23334 1.5544 9.275 1.5544C9.31666 1.5544 9.35 1.54865 9.35 1.54145C9.35 1.5339 9.39166 1.5285 9.45 1.5285C9.50834 1.5285 9.55 1.5231 9.55 1.51554C9.55 1.50715 9.70834 1.50259 10 1.50259C10.2917 1.50259 10.45 1.50715 10.45 1.51554Z" fill="black"/>
</svg>
