<?xml version="1.0" encoding="utf-8"?>
<!-- Generator: Adobe Illustrator 22.1.0, SVG Export Plug-In . SVG Version: 6.00 Build 0)  -->
<svg version="1.1" id="Capa_1" xmlns="http://www.w3.org/2000/svg" xmlns:xlink="http://www.w3.org/1999/xlink" x="0px" y="0px"
	 viewBox="0 0 512 512" style="enable-background:new 0 0 512 512;" xml:space="preserve">
<style type="text/css">
	.st0{fill:#FFFFFF;}
</style>
<path class="st0" d="M256,510.1c-67.5,0-131-26.3-178.8-74.1S3,324.6,3,257S29.3,125.8,77.1,78C124.9,30.2,188.4,3.9,255.9,3.9
	c67.4,0,131,26.3,179,74.1c47.8,48,74.1,111.6,74.1,179s-26.3,131-74.1,179C387,483.7,323.4,510.1,256,510.1z M256,25.7
	c-61.9,0-120,24-163.6,67.6c-43.6,43.8-67.6,101.9-67.6,163.6s24,119.8,67.6,163.6c43.6,43.6,101.7,67.6,163.6,67.6
	s120-24,163.6-67.6c43.7-43.7,67.8-101.8,67.8-163.6c0-61.8-24.1-119.9-67.8-163.6C376,49.7,317.9,25.7,256,25.7z M256,267.9
	c-3.8,0-7.4-2.1-9.4-5.6l-0.1-0.1l-0.1-0.1l-0.3-0.6v-0.2l-0.4-0.8v-0.2l-0.2-0.4v-0.2l-0.2-0.4V258l-0.2-0.2V90.1
	c0-6,4.7-10.8,10.8-10.8c6.1,0,11,4.8,11,10.8v155.8h119.7c5.9,0,10.8,4.9,10.8,11c0,6.1-4.8,11-10.8,11H256z"/>
</svg>
