<svg width="50" height="50" viewBox="0 0 50 50" fill="none" xmlns="http://www.w3.org/2000/svg">
<g clip-path="url(#clip0_578_2757)">
<path d="M25 0C24.3051 0 23.7533 0.562027 23.7533 1.2569V34.9479L18.0411 29.2356C17.5506 28.7451 16.7638 28.7451 16.2733 29.2356C15.7828 29.7261 15.7828 30.513 16.2733 31.0035L24.1212 38.8514C24.3665 39.0967 24.6832 39.2193 25.0102 39.2193C25.327 39.2193 25.654 39.0967 25.8993 38.8514L33.7472 31.0035C34.2377 30.513 34.2377 29.7261 33.7472 29.2356C33.2567 28.7451 32.4699 28.7451 31.9794 29.2356L26.2671 34.9479V1.2569C26.2569 0.562027 25.6949 0 25 0ZM48.6665 47.4862H1.33356C0.638688 47.4862 0.0766602 48.0482 0.0766602 48.7431C0.0766602 49.438 0.638688 50 1.33356 50H48.6665C49.3614 50 49.9234 49.438 49.9234 48.7431C49.9234 48.0482 49.3614 47.4862 48.6665 47.4862Z" fill="#1862E5"/>
</g>
<defs>
<clipPath id="clip0_578_2757">
<rect width="50" height="50" fill="white"/>
</clipPath>
</defs>
</svg>
