<svg width="25" height="25" viewBox="0 0 25 25" fill="none" xmlns="http://www.w3.org/2000/svg">
<path fill-rule="evenodd" clip-rule="evenodd" d="M18.7498 1.04163V5.20829H23.9582L22.2394 22.427C22.1353 23.2812 21.4165 23.9583 20.5415 23.9583H18.7498V21.875H20.1978L21.6561 7.29163H11.6978L11.4582 5.20829H16.6665V1.04163H18.7498ZM8.854 9.36454C4.94775 9.36454 1.0415 11.4583 1.0415 15.625H16.6665C16.6665 11.4583 12.7603 9.36454 8.854 9.36454ZM1.0415 22.8958C1.0415 23.4791 1.51025 23.9479 2.09359 23.9479H15.6248C16.2082 23.9479 16.6769 23.4791 16.6769 22.8958V21.875H1.0415V22.8958ZM8.854 11.4479C7.38525 11.4479 4.92692 11.927 3.77067 13.5416H13.9373C12.7811 11.927 10.3228 11.4479 8.854 11.4479ZM1.0415 17.7083H16.6665V19.7916H1.0415V17.7083Z" fill="black"/>
</svg>
