<?xml version="1.0" encoding="utf-8"?>
<!-- Generator: Adobe Illustrator 25.2.0, SVG Export Plug-In . SVG Version: 6.00 Build 0)  -->
<svg version="1.1" id="Слой_1" xmlns="http://www.w3.org/2000/svg" xmlns:xlink="http://www.w3.org/1999/xlink" x="0px" y="0px"
	 viewBox="0 0 698.75 142.08" style="enable-background:new 0 0 698.75 142.08;" xml:space="preserve">
<style type="text/css">
	.st0{fill:#CF1C1D;}
</style>
<circle class="st0" cx="71.04" cy="71.04" r="41.72"/>
<path d="M105.32,101.16l7.07,7.07c6.76-7.51,11.5-16.86,13.38-27.22h-10.19C113.89,88.63,110.29,95.51,105.32,101.16z"/>
<path d="M71.06,116.66c-25.2,0-45.62-20.42-45.62-45.62H15.41c0,30.72,24.9,55.63,55.63,55.63c12.82,0,24.63-4.34,34.03-11.63
	l-7.14-7.14C90.4,113.41,81.11,116.66,71.06,116.66z"/>
<path d="M115.58,81.02h10.19c0.59-3.24,0.89-6.57,0.89-9.98h-9.98C116.68,74.47,116.3,77.81,115.58,81.02z"/>
<path d="M97.94,107.9l7.14,7.14c2.64-2.04,5.09-4.32,7.32-6.8l-7.07-7.07C103.11,103.67,100.64,105.93,97.94,107.9z"/>
<path d="M71.04,15.41v10.01c0.01,0,0.02,0,0.02,0c12.61,0,24.02,5.11,32.28,13.38l7.06-7.06C100.33,21.65,86.41,15.41,71.04,15.41z"
	/>
<path d="M126.32,64.89h-10.08h-32.1H71.15h-0.11v10.17h45.43c-2.04,23.31-21.6,41.59-45.43,41.59c-25.2,0-45.62-20.42-45.62-45.62
	s20.42-45.62,45.62-45.62c10.7,0,20.54,3.69,28.32,9.87c2.67,2.11,5.09,4.52,7.22,7.17l7.11-7.11c-2.18-2.6-4.59-5.01-7.21-7.18
	C96.85,20.2,84.5,15.41,71.04,15.41c-30.72,0-55.63,24.9-55.63,55.63s24.9,55.63,55.63,55.63c29.36,0,53.4-22.76,55.46-51.59
	c0.1-1.33,0.16-2.67,0.16-4.03C126.66,68.96,126.54,66.91,126.32,64.89z"/>
<polygon points="131.37,131.37 71.04,131.37 71.04,142.08 142.08,142.08 142.08,71.04 131.37,71.04 "/>
<polygon points="10.7,10.7 71.04,10.7 71.04,0 0,0 0,71.04 10.7,71.04 "/>
<g>
	<path d="M239.4,69.43h21.56v41.37c-11.21,8.46-26.66,12.96-41.22,12.96c-32.05,0-55.64-21.99-55.64-52.72
		c0-30.74,23.6-52.73,56.08-52.73c17.92,0,32.78,6.12,42.68,17.62L247.7,49.92c-7.43-7.86-16.02-11.5-26.37-11.5
		c-19.81,0-33.36,13.25-33.36,32.63c0,19.07,13.54,32.63,33.07,32.63c6.41,0,12.38-1.17,18.35-4.38V69.43z"/>
	<path d="M361.82,103.08v18.94h-78.95V20.06h77.05V39h-53.6v22.13h47.34v18.36h-47.34v23.59H361.82z"/>
	<path d="M380.66,20.06h46.32c33.35,0,56.22,20.1,56.22,50.99c0,30.87-22.87,50.98-56.22,50.98h-46.32V20.06z M425.81,102.65
		c20.25,0,33.5-12.1,33.5-31.61c0-19.52-13.25-31.61-33.5-31.61h-21.56v63.22H425.81z"/>
	<path d="M582.61,102.79v19.23h-89.15v-15.3l55.93-67.44h-54.77V20.06h85.79v15.3l-55.79,67.44H582.61z"/>
	<path d="M664.96,100.17h-47.34l-9.03,21.85h-24.18l45.44-101.97h23.31l45.59,101.97h-24.76L664.96,100.17z M657.53,82.25
		l-16.17-39.03l-16.17,39.03H657.53z"/>
</g>
</svg>
