<svg width="22" height="22" viewBox="0 0 22 22" fill="none" xmlns="http://www.w3.org/2000/svg">
<path fill-rule="evenodd" clip-rule="evenodd" d="M10.8075 0.0142487C10.8075 0.0231114 10.7296 0.0284974 10.6013 0.0284974C10.4729 0.0284974 10.395 0.0338834 10.395 0.0427461C10.395 0.0511956 10.3446 0.0569948 10.2712 0.0569948C10.1979 0.0569948 10.1475 0.062794 10.1475 0.0712435C10.1475 0.0793795 10.1063 0.0854922 10.0513 0.0854922C9.99625 0.0854922 9.955 0.0916049 9.955 0.0997409C9.955 0.107578 9.92406 0.11399 9.88625 0.11399C9.84844 0.11399 9.8175 0.120402 9.8175 0.128238C9.8175 0.136075 9.78656 0.142487 9.74875 0.142487C9.71094 0.142487 9.68 0.148899 9.68 0.156736C9.68 0.164573 9.64906 0.170984 9.61125 0.170984C9.57344 0.170984 9.5425 0.177396 9.5425 0.185233C9.5425 0.19307 9.51775 0.199482 9.4875 0.199482C9.45725 0.199482 9.4325 0.205894 9.4325 0.213731C9.4325 0.221567 9.41394 0.227979 9.39125 0.227979C9.36856 0.227979 9.35 0.234391 9.35 0.242228C9.35 0.250065 9.32525 0.256477 9.295 0.256477C9.26475 0.256477 9.24 0.262889 9.24 0.270725C9.24 0.278562 9.22144 0.284974 9.19875 0.284974C9.17606 0.284974 9.1575 0.291386 9.1575 0.299223C9.1575 0.30706 9.13894 0.313472 9.11625 0.313472C9.09356 0.313472 9.075 0.319883 9.075 0.32772C9.075 0.335557 9.05025 0.341969 9.02 0.341969C8.98975 0.341969 8.965 0.348381 8.965 0.356218C8.965 0.364054 8.95263 0.370466 8.9375 0.370466C8.92237 0.370466 8.91 0.376878 8.91 0.384715C8.91 0.392552 8.89144 0.398964 8.86875 0.398964C8.84606 0.398964 8.8275 0.405376 8.8275 0.413212C8.8275 0.421049 8.80894 0.427461 8.78625 0.427461C8.76356 0.427461 8.745 0.433873 8.745 0.44171C8.745 0.449547 8.73263 0.455959 8.7175 0.455959C8.70238 0.455959 8.69 0.46237 8.69 0.470207C8.69 0.478044 8.67144 0.484456 8.64875 0.484456C8.62606 0.484456 8.6075 0.490868 8.6075 0.498705C8.6075 0.506541 8.59513 0.512953 8.58 0.512953C8.56488 0.512953 8.5525 0.519365 8.5525 0.527202C8.5525 0.535039 8.54013 0.541451 8.525 0.541451C8.50988 0.541451 8.4975 0.547863 8.4975 0.5557C8.4975 0.563536 8.47894 0.569948 8.45625 0.569948C8.43356 0.569948 8.415 0.57636 8.415 0.584197C8.415 0.592034 8.40263 0.598446 8.3875 0.598446C8.37238 0.598446 8.36 0.604858 8.36 0.612694C8.36 0.620531 8.34763 0.626943 8.3325 0.626943C8.31738 0.626943 8.305 0.633355 8.305 0.641192C8.305 0.649029 8.29263 0.655441 8.2775 0.655441C8.26237 0.655441 8.25 0.661852 8.25 0.669689C8.25 0.677526 8.23763 0.683938 8.2225 0.683938C8.20738 0.683938 8.195 0.69035 8.195 0.698187C8.195 0.706023 8.18262 0.712435 8.1675 0.712435C8.15238 0.712435 8.14 0.718847 8.14 0.726684C8.14 0.734521 8.12763 0.740933 8.1125 0.740933C8.09737 0.740933 8.085 0.747345 8.085 0.755181C8.085 0.763018 8.07263 0.76943 8.0575 0.76943C8.04237 0.76943 8.03 0.775842 8.03 0.783679C8.03 0.791516 8.01763 0.797928 8.0025 0.797928C7.98738 0.797928 7.975 0.804339 7.975 0.812176C7.975 0.820013 7.96399 0.826425 7.95054 0.826425C7.93708 0.826425 7.91715 0.839249 7.90625 0.854922C7.89535 0.870596 7.87542 0.88342 7.86196 0.88342C7.84851 0.88342 7.8375 0.889832 7.8375 0.897668C7.8375 0.905505 7.82649 0.911917 7.81304 0.911917C7.79958 0.911917 7.77965 0.924741 7.76875 0.940415C7.75785 0.956088 7.73792 0.968912 7.72446 0.968912C7.71101 0.968912 7.7 0.975324 7.7 0.983161C7.7 0.990997 7.68899 0.997409 7.67554 0.997409C7.66208 0.997409 7.64215 1.01023 7.63125 1.02591C7.62035 1.04158 7.60178 1.0544 7.59 1.0544C7.57822 1.0544 7.55965 1.06723 7.54875 1.0829C7.53785 1.09858 7.51928 1.1114 7.5075 1.1114C7.49572 1.1114 7.47715 1.12422 7.46625 1.1399C7.45535 1.15557 7.4379 1.16839 7.42747 1.16839C7.41707 1.16839 7.39119 1.18763 7.37 1.21114C7.34881 1.23465 7.32293 1.25389 7.31253 1.25389C7.3021 1.25389 7.28465 1.26671 7.27375 1.28238C7.26285 1.29806 7.24554 1.31088 7.23526 1.31088C7.22499 1.31088 7.19282 1.33653 7.16375 1.36788C7.13468 1.39922 7.10383 1.42487 7.09518 1.42487C7.08654 1.42487 7.04934 1.45693 7.0125 1.49611C6.97566 1.5353 6.93865 1.56736 6.93023 1.56736C6.92181 1.56736 6.87221 1.61224 6.82 1.6671C6.76779 1.72196 6.71853 1.76684 6.71051 1.76684C6.69152 1.76684 6.4075 2.06109 6.4075 2.08075C6.4075 2.08902 6.358 2.14652 6.2975 2.20855C6.237 2.27057 6.1875 2.32851 6.1875 2.3373C6.1875 2.34608 6.16275 2.37791 6.1325 2.40803C6.10225 2.43815 6.0775 2.47021 6.0775 2.47927C6.0775 2.48834 6.05275 2.5204 6.0225 2.55052C5.99225 2.58064 5.9675 2.61398 5.9675 2.62463C5.9675 2.63527 5.95513 2.65321 5.94 2.66451C5.92488 2.67581 5.9125 2.69389 5.9125 2.70469C5.9125 2.71548 5.89394 2.74229 5.87125 2.76425C5.84856 2.78621 5.83 2.81302 5.83 2.82381C5.83 2.83461 5.81763 2.85269 5.8025 2.86399C5.78738 2.87529 5.775 2.89452 5.775 2.90674C5.775 2.91895 5.76263 2.93818 5.7475 2.94948C5.73238 2.96078 5.72 2.98002 5.72 2.99223C5.72 3.00444 5.70763 3.02368 5.6925 3.03497C5.67738 3.04627 5.665 3.06692 5.665 3.08087C5.665 3.0948 5.65881 3.10622 5.65125 3.10622C5.64369 3.10622 5.6375 3.11763 5.6375 3.13157C5.6375 3.14552 5.62512 3.16616 5.61 3.17746C5.59488 3.18876 5.5825 3.20941 5.5825 3.22336C5.5825 3.23729 5.57631 3.2487 5.56875 3.2487C5.56119 3.2487 5.555 3.26012 5.555 3.27405C5.555 3.288 5.54263 3.30865 5.5275 3.31995C5.51238 3.33125 5.5 3.35189 5.5 3.36584C5.5 3.37978 5.49381 3.39119 5.48625 3.39119C5.47869 3.39119 5.4725 3.40402 5.4725 3.41969C5.4725 3.43536 5.46631 3.44819 5.45875 3.44819C5.45119 3.44819 5.445 3.46101 5.445 3.47668C5.445 3.49236 5.43881 3.50518 5.43125 3.50518C5.42369 3.50518 5.4175 3.51801 5.4175 3.53368C5.4175 3.54935 5.41131 3.56218 5.40375 3.56218C5.39619 3.56218 5.39 3.575 5.39 3.59067C5.39 3.60635 5.38381 3.61917 5.37625 3.61917C5.36869 3.61917 5.3625 3.63199 5.3625 3.64767C5.3625 3.66334 5.35631 3.67617 5.34875 3.67617C5.34119 3.67617 5.335 3.68899 5.335 3.70466C5.335 3.72034 5.32881 3.73316 5.32125 3.73316C5.31369 3.73316 5.3075 3.74598 5.3075 3.76166C5.3075 3.77733 5.30131 3.79016 5.29375 3.79016C5.28619 3.79016 5.28 3.80298 5.28 3.81865C5.28 3.83433 5.27381 3.84715 5.26625 3.84715C5.25869 3.84715 5.2525 3.86639 5.2525 3.8899C5.2525 3.91341 5.24631 3.93264 5.23875 3.93264C5.23119 3.93264 5.225 3.94547 5.225 3.96114C5.225 3.97681 5.21881 3.98964 5.21125 3.98964C5.20369 3.98964 5.1975 4.00246 5.1975 4.01814C5.1975 4.03381 5.19131 4.04663 5.18375 4.04663C5.17619 4.04663 5.17 4.06587 5.17 4.08938C5.17 4.11289 5.16381 4.13212 5.15625 4.13212C5.14869 4.13212 5.1425 4.14495 5.1425 4.16062C5.1425 4.1763 5.13631 4.18912 5.12875 4.18912C5.12119 4.18912 5.115 4.20835 5.115 4.23187C5.115 4.25538 5.10881 4.27461 5.10125 4.27461C5.09369 4.27461 5.0875 4.29385 5.0875 4.31736C5.0875 4.34087 5.08131 4.3601 5.07375 4.3601C5.06619 4.3601 5.06 4.37934 5.06 4.40285C5.06 4.42636 5.05381 4.4456 5.04625 4.4456C5.03869 4.4456 5.0325 4.46483 5.0325 4.48834C5.0325 4.51185 5.02631 4.53109 5.01875 4.53109C5.01119 4.53109 5.005 4.55032 5.005 4.57383C5.005 4.59734 4.99881 4.61658 4.99125 4.61658C4.98369 4.61658 4.9775 4.63582 4.9775 4.65933C4.9775 4.68284 4.97131 4.70207 4.96375 4.70207C4.95619 4.70207 4.95 4.72772 4.95 4.75907C4.95 4.79041 4.94381 4.81606 4.93625 4.81606C4.92869 4.81606 4.9225 4.8353 4.9225 4.85881C4.9225 4.88232 4.91631 4.90155 4.90875 4.90155C4.90119 4.90155 4.895 4.9272 4.895 4.95855C4.895 4.9899 4.88881 5.01554 4.88125 5.01554C4.87369 5.01554 4.8675 5.0476 4.8675 5.08679C4.8675 5.12597 4.86131 5.15803 4.85375 5.15803C4.84619 5.15803 4.84 5.19009 4.84 5.22928C4.84 5.26846 4.83381 5.30052 4.82625 5.30052C4.8186 5.30052 4.8125 5.33852 4.8125 5.38601C4.8125 5.4335 4.8064 5.4715 4.79875 5.4715C4.79111 5.4715 4.785 5.5095 4.785 5.557C4.785 5.60449 4.7789 5.64249 4.77125 5.64249C4.76323 5.64249 4.7575 5.68998 4.7575 5.75648C4.7575 5.82298 4.75177 5.87047 4.74375 5.87047C4.7352 5.87047 4.73 5.95121 4.73 6.0842C4.73 6.21718 4.7248 6.29793 4.71625 6.29793C4.70766 6.29793 4.7025 6.38342 4.7025 6.52591C4.7025 6.66839 4.70766 6.75389 4.71625 6.75389C4.72476 6.75389 4.73 6.82988 4.73 6.95337C4.73 7.07686 4.73524 7.15285 4.74375 7.15285C4.7519 7.15285 4.7575 7.2051 4.7575 7.28109C4.7575 7.35708 4.7631 7.40933 4.77125 7.40933C4.7789 7.40933 4.785 7.44733 4.785 7.49482C4.785 7.54231 4.79111 7.58031 4.79875 7.58031C4.8064 7.58031 4.8125 7.61831 4.8125 7.6658C4.8125 7.71329 4.8186 7.7513 4.82625 7.7513C4.83381 7.7513 4.84 7.78336 4.84 7.82254C4.84 7.86172 4.84619 7.89378 4.85375 7.89378C4.86131 7.89378 4.8675 7.91943 4.8675 7.95078C4.8675 7.98213 4.87369 8.00777 4.88125 8.00777C4.88881 8.00777 4.895 8.03342 4.895 8.06477C4.895 8.09611 4.90119 8.12176 4.90875 8.12176C4.91631 8.12176 4.9225 8.14741 4.9225 8.17876C4.9225 8.2101 4.92869 8.23575 4.93625 8.23575C4.94381 8.23575 4.95 8.2614 4.95 8.29275C4.95 8.32409 4.95619 8.34974 4.96375 8.34974C4.97131 8.34974 4.9775 8.36898 4.9775 8.39249C4.9775 8.416 4.98369 8.43523 4.99125 8.43523C4.99881 8.43523 5.005 8.45447 5.005 8.47798C5.005 8.50149 5.01119 8.52073 5.01875 8.52073C5.02631 8.52073 5.0325 8.53996 5.0325 8.56347C5.0325 8.58698 5.03869 8.60622 5.04625 8.60622C5.05381 8.60622 5.06 8.62545 5.06 8.64896C5.06 8.67247 5.06619 8.69171 5.07375 8.69171C5.08131 8.69171 5.0875 8.71095 5.0875 8.73446C5.0875 8.75797 5.09369 8.7772 5.10125 8.7772C5.10881 8.7772 5.115 8.79644 5.115 8.81995C5.115 8.84346 5.12119 8.86269 5.12875 8.86269C5.13631 8.86269 5.1425 8.87552 5.1425 8.89119C5.1425 8.90687 5.14869 8.91969 5.15625 8.91969C5.16381 8.91969 5.17 8.93251 5.17 8.94819C5.17 8.96386 5.17619 8.97668 5.18375 8.97668C5.19131 8.97668 5.1975 8.99592 5.1975 9.01943C5.1975 9.04294 5.20369 9.06218 5.21125 9.06218C5.21881 9.06218 5.225 9.075 5.225 9.09067C5.225 9.10635 5.23119 9.11917 5.23875 9.11917C5.24631 9.11917 5.2525 9.13841 5.2525 9.16192C5.2525 9.18543 5.25869 9.20466 5.26625 9.20466C5.27381 9.20466 5.28 9.21749 5.28 9.23316C5.28 9.24883 5.28619 9.26166 5.29375 9.26166C5.30131 9.26166 5.3075 9.27448 5.3075 9.29016C5.3075 9.30583 5.31369 9.31865 5.32125 9.31865C5.32881 9.31865 5.335 9.33148 5.335 9.34715C5.335 9.36282 5.34119 9.37565 5.34875 9.37565C5.35631 9.37565 5.3625 9.38847 5.3625 9.40415C5.3625 9.41982 5.36869 9.43264 5.37625 9.43264C5.38381 9.43264 5.39 9.44547 5.39 9.46114C5.39 9.47681 5.39619 9.48964 5.40375 9.48964C5.41131 9.48964 5.4175 9.50246 5.4175 9.51814C5.4175 9.53381 5.42369 9.54663 5.43125 9.54663C5.43881 9.54663 5.445 9.55946 5.445 9.57513C5.445 9.5908 5.45119 9.60363 5.45875 9.60363C5.46631 9.60363 5.4725 9.61504 5.4725 9.62898C5.4725 9.64293 5.48488 9.66357 5.5 9.67487C5.51513 9.68617 5.5275 9.70682 5.5275 9.72077C5.5275 9.7347 5.53369 9.74611 5.54125 9.74611C5.54881 9.74611 5.555 9.75894 5.555 9.77461C5.555 9.79029 5.56119 9.80311 5.56875 9.80311C5.57631 9.80311 5.5825 9.81452 5.5825 9.82846C5.5825 9.84241 5.59488 9.86305 5.61 9.87435C5.62512 9.88565 5.6375 9.90489 5.6375 9.9171C5.6375 9.92931 5.64988 9.94855 5.665 9.95985C5.68013 9.97115 5.6925 9.99179 5.6925 10.0057C5.6925 10.0197 5.69869 10.0311 5.70625 10.0311C5.71381 10.0311 5.72 10.0425 5.72 10.0564C5.72 10.0704 5.73238 10.091 5.7475 10.1023C5.76263 10.1136 5.775 10.1317 5.775 10.1425C5.775 10.1533 5.79356 10.1801 5.81625 10.2021C5.83894 10.224 5.8575 10.2508 5.8575 10.2616C5.8575 10.2724 5.86988 10.2905 5.885 10.3018C5.90013 10.3131 5.9125 10.3312 5.9125 10.342C5.9125 10.3528 5.93106 10.3796 5.95375 10.4016C5.97644 10.4235 5.995 10.449 5.995 10.4583C5.995 10.4675 6.01975 10.4997 6.05 10.5298C6.08025 10.5599 6.105 10.5919 6.105 10.6009C6.105 10.6098 6.13594 10.6484 6.17375 10.6865C6.21156 10.7247 6.2425 10.7628 6.2425 10.7712C6.2425 10.7911 6.88409 11.456 6.90333 11.456C6.91141 11.456 6.94816 11.488 6.985 11.5272C7.02184 11.5664 7.05904 11.5984 7.06768 11.5984C7.07633 11.5984 7.10718 11.6241 7.13625 11.6554C7.16532 11.6868 7.19638 11.7124 7.20528 11.7124C7.21419 11.7124 7.23881 11.7317 7.26 11.7552C7.28119 11.7787 7.30707 11.7979 7.31748 11.7979C7.3279 11.7979 7.34535 11.8108 7.35625 11.8264C7.36715 11.8421 7.3846 11.8549 7.39503 11.8549C7.40543 11.8549 7.43131 11.8742 7.4525 11.8977C7.47369 11.9212 7.50093 11.9404 7.51301 11.9404C7.52511 11.9404 7.535 11.9468 7.535 11.9547C7.535 11.9625 7.54601 11.9689 7.55946 11.9689C7.57292 11.9689 7.59285 11.9817 7.60375 11.9974C7.61465 12.0131 7.63322 12.0259 7.645 12.0259C7.65678 12.0259 7.67535 12.0387 7.68625 12.0544C7.69715 12.0701 7.71708 12.0829 7.73054 12.0829C7.74399 12.0829 7.755 12.0893 7.755 12.0972C7.755 12.105 7.76601 12.1114 7.77946 12.1114C7.79292 12.1114 7.81285 12.1242 7.82375 12.1399C7.83465 12.1556 7.85458 12.1684 7.86804 12.1684C7.88149 12.1684 7.8925 12.1748 7.8925 12.1826C7.8925 12.1905 7.90487 12.1969 7.92 12.1969C7.93512 12.1969 7.9475 12.2033 7.9475 12.2111C7.9475 12.219 7.95851 12.2254 7.97196 12.2254C7.98542 12.2254 8.00535 12.2382 8.01625 12.2539C8.02715 12.2696 8.04708 12.2824 8.06054 12.2824C8.07399 12.2824 8.085 12.2888 8.085 12.2966C8.085 12.3045 8.09737 12.3109 8.1125 12.3109C8.12763 12.3109 8.14 12.3173 8.14 12.3251C8.14 12.333 8.15238 12.3394 8.1675 12.3394C8.18262 12.3394 8.195 12.3458 8.195 12.3536C8.195 12.3615 8.20738 12.3679 8.2225 12.3679C8.23763 12.3679 8.25 12.3743 8.25 12.3821C8.25 12.39 8.26237 12.3964 8.2775 12.3964C8.29263 12.3964 8.305 12.4028 8.305 12.4106C8.305 12.4185 8.31738 12.4249 8.3325 12.4249C8.34763 12.4249 8.36 12.4313 8.36 12.4391C8.36 12.447 8.37856 12.4534 8.40125 12.4534C8.42394 12.4534 8.4425 12.4598 8.4425 12.4676C8.4425 12.4755 8.45488 12.4819 8.47 12.4819C8.48513 12.4819 8.4975 12.4883 8.4975 12.4961C8.4975 12.504 8.50988 12.5104 8.525 12.5104C8.54013 12.5104 8.5525 12.5168 8.5525 12.5246C8.5525 12.5324 8.57106 12.5389 8.59375 12.5389C8.61644 12.5389 8.635 12.5453 8.635 12.5531C8.635 12.5609 8.64738 12.5674 8.6625 12.5674C8.67763 12.5674 8.69 12.5738 8.69 12.5816C8.69 12.5894 8.70856 12.5959 8.73125 12.5959C8.75394 12.5959 8.7725 12.6023 8.7725 12.6101C8.7725 12.6179 8.78487 12.6244 8.8 12.6244C8.81513 12.6244 8.8275 12.6308 8.8275 12.6386C8.8275 12.6464 8.84606 12.6529 8.86875 12.6529C8.89144 12.6529 8.91 12.6593 8.91 12.6671C8.91 12.6749 8.92856 12.6813 8.95125 12.6813C8.97394 12.6813 8.9925 12.6878 8.9925 12.6956C8.9925 12.7034 9.01106 12.7098 9.03375 12.7098C9.05644 12.7098 9.075 12.7163 9.075 12.7241C9.075 12.7319 9.09356 12.7383 9.11625 12.7383C9.13894 12.7383 9.1575 12.7448 9.1575 12.7526C9.1575 12.7604 9.18225 12.7668 9.2125 12.7668C9.24275 12.7668 9.2675 12.7733 9.2675 12.7811C9.2675 12.7889 9.28606 12.7953 9.30875 12.7953C9.33144 12.7953 9.35 12.8018 9.35 12.8096C9.35 12.8174 9.37475 12.8238 9.405 12.8238C9.43525 12.8238 9.46 12.8302 9.46 12.8381C9.46 12.8459 9.48475 12.8523 9.515 12.8523C9.54525 12.8523 9.57 12.8587 9.57 12.8666C9.57 12.8744 9.60094 12.8808 9.63875 12.8808C9.67656 12.8808 9.7075 12.8872 9.7075 12.8951C9.7075 12.9029 9.73844 12.9093 9.77625 12.9093C9.81406 12.9093 9.845 12.9157 9.845 12.9236C9.845 12.9315 9.88167 12.9378 9.9275 12.9378C9.97333 12.9378 10.01 12.9441 10.01 12.9521C10.01 12.9602 10.0513 12.9663 10.1063 12.9663C10.1613 12.9663 10.2025 12.9724 10.2025 12.9806C10.2025 12.989 10.2529 12.9948 10.3263 12.9948C10.3996 12.9948 10.45 13.0006 10.45 13.0091C10.45 13.0183 10.6425 13.0233 11 13.0233C11.3575 13.0233 11.55 13.0183 11.55 13.0091C11.55 13.0006 11.6004 12.9948 11.6738 12.9948C11.7471 12.9948 11.7975 12.989 11.7975 12.9806C11.7975 12.9724 11.8388 12.9663 11.8938 12.9663C11.9488 12.9663 11.99 12.9602 11.99 12.9521C11.99 12.9441 12.0267 12.9378 12.0725 12.9378C12.1183 12.9378 12.155 12.9315 12.155 12.9236C12.155 12.9157 12.1859 12.9093 12.2238 12.9093C12.2616 12.9093 12.2925 12.9029 12.2925 12.8951C12.2925 12.8872 12.3173 12.8808 12.3475 12.8808C12.3778 12.8808 12.4025 12.8744 12.4025 12.8666C12.4025 12.8587 12.4273 12.8523 12.4575 12.8523C12.4878 12.8523 12.5125 12.8459 12.5125 12.8381C12.5125 12.8302 12.5373 12.8238 12.5675 12.8238C12.5977 12.8238 12.6225 12.8174 12.6225 12.8096C12.6225 12.8018 12.6473 12.7953 12.6775 12.7953C12.7078 12.7953 12.7325 12.7889 12.7325 12.7811C12.7325 12.7733 12.7511 12.7668 12.7738 12.7668C12.7964 12.7668 12.815 12.7604 12.815 12.7526C12.815 12.7448 12.8336 12.7383 12.8563 12.7383C12.8789 12.7383 12.8975 12.7319 12.8975 12.7241C12.8975 12.7163 12.9161 12.7098 12.9388 12.7098C12.9614 12.7098 12.98 12.7034 12.98 12.6956C12.98 12.6878 12.9986 12.6813 13.0213 12.6813C13.0439 12.6813 13.0625 12.6749 13.0625 12.6671C13.0625 12.6593 13.0811 12.6529 13.1038 12.6529C13.1264 12.6529 13.145 12.6464 13.145 12.6386C13.145 12.6308 13.1636 12.6244 13.1863 12.6244C13.2089 12.6244 13.2275 12.6179 13.2275 12.6101C13.2275 12.6023 13.2399 12.5959 13.255 12.5959C13.2701 12.5959 13.2825 12.5894 13.2825 12.5816C13.2825 12.5738 13.3011 12.5674 13.3238 12.5674C13.3464 12.5674 13.365 12.5609 13.365 12.5531C13.365 12.5453 13.3774 12.5389 13.3925 12.5389C13.4076 12.5389 13.42 12.5324 13.42 12.5246C13.42 12.5168 13.4324 12.5104 13.4475 12.5104C13.4626 12.5104 13.475 12.504 13.475 12.4961C13.475 12.4883 13.4936 12.4819 13.5163 12.4819C13.5389 12.4819 13.5575 12.4755 13.5575 12.4676C13.5575 12.4598 13.5699 12.4534 13.585 12.4534C13.6001 12.4534 13.6125 12.447 13.6125 12.4391C13.6125 12.4313 13.6249 12.4249 13.64 12.4249C13.6551 12.4249 13.6675 12.4185 13.6675 12.4106C13.6675 12.4028 13.6799 12.3964 13.695 12.3964C13.7101 12.3964 13.7225 12.39 13.7225 12.3821C13.7225 12.3743 13.7349 12.3679 13.75 12.3679C13.7651 12.3679 13.7775 12.3615 13.7775 12.3536C13.7775 12.3458 13.7899 12.3394 13.805 12.3394C13.8201 12.3394 13.8325 12.333 13.8325 12.3251C13.8325 12.3173 13.8449 12.3109 13.86 12.3109C13.8751 12.3109 13.8875 12.3045 13.8875 12.2966C13.8875 12.2888 13.8999 12.2824 13.915 12.2824C13.9301 12.2824 13.9425 12.276 13.9425 12.2681C13.9425 12.2603 13.9549 12.2539 13.97 12.2539C13.9851 12.2539 13.9975 12.2475 13.9975 12.2396C13.9975 12.2318 14.0085 12.2254 14.022 12.2254C14.0354 12.2254 14.0553 12.2126 14.0663 12.1969C14.0772 12.1812 14.0971 12.1684 14.1105 12.1684C14.124 12.1684 14.135 12.162 14.135 12.1541C14.135 12.1463 14.146 12.1399 14.1595 12.1399C14.1729 12.1399 14.1928 12.1271 14.2038 12.1114C14.2147 12.0957 14.2346 12.0829 14.248 12.0829C14.2615 12.0829 14.2725 12.0765 14.2725 12.0687C14.2725 12.0608 14.3034 12.0544 14.3413 12.0544C14.3791 12.0544 14.41 12.0608 14.41 12.0687C14.41 12.0765 14.4224 12.0829 14.4375 12.0829C14.4526 12.0829 14.465 12.0893 14.465 12.0972C14.465 12.105 14.4836 12.1114 14.5063 12.1114C14.5289 12.1114 14.5475 12.1178 14.5475 12.1256C14.5475 12.1335 14.5599 12.1399 14.575 12.1399C14.5901 12.1399 14.6025 12.1463 14.6025 12.1541C14.6025 12.162 14.6149 12.1684 14.63 12.1684C14.6451 12.1684 14.6575 12.1748 14.6575 12.1826C14.6575 12.1905 14.6761 12.1969 14.6988 12.1969C14.7214 12.1969 14.74 12.2033 14.74 12.2111C14.74 12.219 14.7524 12.2254 14.7675 12.2254C14.7826 12.2254 14.795 12.2318 14.795 12.2396C14.795 12.2475 14.8074 12.2539 14.8225 12.2539C14.8376 12.2539 14.85 12.2603 14.85 12.2681C14.85 12.276 14.8686 12.2824 14.8913 12.2824C14.9139 12.2824 14.9325 12.2888 14.9325 12.2966C14.9325 12.3045 14.9449 12.3109 14.96 12.3109C14.9751 12.3109 14.9875 12.3173 14.9875 12.3251C14.9875 12.333 14.9999 12.3394 15.015 12.3394C15.0301 12.3394 15.0425 12.3458 15.0425 12.3536C15.0425 12.3615 15.0549 12.3679 15.07 12.3679C15.0851 12.3679 15.0975 12.3743 15.0975 12.3821C15.0975 12.39 15.1099 12.3964 15.125 12.3964C15.1401 12.3964 15.1525 12.4028 15.1525 12.4106C15.1525 12.4185 15.1649 12.4249 15.18 12.4249C15.1951 12.4249 15.2075 12.4313 15.2075 12.4391C15.2075 12.447 15.2199 12.4534 15.235 12.4534C15.2501 12.4534 15.2625 12.4598 15.2625 12.4676C15.2625 12.4755 15.2749 12.4819 15.29 12.4819C15.3051 12.4819 15.3175 12.4883 15.3175 12.4961C15.3175 12.504 15.3299 12.5104 15.345 12.5104C15.3601 12.5104 15.3725 12.5168 15.3725 12.5246C15.3725 12.5324 15.3849 12.5389 15.4 12.5389C15.4151 12.5389 15.4275 12.5453 15.4275 12.5531C15.4275 12.5609 15.4399 12.5674 15.455 12.5674C15.4701 12.5674 15.4825 12.5738 15.4825 12.5816C15.4825 12.5894 15.4935 12.5959 15.507 12.5959C15.5204 12.5959 15.5403 12.6087 15.5513 12.6244C15.5622 12.64 15.5821 12.6529 15.5955 12.6529C15.609 12.6529 15.62 12.6593 15.62 12.6671C15.62 12.6749 15.6324 12.6813 15.6475 12.6813C15.6626 12.6813 15.675 12.6878 15.675 12.6956C15.675 12.7034 15.686 12.7098 15.6995 12.7098C15.7129 12.7098 15.7328 12.7227 15.7438 12.7383C15.7547 12.754 15.7746 12.7668 15.788 12.7668C15.8015 12.7668 15.8125 12.7733 15.8125 12.7811C15.8125 12.7889 15.8235 12.7953 15.837 12.7953C15.8504 12.7953 15.8703 12.8082 15.8813 12.8238C15.8922 12.8395 15.9121 12.8523 15.9255 12.8523C15.939 12.8523 15.95 12.8587 15.95 12.8666C15.95 12.8744 15.961 12.8808 15.9745 12.8808C15.9879 12.8808 16.0078 12.8937 16.0188 12.9093C16.0297 12.925 16.0496 12.9378 16.063 12.9378C16.0765 12.9378 16.0875 12.9442 16.0875 12.9521C16.0875 12.9599 16.0985 12.9663 16.112 12.9663C16.1254 12.9663 16.1453 12.9791 16.1563 12.9948C16.1672 13.0105 16.1846 13.0233 16.195 13.0233C16.2054 13.0233 16.2313 13.0426 16.2525 13.0661C16.2737 13.0896 16.2996 13.1088 16.31 13.1088C16.3204 13.1088 16.3378 13.1216 16.3488 13.1373C16.3597 13.153 16.3782 13.1658 16.39 13.1658C16.4018 13.1658 16.4203 13.1786 16.4312 13.1943C16.4422 13.21 16.4596 13.2228 16.47 13.2228C16.4804 13.2228 16.5063 13.242 16.5275 13.2655C16.5487 13.2891 16.5746 13.3083 16.585 13.3083C16.5954 13.3083 16.6128 13.3211 16.6238 13.3368C16.6347 13.3525 16.652 13.3653 16.6622 13.3653C16.6725 13.3653 16.7047 13.3909 16.7338 13.4223C16.7628 13.4536 16.7938 13.4793 16.8025 13.4793C16.8112 13.4793 16.8422 13.5049 16.8713 13.5363C16.9003 13.5676 16.9313 13.5933 16.94 13.5933C16.9487 13.5933 16.9797 13.6189 17.0088 13.6503C17.0378 13.6816 17.0686 13.7073 17.0771 13.7073C17.0856 13.7073 17.1353 13.7521 17.1875 13.807C17.2397 13.8619 17.2889 13.9067 17.2969 13.9067C17.3158 13.9067 18.0125 14.6287 18.0125 14.6483C18.0125 14.6565 18.0558 14.7076 18.1088 14.7617C18.1617 14.8158 18.205 14.8672 18.205 14.8759C18.205 14.8846 18.2359 14.923 18.2738 14.9611C18.3116 14.9993 18.3425 15.0379 18.3425 15.0468C18.3425 15.0558 18.3673 15.0878 18.3975 15.1179C18.4278 15.148 18.4525 15.1802 18.4525 15.1894C18.4525 15.1986 18.4711 15.2242 18.4937 15.2461C18.5164 15.2681 18.535 15.2937 18.535 15.3031C18.535 15.3125 18.5536 15.3381 18.5763 15.3601C18.5989 15.3821 18.6175 15.4077 18.6175 15.4171C18.6175 15.4265 18.6361 15.4521 18.6588 15.4741C18.6814 15.4961 18.7 15.5229 18.7 15.5337C18.7 15.5445 18.7124 15.5625 18.7275 15.5738C18.7426 15.5851 18.755 15.6044 18.755 15.6166C18.755 15.6288 18.7674 15.648 18.7825 15.6593C18.7976 15.6706 18.81 15.6899 18.81 15.7021C18.81 15.7143 18.8224 15.7335 18.8375 15.7448C18.8526 15.7561 18.865 15.7754 18.865 15.7876C18.865 15.7998 18.8774 15.819 18.8925 15.8303C18.9076 15.8416 18.92 15.8608 18.92 15.8731C18.92 15.8853 18.9324 15.9045 18.9475 15.9158C18.9626 15.9271 18.975 15.9477 18.975 15.9617C18.975 15.9756 18.9812 15.987 18.9888 15.987C18.9963 15.987 19.0025 15.9985 19.0025 16.0124C19.0025 16.0263 19.0149 16.047 19.03 16.0583C19.0451 16.0696 19.0575 16.0888 19.0575 16.101C19.0575 16.1132 19.0699 16.1325 19.085 16.1438C19.1001 16.1551 19.1125 16.1757 19.1125 16.1897C19.1125 16.2036 19.1187 16.215 19.1262 16.215C19.1338 16.215 19.14 16.2278 19.14 16.2435C19.14 16.2592 19.1462 16.272 19.1538 16.272C19.1613 16.272 19.1675 16.2834 19.1675 16.2974C19.1675 16.3113 19.1799 16.332 19.195 16.3433C19.2101 16.3546 19.2225 16.3752 19.2225 16.3892C19.2225 16.4031 19.2287 16.4145 19.2363 16.4145C19.2438 16.4145 19.25 16.4273 19.25 16.443C19.25 16.4587 19.2562 16.4715 19.2638 16.4715C19.2713 16.4715 19.2775 16.4843 19.2775 16.5C19.2775 16.5157 19.2837 16.5285 19.2913 16.5285C19.2988 16.5285 19.305 16.5413 19.305 16.557C19.305 16.5727 19.3112 16.5855 19.3188 16.5855C19.3263 16.5855 19.3325 16.5969 19.3325 16.6108C19.3325 16.6248 19.3449 16.6454 19.36 16.6567C19.3751 16.668 19.3875 16.6887 19.3875 16.7026C19.3875 16.7166 19.3937 16.728 19.4013 16.728C19.4088 16.728 19.415 16.7408 19.415 16.7565C19.415 16.7722 19.4212 16.785 19.4288 16.785C19.4363 16.785 19.4425 16.7978 19.4425 16.8135C19.4425 16.8291 19.4487 16.842 19.4563 16.842C19.4638 16.842 19.47 16.8548 19.47 16.8705C19.47 16.8861 19.4762 16.899 19.4838 16.899C19.4913 16.899 19.4975 16.9118 19.4975 16.9275C19.4975 16.9431 19.5037 16.956 19.5112 16.956C19.5188 16.956 19.525 16.9752 19.525 16.9987C19.525 17.0222 19.5312 17.0415 19.5388 17.0415C19.5463 17.0415 19.5525 17.0543 19.5525 17.0699C19.5525 17.0856 19.5587 17.0984 19.5662 17.0984C19.5738 17.0984 19.58 17.1113 19.58 17.1269C19.58 17.1426 19.5862 17.1554 19.5938 17.1554C19.6013 17.1554 19.6075 17.1683 19.6075 17.1839C19.6075 17.1996 19.6137 17.2124 19.6213 17.2124C19.6288 17.2124 19.635 17.2317 19.635 17.2552C19.635 17.2787 19.6412 17.2979 19.6488 17.2979C19.6563 17.2979 19.6625 17.3108 19.6625 17.3264C19.6625 17.3421 19.6687 17.3549 19.6763 17.3549C19.6838 17.3549 19.69 17.3677 19.69 17.3834C19.69 17.3991 19.6962 17.4119 19.7038 17.4119C19.7113 17.4119 19.7175 17.4312 19.7175 17.4547C19.7175 17.4782 19.7237 17.4974 19.7313 17.4974C19.7388 17.4974 19.745 17.5102 19.745 17.5259C19.745 17.5416 19.7512 17.5544 19.7588 17.5544C19.7663 17.5544 19.7725 17.5736 19.7725 17.5972C19.7725 17.6207 19.7787 17.6399 19.7863 17.6399C19.7938 17.6399 19.8 17.6527 19.8 17.6684C19.8 17.6841 19.8062 17.6969 19.8137 17.6969C19.8213 17.6969 19.8275 17.7161 19.8275 17.7396C19.8275 17.7631 19.8337 17.7824 19.8413 17.7824C19.8488 17.7824 19.855 17.8016 19.855 17.8251C19.855 17.8486 19.8612 17.8679 19.8688 17.8679C19.8763 17.8679 19.8825 17.8871 19.8825 17.9106C19.8825 17.9341 19.8887 17.9534 19.8962 17.9534C19.9038 17.9534 19.91 17.9662 19.91 17.9819C19.91 17.9975 19.9162 18.0104 19.9238 18.0104C19.9313 18.0104 19.9375 18.0296 19.9375 18.0531C19.9375 18.0766 19.9437 18.0959 19.9513 18.0959C19.9588 18.0959 19.965 18.1151 19.965 18.1386C19.965 18.1621 19.9712 18.1813 19.9788 18.1813C19.9863 18.1813 19.9925 18.207 19.9925 18.2383C19.9925 18.2697 19.9987 18.2953 20.0063 18.2953C20.0138 18.2953 20.02 18.3146 20.02 18.3381C20.02 18.3616 20.0262 18.3808 20.0338 18.3808C20.0413 18.3808 20.0475 18.4001 20.0475 18.4236C20.0475 18.4471 20.0537 18.4663 20.0613 18.4663C20.0688 18.4663 20.075 18.492 20.075 18.5233C20.075 18.5547 20.0812 18.5803 20.0888 18.5803C20.0963 18.5803 20.1025 18.5995 20.1025 18.6231C20.1025 18.6466 20.1087 18.6658 20.1163 18.6658C20.1238 18.6658 20.13 18.6915 20.13 18.7228C20.13 18.7541 20.1362 18.7798 20.1438 18.7798C20.1513 18.7798 20.1575 18.8054 20.1575 18.8368C20.1575 18.8681 20.1637 18.8938 20.1713 18.8938C20.1788 18.8938 20.185 18.9194 20.185 18.9508C20.185 18.9821 20.1912 19.0078 20.1987 19.0078C20.2064 19.0078 20.2125 19.0458 20.2125 19.0933C20.2125 19.1408 20.2186 19.1788 20.2263 19.1788C20.2338 19.1788 20.24 19.2044 20.24 19.2358C20.24 19.2671 20.2462 19.2927 20.2537 19.2927C20.2614 19.2927 20.2675 19.3307 20.2675 19.3782C20.2675 19.4257 20.2736 19.4637 20.2812 19.4637C20.2888 19.4637 20.295 19.4958 20.295 19.535C20.295 19.5742 20.3012 19.6062 20.3088 19.6062C20.3166 19.6062 20.3225 19.649 20.3225 19.706C20.3225 19.763 20.3284 19.8057 20.3363 19.8057C20.3443 19.8057 20.35 19.8532 20.35 19.9197C20.35 19.9862 20.3557 20.0337 20.3638 20.0337C20.372 20.0337 20.3775 20.0907 20.3775 20.1762C20.3775 20.2617 20.383 20.3187 20.3913 20.3187C20.3988 20.3187 20.405 20.3251 20.405 20.3329C20.405 20.3424 17.2654 20.3472 11.0138 20.3472H1.6225V20.2047C1.6225 20.1192 1.628 20.0622 1.63625 20.0622C1.6444 20.0622 1.65 20.0099 1.65 19.9339C1.65 19.858 1.6556 19.8057 1.66375 19.8057C1.6714 19.8057 1.6775 19.7677 1.6775 19.7202C1.6775 19.6727 1.68361 19.6347 1.69125 19.6347C1.6989 19.6347 1.705 19.5967 1.705 19.5492C1.705 19.5017 1.71111 19.4637 1.71875 19.4637C1.72631 19.4637 1.7325 19.4317 1.7325 19.3925C1.7325 19.3533 1.73869 19.3212 1.74625 19.3212C1.75381 19.3212 1.76 19.2892 1.76 19.25C1.76 19.2108 1.76619 19.1788 1.77375 19.1788C1.78131 19.1788 1.7875 19.1467 1.7875 19.1075C1.7875 19.0683 1.79369 19.0363 1.80125 19.0363C1.80881 19.0363 1.815 19.0106 1.815 18.9793C1.815 18.9479 1.82119 18.9223 1.82875 18.9223C1.83631 18.9223 1.8425 18.8966 1.8425 18.8653C1.8425 18.8339 1.84869 18.8083 1.85625 18.8083C1.86381 18.8083 1.87 18.7826 1.87 18.7513C1.87 18.72 1.87619 18.6943 1.88375 18.6943C1.89131 18.6943 1.8975 18.6687 1.8975 18.6373C1.8975 18.606 1.90369 18.5803 1.91125 18.5803C1.91881 18.5803 1.925 18.5547 1.925 18.5233C1.925 18.492 1.93119 18.4663 1.93875 18.4663C1.94631 18.4663 1.9525 18.4471 1.9525 18.4236C1.9525 18.4001 1.95869 18.3808 1.96625 18.3808C1.97381 18.3808 1.98 18.3616 1.98 18.3381C1.98 18.3146 1.98619 18.2953 1.99375 18.2953C2.00131 18.2953 2.0075 18.2761 2.0075 18.2526C2.0075 18.2291 2.01369 18.2098 2.02125 18.2098C2.02881 18.2098 2.035 18.1842 2.035 18.1529C2.035 18.1215 2.04119 18.0959 2.04875 18.0959C2.05631 18.0959 2.0625 18.083 2.0625 18.0674C2.0625 18.0517 2.06869 18.0389 2.07625 18.0389C2.08381 18.0389 2.09 18.0196 2.09 17.9961C2.09 17.9726 2.09619 17.9534 2.10375 17.9534C2.11131 17.9534 2.1175 17.9341 2.1175 17.9106C2.1175 17.8871 2.12369 17.8679 2.13125 17.8679C2.13881 17.8679 2.145 17.8486 2.145 17.8251C2.145 17.8016 2.15119 17.7824 2.15875 17.7824C2.16631 17.7824 2.1725 17.7631 2.1725 17.7396C2.1725 17.7161 2.17869 17.6969 2.18625 17.6969C2.19381 17.6969 2.2 17.6841 2.2 17.6684C2.2 17.6527 2.20619 17.6399 2.21375 17.6399C2.22131 17.6399 2.2275 17.6207 2.2275 17.5972C2.2275 17.5736 2.23369 17.5544 2.24125 17.5544C2.24881 17.5544 2.255 17.5416 2.255 17.5259C2.255 17.5102 2.26119 17.4974 2.26875 17.4974C2.27631 17.4974 2.2825 17.4782 2.2825 17.4547C2.2825 17.4312 2.28869 17.4119 2.29625 17.4119C2.30381 17.4119 2.31 17.3991 2.31 17.3834C2.31 17.3677 2.31619 17.3549 2.32375 17.3549C2.33131 17.3549 2.3375 17.3421 2.3375 17.3264C2.3375 17.3108 2.34369 17.2979 2.35125 17.2979C2.35881 17.2979 2.365 17.2787 2.365 17.2552C2.365 17.2317 2.37119 17.2124 2.37875 17.2124C2.38631 17.2124 2.3925 17.1996 2.3925 17.1839C2.3925 17.1683 2.39869 17.1554 2.40625 17.1554C2.41381 17.1554 2.42 17.1426 2.42 17.1269C2.42 17.1113 2.42619 17.0984 2.43375 17.0984C2.44131 17.0984 2.4475 17.0856 2.4475 17.0699C2.4475 17.0543 2.45369 17.0415 2.46125 17.0415C2.46881 17.0415 2.475 17.0286 2.475 17.013C2.475 16.9973 2.48119 16.9845 2.48875 16.9845C2.49631 16.9845 2.5025 16.9716 2.5025 16.956C2.5025 16.9403 2.50869 16.9275 2.51625 16.9275C2.52381 16.9275 2.53 16.9146 2.53 16.899C2.53 16.8833 2.53619 16.8705 2.54375 16.8705C2.55131 16.8705 2.5575 16.8576 2.5575 16.842C2.5575 16.8263 2.56369 16.8135 2.57125 16.8135C2.57881 16.8135 2.585 16.8006 2.585 16.785C2.585 16.7693 2.59119 16.7565 2.59875 16.7565C2.60631 16.7565 2.6125 16.7437 2.6125 16.728C2.6125 16.7123 2.61869 16.6995 2.62625 16.6995C2.63381 16.6995 2.64 16.6867 2.64 16.671C2.64 16.6553 2.64619 16.6425 2.65375 16.6425C2.66131 16.6425 2.6675 16.6297 2.6675 16.614C2.6675 16.5983 2.67369 16.5855 2.68125 16.5855C2.68881 16.5855 2.695 16.5727 2.695 16.557C2.695 16.5413 2.70119 16.5285 2.70875 16.5285C2.71631 16.5285 2.7225 16.5157 2.7225 16.5C2.7225 16.4843 2.72869 16.4715 2.73625 16.4715C2.74381 16.4715 2.75 16.4601 2.75 16.4462C2.75 16.4322 2.76238 16.4116 2.7775 16.4003C2.79262 16.389 2.805 16.3683 2.805 16.3544C2.805 16.3404 2.81119 16.329 2.81875 16.329C2.82631 16.329 2.8325 16.3162 2.8325 16.3005C2.8325 16.2848 2.83869 16.272 2.84625 16.272C2.85381 16.272 2.86 16.2606 2.86 16.2467C2.86 16.2327 2.87238 16.2121 2.8875 16.2008C2.90263 16.1895 2.915 16.1688 2.915 16.1549C2.915 16.1409 2.92119 16.1295 2.92875 16.1295C2.93631 16.1295 2.9425 16.1181 2.9425 16.1042C2.9425 16.0902 2.95488 16.0696 2.97 16.0583C2.98513 16.047 2.9975 16.0263 2.9975 16.0124C2.9975 15.9985 3.00369 15.987 3.01125 15.987C3.01881 15.987 3.025 15.9756 3.025 15.9617C3.025 15.9477 3.03738 15.9271 3.0525 15.9158C3.06763 15.9045 3.08 15.8853 3.08 15.8731C3.08 15.8608 3.09238 15.8416 3.1075 15.8303C3.12263 15.819 3.135 15.7998 3.135 15.7876C3.135 15.7754 3.14738 15.7561 3.1625 15.7448C3.17763 15.7335 3.19 15.7143 3.19 15.7021C3.19 15.6899 3.20238 15.6706 3.2175 15.6593C3.23263 15.648 3.245 15.6299 3.245 15.6191C3.245 15.6084 3.26356 15.5815 3.28625 15.5596C3.30894 15.5376 3.3275 15.5108 3.3275 15.5C3.3275 15.4892 3.33988 15.4711 3.355 15.4598C3.37013 15.4485 3.3825 15.4305 3.3825 15.4197C3.3825 15.4089 3.40106 15.3821 3.42375 15.3601C3.44644 15.3381 3.465 15.3125 3.465 15.3031C3.465 15.2937 3.48356 15.2681 3.50625 15.2461C3.52894 15.2242 3.5475 15.1986 3.5475 15.1894C3.5475 15.1802 3.57225 15.148 3.6025 15.1179C3.63275 15.0878 3.6575 15.0558 3.6575 15.0468C3.6575 15.0379 3.68844 14.9993 3.72625 14.9611C3.76406 14.923 3.795 14.8846 3.795 14.8759C3.795 14.8672 3.83831 14.8158 3.89125 14.7617C3.94419 14.7076 3.9875 14.6565 3.9875 14.6483C3.9875 14.629 4.68403 13.9067 4.70265 13.9067C4.72324 13.9067 4.9225 13.6967 4.9225 13.675C4.9225 13.6649 4.93488 13.6473 4.95 13.636C4.96513 13.6247 4.9775 13.6041 4.9775 13.5901C4.9775 13.5762 4.98369 13.5648 4.99125 13.5648C4.99881 13.5648 5.005 13.5519 5.005 13.5363C5.005 13.5206 5.01119 13.5078 5.01875 13.5078C5.02631 13.5078 5.0325 13.4885 5.0325 13.465C5.0325 13.4415 5.03869 13.4223 5.04625 13.4223C5.05381 13.4223 5.06 13.3902 5.06 13.351C5.06 13.3119 5.06619 13.2798 5.07375 13.2798C5.0814 13.2798 5.0875 13.2418 5.0875 13.1943C5.0875 13.1468 5.0814 13.1088 5.07375 13.1088C5.06619 13.1088 5.06 13.0767 5.06 13.0376C5.06 12.9984 5.05381 12.9663 5.04625 12.9663C5.03869 12.9663 5.0325 12.9471 5.0325 12.9236C5.0325 12.9001 5.02631 12.8808 5.01875 12.8808C5.01119 12.8808 5.005 12.868 5.005 12.8523C5.005 12.8367 4.99881 12.8238 4.99125 12.8238C4.98369 12.8238 4.9775 12.8124 4.9775 12.7985C4.9775 12.7845 4.96513 12.7639 4.95 12.7526C4.93488 12.7413 4.9225 12.7237 4.9225 12.7135C4.9225 12.6894 4.77726 12.5389 4.75395 12.5389C4.74412 12.5389 4.72715 12.526 4.71625 12.5104C4.70535 12.4947 4.68542 12.4819 4.67196 12.4819C4.65851 12.4819 4.6475 12.4755 4.6475 12.4676C4.6475 12.4598 4.63513 12.4534 4.62 12.4534C4.60488 12.4534 4.5925 12.447 4.5925 12.4391C4.5925 12.4313 4.57394 12.4249 4.55125 12.4249C4.52856 12.4249 4.51 12.4185 4.51 12.4106C4.51 12.4028 4.47906 12.3964 4.44125 12.3964C4.40344 12.3964 4.3725 12.39 4.3725 12.3821C4.3725 12.3743 4.34156 12.3679 4.30375 12.3679C4.26594 12.3679 4.235 12.3743 4.235 12.3821C4.235 12.39 4.19833 12.3964 4.1525 12.3964C4.10667 12.3964 4.07 12.4027 4.07 12.4106C4.07 12.4185 4.05144 12.4249 4.02875 12.4249C4.00606 12.4249 3.9875 12.4313 3.9875 12.4391C3.9875 12.447 3.97512 12.4534 3.96 12.4534C3.94487 12.4534 3.9325 12.4598 3.9325 12.4676C3.9325 12.4755 3.92149 12.4819 3.90804 12.4819C3.89458 12.4819 3.87465 12.4947 3.86375 12.5104C3.85285 12.526 3.83576 12.5389 3.82575 12.5389C3.81575 12.5389 3.7586 12.5902 3.69875 12.6529C3.6389 12.7155 3.58344 12.7668 3.57552 12.7668C3.5567 12.7668 2.8875 13.4603 2.8875 13.4798C2.8875 13.488 2.838 13.5455 2.7775 13.6075C2.717 13.6695 2.6675 13.7273 2.6675 13.7359C2.6675 13.7445 2.63038 13.7893 2.585 13.8355C2.53963 13.8816 2.5025 13.9267 2.5025 13.9356C2.5025 13.9445 2.47775 13.9764 2.4475 14.0065C2.41725 14.0366 2.3925 14.0688 2.3925 14.078C2.3925 14.0872 2.37394 14.1128 2.35125 14.1347C2.32856 14.1567 2.31 14.1822 2.31 14.1914C2.31 14.2006 2.28525 14.2328 2.255 14.263C2.22475 14.2931 2.2 14.3253 2.2 14.3345C2.2 14.3437 2.18144 14.3692 2.15875 14.3912C2.13606 14.4131 2.1175 14.44 2.1175 14.4508C2.1175 14.4616 2.10512 14.4796 2.09 14.4909C2.07487 14.5022 2.0625 14.5203 2.0625 14.5311C2.0625 14.5419 2.04394 14.5687 2.02125 14.5907C1.99856 14.6126 1.98 14.6394 1.98 14.6502C1.98 14.661 1.96763 14.6791 1.9525 14.6904C1.93738 14.7017 1.925 14.721 1.925 14.7332C1.925 14.7454 1.91262 14.7646 1.8975 14.7759C1.88238 14.7872 1.87 14.8064 1.87 14.8187C1.87 14.8309 1.85763 14.8501 1.8425 14.8614C1.82737 14.8727 1.815 14.8919 1.815 14.9041C1.815 14.9164 1.80263 14.9356 1.7875 14.9469C1.77238 14.9582 1.76 14.9774 1.76 14.9896C1.76 15.0018 1.74763 15.0211 1.7325 15.0324C1.71738 15.0437 1.705 15.0643 1.705 15.0783C1.705 15.0922 1.69881 15.1036 1.69125 15.1036C1.68369 15.1036 1.6775 15.115 1.6775 15.129C1.6775 15.1429 1.66513 15.1636 1.65 15.1749C1.63488 15.1862 1.6225 15.2068 1.6225 15.2208C1.6225 15.2347 1.61631 15.2461 1.60875 15.2461C1.60119 15.2461 1.595 15.2575 1.595 15.2715C1.595 15.2854 1.58263 15.3061 1.5675 15.3174C1.55238 15.3287 1.54 15.3479 1.54 15.3601C1.54 15.3723 1.52763 15.3916 1.5125 15.4029C1.49738 15.4141 1.485 15.4348 1.485 15.4487C1.485 15.4627 1.47881 15.4741 1.47125 15.4741C1.46369 15.4741 1.4575 15.4869 1.4575 15.5026C1.4575 15.5183 1.45131 15.5311 1.44375 15.5311C1.43619 15.5311 1.43 15.5425 1.43 15.5564C1.43 15.5704 1.41763 15.591 1.4025 15.6023C1.38737 15.6136 1.375 15.6343 1.375 15.6482C1.375 15.6622 1.36881 15.6736 1.36125 15.6736C1.35369 15.6736 1.3475 15.6864 1.3475 15.7021C1.3475 15.7177 1.34131 15.7306 1.33375 15.7306C1.32619 15.7306 1.32 15.7434 1.32 15.7591C1.32 15.7747 1.31381 15.7876 1.30625 15.7876C1.29869 15.7876 1.2925 15.8004 1.2925 15.8161C1.2925 15.8317 1.28631 15.8446 1.27875 15.8446C1.27119 15.8446 1.265 15.8574 1.265 15.8731C1.265 15.8887 1.25881 15.9016 1.25125 15.9016C1.24369 15.9016 1.2375 15.9144 1.2375 15.9301C1.2375 15.9457 1.23131 15.9586 1.22375 15.9586C1.21619 15.9586 1.21 15.9714 1.21 15.987C1.21 16.0027 1.20381 16.0155 1.19625 16.0155C1.18869 16.0155 1.1825 16.0284 1.1825 16.044C1.1825 16.0597 1.17631 16.0725 1.16875 16.0725C1.16119 16.0725 1.155 16.0854 1.155 16.101C1.155 16.1167 1.14881 16.1295 1.14125 16.1295C1.13369 16.1295 1.1275 16.1424 1.1275 16.158C1.1275 16.1737 1.12131 16.1865 1.11375 16.1865C1.10619 16.1865 1.1 16.1994 1.1 16.215C1.1 16.2307 1.09381 16.2435 1.08625 16.2435C1.07869 16.2435 1.0725 16.2563 1.0725 16.272C1.0725 16.2877 1.06631 16.3005 1.05875 16.3005C1.05119 16.3005 1.045 16.3133 1.045 16.329C1.045 16.3447 1.03881 16.3575 1.03125 16.3575C1.02369 16.3575 1.0175 16.3703 1.0175 16.386C1.0175 16.4017 1.01131 16.4145 1.00375 16.4145C0.996188 16.4145 0.99 16.4273 0.99 16.443C0.99 16.4587 0.983813 16.4715 0.97625 16.4715C0.968688 16.4715 0.9625 16.4907 0.9625 16.5142C0.9625 16.5378 0.956312 16.557 0.94875 16.557C0.941188 16.557 0.935 16.5698 0.935 16.5855C0.935 16.6012 0.928813 16.614 0.92125 16.614C0.913687 16.614 0.9075 16.6268 0.9075 16.6425C0.9075 16.6582 0.901313 16.671 0.89375 16.671C0.886188 16.671 0.88 16.6838 0.88 16.6995C0.88 16.7152 0.873813 16.728 0.86625 16.728C0.858688 16.728 0.8525 16.7472 0.8525 16.7707C0.8525 16.7942 0.846313 16.8135 0.83875 16.8135C0.831188 16.8135 0.825 16.8263 0.825 16.842C0.825 16.8576 0.818813 16.8705 0.81125 16.8705C0.803688 16.8705 0.7975 16.8897 0.7975 16.9132C0.7975 16.9367 0.791313 16.956 0.78375 16.956C0.776188 16.956 0.77 16.9688 0.77 16.9845C0.77 17.0001 0.763813 17.013 0.75625 17.013C0.748688 17.013 0.7425 17.0322 0.7425 17.0557C0.7425 17.0792 0.736313 17.0984 0.72875 17.0984C0.721188 17.0984 0.715 17.1113 0.715 17.1269C0.715 17.1426 0.708813 17.1554 0.70125 17.1554C0.693687 17.1554 0.6875 17.1747 0.6875 17.1982C0.6875 17.2217 0.681313 17.2409 0.67375 17.2409C0.666188 17.2409 0.66 17.2602 0.66 17.2837C0.66 17.3072 0.653813 17.3264 0.64625 17.3264C0.638687 17.3264 0.6325 17.3457 0.6325 17.3692C0.6325 17.3927 0.626313 17.4119 0.61875 17.4119C0.611188 17.4119 0.605 17.4312 0.605 17.4547C0.605 17.4782 0.598813 17.4974 0.59125 17.4974C0.583687 17.4974 0.5775 17.5102 0.5775 17.5259C0.5775 17.5416 0.571313 17.5544 0.56375 17.5544C0.556188 17.5544 0.55 17.5801 0.55 17.6114C0.55 17.6427 0.543813 17.6684 0.53625 17.6684C0.528688 17.6684 0.5225 17.6876 0.5225 17.7111C0.5225 17.7346 0.516313 17.7539 0.50875 17.7539C0.501188 17.7539 0.495 17.7731 0.495 17.7966C0.495 17.8201 0.488813 17.8394 0.48125 17.8394C0.473688 17.8394 0.4675 17.8586 0.4675 17.8821C0.4675 17.9056 0.461313 17.9249 0.45375 17.9249C0.446188 17.9249 0.44 17.9505 0.44 17.9819C0.44 18.0132 0.433812 18.0389 0.42625 18.0389C0.418687 18.0389 0.4125 18.0581 0.4125 18.0816C0.4125 18.1051 0.406313 18.1244 0.39875 18.1244C0.391188 18.1244 0.385 18.15 0.385 18.1813C0.385 18.2127 0.378813 18.2383 0.37125 18.2383C0.363688 18.2383 0.3575 18.264 0.3575 18.2953C0.3575 18.3267 0.351313 18.3523 0.34375 18.3523C0.336188 18.3523 0.33 18.378 0.33 18.4093C0.33 18.4407 0.323813 18.4663 0.31625 18.4663C0.308688 18.4663 0.3025 18.492 0.3025 18.5233C0.3025 18.5547 0.296313 18.5803 0.28875 18.5803C0.281188 18.5803 0.275 18.606 0.275 18.6373C0.275 18.6687 0.268813 18.6943 0.26125 18.6943C0.253688 18.6943 0.2475 18.7264 0.2475 18.7655C0.2475 18.8047 0.241313 18.8368 0.23375 18.8368C0.226187 18.8368 0.22 18.8688 0.22 18.908C0.22 18.9472 0.213813 18.9793 0.20625 18.9793C0.198688 18.9793 0.1925 19.0113 0.1925 19.0505C0.1925 19.0897 0.186313 19.1218 0.17875 19.1218C0.171105 19.1218 0.165 19.1598 0.165 19.2073C0.165 19.2547 0.158895 19.2927 0.15125 19.2927C0.143605 19.2927 0.1375 19.3307 0.1375 19.3782C0.1375 19.4257 0.131395 19.4637 0.12375 19.4637C0.115899 19.4637 0.11 19.5065 0.11 19.5635C0.11 19.6205 0.104101 19.6632 0.09625 19.6632C0.0882338 19.6632 0.0825 19.7107 0.0825 19.7772C0.0825 19.8437 0.0767663 19.8912 0.06875 19.8912C0.0604175 19.8912 0.055 19.9529 0.055 20.0479C0.055 20.1429 0.0495825 20.2047 0.04125 20.2047C0.0327388 20.2047 0.0275 20.2807 0.0275 20.4041C0.0275 20.5276 0.0222613 20.6036 0.01375 20.6036C0.00495 20.6036 0 20.7319 0 20.9598C0 21.1878 0.00495 21.3161 0.01375 21.3161C0.0213125 21.3161 0.0275 21.3417 0.0275 21.3731C0.0275 21.4044 0.0336875 21.4301 0.04125 21.4301C0.0488125 21.4301 0.055 21.4493 0.055 21.4728C0.055 21.4963 0.0611875 21.5155 0.06875 21.5155C0.0763125 21.5155 0.0825 21.527 0.0825 21.5409C0.0825 21.5548 0.094875 21.5755 0.11 21.5868C0.125125 21.5981 0.1375 21.6156 0.1375 21.6258C0.1375 21.6517 0.3388 21.8575 0.364155 21.8575C0.375623 21.8575 0.385 21.8639 0.385 21.8718C0.385 21.8796 0.397375 21.886 0.4125 21.886C0.427625 21.886 0.44 21.8924 0.44 21.9003C0.44 21.9081 0.452375 21.9145 0.4675 21.9145C0.482625 21.9145 0.495 21.9209 0.495 21.9288C0.495 21.9366 0.513563 21.943 0.53625 21.943C0.558937 21.943 0.5775 21.9494 0.5775 21.9573C0.5775 21.9652 0.614171 21.9715 0.66 21.9715C0.705829 21.9715 0.7425 21.9778 0.7425 21.9858C0.7425 21.9952 4.17083 22 11 22C17.8292 22 21.2575 21.9952 21.2575 21.9858C21.2575 21.9778 21.2942 21.9715 21.34 21.9715C21.3858 21.9715 21.4225 21.9652 21.4225 21.9573C21.4225 21.9494 21.4411 21.943 21.4638 21.943C21.4864 21.943 21.505 21.9366 21.505 21.9288C21.505 21.9209 21.5174 21.9145 21.5325 21.9145C21.5476 21.9145 21.56 21.9081 21.56 21.9003C21.56 21.8924 21.5724 21.886 21.5875 21.886C21.6026 21.886 21.615 21.8796 21.615 21.8718C21.615 21.8639 21.6244 21.8575 21.6358 21.8575C21.6612 21.8575 21.8625 21.6517 21.8625 21.6258C21.8625 21.6156 21.8749 21.5981 21.89 21.5868C21.9051 21.5755 21.9175 21.5548 21.9175 21.5409C21.9175 21.527 21.9237 21.5155 21.9313 21.5155C21.9388 21.5155 21.945 21.4963 21.945 21.4728C21.945 21.4493 21.9512 21.4301 21.9587 21.4301C21.9663 21.4301 21.9725 21.4044 21.9725 21.3731C21.9725 21.3417 21.9787 21.3161 21.9863 21.3161C21.9951 21.3161 22 21.1878 22 20.9598C22 20.7319 21.9951 20.6036 21.9863 20.6036C21.9777 20.6036 21.9725 20.5276 21.9725 20.4041C21.9725 20.2807 21.9673 20.2047 21.9587 20.2047C21.9504 20.2047 21.945 20.1429 21.945 20.0479C21.945 19.9529 21.9396 19.8912 21.9313 19.8912C21.9232 19.8912 21.9175 19.8437 21.9175 19.7772C21.9175 19.7107 21.9118 19.6632 21.9038 19.6632C21.8959 19.6632 21.89 19.6205 21.89 19.5635C21.89 19.5065 21.8841 19.4637 21.8763 19.4637C21.8686 19.4637 21.8625 19.4257 21.8625 19.3782C21.8625 19.3307 21.8564 19.2927 21.8488 19.2927C21.8411 19.2927 21.835 19.2547 21.835 19.2073C21.835 19.1598 21.8289 19.1218 21.8213 19.1218C21.8137 19.1218 21.8075 19.0897 21.8075 19.0505C21.8075 19.0113 21.8013 18.9793 21.7938 18.9793C21.7862 18.9793 21.78 18.9472 21.78 18.908C21.78 18.8688 21.7738 18.8368 21.7663 18.8368C21.7587 18.8368 21.7525 18.8047 21.7525 18.7655C21.7525 18.7264 21.7463 18.6943 21.7388 18.6943C21.7312 18.6943 21.725 18.6687 21.725 18.6373C21.725 18.606 21.7188 18.5803 21.7113 18.5803C21.7037 18.5803 21.6975 18.5483 21.6975 18.5091C21.6975 18.4699 21.6913 18.4378 21.6838 18.4378C21.6762 18.4378 21.67 18.4122 21.67 18.3808C21.67 18.3495 21.6638 18.3238 21.6562 18.3238C21.6487 18.3238 21.6425 18.3046 21.6425 18.2811C21.6425 18.2576 21.6363 18.2383 21.6287 18.2383C21.6212 18.2383 21.615 18.2127 21.615 18.1813C21.615 18.15 21.6088 18.1244 21.6013 18.1244C21.5937 18.1244 21.5875 18.1051 21.5875 18.0816C21.5875 18.0581 21.5813 18.0389 21.5737 18.0389C21.5662 18.0389 21.56 18.0132 21.56 17.9819C21.56 17.9505 21.5538 17.9249 21.5463 17.9249C21.5387 17.9249 21.5325 17.9056 21.5325 17.8821C21.5325 17.8586 21.5263 17.8394 21.5188 17.8394C21.5112 17.8394 21.505 17.8201 21.505 17.7966C21.505 17.7731 21.4988 17.7539 21.4913 17.7539C21.4837 17.7539 21.4775 17.7346 21.4775 17.7111C21.4775 17.6876 21.4713 17.6684 21.4638 17.6684C21.4562 17.6684 21.45 17.6427 21.45 17.6114C21.45 17.5801 21.4438 17.5544 21.4363 17.5544C21.4287 17.5544 21.4225 17.5352 21.4225 17.5117C21.4225 17.4881 21.4163 17.4689 21.4088 17.4689C21.4012 17.4689 21.395 17.4561 21.395 17.4404C21.395 17.4247 21.3888 17.4119 21.3813 17.4119C21.3737 17.4119 21.3675 17.3927 21.3675 17.3692C21.3675 17.3457 21.3613 17.3264 21.3538 17.3264C21.3462 17.3264 21.34 17.3072 21.34 17.2837C21.34 17.2602 21.3338 17.2409 21.3263 17.2409C21.3187 17.2409 21.3125 17.2217 21.3125 17.1982C21.3125 17.1747 21.3063 17.1554 21.2988 17.1554C21.2912 17.1554 21.285 17.1426 21.285 17.1269C21.285 17.1113 21.2788 17.0984 21.2712 17.0984C21.2637 17.0984 21.2575 17.0792 21.2575 17.0557C21.2575 17.0322 21.2513 17.013 21.2438 17.013C21.2362 17.013 21.23 17.0001 21.23 16.9845C21.23 16.9688 21.2238 16.956 21.2163 16.956C21.2087 16.956 21.2025 16.9367 21.2025 16.9132C21.2025 16.8897 21.1963 16.8705 21.1888 16.8705C21.1812 16.8705 21.175 16.8576 21.175 16.842C21.175 16.8263 21.1688 16.8135 21.1613 16.8135C21.1537 16.8135 21.1475 16.7942 21.1475 16.7707C21.1475 16.7472 21.1413 16.728 21.1338 16.728C21.1262 16.728 21.12 16.7152 21.12 16.6995C21.12 16.6838 21.1138 16.671 21.1063 16.671C21.0987 16.671 21.0925 16.6582 21.0925 16.6425C21.0925 16.6268 21.0863 16.614 21.0788 16.614C21.0712 16.614 21.065 16.5948 21.065 16.5712C21.065 16.5477 21.0588 16.5285 21.0513 16.5285C21.0437 16.5285 21.0375 16.5157 21.0375 16.5C21.0375 16.4843 21.0313 16.4715 21.0238 16.4715C21.0162 16.4715 21.01 16.4587 21.01 16.443C21.01 16.4273 21.0038 16.4145 20.9963 16.4145C20.9887 16.4145 20.9825 16.4017 20.9825 16.386C20.9825 16.3703 20.9763 16.3575 20.9688 16.3575C20.9612 16.3575 20.955 16.3447 20.955 16.329C20.955 16.3133 20.9488 16.3005 20.9412 16.3005C20.9337 16.3005 20.9275 16.2877 20.9275 16.272C20.9275 16.2563 20.9213 16.2435 20.9138 16.2435C20.9062 16.2435 20.9 16.2307 20.9 16.215C20.9 16.1994 20.8938 16.1865 20.8862 16.1865C20.8787 16.1865 20.8725 16.1737 20.8725 16.158C20.8725 16.1424 20.8663 16.1295 20.8588 16.1295C20.8512 16.1295 20.845 16.1117 20.845 16.0899C20.845 16.0667 20.8336 16.0419 20.8175 16.0298C20.8024 16.0185 20.79 15.9978 20.79 15.9839C20.79 15.97 20.7838 15.9586 20.7763 15.9586C20.7687 15.9586 20.7625 15.9457 20.7625 15.9301C20.7625 15.9144 20.7563 15.9016 20.7488 15.9016C20.7412 15.9016 20.735 15.8887 20.735 15.8731C20.735 15.8574 20.7288 15.8446 20.7213 15.8446C20.7137 15.8446 20.7075 15.8317 20.7075 15.8161C20.7075 15.8004 20.7013 15.7876 20.6938 15.7876C20.6862 15.7876 20.68 15.7747 20.68 15.7591C20.68 15.7434 20.6738 15.7306 20.6663 15.7306C20.6587 15.7306 20.6525 15.7177 20.6525 15.7021C20.6525 15.6864 20.6463 15.6736 20.6388 15.6736C20.6312 15.6736 20.625 15.6622 20.625 15.6482C20.625 15.6343 20.6126 15.6136 20.5975 15.6023C20.5824 15.591 20.57 15.5704 20.57 15.5564C20.57 15.5425 20.5638 15.5311 20.5563 15.5311C20.5487 15.5311 20.5425 15.5183 20.5425 15.5026C20.5425 15.4869 20.5363 15.4741 20.5288 15.4741C20.5212 15.4741 20.515 15.4627 20.515 15.4487C20.515 15.4348 20.5026 15.4141 20.4875 15.4029C20.4724 15.3916 20.46 15.3709 20.46 15.357C20.46 15.343 20.4538 15.3316 20.4463 15.3316C20.4387 15.3316 20.4325 15.3202 20.4325 15.3063C20.4325 15.2923 20.4201 15.2717 20.405 15.2604C20.3899 15.2491 20.3775 15.2298 20.3775 15.2176C20.3775 15.2054 20.3651 15.1862 20.35 15.1749C20.3349 15.1636 20.3225 15.1429 20.3225 15.129C20.3225 15.115 20.3163 15.1036 20.3088 15.1036C20.3012 15.1036 20.295 15.0922 20.295 15.0783C20.295 15.0643 20.2826 15.0437 20.2675 15.0324C20.2524 15.0211 20.24 15.0018 20.24 14.9896C20.24 14.9774 20.2276 14.9582 20.2125 14.9469C20.1974 14.9356 20.185 14.9164 20.185 14.9041C20.185 14.8919 20.1726 14.8727 20.1575 14.8614C20.1424 14.8501 20.13 14.8309 20.13 14.8187C20.13 14.8064 20.1176 14.7872 20.1025 14.7759C20.0874 14.7646 20.075 14.7454 20.075 14.7332C20.075 14.721 20.0626 14.7017 20.0475 14.6904C20.0324 14.6791 20.02 14.6599 20.02 14.6477C20.02 14.6355 20.0076 14.6162 19.9925 14.6049C19.9774 14.5936 19.965 14.5755 19.965 14.5647C19.965 14.554 19.9464 14.5271 19.9238 14.5052C19.9011 14.4832 19.8825 14.4576 19.8825 14.4482C19.8825 14.4388 19.8639 14.4131 19.8413 14.3912C19.8186 14.3692 19.8 14.3436 19.8 14.3342C19.8 14.3248 19.7814 14.2992 19.7588 14.2772C19.7361 14.2552 19.7175 14.2297 19.7175 14.2205C19.7175 14.2113 19.6928 14.1791 19.6625 14.149C19.6323 14.1188 19.6075 14.0868 19.6075 14.0777C19.6075 14.0687 19.5828 14.0366 19.5525 14.0065C19.5222 13.9764 19.4975 13.9445 19.4975 13.9356C19.4975 13.9267 19.4604 13.8816 19.415 13.8355C19.3696 13.7893 19.3325 13.7445 19.3325 13.7359C19.3325 13.7273 19.283 13.6695 19.2225 13.6075C19.162 13.5455 19.1125 13.488 19.1125 13.4798C19.1125 13.4603 18.4433 12.7668 18.4244 12.7668C18.4164 12.7668 18.3672 12.722 18.315 12.6671C18.2628 12.6122 18.2133 12.5674 18.2049 12.5674C18.1966 12.5674 18.1533 12.5289 18.1088 12.4819C18.0642 12.4348 18.0208 12.3964 18.0122 12.3964C18.0036 12.3964 17.9728 12.3707 17.9438 12.3394C17.9147 12.308 17.8837 12.2824 17.875 12.2824C17.8663 12.2824 17.8353 12.2567 17.8062 12.2254C17.7772 12.194 17.7461 12.1684 17.7372 12.1684C17.7283 12.1684 17.7037 12.1492 17.6825 12.1256C17.6613 12.1021 17.6366 12.0829 17.6275 12.0829C17.6184 12.0829 17.5937 12.0637 17.5725 12.0402C17.5513 12.0166 17.5266 11.9974 17.5175 11.9974C17.5084 11.9974 17.4837 11.9782 17.4625 11.9547C17.4413 11.9312 17.4154 11.9119 17.405 11.9119C17.3946 11.9119 17.3772 11.8991 17.3663 11.8834C17.3553 11.8677 17.3379 11.8549 17.3275 11.8549C17.3171 11.8549 17.2912 11.8357 17.27 11.8122C17.2488 11.7887 17.2229 11.7694 17.2125 11.7694C17.2021 11.7694 17.1847 11.7566 17.1738 11.7409C17.1628 11.7253 17.1443 11.7124 17.1325 11.7124C17.1207 11.7124 17.1022 11.6996 17.0913 11.6839C17.0803 11.6683 17.0618 11.6554 17.05 11.6554C17.0382 11.6554 17.0197 11.6426 17.0088 11.6269C16.9978 11.6113 16.9779 11.5984 16.9645 11.5984C16.951 11.5984 16.94 11.592 16.94 11.5842C16.94 11.5764 16.929 11.5699 16.9155 11.5699C16.9021 11.5699 16.8822 11.5571 16.8713 11.5415C16.8603 11.5258 16.8418 11.513 16.83 11.513C16.8182 11.513 16.7997 11.5001 16.7888 11.4845C16.7778 11.4688 16.7579 11.456 16.7445 11.456C16.731 11.456 16.72 11.4495 16.72 11.4417C16.72 11.4339 16.709 11.4275 16.6955 11.4275C16.6821 11.4275 16.6622 11.4146 16.6513 11.399C16.6403 11.3833 16.6204 11.3705 16.607 11.3705C16.5935 11.3705 16.5825 11.3641 16.5825 11.3562C16.5825 11.3484 16.5701 11.342 16.555 11.342C16.5399 11.342 16.5275 11.3356 16.5275 11.3277C16.5275 11.3199 16.5165 11.3135 16.503 11.3135C16.4896 11.3135 16.4697 11.3006 16.4587 11.285C16.4478 11.2693 16.4279 11.2565 16.4145 11.2565C16.401 11.2565 16.39 11.2501 16.39 11.2422C16.39 11.2344 16.3776 11.228 16.3625 11.228C16.3474 11.228 16.335 11.2216 16.335 11.2137C16.335 11.2059 16.324 11.1995 16.3105 11.1995C16.2971 11.1995 16.2772 11.1867 16.2663 11.171C16.2553 11.1553 16.2354 11.1425 16.222 11.1425C16.2085 11.1425 16.1975 11.1361 16.1975 11.1282C16.1975 11.1204 16.1851 11.114 16.17 11.114C16.1549 11.114 16.1425 11.1076 16.1425 11.0997C16.1425 11.0919 16.1301 11.0855 16.115 11.0855C16.0999 11.0855 16.0875 11.0791 16.0875 11.0712C16.0875 11.0634 16.0751 11.057 16.06 11.057C16.0449 11.057 16.0325 11.0506 16.0325 11.0427C16.0325 11.0349 16.0201 11.0285 16.005 11.0285C15.9899 11.0285 15.9775 11.0221 15.9775 11.0142C15.9775 11.0064 15.9651 11 15.95 11C15.9349 11 15.9225 10.9936 15.9225 10.9858C15.9225 10.9779 15.9101 10.9715 15.895 10.9715C15.8799 10.9715 15.8675 10.9651 15.8675 10.9573C15.8675 10.9494 15.8551 10.943 15.84 10.943C15.8249 10.943 15.8125 10.9366 15.8125 10.9288C15.8125 10.9209 15.8001 10.9145 15.785 10.9145C15.7699 10.9145 15.7575 10.9081 15.7575 10.9003C15.7575 10.8924 15.7451 10.886 15.73 10.886C15.7097 10.886 15.7025 10.8765 15.7025 10.8496C15.7025 10.8239 15.7268 10.7885 15.785 10.7293C15.8304 10.6831 15.8675 10.638 15.8675 10.6289C15.8675 10.6199 15.8861 10.5945 15.9088 10.5725C15.9314 10.5506 15.95 10.5251 15.95 10.5158C15.95 10.5066 15.9748 10.4744 16.005 10.4443C16.0353 10.4142 16.06 10.3808 16.06 10.3702C16.06 10.3596 16.0724 10.3416 16.0875 10.3303C16.1026 10.319 16.115 10.3009 16.115 10.2901C16.115 10.2793 16.1336 10.2525 16.1563 10.2306C16.1789 10.2086 16.1975 10.1818 16.1975 10.171C16.1975 10.1602 16.2099 10.1421 16.225 10.1308C16.2401 10.1195 16.2525 10.1003 16.2525 10.0881C16.2525 10.0759 16.2649 10.0566 16.28 10.0453C16.2951 10.034 16.3075 10.0134 16.3075 9.99944C16.3075 9.98551 16.3137 9.97409 16.3213 9.97409C16.3288 9.97409 16.335 9.96268 16.335 9.94875C16.335 9.9348 16.3474 9.91415 16.3625 9.90285C16.3776 9.89155 16.39 9.87091 16.39 9.85696C16.39 9.84302 16.3962 9.83161 16.4038 9.83161C16.4113 9.83161 16.4175 9.82019 16.4175 9.80626C16.4175 9.79231 16.4299 9.77166 16.445 9.76036C16.4601 9.74906 16.4725 9.72842 16.4725 9.71447C16.4725 9.70053 16.4787 9.68912 16.4863 9.68912C16.4938 9.68912 16.5 9.6763 16.5 9.66062C16.5 9.64495 16.5062 9.63213 16.5138 9.63213C16.5213 9.63213 16.5275 9.6193 16.5275 9.60363C16.5275 9.58795 16.5337 9.57513 16.5413 9.57513C16.5488 9.57513 16.555 9.56231 16.555 9.54663C16.555 9.53096 16.5612 9.51814 16.5688 9.51814C16.5763 9.51814 16.5825 9.50672 16.5825 9.49279C16.5825 9.47884 16.5949 9.45819 16.61 9.44689C16.6261 9.43482 16.6375 9.41 16.6375 9.38675C16.6375 9.36498 16.6437 9.34715 16.6513 9.34715C16.6588 9.34715 16.665 9.33433 16.665 9.31865C16.665 9.30298 16.6712 9.29016 16.6787 9.29016C16.6863 9.29016 16.6925 9.27733 16.6925 9.26166C16.6925 9.24599 16.6987 9.23316 16.7063 9.23316C16.7138 9.23316 16.72 9.22034 16.72 9.20466C16.72 9.18899 16.7262 9.17617 16.7338 9.17617C16.7413 9.17617 16.7475 9.16334 16.7475 9.14767C16.7475 9.132 16.7537 9.11917 16.7612 9.11917C16.7688 9.11917 16.775 9.10635 16.775 9.09067C16.775 9.075 16.7812 9.06218 16.7888 9.06218C16.7963 9.06218 16.8025 9.04294 16.8025 9.01943C16.8025 8.99592 16.8087 8.97668 16.8162 8.97668C16.8238 8.97668 16.83 8.96386 16.83 8.94819C16.83 8.93251 16.8362 8.91969 16.8438 8.91969C16.8513 8.91969 16.8575 8.90045 16.8575 8.87694C16.8575 8.85343 16.8637 8.8342 16.8713 8.8342C16.8788 8.8342 16.885 8.82137 16.885 8.8057C16.885 8.79003 16.8912 8.7772 16.8988 8.7772C16.9063 8.7772 16.9125 8.75797 16.9125 8.73446C16.9125 8.71095 16.9187 8.69171 16.9263 8.69171C16.9338 8.69171 16.94 8.67247 16.94 8.64896C16.94 8.62545 16.9462 8.60622 16.9538 8.60622C16.9613 8.60622 16.9675 8.58698 16.9675 8.56347C16.9675 8.53996 16.9737 8.52073 16.9813 8.52073C16.9888 8.52073 16.995 8.50149 16.995 8.47798C16.995 8.45447 17.0012 8.43523 17.0088 8.43523C17.0163 8.43523 17.0225 8.416 17.0225 8.39249C17.0225 8.36898 17.0287 8.34974 17.0363 8.34974C17.0438 8.34974 17.05 8.32409 17.05 8.29275C17.05 8.2614 17.0562 8.23575 17.0637 8.23575C17.0713 8.23575 17.0775 8.2101 17.0775 8.17876C17.0775 8.14741 17.0837 8.12176 17.0913 8.12176C17.0988 8.12176 17.105 8.09611 17.105 8.06477C17.105 8.03342 17.1112 8.00777 17.1187 8.00777C17.1263 8.00777 17.1325 7.98213 17.1325 7.95078C17.1325 7.91943 17.1387 7.89378 17.1462 7.89378C17.1538 7.89378 17.16 7.86172 17.16 7.82254C17.16 7.78336 17.1662 7.7513 17.1738 7.7513C17.1814 7.7513 17.1875 7.71329 17.1875 7.6658C17.1875 7.61831 17.1936 7.58031 17.2013 7.58031C17.2089 7.58031 17.215 7.54231 17.215 7.49482C17.215 7.44733 17.2211 7.40933 17.2288 7.40933C17.2369 7.40933 17.2425 7.35708 17.2425 7.28109C17.2425 7.2051 17.2481 7.15285 17.2563 7.15285C17.2648 7.15285 17.27 7.0721 17.27 6.93912C17.27 6.80614 17.2752 6.72539 17.2838 6.72539C17.2923 6.72539 17.2975 6.6494 17.2975 6.52591C17.2975 6.40241 17.2923 6.32643 17.2838 6.32643C17.2752 6.32643 17.27 6.24093 17.27 6.09845C17.27 5.95596 17.2648 5.87047 17.2563 5.87047C17.2482 5.87047 17.2425 5.82298 17.2425 5.75648C17.2425 5.68998 17.2368 5.64249 17.2288 5.64249C17.2211 5.64249 17.215 5.60449 17.215 5.557C17.215 5.5095 17.2089 5.4715 17.2013 5.4715C17.1936 5.4715 17.1875 5.4335 17.1875 5.38601C17.1875 5.33852 17.1814 5.30052 17.1738 5.30052C17.1662 5.30052 17.16 5.26846 17.16 5.22928C17.16 5.19009 17.1538 5.15803 17.1462 5.15803C17.1387 5.15803 17.1325 5.13238 17.1325 5.10104C17.1325 5.06969 17.1263 5.04404 17.1187 5.04404C17.1112 5.04404 17.105 5.01198 17.105 4.9728C17.105 4.93361 17.0988 4.90155 17.0913 4.90155C17.0837 4.90155 17.0775 4.88232 17.0775 4.85881C17.0775 4.8353 17.0713 4.81606 17.0637 4.81606C17.0562 4.81606 17.05 4.79041 17.05 4.75907C17.05 4.72772 17.0438 4.70207 17.0363 4.70207C17.0287 4.70207 17.0225 4.68284 17.0225 4.65933C17.0225 4.63582 17.0163 4.61658 17.0088 4.61658C17.0012 4.61658 16.995 4.59734 16.995 4.57383C16.995 4.55032 16.9888 4.53109 16.9813 4.53109C16.9737 4.53109 16.9675 4.51185 16.9675 4.48834C16.9675 4.46483 16.9613 4.4456 16.9538 4.4456C16.9462 4.4456 16.94 4.42636 16.94 4.40285C16.94 4.37934 16.9338 4.3601 16.9263 4.3601C16.9187 4.3601 16.9125 4.34087 16.9125 4.31736C16.9125 4.29385 16.9063 4.27461 16.8988 4.27461C16.8912 4.27461 16.885 4.25538 16.885 4.23187C16.885 4.20835 16.8788 4.18912 16.8713 4.18912C16.8637 4.18912 16.8575 4.1763 16.8575 4.16062C16.8575 4.14495 16.8513 4.13212 16.8438 4.13212C16.8362 4.13212 16.83 4.11289 16.83 4.08938C16.83 4.06587 16.8238 4.04663 16.8162 4.04663C16.8087 4.04663 16.8025 4.03381 16.8025 4.01814C16.8025 4.00246 16.7963 3.98964 16.7888 3.98964C16.7812 3.98964 16.775 3.97681 16.775 3.96114C16.775 3.94547 16.7688 3.93264 16.7612 3.93264C16.7537 3.93264 16.7475 3.91341 16.7475 3.8899C16.7475 3.86639 16.7413 3.84715 16.7338 3.84715C16.7262 3.84715 16.72 3.83433 16.72 3.81865C16.72 3.80298 16.7138 3.79016 16.7063 3.79016C16.6987 3.79016 16.6925 3.77733 16.6925 3.76166C16.6925 3.74598 16.6863 3.73316 16.6787 3.73316C16.6712 3.73316 16.665 3.72034 16.665 3.70466C16.665 3.68899 16.6588 3.67617 16.6513 3.67617C16.6437 3.67617 16.6375 3.66334 16.6375 3.64767C16.6375 3.63199 16.6313 3.61917 16.6238 3.61917C16.6162 3.61917 16.61 3.60635 16.61 3.59067C16.61 3.575 16.6038 3.56218 16.5963 3.56218C16.5887 3.56218 16.5825 3.54935 16.5825 3.53368C16.5825 3.51801 16.5763 3.50518 16.5688 3.50518C16.5612 3.50518 16.555 3.49236 16.555 3.47668C16.555 3.46101 16.5488 3.44819 16.5413 3.44819C16.5337 3.44819 16.5275 3.43536 16.5275 3.41969C16.5275 3.40402 16.5213 3.39119 16.5138 3.39119C16.5062 3.39119 16.5 3.37978 16.5 3.36584C16.5 3.35189 16.4876 3.33125 16.4725 3.31995C16.4574 3.30865 16.445 3.288 16.445 3.27405C16.445 3.26012 16.4388 3.2487 16.4312 3.2487C16.4237 3.2487 16.4175 3.23729 16.4175 3.22336C16.4175 3.20941 16.4051 3.18876 16.39 3.17746C16.3749 3.16616 16.3625 3.14552 16.3625 3.13157C16.3625 3.11763 16.3563 3.10622 16.3488 3.10622C16.3412 3.10622 16.335 3.0948 16.335 3.08087C16.335 3.06692 16.3226 3.04627 16.3075 3.03497C16.2924 3.02368 16.28 3.00444 16.28 2.99223C16.28 2.98002 16.2676 2.96078 16.2525 2.94948C16.2374 2.93818 16.225 2.91895 16.225 2.90674C16.225 2.89452 16.2126 2.87529 16.1975 2.86399C16.1824 2.85269 16.17 2.83461 16.17 2.82381C16.17 2.81302 16.1514 2.78621 16.1287 2.76425C16.1061 2.74229 16.0875 2.71548 16.0875 2.70469C16.0875 2.69389 16.0751 2.67581 16.06 2.66451C16.0449 2.65321 16.0325 2.63527 16.0325 2.62463C16.0325 2.61398 16.0078 2.58064 15.9775 2.55052C15.9473 2.5204 15.9225 2.48834 15.9225 2.47927C15.9225 2.47021 15.8978 2.43815 15.8675 2.40803C15.8373 2.37791 15.8125 2.34608 15.8125 2.3373C15.8125 2.32851 15.763 2.27057 15.7025 2.20855C15.642 2.14652 15.5925 2.08902 15.5925 2.08075C15.5925 2.06115 15.3085 1.76684 15.2896 1.76684C15.2816 1.76684 15.2261 1.71554 15.1663 1.65285C15.1064 1.59016 15.0505 1.53886 15.042 1.53886C15.0335 1.53886 15.0028 1.51321 14.9738 1.48187C14.9447 1.45052 14.9137 1.42487 14.905 1.42487C14.8963 1.42487 14.8653 1.39922 14.8363 1.36788C14.8072 1.33653 14.775 1.31088 14.7647 1.31088C14.7545 1.31088 14.7372 1.29806 14.7263 1.28238C14.7153 1.26671 14.6979 1.25389 14.6875 1.25389C14.6771 1.25389 14.6512 1.23465 14.63 1.21114C14.6088 1.18763 14.5829 1.16839 14.5725 1.16839C14.5621 1.16839 14.5447 1.15557 14.5338 1.1399C14.5228 1.12422 14.5043 1.1114 14.4925 1.1114C14.4807 1.1114 14.4622 1.09858 14.4513 1.0829C14.4403 1.06723 14.4218 1.0544 14.41 1.0544C14.3982 1.0544 14.3797 1.04158 14.3688 1.02591C14.3578 1.01023 14.3379 0.997409 14.3245 0.997409C14.311 0.997409 14.3 0.990997 14.3 0.983161C14.3 0.975324 14.289 0.968912 14.2755 0.968912C14.2621 0.968912 14.2422 0.956088 14.2313 0.940415C14.2203 0.924741 14.2004 0.911917 14.187 0.911917C14.1735 0.911917 14.1625 0.905505 14.1625 0.897668C14.1625 0.889832 14.1515 0.88342 14.138 0.88342C14.1246 0.88342 14.1047 0.870596 14.0938 0.854922C14.0828 0.839249 14.0629 0.826425 14.0495 0.826425C14.036 0.826425 14.025 0.820013 14.025 0.812176C14.025 0.804339 14.0126 0.797928 13.9975 0.797928C13.9824 0.797928 13.97 0.791516 13.97 0.783679C13.97 0.775842 13.9576 0.76943 13.9425 0.76943C13.9274 0.76943 13.915 0.763018 13.915 0.755181C13.915 0.747345 13.9026 0.740933 13.8875 0.740933C13.8724 0.740933 13.86 0.734521 13.86 0.726684C13.86 0.718847 13.8476 0.712435 13.8325 0.712435C13.8174 0.712435 13.805 0.706023 13.805 0.698187C13.805 0.69035 13.7926 0.683938 13.7775 0.683938C13.7624 0.683938 13.75 0.677526 13.75 0.669689C13.75 0.661852 13.7376 0.655441 13.7225 0.655441C13.7074 0.655441 13.695 0.649029 13.695 0.641192C13.695 0.633355 13.6826 0.626943 13.6675 0.626943C13.6524 0.626943 13.64 0.620531 13.64 0.612694C13.64 0.604858 13.6276 0.598446 13.6125 0.598446C13.5974 0.598446 13.585 0.592034 13.585 0.584197C13.585 0.57636 13.5664 0.569948 13.5438 0.569948C13.5211 0.569948 13.5025 0.563536 13.5025 0.5557C13.5025 0.547863 13.4901 0.541451 13.475 0.541451C13.4599 0.541451 13.4475 0.535039 13.4475 0.527202C13.4475 0.519365 13.4351 0.512953 13.42 0.512953C13.4049 0.512953 13.3925 0.506541 13.3925 0.498705C13.3925 0.490868 13.3739 0.484456 13.3513 0.484456C13.3286 0.484456 13.31 0.478044 13.31 0.470207C13.31 0.46237 13.2976 0.455959 13.2825 0.455959C13.2674 0.455959 13.255 0.449547 13.255 0.44171C13.255 0.433873 13.2364 0.427461 13.2137 0.427461C13.1911 0.427461 13.1725 0.421049 13.1725 0.413212C13.1725 0.405376 13.1539 0.398964 13.1313 0.398964C13.1086 0.398964 13.09 0.392552 13.09 0.384715C13.09 0.376878 13.0776 0.370466 13.0625 0.370466C13.0474 0.370466 13.035 0.364054 13.035 0.356218C13.035 0.348381 13.0164 0.341969 12.9938 0.341969C12.9711 0.341969 12.9525 0.335557 12.9525 0.32772C12.9525 0.319883 12.9278 0.313472 12.8975 0.313472C12.8673 0.313472 12.8425 0.30706 12.8425 0.299223C12.8425 0.291386 12.8239 0.284974 12.8013 0.284974C12.7786 0.284974 12.76 0.278562 12.76 0.270725C12.76 0.262889 12.7414 0.256477 12.7188 0.256477C12.6961 0.256477 12.6775 0.250065 12.6775 0.242228C12.6775 0.234391 12.6528 0.227979 12.6225 0.227979C12.5923 0.227979 12.5675 0.221567 12.5675 0.213731C12.5675 0.205894 12.5428 0.199482 12.5125 0.199482C12.4823 0.199482 12.4575 0.19307 12.4575 0.185233C12.4575 0.177396 12.4266 0.170984 12.3888 0.170984C12.3509 0.170984 12.32 0.164573 12.32 0.156736C12.32 0.148899 12.2891 0.142487 12.2513 0.142487C12.2134 0.142487 12.1825 0.136075 12.1825 0.128238C12.1825 0.120402 12.1516 0.11399 12.1138 0.11399C12.0759 0.11399 12.045 0.107578 12.045 0.0997409C12.045 0.0916049 12.0038 0.0854922 11.9488 0.0854922C11.8938 0.0854922 11.8525 0.0793795 11.8525 0.0712435C11.8525 0.062794 11.8021 0.0569948 11.7288 0.0569948C11.6554 0.0569948 11.605 0.0511956 11.605 0.0427461C11.605 0.0338834 11.5271 0.0284974 11.3988 0.0284974C11.2704 0.0284974 11.1925 0.0231114 11.1925 0.0142487C11.1925 0.00542876 11.1192 0 11 0C10.8808 0 10.8075 0.00542876 10.8075 0.0142487ZM11.495 1.6671C11.495 1.67523 11.5363 1.68135 11.5913 1.68135C11.6463 1.68135 11.6875 1.68746 11.6875 1.6956C11.6875 1.70373 11.7288 1.70984 11.7838 1.70984C11.8388 1.70984 11.88 1.71596 11.88 1.72409C11.88 1.73193 11.9109 1.73834 11.9488 1.73834C11.9866 1.73834 12.0175 1.74475 12.0175 1.75259C12.0175 1.76043 12.0423 1.76684 12.0725 1.76684C12.1028 1.76684 12.1275 1.77325 12.1275 1.78109C12.1275 1.78893 12.1523 1.79534 12.1825 1.79534C12.2128 1.79534 12.2375 1.80175 12.2375 1.80959C12.2375 1.81742 12.2561 1.82383 12.2788 1.82383C12.3014 1.82383 12.32 1.83025 12.32 1.83808C12.32 1.84592 12.3448 1.85233 12.375 1.85233C12.4053 1.85233 12.43 1.85874 12.43 1.86658C12.43 1.87442 12.4486 1.88083 12.4713 1.88083C12.4939 1.88083 12.5125 1.88724 12.5125 1.89508C12.5125 1.90291 12.5249 1.90933 12.54 1.90933C12.5551 1.90933 12.5675 1.91574 12.5675 1.92358C12.5675 1.93141 12.5861 1.93782 12.6088 1.93782C12.6314 1.93782 12.65 1.94424 12.65 1.95207C12.65 1.95991 12.6686 1.96632 12.6913 1.96632C12.7139 1.96632 12.7325 1.97273 12.7325 1.98057C12.7325 1.98841 12.7449 1.99482 12.76 1.99482C12.7751 1.99482 12.7875 2.00123 12.7875 2.00907C12.7875 2.0169 12.8061 2.02332 12.8288 2.02332C12.8514 2.02332 12.87 2.02973 12.87 2.03756C12.87 2.0454 12.8824 2.05181 12.8975 2.05181C12.9126 2.05181 12.925 2.05823 12.925 2.06606C12.925 2.0739 12.9374 2.08031 12.9525 2.08031C12.9676 2.08031 12.98 2.08672 12.98 2.09456C12.98 2.1024 12.9924 2.10881 13.0075 2.10881C13.0226 2.10881 13.035 2.11522 13.035 2.12306C13.035 2.13089 13.0474 2.13731 13.0625 2.13731C13.0776 2.13731 13.09 2.14372 13.09 2.15155C13.09 2.15939 13.1024 2.1658 13.1175 2.1658C13.1326 2.1658 13.145 2.17222 13.145 2.18005C13.145 2.18789 13.1574 2.1943 13.1725 2.1943C13.1876 2.1943 13.2 2.20071 13.2 2.20855C13.2 2.21639 13.2124 2.2228 13.2275 2.2228C13.2426 2.2228 13.255 2.22921 13.255 2.23705C13.255 2.24488 13.2674 2.2513 13.2825 2.2513C13.2976 2.2513 13.31 2.25771 13.31 2.26554C13.31 2.27338 13.321 2.27979 13.3345 2.27979C13.3479 2.27979 13.3678 2.29262 13.3788 2.30829C13.3897 2.32396 13.4096 2.33679 13.423 2.33679C13.4365 2.33679 13.4475 2.3432 13.4475 2.35104C13.4475 2.35887 13.4585 2.36528 13.472 2.36528C13.4854 2.36528 13.5053 2.37811 13.5163 2.39378C13.5272 2.40946 13.5457 2.42228 13.5575 2.42228C13.5693 2.42228 13.5878 2.4351 13.5988 2.45078C13.6097 2.46645 13.6282 2.47927 13.64 2.47927C13.6518 2.47927 13.6703 2.4921 13.6813 2.50777C13.6922 2.52345 13.7096 2.53627 13.72 2.53627C13.7304 2.53627 13.7563 2.55551 13.7775 2.57902C13.7987 2.60253 13.8233 2.62176 13.8322 2.62176C13.8411 2.62176 13.8722 2.64741 13.9012 2.67876C13.9303 2.7101 13.9611 2.73575 13.9697 2.73575C13.9783 2.73575 14.0217 2.77422 14.0663 2.82124C14.1108 2.86826 14.1538 2.90674 14.1619 2.90674C14.181 2.90674 14.4925 3.22951 14.4925 3.24935C14.4925 3.2577 14.5296 3.30229 14.575 3.34845C14.6204 3.3946 14.6575 3.43962 14.6575 3.44851C14.6575 3.45741 14.6823 3.48931 14.7125 3.51943C14.7428 3.54955 14.7675 3.58174 14.7675 3.59096C14.7675 3.60019 14.7861 3.62571 14.8088 3.64767C14.8314 3.66963 14.85 3.69644 14.85 3.70723C14.85 3.71803 14.8624 3.73611 14.8775 3.74741C14.8926 3.75871 14.905 3.77794 14.905 3.79016C14.905 3.80237 14.9174 3.8216 14.9325 3.8329C14.9476 3.8442 14.96 3.86344 14.96 3.87565C14.96 3.88786 14.9724 3.9071 14.9875 3.91839C15.0026 3.92969 15.015 3.95034 15.015 3.96429C15.015 3.97822 15.0212 3.98964 15.0288 3.98964C15.0363 3.98964 15.0425 4.00105 15.0425 4.01499C15.0425 4.02893 15.0549 4.04958 15.07 4.06088C15.0851 4.07218 15.0975 4.09283 15.0975 4.10678C15.0975 4.12071 15.1037 4.13212 15.1113 4.13212C15.1188 4.13212 15.125 4.14495 15.125 4.16062C15.125 4.1763 15.1312 4.18912 15.1388 4.18912C15.1463 4.18912 15.1525 4.20194 15.1525 4.21762C15.1525 4.23329 15.1587 4.24611 15.1663 4.24611C15.1738 4.24611 15.18 4.25894 15.18 4.27461C15.18 4.29029 15.1862 4.30311 15.1938 4.30311C15.2013 4.30311 15.2075 4.31593 15.2075 4.33161C15.2075 4.34728 15.2137 4.3601 15.2213 4.3601C15.2288 4.3601 15.235 4.37293 15.235 4.3886C15.235 4.40427 15.2412 4.4171 15.2488 4.4171C15.2563 4.4171 15.2625 4.42992 15.2625 4.4456C15.2625 4.46127 15.2687 4.47409 15.2763 4.47409C15.2838 4.47409 15.29 4.48692 15.29 4.50259C15.29 4.51826 15.2962 4.53109 15.3038 4.53109C15.3113 4.53109 15.3175 4.54391 15.3175 4.55959C15.3175 4.57526 15.3237 4.58808 15.3313 4.58808C15.3388 4.58808 15.345 4.60732 15.345 4.63083C15.345 4.65434 15.3512 4.67358 15.3588 4.67358C15.3663 4.67358 15.3725 4.6864 15.3725 4.70207C15.3725 4.71775 15.3787 4.73057 15.3862 4.73057C15.3938 4.73057 15.4 4.74981 15.4 4.77332C15.4 4.79683 15.4062 4.81606 15.4138 4.81606C15.4213 4.81606 15.4275 4.82889 15.4275 4.84456C15.4275 4.86023 15.4337 4.87306 15.4413 4.87306C15.4488 4.87306 15.455 4.89229 15.455 4.9158C15.455 4.93931 15.4612 4.95855 15.4688 4.95855C15.4763 4.95855 15.4825 4.97779 15.4825 5.0013C15.4825 5.02481 15.4887 5.04404 15.4962 5.04404C15.5038 5.04404 15.51 5.06969 15.51 5.10104C15.51 5.13238 15.5162 5.15803 15.5238 5.15803C15.5313 5.15803 15.5375 5.17727 15.5375 5.20078C15.5375 5.22429 15.5437 5.24352 15.5513 5.24352C15.5588 5.24352 15.565 5.26917 15.565 5.30052C15.565 5.33187 15.5712 5.35751 15.5788 5.35751C15.5863 5.35751 15.5925 5.38957 15.5925 5.42876C15.5925 5.46794 15.5987 5.5 15.6063 5.5C15.6138 5.5 15.62 5.53206 15.62 5.57124C15.62 5.61043 15.6262 5.64249 15.6338 5.64249C15.6413 5.64249 15.6475 5.67455 15.6475 5.71373C15.6475 5.75291 15.6537 5.78497 15.6613 5.78497C15.6693 5.78497 15.675 5.83247 15.675 5.89896C15.675 5.96546 15.6807 6.01295 15.6888 6.01295C15.6977 6.01295 15.7025 6.19344 15.7025 6.52591C15.7025 6.85837 15.6977 7.03886 15.6888 7.03886C15.6809 7.03886 15.675 7.08161 15.675 7.1386C15.675 7.1956 15.6691 7.23834 15.6613 7.23834C15.6536 7.23834 15.6475 7.27634 15.6475 7.32383C15.6475 7.37133 15.6414 7.40933 15.6338 7.40933C15.6262 7.40933 15.62 7.44139 15.62 7.48057C15.62 7.51975 15.6138 7.55181 15.6063 7.55181C15.5987 7.55181 15.5925 7.58387 15.5925 7.62306C15.5925 7.66224 15.5863 7.6943 15.5788 7.6943C15.5712 7.6943 15.565 7.71995 15.565 7.7513C15.565 7.78264 15.5588 7.80829 15.5513 7.80829C15.5437 7.80829 15.5375 7.82753 15.5375 7.85104C15.5375 7.87455 15.5313 7.89378 15.5238 7.89378C15.5162 7.89378 15.51 7.91302 15.51 7.93653C15.51 7.96004 15.5038 7.97928 15.4962 7.97928C15.4887 7.97928 15.4825 7.99851 15.4825 8.02202C15.4825 8.04553 15.4763 8.06477 15.4688 8.06477C15.4612 8.06477 15.455 8.084 15.455 8.10751C15.455 8.13102 15.4488 8.15026 15.4413 8.15026C15.4337 8.15026 15.4275 8.1695 15.4275 8.19301C15.4275 8.21652 15.4213 8.23575 15.4138 8.23575C15.4062 8.23575 15.4 8.25499 15.4 8.2785C15.4 8.30201 15.3938 8.32124 15.3862 8.32124C15.3787 8.32124 15.3725 8.33407 15.3725 8.34974C15.3725 8.36541 15.3663 8.37824 15.3588 8.37824C15.3512 8.37824 15.345 8.39748 15.345 8.42099C15.345 8.4445 15.3388 8.46373 15.3313 8.46373C15.3237 8.46373 15.3175 8.47655 15.3175 8.49223C15.3175 8.5079 15.3113 8.52073 15.3038 8.52073C15.2962 8.52073 15.29 8.53355 15.29 8.54922C15.29 8.5649 15.2838 8.57772 15.2763 8.57772C15.2687 8.57772 15.2625 8.59055 15.2625 8.60622C15.2625 8.62189 15.2563 8.63472 15.2488 8.63472C15.2412 8.63472 15.235 8.64754 15.235 8.66321C15.235 8.67889 15.2288 8.69171 15.2213 8.69171C15.2137 8.69171 15.2075 8.70453 15.2075 8.72021C15.2075 8.73588 15.2013 8.74871 15.1938 8.74871C15.1862 8.74871 15.18 8.76153 15.18 8.7772C15.18 8.79288 15.1738 8.8057 15.1663 8.8057C15.1587 8.8057 15.1525 8.81852 15.1525 8.8342C15.1525 8.84987 15.1463 8.86269 15.1388 8.86269C15.1312 8.86269 15.125 8.87411 15.125 8.88804C15.125 8.90199 15.1126 8.92264 15.0975 8.93394C15.0824 8.94524 15.07 8.96588 15.07 8.97983C15.07 8.99377 15.0638 9.00518 15.0563 9.00518C15.0487 9.00518 15.0425 9.01659 15.0425 9.03053C15.0425 9.04448 15.0301 9.06513 15.015 9.07643C14.9999 9.08773 14.9875 9.10696 14.9875 9.11917C14.9875 9.13138 14.9751 9.15062 14.96 9.16192C14.9449 9.17322 14.9325 9.19245 14.9325 9.20466C14.9325 9.21687 14.9201 9.23611 14.905 9.24741C14.8899 9.25871 14.8775 9.27795 14.8775 9.29016C14.8775 9.30237 14.8651 9.3216 14.85 9.3329C14.8349 9.3442 14.8225 9.36228 14.8225 9.37308C14.8225 9.38387 14.8039 9.41068 14.7813 9.43264C14.7586 9.4546 14.74 9.48012 14.74 9.48935C14.74 9.49857 14.7153 9.53076 14.685 9.56088C14.6548 9.591 14.63 9.62284 14.63 9.63161C14.63 9.6404 14.5805 9.69834 14.52 9.76036C14.4595 9.82239 14.41 9.87994 14.41 9.88826C14.41 9.90802 14.2362 10.0881 14.2171 10.0881C14.209 10.0881 14.1597 10.133 14.1075 10.1878C14.0553 10.2427 14.0056 10.2876 13.9971 10.2876C13.9886 10.2876 13.9578 10.3132 13.9288 10.3446C13.8997 10.3759 13.8686 10.4016 13.8597 10.4016C13.8508 10.4016 13.8262 10.4208 13.805 10.4443C13.7838 10.4678 13.7579 10.487 13.7475 10.487C13.7371 10.487 13.7197 10.4999 13.7087 10.5155C13.6978 10.5312 13.6793 10.544 13.6675 10.544C13.6557 10.544 13.6372 10.5569 13.6263 10.5725C13.6153 10.5882 13.5968 10.601 13.585 10.601C13.5732 10.601 13.5547 10.6139 13.5438 10.6295C13.5328 10.6452 13.5143 10.658 13.5025 10.658C13.4907 10.658 13.4722 10.6709 13.4613 10.6865C13.4503 10.7022 13.4304 10.715 13.417 10.715C13.4035 10.715 13.3925 10.7214 13.3925 10.7293C13.3925 10.7371 13.3815 10.7435 13.368 10.7435C13.3546 10.7435 13.3347 10.7563 13.3238 10.772C13.3128 10.7877 13.2929 10.8005 13.2795 10.8005C13.266 10.8005 13.255 10.8069 13.255 10.8148C13.255 10.8226 13.2426 10.829 13.2275 10.829C13.2124 10.829 13.2 10.8354 13.2 10.8433C13.2 10.8511 13.1876 10.8575 13.1725 10.8575C13.1574 10.8575 13.145 10.8639 13.145 10.8718C13.145 10.8796 13.1326 10.886 13.1175 10.886C13.1024 10.886 13.09 10.8924 13.09 10.9003C13.09 10.9081 13.0776 10.9145 13.0625 10.9145C13.0474 10.9145 13.035 10.9209 13.035 10.9288C13.035 10.9366 13.0226 10.943 13.0075 10.943C12.9924 10.943 12.98 10.9494 12.98 10.9573C12.98 10.9651 12.9676 10.9715 12.9525 10.9715C12.9374 10.9715 12.925 10.9779 12.925 10.9858C12.925 10.9936 12.9064 11 12.8838 11C12.8611 11 12.8425 11.0064 12.8425 11.0142C12.8425 11.0221 12.8301 11.0285 12.815 11.0285C12.7999 11.0285 12.7875 11.0349 12.7875 11.0427C12.7875 11.0506 12.7689 11.057 12.7463 11.057C12.7236 11.057 12.705 11.0634 12.705 11.0712C12.705 11.0791 12.6926 11.0855 12.6775 11.0855C12.6624 11.0855 12.65 11.0919 12.65 11.0997C12.65 11.1076 12.6314 11.114 12.6088 11.114C12.5861 11.114 12.5675 11.1204 12.5675 11.1282C12.5675 11.1361 12.5489 11.1425 12.5262 11.1425C12.5036 11.1425 12.485 11.1489 12.485 11.1567C12.485 11.1646 12.4664 11.171 12.4438 11.171C12.4211 11.171 12.4025 11.1774 12.4025 11.1852C12.4025 11.1931 12.3778 11.1995 12.3475 11.1995C12.3173 11.1995 12.2925 11.2059 12.2925 11.2137C12.2925 11.2216 12.2739 11.228 12.2513 11.228C12.2286 11.228 12.21 11.2344 12.21 11.2422C12.21 11.2501 12.1853 11.2565 12.155 11.2565C12.1248 11.2565 12.1 11.2629 12.1 11.2707C12.1 11.2786 12.0753 11.285 12.045 11.285C12.0148 11.285 11.99 11.2914 11.99 11.2992C11.99 11.3071 11.9533 11.3135 11.9075 11.3135C11.8617 11.3135 11.825 11.3198 11.825 11.3277C11.825 11.3356 11.7883 11.342 11.7425 11.342C11.6967 11.342 11.66 11.3483 11.66 11.3562C11.66 11.3645 11.6142 11.3705 11.55 11.3705C11.4858 11.3705 11.44 11.3764 11.44 11.3847C11.44 11.3939 11.2842 11.399 11 11.399C10.7158 11.399 10.56 11.3939 10.56 11.3847C10.56 11.3764 10.5142 11.3705 10.45 11.3705C10.3858 11.3705 10.34 11.3645 10.34 11.3562C10.34 11.3483 10.3033 11.342 10.2575 11.342C10.2117 11.342 10.175 11.3356 10.175 11.3277C10.175 11.3198 10.1383 11.3135 10.0925 11.3135C10.0467 11.3135 10.01 11.3071 10.01 11.2992C10.01 11.2914 9.98525 11.285 9.955 11.285C9.92475 11.285 9.9 11.2786 9.9 11.2707C9.9 11.2629 9.87525 11.2565 9.845 11.2565C9.81475 11.2565 9.79 11.2501 9.79 11.2422C9.79 11.2344 9.77144 11.228 9.74875 11.228C9.72606 11.228 9.7075 11.2216 9.7075 11.2137C9.7075 11.2059 9.68275 11.1995 9.6525 11.1995C9.62225 11.1995 9.5975 11.1931 9.5975 11.1852C9.5975 11.1774 9.57894 11.171 9.55625 11.171C9.53356 11.171 9.515 11.1646 9.515 11.1567C9.515 11.1489 9.49644 11.1425 9.47375 11.1425C9.45106 11.1425 9.4325 11.1361 9.4325 11.1282C9.4325 11.1204 9.41394 11.114 9.39125 11.114C9.36856 11.114 9.35 11.1076 9.35 11.0997C9.35 11.0919 9.33763 11.0855 9.3225 11.0855C9.30738 11.0855 9.295 11.0791 9.295 11.0712C9.295 11.0634 9.27644 11.057 9.25375 11.057C9.23106 11.057 9.2125 11.0506 9.2125 11.0427C9.2125 11.0349 9.20013 11.0285 9.185 11.0285C9.16988 11.0285 9.1575 11.0221 9.1575 11.0142C9.1575 11.0064 9.14513 11 9.13 11C9.11488 11 9.1025 10.9936 9.1025 10.9858C9.1025 10.9779 9.08394 10.9715 9.06125 10.9715C9.03856 10.9715 9.02 10.9651 9.02 10.9573C9.02 10.9494 9.00763 10.943 8.9925 10.943C8.97738 10.943 8.965 10.9366 8.965 10.9288C8.965 10.9209 8.95263 10.9145 8.9375 10.9145C8.92237 10.9145 8.91 10.9081 8.91 10.9003C8.91 10.8924 8.89763 10.886 8.8825 10.886C8.86738 10.886 8.855 10.8796 8.855 10.8718C8.855 10.8639 8.84263 10.8575 8.8275 10.8575C8.81238 10.8575 8.8 10.8511 8.8 10.8433C8.8 10.8354 8.78763 10.829 8.7725 10.829C8.75737 10.829 8.745 10.8226 8.745 10.8148C8.745 10.8069 8.73399 10.8005 8.72054 10.8005C8.70708 10.8005 8.68715 10.7877 8.67625 10.772C8.66535 10.7563 8.64542 10.7435 8.63196 10.7435C8.61852 10.7435 8.6075 10.7371 8.6075 10.7293C8.6075 10.7214 8.59649 10.715 8.58304 10.715C8.56958 10.715 8.54965 10.7022 8.53875 10.6865C8.52785 10.6709 8.50928 10.658 8.4975 10.658C8.48572 10.658 8.46715 10.6452 8.45625 10.6295C8.44535 10.6139 8.42678 10.601 8.415 10.601C8.40322 10.601 8.38465 10.5882 8.37375 10.5725C8.36285 10.5569 8.34428 10.544 8.3325 10.544C8.32072 10.544 8.30215 10.5312 8.29125 10.5155C8.28035 10.4999 8.2629 10.487 8.25247 10.487C8.24207 10.487 8.21619 10.4678 8.195 10.4443C8.17381 10.4208 8.14919 10.4016 8.14028 10.4016C8.13138 10.4016 8.10032 10.3759 8.07125 10.3446C8.04218 10.3132 8.01147 10.2876 8.003 10.2876C7.99451 10.2876 7.9386 10.2363 7.87875 10.1736C7.8189 10.1109 7.76335 10.0596 7.75529 10.0596C7.73622 10.0596 7.59 9.90806 7.59 9.8883C7.59 9.87995 7.5405 9.82239 7.48 9.76036C7.4195 9.69834 7.37 9.6404 7.37 9.63161C7.37 9.62284 7.34525 9.591 7.315 9.56088C7.28475 9.53076 7.26 9.49857 7.26 9.48935C7.26 9.48012 7.24144 9.4546 7.21875 9.43264C7.19606 9.41068 7.1775 9.38504 7.1775 9.37565C7.1775 9.36626 7.15894 9.34061 7.13625 9.31865C7.11356 9.2967 7.095 9.26988 7.095 9.25909C7.095 9.24829 7.08263 9.23021 7.0675 9.21891C7.05238 9.20761 7.04 9.18697 7.04 9.17302C7.04 9.15908 7.03381 9.14767 7.02625 9.14767C7.01869 9.14767 7.0125 9.13626 7.0125 9.12232C7.0125 9.10837 7.00013 9.08773 6.985 9.07643C6.96988 9.06513 6.9575 9.04448 6.9575 9.03053C6.9575 9.01659 6.95131 9.00518 6.94375 9.00518C6.93619 9.00518 6.93 8.99377 6.93 8.97983C6.93 8.96588 6.91763 8.94524 6.9025 8.93394C6.88738 8.92264 6.875 8.90199 6.875 8.88804C6.875 8.87411 6.86881 8.86269 6.86125 8.86269C6.85369 8.86269 6.8475 8.84987 6.8475 8.8342C6.8475 8.81852 6.84131 8.8057 6.83375 8.8057C6.82619 8.8057 6.82 8.79288 6.82 8.7772C6.82 8.76153 6.81381 8.74871 6.80625 8.74871C6.79869 8.74871 6.7925 8.73588 6.7925 8.72021C6.7925 8.70453 6.78631 8.69171 6.77875 8.69171C6.77119 8.69171 6.765 8.67889 6.765 8.66321C6.765 8.64754 6.75881 8.63472 6.75125 8.63472C6.74369 8.63472 6.7375 8.62189 6.7375 8.60622C6.7375 8.59055 6.73131 8.57772 6.72375 8.57772C6.71619 8.57772 6.71 8.5649 6.71 8.54922C6.71 8.53355 6.70381 8.52073 6.69625 8.52073C6.68869 8.52073 6.6825 8.5079 6.6825 8.49223C6.6825 8.47655 6.67631 8.46373 6.66875 8.46373C6.66119 8.46373 6.655 8.4445 6.655 8.42099C6.655 8.39748 6.64881 8.37824 6.64125 8.37824C6.63369 8.37824 6.6275 8.36541 6.6275 8.34974C6.6275 8.33407 6.62131 8.32124 6.61375 8.32124C6.60619 8.32124 6.6 8.30201 6.6 8.2785C6.6 8.25499 6.59381 8.23575 6.58625 8.23575C6.57869 8.23575 6.5725 8.21652 6.5725 8.19301C6.5725 8.1695 6.56631 8.15026 6.55875 8.15026C6.55119 8.15026 6.545 8.13102 6.545 8.10751C6.545 8.084 6.53881 8.06477 6.53125 8.06477C6.52369 8.06477 6.5175 8.04553 6.5175 8.02202C6.5175 7.99851 6.51131 7.97928 6.50375 7.97928C6.49619 7.97928 6.49 7.96004 6.49 7.93653C6.49 7.91302 6.48381 7.89378 6.47625 7.89378C6.46869 7.89378 6.4625 7.87455 6.4625 7.85104C6.4625 7.82753 6.45631 7.80829 6.44875 7.80829C6.44119 7.80829 6.435 7.78264 6.435 7.7513C6.435 7.71995 6.42881 7.6943 6.42125 7.6943C6.41369 7.6943 6.4075 7.66224 6.4075 7.62306C6.4075 7.58387 6.40131 7.55181 6.39375 7.55181C6.38619 7.55181 6.38 7.51975 6.38 7.48057C6.38 7.44139 6.37381 7.40933 6.36625 7.40933C6.35869 7.40933 6.3525 7.37727 6.3525 7.33808C6.3525 7.2989 6.34631 7.26684 6.33875 7.26684C6.33073 7.26684 6.325 7.21935 6.325 7.15285C6.325 7.08635 6.31927 7.03886 6.31125 7.03886C6.30234 7.03886 6.2975 6.85837 6.2975 6.52591C6.2975 6.19344 6.30234 6.01295 6.31125 6.01295C6.31927 6.01295 6.325 5.96546 6.325 5.89896C6.325 5.83247 6.33073 5.78497 6.33875 5.78497C6.34631 5.78497 6.3525 5.75291 6.3525 5.71373C6.3525 5.67455 6.35869 5.64249 6.36625 5.64249C6.37381 5.64249 6.38 5.61043 6.38 5.57124C6.38 5.53206 6.38619 5.5 6.39375 5.5C6.40131 5.5 6.4075 5.46794 6.4075 5.42876C6.4075 5.38957 6.41369 5.35751 6.42125 5.35751C6.42881 5.35751 6.435 5.33187 6.435 5.30052C6.435 5.26917 6.44119 5.24352 6.44875 5.24352C6.45631 5.24352 6.4625 5.22429 6.4625 5.20078C6.4625 5.17727 6.46869 5.15803 6.47625 5.15803C6.48381 5.15803 6.49 5.1388 6.49 5.11528C6.49 5.09177 6.49619 5.07254 6.50375 5.07254C6.51131 5.07254 6.5175 5.0533 6.5175 5.02979C6.5175 5.00628 6.52369 4.98705 6.53125 4.98705C6.53881 4.98705 6.545 4.9614 6.545 4.93005C6.545 4.89871 6.55119 4.87306 6.55875 4.87306C6.56631 4.87306 6.5725 4.86023 6.5725 4.84456C6.5725 4.82889 6.57869 4.81606 6.58625 4.81606C6.59381 4.81606 6.6 4.79683 6.6 4.77332C6.6 4.74981 6.60619 4.73057 6.61375 4.73057C6.62131 4.73057 6.6275 4.71775 6.6275 4.70207C6.6275 4.6864 6.63369 4.67358 6.64125 4.67358C6.64881 4.67358 6.655 4.65434 6.655 4.63083C6.655 4.60732 6.66119 4.58808 6.66875 4.58808C6.67631 4.58808 6.6825 4.57526 6.6825 4.55959C6.6825 4.54391 6.68869 4.53109 6.69625 4.53109C6.70381 4.53109 6.71 4.51826 6.71 4.50259C6.71 4.48692 6.71619 4.47409 6.72375 4.47409C6.73131 4.47409 6.7375 4.46127 6.7375 4.4456C6.7375 4.42992 6.74369 4.4171 6.75125 4.4171C6.75881 4.4171 6.765 4.40427 6.765 4.3886C6.765 4.37293 6.77119 4.3601 6.77875 4.3601C6.78631 4.3601 6.7925 4.34728 6.7925 4.33161C6.7925 4.31593 6.79869 4.30311 6.80625 4.30311C6.81381 4.30311 6.82 4.29029 6.82 4.27461C6.82 4.25894 6.82619 4.24611 6.83375 4.24611C6.84131 4.24611 6.8475 4.23329 6.8475 4.21762C6.8475 4.20194 6.85369 4.18912 6.86125 4.18912C6.86881 4.18912 6.875 4.1763 6.875 4.16062C6.875 4.14495 6.88119 4.13212 6.88875 4.13212C6.89631 4.13212 6.9025 4.12071 6.9025 4.10678C6.9025 4.09283 6.91488 4.07218 6.93 4.06088C6.94513 4.04958 6.9575 4.02893 6.9575 4.01499C6.9575 4.00105 6.96369 3.98964 6.97125 3.98964C6.97881 3.98964 6.985 3.97822 6.985 3.96429C6.985 3.95034 6.99738 3.92969 7.0125 3.91839C7.02763 3.9071 7.04 3.88786 7.04 3.87565C7.04 3.86344 7.05238 3.8442 7.0675 3.8329C7.08263 3.8216 7.095 3.80237 7.095 3.79016C7.095 3.77794 7.10738 3.75871 7.1225 3.74741C7.13763 3.73611 7.15 3.71803 7.15 3.70723C7.15 3.69644 7.16856 3.66963 7.19125 3.64767C7.21394 3.62571 7.2325 3.60019 7.2325 3.59096C7.2325 3.58174 7.25725 3.54955 7.2875 3.51943C7.31775 3.48931 7.3425 3.45741 7.3425 3.44851C7.3425 3.43962 7.37963 3.3946 7.425 3.34845C7.47038 3.30229 7.5075 3.2577 7.5075 3.24935C7.5075 3.22951 7.81898 2.90674 7.83812 2.90674C7.84618 2.90674 7.88921 2.86826 7.93375 2.82124C7.97829 2.77422 8.02174 2.73575 8.03032 2.73575C8.0389 2.73575 8.06968 2.7101 8.09875 2.67876C8.12782 2.64741 8.15999 2.62176 8.17026 2.62176C8.18054 2.62176 8.19785 2.60894 8.20875 2.59326C8.21965 2.57759 8.2371 2.56477 8.24753 2.56477C8.25793 2.56477 8.28381 2.54553 8.305 2.52202C8.32619 2.49851 8.35207 2.47927 8.36247 2.47927C8.3729 2.47927 8.39035 2.46645 8.40125 2.45078C8.41215 2.4351 8.43072 2.42228 8.4425 2.42228C8.45428 2.42228 8.47285 2.40946 8.48375 2.39378C8.49465 2.37811 8.51458 2.36528 8.52804 2.36528C8.54149 2.36528 8.5525 2.35887 8.5525 2.35104C8.5525 2.3432 8.56351 2.33679 8.57696 2.33679C8.59042 2.33679 8.61035 2.32396 8.62125 2.30829C8.63215 2.29262 8.65208 2.27979 8.66554 2.27979C8.67899 2.27979 8.69 2.27338 8.69 2.26554C8.69 2.25771 8.70238 2.2513 8.7175 2.2513C8.73263 2.2513 8.745 2.24488 8.745 2.23705C8.745 2.22921 8.75737 2.2228 8.7725 2.2228C8.78763 2.2228 8.8 2.21639 8.8 2.20855C8.8 2.20071 8.81238 2.1943 8.8275 2.1943C8.84263 2.1943 8.855 2.18789 8.855 2.18005C8.855 2.17222 8.86738 2.1658 8.8825 2.1658C8.89763 2.1658 8.91 2.15939 8.91 2.15155C8.91 2.14372 8.92237 2.13731 8.9375 2.13731C8.95263 2.13731 8.965 2.13089 8.965 2.12306C8.965 2.11522 8.97738 2.10881 8.9925 2.10881C9.00763 2.10881 9.02 2.1024 9.02 2.09456C9.02 2.08672 9.03238 2.08031 9.0475 2.08031C9.06262 2.08031 9.075 2.0739 9.075 2.06606C9.075 2.05823 9.08738 2.05181 9.1025 2.05181C9.11763 2.05181 9.13 2.0454 9.13 2.03756C9.13 2.02973 9.14856 2.02332 9.17125 2.02332C9.19394 2.02332 9.2125 2.0169 9.2125 2.00907C9.2125 2.00123 9.22488 1.99482 9.24 1.99482C9.25513 1.99482 9.2675 1.98841 9.2675 1.98057C9.2675 1.97273 9.28606 1.96632 9.30875 1.96632C9.33144 1.96632 9.35 1.95991 9.35 1.95207C9.35 1.94424 9.36238 1.93782 9.3775 1.93782C9.39263 1.93782 9.405 1.93141 9.405 1.92358C9.405 1.91574 9.42356 1.90933 9.44625 1.90933C9.46894 1.90933 9.4875 1.90291 9.4875 1.89508C9.4875 1.88724 9.50606 1.88083 9.52875 1.88083C9.55144 1.88083 9.57 1.87442 9.57 1.86658C9.57 1.85874 9.59475 1.85233 9.625 1.85233C9.65525 1.85233 9.68 1.84592 9.68 1.83808C9.68 1.83025 9.69856 1.82383 9.72125 1.82383C9.74394 1.82383 9.7625 1.81742 9.7625 1.80959C9.7625 1.80175 9.78725 1.79534 9.8175 1.79534C9.84775 1.79534 9.8725 1.78893 9.8725 1.78109C9.8725 1.77325 9.90344 1.76684 9.94125 1.76684C9.97906 1.76684 10.01 1.76043 10.01 1.75259C10.01 1.74475 10.0348 1.73834 10.065 1.73834C10.0953 1.73834 10.12 1.73193 10.12 1.72409C10.12 1.71617 10.1567 1.70984 10.2025 1.70984C10.2483 1.70984 10.285 1.70352 10.285 1.6956C10.285 1.68729 10.3308 1.68135 10.395 1.68135C10.4592 1.68135 10.505 1.67541 10.505 1.6671C10.505 1.65787 10.6792 1.65285 11 1.65285C11.3208 1.65285 11.495 1.65787 11.495 1.6671Z" fill="black"/>
</svg>
