<svg width="204" height="60" viewBox="0 0 204 60" fill="none" xmlns="http://www.w3.org/2000/svg">
<path d="M82.6269 18.2825H77.6827V7.92676H83.0192C83.4865 7.92676 83.9019 8.05945 84.2711 8.32484C84.6404 8.59022 84.9173 8.91907 85.1019 9.31714C85.2865 9.71522 85.3788 10.1306 85.3788 10.5748C85.3788 11.0941 85.2461 11.5729 84.9808 12.0114C84.7154 12.4498 84.3519 12.7787 83.8904 12.9806C84.4904 13.1537 84.9577 13.4768 85.3038 13.9441C85.65 14.4114 85.8173 14.9652 85.8173 15.6171C85.8173 16.4248 85.5115 17.071 84.8942 17.5556C84.2769 18.0402 83.5211 18.2883 82.6154 18.2883L82.6269 18.2825ZM79.3154 9.34022V12.3921H82.3211C82.725 12.3921 83.0654 12.2479 83.3423 11.9594C83.6192 11.671 83.7577 11.3133 83.7577 10.8748C83.7577 10.4364 83.6308 10.0614 83.3769 9.77291C83.1231 9.48445 82.8 9.34022 82.4135 9.34022H79.3211H79.3154ZM82.7308 13.7018H79.3154V16.8633H82.6269C83.0538 16.8633 83.4115 16.7075 83.7058 16.4018C84 16.096 84.1442 15.7268 84.1442 15.2998C84.1442 14.8729 84.0115 14.4921 83.7404 14.1748C83.4692 13.8575 83.1346 13.696 82.7308 13.696V13.7018Z" fill="#272727"/>
<path d="M90.7788 18.4267C90.0058 18.4267 89.3134 18.2479 88.7077 17.8844C88.1019 17.5267 87.6346 17.0479 87.3115 16.4536C86.9884 15.8594 86.8269 15.2075 86.8269 14.4921C86.8269 13.9556 86.925 13.4479 87.1154 12.9632C87.3058 12.4786 87.5711 12.0575 87.9115 11.694C88.2461 11.3363 88.6673 11.0479 89.1692 10.8344C89.6711 10.6209 90.2134 10.5171 90.7961 10.5171C91.3788 10.5171 91.9154 10.6209 92.4115 10.8402C92.9019 11.0536 93.3115 11.3421 93.6461 11.6998C93.975 12.0575 94.2346 12.4729 94.4134 12.9459C94.5981 13.4132 94.6846 13.9094 94.6846 14.4229C94.6846 14.5556 94.6731 14.7517 94.6442 15.0056H88.5346C88.5808 15.6632 88.8288 16.2056 89.2731 16.6267C89.7173 17.0479 90.2423 17.2556 90.8423 17.2556C91.2808 17.2556 91.6846 17.1459 92.0596 16.9325C92.4346 16.719 92.6942 16.4363 92.8384 16.0902L94.2115 16.4825C93.9404 17.0652 93.5019 17.5382 92.8846 17.8959C92.2731 18.2536 91.5692 18.4325 90.7846 18.4325L90.7788 18.4267ZM88.4827 13.9382H93.0923C93.0346 13.2806 92.7865 12.7382 92.3538 12.3229C91.9211 11.9075 91.3904 11.6998 90.7731 11.6998C90.1557 11.6998 89.6365 11.9075 89.1981 12.3286C88.7596 12.7498 88.5231 13.2863 88.4769 13.9325L88.4827 13.9382Z" fill="#272727"/>
<path d="M95.9942 18.2827V10.6558H97.5981V13.6904H101.146V10.6558H102.75V18.2827H101.146V15.0692H97.5981V18.2827H95.9942Z" fill="#272727"/>
<path d="M108.975 18.2826V15.3749C108.398 15.6403 107.752 15.773 107.025 15.773C106.2 15.773 105.565 15.5537 105.127 15.1211C104.688 14.6884 104.469 14.0422 104.469 13.1884V10.6499H106.079V12.9864C106.079 13.523 106.188 13.9153 106.413 14.1634C106.638 14.4114 106.996 14.5326 107.487 14.5326C108.104 14.5326 108.6 14.4287 108.975 14.2095V10.6499H110.602V18.2768H108.975V18.2826Z" fill="#272727"/>
<path d="M112.783 20.0769C113.123 20.1461 113.383 20.175 113.562 20.175C113.81 20.175 114.012 20.0538 114.173 19.8173C114.335 19.575 114.554 19.0673 114.831 18.2827L111.687 10.6558H113.365L115.702 16.6558L117.767 10.6558H119.319L115.858 20.0538C115.696 20.5096 115.419 20.8788 115.021 21.1673C114.623 21.4558 114.138 21.6 113.573 21.6C113.319 21.6 113.054 21.5596 112.783 21.4846V20.0827V20.0769Z" fill="#272727"/>
<path d="M122.1 16.8517V21.3921H120.496V10.6556H121.915V12.0229C122.215 11.5556 122.596 11.1921 123.063 10.9209C123.531 10.6556 124.05 10.5171 124.615 10.5171C125.123 10.5171 125.602 10.6209 126.052 10.8402C126.502 11.0536 126.883 11.3363 127.2 11.694C127.512 12.0517 127.76 12.4671 127.944 12.9517C128.129 13.4306 128.221 13.9382 128.221 14.4575C128.221 15.1902 128.077 15.8536 127.794 16.4594C127.512 17.0652 127.108 17.544 126.588 17.8959C126.069 18.2479 125.481 18.4267 124.835 18.4267C124.24 18.4267 123.71 18.2825 123.237 18.0056C122.763 17.7229 122.388 17.3421 122.106 16.8575L122.1 16.8517ZM126.565 14.4575C126.565 13.7479 126.34 13.1421 125.879 12.6402C125.423 12.144 124.858 11.8902 124.183 11.8902C123.756 11.8902 123.329 12.0344 122.902 12.3344C122.475 12.6286 122.21 12.9806 122.094 13.3959V15.3921C122.296 15.8709 122.596 16.269 123.006 16.5863C123.415 16.9036 123.848 17.0594 124.304 17.0594C124.76 17.0594 125.135 16.9325 125.481 16.6844C125.827 16.4363 126.098 16.1132 126.283 15.7209C126.467 15.3286 126.56 14.9075 126.56 14.4575H126.565Z" fill="#272727"/>
<path d="M129.658 18.2827V10.6558H131.262V13.6904H134.81V10.6558H136.413V18.2827H134.81V15.0692H131.262V18.2827H129.658Z" fill="#272727"/>
<path d="M138.346 18.2827V10.6558H139.95V13.1654H141.398C142.292 13.1654 142.979 13.3904 143.458 13.8404C143.942 14.2904 144.179 14.8961 144.179 15.6577C144.179 16.4192 143.948 17.0769 143.481 17.5615C143.013 18.0461 142.362 18.2885 141.513 18.2885H138.34L138.346 18.2827ZM139.95 17.0423H141.265C141.71 17.0423 142.038 16.9154 142.269 16.6615C142.494 16.4077 142.61 16.0788 142.61 15.6808C142.61 15.2827 142.5 14.9654 142.287 14.7231C142.067 14.4808 141.727 14.3538 141.26 14.3538H139.956V17.0423H139.95ZM145.437 18.2827V10.6673H147.046V18.2827H145.437Z" fill="#272727"/>
<path d="M148.979 18.2827V10.6673H150.583V16.1365L154.454 10.65H155.913V18.2769H154.31V12.9173L150.485 18.2769H148.979V18.2827ZM152.458 9.63459C151.8 9.63459 151.287 9.47882 150.906 9.16729C150.531 8.85575 150.34 8.45767 150.34 7.96729H151.217C151.217 8.23844 151.321 8.45767 151.529 8.63075C151.737 8.80382 152.048 8.88459 152.458 8.88459C152.867 8.88459 153.167 8.80382 153.358 8.64805C153.548 8.48652 153.669 8.26152 153.715 7.96729H154.592C154.592 8.45767 154.402 8.85575 154.021 9.16729C153.64 9.47882 153.121 9.63459 152.463 9.63459H152.458Z" fill="#272727"/>
<path d="M165.663 18.2825V17.3363C165.035 17.3133 164.429 17.1863 163.858 16.9498C163.287 16.719 162.785 16.4075 162.358 16.021C161.931 15.6344 161.59 15.1613 161.337 14.596C161.083 14.0306 160.962 13.4306 160.967 12.7844C160.967 12.2421 161.06 11.7344 161.227 11.2498C161.394 10.771 161.631 10.3498 161.925 9.99788C162.219 9.64019 162.565 9.32865 162.963 9.06904C163.356 8.80365 163.783 8.60173 164.244 8.4575C164.7 8.31327 165.179 8.2325 165.663 8.21519V7.4248H167.221V8.21519C167.844 8.23827 168.438 8.36519 169.004 8.59596C169.569 8.82096 170.071 9.12673 170.504 9.51327C170.937 9.89404 171.283 10.3729 171.542 10.9383C171.796 11.5037 171.929 12.121 171.929 12.7902C171.929 13.4594 171.802 14.0652 171.542 14.6306C171.283 15.196 170.937 15.669 170.498 16.0556C170.06 16.4421 169.558 16.7479 168.992 16.9729C168.427 17.1979 167.838 17.3248 167.227 17.3479V18.294H165.669L165.663 18.2825ZM165.704 16.0094V9.54211C164.815 9.59404 164.077 9.91134 163.494 10.4883C162.906 11.0652 162.612 11.8325 162.612 12.7844C162.612 13.269 162.698 13.7133 162.871 14.1171C163.044 14.521 163.275 14.8556 163.563 15.121C163.852 15.3863 164.181 15.594 164.544 15.7498C164.908 15.9056 165.294 15.9921 165.704 16.0152V16.0094ZM167.192 16.0094C167.752 15.9748 168.26 15.8306 168.721 15.571C169.177 15.3113 169.552 14.9421 169.84 14.4517C170.129 13.9613 170.273 13.4075 170.273 12.7787C170.273 11.8267 169.973 11.0652 169.379 10.4825C168.785 9.90557 168.058 9.58827 167.198 9.53634V16.0037L167.192 16.0094Z" fill="#272727"/>
<path d="M173.192 15.9805C173.008 15.5016 172.915 14.9997 172.915 14.4689C172.915 13.9382 173.008 13.4362 173.198 12.9574C173.388 12.4785 173.648 12.0574 173.983 11.6939C174.317 11.3305 174.727 11.0478 175.229 10.8343C175.725 10.6208 176.262 10.5112 176.833 10.5112C177.6 10.5112 178.292 10.6958 178.898 11.0593C179.504 11.4228 179.965 11.9074 180.283 12.5074C180.6 13.1074 180.762 13.7593 180.762 14.4689C180.762 15.1785 180.6 15.8305 180.283 16.4305C179.965 17.0305 179.504 17.5093 178.898 17.8785C178.292 18.242 177.606 18.4266 176.833 18.4266C176.25 18.4266 175.708 18.317 175.212 18.1035C174.715 17.8901 174.3 17.6016 173.971 17.2439C173.637 16.8862 173.377 16.4651 173.192 15.9805ZM175.217 16.3208C175.656 16.8112 176.192 17.0535 176.833 17.0535C177.473 17.0535 178.01 16.8055 178.448 16.3035C178.887 15.8016 179.112 15.1901 179.112 14.4632C179.112 13.7362 178.892 13.1247 178.448 12.6285C178.004 12.1324 177.467 11.8843 176.833 11.8843C176.198 11.8843 175.662 12.1382 175.223 12.6401C174.779 13.142 174.56 13.7593 174.56 14.4862C174.56 15.2132 174.779 15.8305 175.217 16.3151V16.3208Z" fill="#272727"/>
<path d="M182.181 18.2827V10.6558H183.785V13.6904H187.333V10.6558H188.937V18.2827H187.333V15.0692H183.785V18.2827H182.181Z" fill="#272727"/>
<path d="M190.148 20.1057V16.8634H190.321C190.535 16.8634 190.725 16.8057 190.892 16.6903C191.06 16.5749 191.215 16.3787 191.354 16.0961C191.498 15.8134 191.608 15.4095 191.694 14.8845C191.781 14.3595 191.833 13.7134 191.85 12.9518L191.942 10.6499H197.383V16.8634H198.433V20.1057H197.013V18.2826H191.544V20.1057H190.148ZM192.433 16.8634H195.773V12.0345H193.35L193.31 13.1018C193.269 14.1864 193.177 15.0287 193.033 15.6287C192.888 16.2287 192.692 16.6384 192.433 16.8634Z" fill="#272727"/>
<path d="M77.6827 35.0135V24.6577H82.0269C82.6269 24.6577 83.175 24.825 83.6769 25.1539C84.1788 25.4827 84.5654 25.9096 84.8365 26.4231C85.1077 26.9366 85.2404 27.4731 85.2404 28.0269C85.2404 28.4596 85.1654 28.8808 85.0096 29.2904C84.8538 29.7 84.6461 30.0577 84.3808 30.375C84.1154 30.6923 83.7808 30.9404 83.3827 31.1308C82.9846 31.3212 82.5635 31.4135 82.1135 31.4135H79.3154V35.0193H77.6827V35.0135ZM79.3154 29.9654H82.0154C82.4711 29.9654 82.8461 29.7808 83.1346 29.4173C83.4288 29.0539 83.5731 28.5866 83.5731 28.0269C83.5731 27.4673 83.4115 27.0058 83.0885 26.6423C82.7654 26.2789 82.3788 26.1 81.9288 26.1H79.3154V29.9596V29.9654Z" fill="#272727"/>
<path d="M90.0173 35.1577C89.2442 35.1577 88.5519 34.9788 87.9461 34.6154C87.3404 34.2577 86.8731 33.7788 86.55 33.1846C86.2269 32.5904 86.0654 31.9384 86.0654 31.223C86.0654 30.6865 86.1634 30.1788 86.3538 29.6942C86.5442 29.2096 86.8096 28.7884 87.15 28.425C87.4846 28.0673 87.9058 27.7788 88.4077 27.5654C88.9096 27.3519 89.4519 27.248 90.0346 27.248C90.6173 27.248 91.1538 27.3519 91.65 27.5711C92.1404 27.7846 92.55 28.073 92.8846 28.4307C93.2134 28.7884 93.4731 29.2038 93.6519 29.6769C93.8365 30.1442 93.9231 30.6404 93.9231 31.1538C93.9231 31.2865 93.9115 31.4827 93.8827 31.7365H87.7731C87.8192 32.3942 88.0673 32.9365 88.5115 33.3577C88.9558 33.7788 89.4808 33.9865 90.0808 33.9865C90.5192 33.9865 90.9231 33.8769 91.2981 33.6634C91.6731 33.45 91.9327 33.1673 92.0769 32.8211L93.45 33.2134C93.1788 33.7961 92.7404 34.2692 92.1231 34.6269C91.5115 34.9846 90.8077 35.1634 90.0231 35.1634L90.0173 35.1577ZM87.7211 30.6692H92.3308C92.2731 30.0115 92.025 29.4692 91.5923 29.0538C91.1596 28.6384 90.6288 28.4307 90.0115 28.4307C89.3942 28.4307 88.875 28.6384 88.4365 29.0596C87.9981 29.4807 87.7615 30.0173 87.7154 30.6634L87.7211 30.6692Z" fill="#272727"/>
<path d="M98.6942 35.1573C97.9269 35.1573 97.2346 34.9726 96.6231 34.6092C96.0115 34.2457 95.5442 33.7611 95.2212 33.1611C94.8981 32.5611 94.7365 31.9034 94.7365 31.1938C94.7365 30.6573 94.8288 30.1496 95.0192 29.6707C95.2096 29.1919 95.4692 28.7765 95.8038 28.4188C96.1385 28.0611 96.5596 27.7784 97.0558 27.565C97.5519 27.3515 98.1 27.2534 98.6885 27.2534C99.4558 27.2534 100.125 27.4265 100.696 27.7669C101.267 28.1073 101.7 28.5746 101.994 29.1573L100.437 29.6476C100.258 29.3303 100.01 29.0823 99.6981 28.8976C99.3865 28.7188 99.0404 28.6265 98.6596 28.6265C98.0135 28.6265 97.4712 28.8688 97.0385 29.3476C96.6058 29.8265 96.3865 30.4438 96.3865 31.188C96.3865 31.9323 96.6115 32.538 97.0558 33.0342C97.5 33.5361 98.0423 33.7842 98.6712 33.7842C99.0635 33.7842 99.4385 33.6861 99.7846 33.4842C100.131 33.2823 100.362 33.0342 100.483 32.74L102.063 33.2015C101.81 33.7842 101.377 34.2573 100.771 34.615C100.171 34.9726 99.4731 35.1515 98.6885 35.1515L98.6942 35.1573Z" fill="#272727"/>
<path d="M103.385 35.0132V27.3862H109.95V35.0132H108.34V28.7997H104.983V35.0132H103.379H103.385Z" fill="#272727"/>
<path d="M112.131 36.8074C112.471 36.8766 112.731 36.9055 112.91 36.9055C113.158 36.9055 113.36 36.7843 113.521 36.5478C113.683 36.3055 113.902 35.7978 114.179 35.0132L111.035 27.3862H112.713L115.05 33.3862L117.115 27.3862H118.667L115.206 36.7843C115.044 37.2401 114.767 37.6093 114.369 37.8978C113.971 38.1862 113.487 38.3305 112.921 38.3305C112.667 38.3305 112.402 38.2901 112.131 38.2151V36.8132V36.8074Z" fill="#272727"/>
<path d="M123.537 35.1577C122.267 35.1577 121.304 34.7769 120.635 34.0096C119.971 33.2423 119.637 32.1461 119.637 30.7096C119.637 29.9711 119.688 29.3135 119.792 28.7481C119.896 28.1827 120.046 27.6981 120.242 27.3C120.438 26.8961 120.692 26.55 121.015 26.2615C121.338 25.9673 121.685 25.7308 122.065 25.5519C122.446 25.3673 122.896 25.2058 123.421 25.0615L126.675 24.1558L126.733 25.5L123.537 26.4058C122.74 26.6538 122.146 27.0115 121.737 27.4846C121.333 27.9577 121.085 28.6385 120.998 29.5269C121.275 29.025 121.667 28.6327 122.175 28.3558C122.683 28.0788 123.277 27.9404 123.963 27.9404C125.013 27.9404 125.85 28.2635 126.479 28.9096C127.108 29.5558 127.419 30.3923 127.419 31.425C127.419 32.55 127.079 33.4558 126.398 34.1365C125.717 34.8173 124.765 35.1577 123.537 35.1577ZM121.892 33.1558C122.285 33.5769 122.833 33.7904 123.537 33.7904C124.24 33.7904 124.788 33.5827 125.187 33.1731C125.585 32.7577 125.787 32.2038 125.787 31.5C125.787 30.7961 125.585 30.2827 125.187 29.8673C124.788 29.4519 124.235 29.2442 123.537 29.2442C122.879 29.2442 122.348 29.4461 121.933 29.85C121.517 30.2538 121.31 30.8077 121.31 31.5058C121.31 32.2038 121.506 32.7404 121.898 33.1673L121.892 33.1558Z" fill="#272727"/>
<path d="M128.244 35.0827V33.6577C128.498 33.6577 128.723 33.5942 128.902 33.4731C129.087 33.3577 129.254 33.1558 129.404 32.8673C129.554 32.5788 129.675 32.175 129.762 31.6442C129.848 31.1135 129.906 30.4615 129.935 29.6769L130.033 27.375H135.473V35.0019H133.869V28.7885H131.446L131.417 29.8212C131.377 30.8365 131.279 31.6846 131.14 32.3596C130.996 33.0346 130.788 33.5769 130.517 33.975C130.246 34.3731 129.929 34.6558 129.565 34.8173C129.202 34.9788 128.758 35.0654 128.233 35.0712L128.244 35.0827Z" fill="#272727"/>
<path d="M137.406 35.0131V27.3977H139.01V32.8669L142.881 27.3804H144.34V35.0073H142.737V29.6477L138.912 35.0073H137.406V35.0131Z" fill="#272727"/>
<path d="M146.25 35.0132V27.3862H147.837V30.4093H148.598L150.842 27.3862H152.625L149.838 31.0785L152.942 35.0189H151.09L148.581 31.8574H147.831V35.0189H146.244L146.25 35.0132Z" fill="#272727"/>
<path d="M154.171 35.0131V27.3977H155.775V32.8669L159.646 27.3804H161.106V35.0073H159.502V29.6477L155.677 35.0073H154.171V35.0131Z" fill="#272727"/>
<path d="M77.6942 51.744V41.3882H84.975V42.819H79.3269V45.7209H82.3615C83.4808 45.7209 84.3346 45.9863 84.9288 46.517C85.5231 47.0478 85.8115 47.7632 85.8115 48.6747C85.8115 49.5863 85.5231 50.3363 84.9461 50.9074C84.3692 51.4728 83.5442 51.7555 82.4711 51.7555H77.7L77.6942 51.744ZM79.3269 50.3132H82.2461C82.875 50.3132 83.3423 50.1516 83.6481 49.8228C83.9596 49.4997 84.1096 49.0901 84.1096 48.6055C84.1096 48.3863 84.0808 48.1901 84.0231 48.0055C83.9654 47.8266 83.8673 47.6593 83.7288 47.5036C83.5904 47.3478 83.3942 47.2266 83.1346 47.1401C82.8808 47.0536 82.575 47.0074 82.2173 47.0074H79.3269V50.3074V50.3132Z" fill="#272727"/>
<path d="M86.5731 49.517C86.5731 48.7901 86.8731 48.2074 87.4788 47.7631C88.0788 47.3189 88.8634 47.0939 89.8269 47.0939C90.6 47.0939 91.2634 47.1977 91.8173 47.3997V46.9151C91.8173 46.3785 91.6558 45.9574 91.3269 45.6574C90.9981 45.3574 90.5365 45.2074 89.9423 45.2074C89.5327 45.2074 89.1404 45.2766 88.7596 45.4208C88.3788 45.5651 87.9634 45.7785 87.5192 46.067L86.9827 44.9881C87.9923 44.3131 89.0365 43.9785 90.1154 43.9785C91.1942 43.9785 91.9557 44.2497 92.5384 44.792C93.1211 45.3343 93.4154 46.1016 93.4154 47.0881V49.9324C93.4154 50.1112 93.45 50.2439 93.5134 50.3247C93.5769 50.4054 93.6865 50.4516 93.8365 50.4574V51.7381C93.5827 51.7843 93.3519 51.8074 93.15 51.8074C92.8269 51.8074 92.5731 51.7266 92.3942 51.5708C92.2096 51.4151 92.1058 51.2189 92.0711 50.9824L92.0308 50.5381C91.7019 50.9593 91.2865 51.2881 90.7731 51.5247C90.2596 51.7612 89.7404 51.8766 89.2038 51.8766C88.4423 51.8766 87.8134 51.6516 87.3173 51.1958C86.8211 50.7401 86.5731 50.1804 86.5731 49.5054V49.517ZM91.4308 49.9785C91.6904 49.7247 91.8173 49.4824 91.8173 49.2689V48.392C91.2577 48.1785 90.675 48.0689 90.0634 48.0689C89.4519 48.0689 88.9961 48.1901 88.6327 48.4266C88.2692 48.6631 88.0904 48.9804 88.0904 49.3785C88.0904 49.742 88.2288 50.0535 88.5058 50.3131C88.7827 50.5727 89.1634 50.7112 89.6481 50.7112C89.9827 50.7112 90.3058 50.642 90.6288 50.5035C90.9519 50.3651 91.2173 50.192 91.425 49.9785H91.4308Z" fill="#272727"/>
<path d="M95.3538 51.7441V44.1172H96.9577V50.3422H99.6865V44.1172H101.313V50.3422H104.025V44.1172H105.629V51.7441H95.3538Z" fill="#272727"/>
<path d="M107.567 51.7441V44.1172H109.154V47.1403H109.915L112.16 44.1172H113.942L111.156 47.8095L114.26 51.7499H112.408L109.898 48.5883H109.148V51.7499H107.562L107.567 51.7441Z" fill="#272727"/>
<path d="M114.883 49.4419C114.698 48.963 114.606 48.4611 114.606 47.9303C114.606 47.3996 114.698 46.8977 114.888 46.4188C115.079 45.94 115.338 45.5188 115.673 45.1553C116.008 44.7919 116.417 44.5092 116.919 44.2957C117.415 44.0823 117.952 43.9727 118.523 43.9727C119.29 43.9727 119.983 44.1573 120.588 44.5207C121.194 44.8842 121.656 45.3688 121.973 45.9688C122.29 46.5688 122.452 47.2207 122.452 47.9303C122.452 48.64 122.29 49.2919 121.973 49.8919C121.656 50.4919 121.194 50.9707 120.588 51.34C119.983 51.7034 119.296 51.888 118.523 51.888C117.94 51.888 117.398 51.7784 116.902 51.565C116.406 51.3515 115.99 51.063 115.662 50.7053C115.327 50.3477 115.067 49.9265 114.883 49.4419ZM116.908 49.7823C117.346 50.2727 117.883 50.515 118.523 50.515C119.163 50.515 119.7 50.2669 120.138 49.765C120.577 49.263 120.802 48.6515 120.802 47.9246C120.802 47.1977 120.583 46.5861 120.138 46.09C119.694 45.5938 119.158 45.3457 118.523 45.3457C117.888 45.3457 117.352 45.5996 116.913 46.1015C116.469 46.6034 116.25 47.2207 116.25 47.9477C116.25 48.6746 116.469 49.2919 116.908 49.7765V49.7823Z" fill="#272727"/>
<path d="M125.475 50.3131V54.8535H123.871V44.117H125.29V45.4843C125.59 45.017 125.971 44.6535 126.438 44.3824C126.906 44.117 127.425 43.9785 127.99 43.9785C128.498 43.9785 128.977 44.0824 129.427 44.3016C129.877 44.5151 130.258 44.7977 130.575 45.1554C130.887 45.5131 131.135 45.9285 131.319 46.4131C131.504 46.892 131.596 47.3997 131.596 47.9189C131.596 48.6516 131.452 49.3151 131.169 49.9208C130.887 50.5266 130.483 51.0054 129.963 51.3574C129.444 51.7093 128.856 51.8881 128.21 51.8881C127.615 51.8881 127.085 51.7439 126.612 51.467C126.138 51.1843 125.763 50.8035 125.481 50.3189L125.475 50.3131ZM129.94 47.9189C129.94 47.2093 129.715 46.6035 129.254 46.1016C128.798 45.6054 128.233 45.3516 127.558 45.3516C127.131 45.3516 126.704 45.4958 126.277 45.7958C125.85 46.0901 125.585 46.442 125.469 46.8574V48.8535C125.671 49.3324 125.971 49.7304 126.381 50.0477C126.79 50.3651 127.223 50.5208 127.679 50.5208C128.135 50.5208 128.51 50.3939 128.856 50.1458C129.202 49.8977 129.473 49.5747 129.658 49.1824C129.842 48.7901 129.935 48.3689 129.935 47.9189H129.94Z" fill="#272727"/>
<path d="M134.844 51.744V45.5306H132.323V44.1113H138.992V45.5306H136.448V51.744H134.844Z" fill="#272727"/>
<path d="M139.967 49.4419C139.783 48.963 139.69 48.4611 139.69 47.9303C139.69 47.3996 139.783 46.8977 139.973 46.4188C140.163 45.94 140.423 45.5188 140.758 45.1553C141.092 44.7919 141.502 44.5092 142.004 44.2957C142.5 44.0823 143.037 43.9727 143.608 43.9727C144.375 43.9727 145.067 44.1573 145.673 44.5207C146.279 44.8842 146.74 45.3688 147.058 45.9688C147.375 46.5688 147.537 47.2207 147.537 47.9303C147.537 48.64 147.375 49.2919 147.058 49.8919C146.74 50.4919 146.279 50.9707 145.673 51.34C145.067 51.7034 144.381 51.888 143.608 51.888C143.025 51.888 142.483 51.7784 141.987 51.565C141.49 51.3515 141.075 51.063 140.746 50.7053C140.412 50.3477 140.152 49.9265 139.967 49.4419ZM141.992 49.7823C142.431 50.2727 142.967 50.515 143.608 50.515C144.248 50.515 144.785 50.2669 145.223 49.765C145.662 49.263 145.887 48.6515 145.887 47.9246C145.887 47.1977 145.667 46.5861 145.223 46.09C144.779 45.5938 144.242 45.3457 143.608 45.3457C142.973 45.3457 142.437 45.5996 141.998 46.1015C141.554 46.6034 141.335 47.2207 141.335 47.9477C141.335 48.6746 141.554 49.2919 141.992 49.7765V49.7823Z" fill="#272727"/>
<path d="M152.417 51.8882C151.65 51.8882 150.958 51.7036 150.346 51.3401C149.735 50.9767 149.267 50.4921 148.944 49.8921C148.621 49.2921 148.46 48.6344 148.46 47.9248C148.46 47.3882 148.552 46.8805 148.742 46.4017C148.933 45.9228 149.192 45.5075 149.527 45.1498C149.862 44.7921 150.283 44.5094 150.779 44.2959C151.275 44.0825 151.823 43.9844 152.412 43.9844C153.179 43.9844 153.848 44.1575 154.419 44.4978C154.99 44.8382 155.423 45.3055 155.717 45.8882L154.16 46.3786C153.981 46.0613 153.733 45.8132 153.421 45.6286C153.11 45.4498 152.763 45.3575 152.383 45.3575C151.737 45.3575 151.194 45.5998 150.762 46.0786C150.329 46.5575 150.11 47.1748 150.11 47.919C150.11 48.6632 150.335 49.269 150.779 49.7651C151.223 50.2671 151.765 50.5151 152.394 50.5151C152.787 50.5151 153.162 50.4171 153.508 50.2151C153.854 50.0132 154.085 49.7651 154.206 49.4709L155.787 49.9325C155.533 50.5151 155.1 50.9882 154.494 51.3459C153.894 51.7036 153.196 51.8825 152.412 51.8825L152.417 51.8882Z" fill="#272727"/>
<path d="M158.913 51.744V45.5306H156.392V44.1113H163.062V45.5306H160.517V51.744H158.913Z" fill="#272727"/>
<path d="M163.679 49.517C163.679 48.7901 163.979 48.2074 164.585 47.7631C165.185 47.3189 165.969 47.0939 166.933 47.0939C167.706 47.0939 168.369 47.1977 168.923 47.3997V46.9151C168.923 46.3785 168.762 45.9574 168.433 45.6574C168.104 45.3574 167.642 45.2074 167.048 45.2074C166.638 45.2074 166.246 45.2766 165.865 45.4208C165.485 45.5651 165.069 45.7785 164.625 46.067L164.088 44.9881C165.098 44.3131 166.142 43.9785 167.221 43.9785C168.3 43.9785 169.062 44.2497 169.644 44.792C170.227 45.3343 170.521 46.1016 170.521 47.0881V49.9324C170.521 50.1112 170.556 50.2439 170.619 50.3247C170.683 50.4054 170.792 50.4516 170.942 50.4574V51.7381C170.688 51.7843 170.458 51.8074 170.256 51.8074C169.933 51.8074 169.679 51.7266 169.5 51.5708C169.315 51.4151 169.212 51.2189 169.177 50.9824L169.137 50.5381C168.808 50.9593 168.392 51.2881 167.879 51.5247C167.365 51.7612 166.846 51.8766 166.31 51.8766C165.548 51.8766 164.919 51.6516 164.423 51.1958C163.927 50.7401 163.679 50.1804 163.679 49.5054V49.517ZM168.537 49.9785C168.796 49.7247 168.923 49.4824 168.923 49.2689V48.392C168.363 48.1785 167.781 48.0689 167.169 48.0689C166.558 48.0689 166.102 48.1901 165.738 48.4266C165.375 48.6631 165.196 48.9804 165.196 49.3785C165.196 49.742 165.335 50.0535 165.612 50.3131C165.888 50.5727 166.269 50.7112 166.754 50.7112C167.088 50.7112 167.412 50.642 167.735 50.5035C168.058 50.3651 168.323 50.192 168.531 49.9785H168.537Z" fill="#272727"/>
<path d="M172.465 51.7441V44.1172H174.069V47.1518H177.617V44.1172H179.221V51.7441H177.617V48.5306H174.069V51.7441H172.465Z" fill="#272727"/>
<path d="M6.08655 16.5402V31.246C6.08655 31.9902 6.48462 32.671 7.12501 33.046L19.8577 40.396C20.4981 40.7652 21.2942 40.7652 21.9346 40.396L34.6673 33.046C35.3077 32.6767 35.7058 31.9902 35.7058 31.246V16.5402C35.7058 15.796 35.3077 15.1152 34.6673 14.7402L21.9346 7.3902C21.2942 7.02097 20.4981 7.02097 19.8577 7.3902L7.12501 14.7402C6.48462 15.1094 6.08655 15.796 6.08655 16.5402Z" fill="#1862E5"/>
<path d="M14.6365 31.2521V45.9579C14.6365 46.7021 15.0346 47.3829 15.675 47.7579L28.4077 55.1079C29.0481 55.4771 29.8442 55.4771 30.4846 55.1079L43.2173 47.7579C43.8577 47.3887 44.2558 46.7021 44.2558 45.9579V31.2521C44.2558 30.5079 43.8577 29.8271 43.2173 29.4521L30.4846 22.1021C29.8442 21.7329 29.0481 21.7329 28.4077 22.1021L15.675 29.4521C15.0346 29.8213 14.6365 30.5079 14.6365 31.2521Z" fill="#149D4F"/>
<path d="M52.125 31.246V16.5402C52.125 15.796 51.7269 15.1152 51.0865 14.7402L38.3538 7.3902C37.7135 7.02097 36.9173 7.02097 36.2769 7.3902L23.5442 14.7402C22.9038 15.1094 22.5058 15.796 22.5058 16.5402V31.246C22.5058 31.9902 22.9038 32.671 23.5442 33.046L36.2769 40.396C36.9173 40.7652 37.7135 40.7652 38.3538 40.396L42.5885 37.9498L51.0865 33.046C51.7269 32.6767 52.125 31.9902 52.125 31.246Z" fill="#FEA31B"/>
<path d="M48.4846 9.81934L54.9115 13.904L55.0615 20.827" stroke="#FEA31B" stroke-width="2" stroke-miterlimit="10"/>
<path d="M51.9462 8.08838L58.3731 12.173L58.5231 19.0961" stroke="#FEA31B" stroke-width="2" stroke-miterlimit="10"/>
<path d="M47.3942 42.0923L47.0711 49.7019L41.1461 53.2904" stroke="#149D4F" stroke-width="2" stroke-miterlimit="10"/>
<path d="M9.69234 37.9845L3.08657 34.1884L2.6308 27.2769" stroke="#1862E5" stroke-width="2" stroke-miterlimit="10"/>
<path d="M43.2231 29.4521L30.4904 22.1021C29.85 21.7329 29.0538 21.7329 28.4135 22.1021L22.5058 25.5117V31.2463C22.5058 31.9906 22.9038 32.6713 23.5442 33.0463L36.2769 40.3963C36.9173 40.7656 37.7135 40.7656 38.3538 40.3963L42.5885 37.9502L44.2558 36.9867V31.2521C44.2558 30.5079 43.8577 29.8271 43.2173 29.4521H43.2231Z" fill="#FEA31B"/>
<path d="M30.4846 22.1021C29.8442 21.7329 29.0481 21.7329 28.4077 22.1021L15.675 29.4521C15.0346 29.8213 14.6365 30.5079 14.6365 31.2521V37.3848L19.8577 40.4021C20.4981 40.7713 21.2942 40.7713 21.9346 40.4021L34.6673 33.0521C35.3077 32.6829 35.7058 31.9963 35.7058 31.2521V25.1194L30.4846 22.1021Z" fill="#149D4F"/>
<path d="M22.5058 16.5403V31.2461C22.5058 31.9903 22.9038 32.6711 23.5442 33.0461L29.1058 36.2595L34.6673 33.0461C35.3077 32.6769 35.7058 31.9903 35.7058 31.2461V16.5403C35.7058 15.7961 35.3077 15.1153 34.6673 14.7403L29.1058 11.5269L23.5442 14.7403C22.9038 15.1095 22.5058 15.7961 22.5058 16.5403Z" fill="#1862E5"/>
<path d="M28.4077 22.102L22.5 25.5116V31.2463C22.5 31.9905 22.8981 32.6713 23.5385 33.0463L29.1 36.2597L34.6615 33.0463C35.3019 32.677 35.7 31.9905 35.7 31.2463V25.1136L30.4788 22.0963C29.8385 21.727 29.0423 21.727 28.4019 22.0963L28.4077 22.102Z" fill="white"/>
</svg>
