<?xml version="1.0" encoding="utf-8"?>
<!-- Generator: Adobe Illustrator 24.3.0, SVG Export Plug-In . SVG Version: 6.00 Build 0)  -->
<svg version="1.1" id="Слой_1" xmlns="http://www.w3.org/2000/svg" xmlns:xlink="http://www.w3.org/1999/xlink" x="0px" y="0px"
	 viewBox="0 0 334.44 270.36" style="enable-background:new 0 0 334.44 270.36;" xml:space="preserve">
<style type="text/css">
	.st0{fill-rule:evenodd;clip-rule:evenodd;fill:#E3000F;}
</style>
<path class="st0" d="M72.51,154.09l-12.3-42.01L48.4,154.09H72.51L72.51,154.09z M293.94,134.55l40.51,57.64h-42.89l-16.67-29.8
	l-16.51,29.8c-25.93,0-51.86,0-77.8,0h-41.52H83.15l-4-13.68H41.11l-3.86,13.68H0L41.11,76.91h38.84l40.74,114.24v-33.86v-22.74
	V76.91c45.89,0,91.79,0,137.68,0l16.51,29.8l16.67-29.8h42.89L293.94,134.55L293.94,134.55z M206.96,134.55v13.68h-48.07v16.61h56.8
	v27.05l37.95-57.33l-37.95-57.34v27.05h-56.8v16.61h48.07V134.55z"/>
<path class="st0" d="M246.96,34.83c-4.36,2.82-8.87,5.38-13.52,7.69c0.89,1.15,1.75,2.32,2.6,3.51c3.82,5.36,7.22,11.02,10.22,16.88
	l0.51,1h-7.3l-0.2-0.36c-2.54-4.75-5.37-9.34-8.5-13.73c-1.09-1.52-2.21-3.02-3.36-4.48c-5.56,2.44-11.27,4.53-17.09,6.25
	c-1.65,0.49-3.3,0.95-4.96,1.38c1.23,3.31,2.35,6.67,3.37,10.05l0.27,0.89h-6.78l-0.15-0.48c-0.94-3.02-1.96-6.01-3.08-8.96
	c-9.42,2-19.01,3.09-28.63,3.29v6.15h-6.49v-6.15c-9.62-0.2-19.22-1.29-28.63-3.29c-1.12,2.95-2.14,5.94-3.08,8.96l-0.15,0.48h-6.78
	l0.27-0.89c1.02-3.38,2.14-6.74,3.37-10.05c-1.66-0.43-3.32-0.89-4.96-1.38c-5.82-1.72-11.53-3.81-17.09-6.25
	c-1.16,1.47-2.28,2.96-3.37,4.48c-3.13,4.39-5.96,8.98-8.5,13.73l-0.19,0.36h-7.3l0.51-1c3-5.86,6.4-11.52,10.22-16.88
	c0.85-1.18,1.72-2.35,2.6-3.51c-4.65-2.31-9.16-4.87-13.51-7.69c-3.56,2.89-6.97,5.97-10.2,9.22c-5.94,5.97-11.28,12.53-15.94,19.55
	l-0.2,0.3h-7.71l0.66-1.06c5.31-8.46,11.56-16.33,18.6-23.41C97.62,14.15,131.44,0,167.12,0c35.68,0,69.5,14.15,94.64,39.45
	c7.04,7.08,13.29,14.94,18.61,23.41l0.66,1.06h-7.72l-0.2-0.3c-4.66-7.02-10-13.58-15.94-19.55
	C253.93,40.8,250.52,37.72,246.96,34.83L246.96,34.83z M196.5,48.33c-3.89-8.88-9.72-19.29-17.53-25.16
	c-2.85,0.46-5.72,0.74-8.6,0.86v27.19C179.14,51.04,187.9,50.08,196.5,48.33L196.5,48.33z M163.87,51.22V24.03
	c-2.88-0.12-5.75-0.4-8.6-0.86c-7.82,5.87-13.65,16.28-17.53,25.16C146.34,50.08,155.1,51.04,163.87,51.22L163.87,51.22z
	 M241.47,30.62c-11.61-8.42-24.57-14.82-38.32-18.89c-0.76,0.97-1.63,1.85-2.55,2.65c11,5.6,20.59,13.64,28.64,22.96
	C233.42,35.32,237.51,33.08,241.47,30.62L241.47,30.62z M223.05,40.14c-8.08-9.01-17.77-16.66-28.86-21.59
	c-0.12,0.06-0.24,0.12-0.35,0.17c-2.27,1.09-4.65,1.97-7.06,2.69c7.04,6.9,12.32,16.47,16.17,25.46c1.86-0.47,3.72-0.98,5.57-1.53
	C213.44,43.88,218.3,42.14,223.05,40.14L223.05,40.14z M147.47,21.41c-2.41-0.72-4.79-1.6-7.06-2.69c-0.12-0.05-0.24-0.11-0.35-0.17
	c-11.1,4.93-20.79,12.58-28.87,21.59c4.74,2,9.61,3.74,14.54,5.2c1.84,0.55,3.7,1.05,5.57,1.53
	C135.14,37.88,140.42,28.31,147.47,21.41L147.47,21.41z M105.01,37.34c8.05-9.32,17.65-17.36,28.64-22.96
	c-0.93-0.8-1.79-1.69-2.55-2.65c-13.75,4.07-26.71,10.48-38.32,18.89C96.72,33.08,100.81,35.32,105.01,37.34L105.01,37.34z
	 M195.95,9.83c-9.45-2.2-19.12-3.3-28.83-3.3c-9.7,0-19.37,1.09-28.82,3.3c1.49,1.21,3.22,2.21,4.91,3.03
	c7.13,3.43,16.06,4.72,23.91,4.72c7.86,0,16.78-1.28,23.92-4.72C192.73,12.04,194.46,11.04,195.95,9.83z"/>
<path class="st0" d="M246.96,235.53c-4.36-2.82-8.87-5.38-13.52-7.69c0.89-1.15,1.75-2.32,2.6-3.5c3.82-5.36,7.22-11.02,10.22-16.88
	l0.51-1h-7.3l-0.2,0.37c-2.54,4.74-5.37,9.34-8.5,13.72c-1.09,1.53-2.21,3.02-3.36,4.49c-5.56-2.44-11.27-4.53-17.09-6.25
	c-1.65-0.49-3.3-0.95-4.96-1.38c1.23-3.31,2.35-6.67,3.37-10.05l0.27-0.89h-6.78l-0.15,0.48c-0.94,3.02-1.96,6.01-3.08,8.96
	c-9.42-2-19.01-3.09-28.63-3.29v-6.15h-6.49v6.15c-9.62,0.2-19.22,1.29-28.63,3.29c-1.12-2.95-2.14-5.94-3.08-8.96l-0.15-0.48h-6.78
	l0.27,0.89c1.02,3.38,2.14,6.74,3.37,10.06c-1.66,0.43-3.32,0.89-4.96,1.38c-5.82,1.72-11.53,3.81-17.09,6.25
	c-1.16-1.47-2.28-2.96-3.37-4.49c-3.13-4.38-5.96-8.98-8.5-13.72l-0.19-0.37h-7.3l0.51,1c3,5.87,6.4,11.52,10.22,16.88
	c0.85,1.18,1.72,2.35,2.6,3.5c-4.65,2.31-9.16,4.87-13.51,7.69c-3.56-2.89-6.97-5.97-10.2-9.22c-5.94-5.97-11.28-12.53-15.94-19.55
	l-0.2-0.31h-7.71l0.66,1.06c5.31,8.46,11.56,16.32,18.6,23.41c25.14,25.29,58.96,39.44,94.64,39.44c35.68,0,69.5-14.15,94.64-39.44
	c7.04-7.09,13.29-14.94,18.61-23.41l0.66-1.06h-7.72l-0.2,0.31c-4.66,7.02-10,13.57-15.94,19.55
	C253.93,229.56,250.52,232.64,246.96,235.53L246.96,235.53z M196.5,222.03c-3.89,8.88-9.72,19.3-17.53,25.16
	c-2.85-0.46-5.72-0.74-8.6-0.86v-27.2C179.14,219.32,187.9,220.28,196.5,222.03L196.5,222.03z M163.87,219.13v27.2
	c-2.88,0.12-5.75,0.4-8.6,0.86c-7.82-5.87-13.65-16.28-17.53-25.16C146.34,220.28,155.1,219.32,163.87,219.13L163.87,219.13z
	 M241.47,239.74c-11.61,8.42-24.57,14.82-38.32,18.9c-0.76-0.96-1.63-1.85-2.55-2.65c11-5.6,20.59-13.64,28.64-22.96
	C233.42,235.04,237.51,237.28,241.47,239.74L241.47,239.74z M223.05,230.22c-8.08,9.01-17.77,16.66-28.86,21.59
	c-0.12-0.06-0.24-0.11-0.35-0.17c-2.27-1.09-4.65-1.97-7.06-2.68c7.04-6.91,12.32-16.48,16.17-25.46c1.86,0.47,3.72,0.98,5.57,1.53
	C213.44,226.48,218.3,228.22,223.05,230.22L223.05,230.22z M147.47,248.95c-2.41,0.71-4.79,1.59-7.06,2.68
	c-0.12,0.06-0.24,0.11-0.35,0.17c-11.1-4.93-20.79-12.58-28.87-21.59c4.74-2,9.61-3.74,14.54-5.2c1.84-0.55,3.7-1.06,5.57-1.53
	C135.14,232.48,140.42,242.05,147.47,248.95L147.47,248.95z M105.01,233.02c8.05,9.32,17.65,17.36,28.64,22.96
	c-0.93,0.81-1.79,1.69-2.55,2.65c-13.75-4.07-26.71-10.48-38.32-18.9C96.72,237.28,100.81,235.04,105.01,233.02L105.01,233.02z
	 M195.95,260.54c-9.45,2.2-19.12,3.29-28.83,3.29c-9.7,0-19.37-1.09-28.82-3.29c1.49-1.21,3.22-2.21,4.91-3.03
	c7.13-3.43,16.06-4.72,23.91-4.72c7.86,0,16.78,1.28,23.92,4.72C192.73,258.32,194.46,259.32,195.95,260.54z"/>
</svg>
