<?xml version="1.0" encoding="utf-8"?>
<!-- Generator: Adobe Illustrator 25.2.0, SVG Export Plug-In . SVG Version: 6.00 Build 0)  -->
<svg version="1.1" id="Слой_1" xmlns="http://www.w3.org/2000/svg" xmlns:xlink="http://www.w3.org/1999/xlink" x="0px" y="0px"
	 viewBox="0 0 142.1 142.1" style="enable-background:new 0 0 142.1 142.1;" xml:space="preserve">
<style type="text/css">
	.st0{fill:#CF1C1D;}
	.st1{fill:#FFFFFF;}
</style>
<circle class="st0" cx="71" cy="71" r="41.7"/>
<path class="st1" d="M126.2,64.8h-10.1H84H71h-0.1V75h45.4c-2,23.3-21.6,41.6-45.4,41.6c-25.2,0-45.6-20.4-45.6-45.6
	s20.4-45.7,45.6-45.7c10.7,0,20.5,3.7,28.3,9.9c2.7,2.1,5.1,4.5,7.2,7.2l7.1-7.1c-2.2-2.6-4.6-5-7.2-7.2c-9.6-8-22-12.7-35.4-12.7
	c-30.7,0-55.6,24.9-55.6,55.6s24.9,55.6,55.6,55.6c29.4,0,53.4-22.8,55.5-51.6c0.1-1.3,0.2-2.7,0.2-4
	C126.6,68.9,126.4,66.8,126.2,64.8z"/>
<polygon class="st1" points="131.4,131.4 71,131.4 71,142.1 142.1,142.1 142.1,71 131.4,71 "/>
<polygon class="st1" points="10.7,10.7 71,10.7 71,0 0,0 0,71 10.7,71 "/>
</svg>
