<?xml version="1.0" encoding="utf-8"?>
<!-- Generator: Adobe Illustrator 22.1.0, SVG Export Plug-In . SVG Version: 6.00 Build 0)  -->
<svg version="1.1" id="Capa_1" xmlns="http://www.w3.org/2000/svg" xmlns:xlink="http://www.w3.org/1999/xlink" x="0px" y="0px"
	 viewBox="0 0 512 512" style="enable-background:new 0 0 512 512;" xml:space="preserve">
<style type="text/css">
	.st0{fill:#FFFFFF;}
</style>
<path class="st0" d="M256,512C114.8,512,0,397.2,0,256C0,114.8,114.8,0,256,0c141.2,0,256,114.8,256,256v16.3
	c0,42.2-34.3,76.5-76.5,76.5c-24.4,0-47.6-12-62.1-32.2l-4.7-6.5l-3.9,7c-22.4,39.7-64.1,64.3-108.8,64.3
	c-69.2,0-125.4-56.3-125.4-125.4S186.8,130.6,256,130.6c35.7,0,70,15.8,94.1,43.4l8.9,10.2v-21h22.4v109.1
	c0,29.8,24.3,54.1,54.1,54.1c29.8,0,54.1-24.3,54.1-54.1V256c0-128.8-104.8-233.6-233.6-233.6C127.2,22.4,22.4,127.2,22.4,256
	S127.2,489.6,256,489.6c42.5,0,84-11.5,120.2-33.3l12,19C348.4,499.3,302.7,512,256,512z M256,153c-56.8,0-103,46.2-103,103
	s46.2,103,103,103s103-46.2,103-103S312.8,153,256,153z"/>
</svg>
