<svg width="35" height="35" viewBox="0 0 35 35" fill="none" xmlns="http://www.w3.org/2000/svg">
<path d="M30.124 0H4.87598C4.24741 0 3.73779 0.509619 3.73779 1.13818V30.7381C3.73779 31.3667 4.24741 31.8763 4.87598 31.8763H6.22806V33.8618C6.22806 34.4904 6.73768 35 7.36624 35H11.0923C11.7209 35 12.2305 34.4904 12.2305 33.8618V31.8763H22.7695V33.8618C22.7695 34.4904 23.2791 35 23.9077 35H27.6338C28.2623 35 28.772 34.4904 28.772 33.8618V31.8763H30.124C30.7526 31.8763 31.2622 31.3667 31.2622 30.7381V1.13818C31.2622 0.509619 30.7527 0 30.124 0ZM22.1519 3.27763C23.0907 3.27763 23.8517 4.0386 23.8517 4.97738C23.8517 5.91616 23.0907 6.67714 22.1519 6.67714C21.2131 6.67714 20.4521 5.91616 20.4521 4.97738C20.4521 4.0386 21.2131 3.27763 22.1519 3.27763ZM17.5 3.27763C18.4388 3.27763 19.1997 4.0386 19.1997 4.97738C19.1997 5.91616 18.4388 6.67714 17.5 6.67714C16.5612 6.67714 15.8002 5.91616 15.8002 4.97738C15.8002 4.0386 16.5612 3.27763 17.5 3.27763ZM12.8481 3.27763C13.7869 3.27763 14.5479 4.0386 14.5479 4.97738C14.5479 5.91616 13.7869 6.67714 12.8481 6.67714C11.9093 6.67714 11.1484 5.91616 11.1484 4.97738C11.1484 4.0386 11.9093 3.27763 12.8481 3.27763ZM6.4965 4.97745C6.4965 4.03867 7.25748 3.2777 8.19626 3.2777C9.13504 3.2777 9.89602 4.03867 9.89602 4.97745C9.89602 5.91623 9.13504 6.67721 8.19626 6.67721C7.25748 6.67721 6.4965 5.91623 6.4965 4.97745ZM25.3154 24.5974C25.3154 25.3278 24.7234 25.9198 23.993 25.9198H11.0069C10.2766 25.9198 9.68451 25.3278 9.68451 24.5974V16.3158C9.68451 15.5855 10.2766 14.9934 11.0069 14.9934H23.993C24.7234 14.9934 25.3154 15.5855 25.3154 16.3158V24.5974ZM25.3154 11.6542H9.68451C9.05595 11.6542 8.54633 11.1446 8.54633 10.5161C8.54633 9.8875 9.05595 9.37788 9.68451 9.37788H25.3154C25.944 9.37788 26.4536 9.8875 26.4536 10.5161C26.4536 11.1446 25.9441 11.6542 25.3154 11.6542ZM26.8038 6.67721C25.865 6.67721 25.1041 5.91623 25.1041 4.97745C25.1041 4.03867 25.865 3.2777 26.8038 3.2777C27.7426 3.2777 28.5036 4.03867 28.5036 4.97745C28.5035 5.91623 27.7425 6.67721 26.8038 6.67721Z" fill="#FFC90D"/>
</svg>
