<?xml version="1.0" encoding="utf-8"?>
<!-- Generator: Adobe Illustrator 22.1.0, SVG Export Plug-In . SVG Version: 6.00 Build 0)  -->
<svg version="1.1" id="Capa_1" xmlns="http://www.w3.org/2000/svg" xmlns:xlink="http://www.w3.org/1999/xlink" x="0px" y="0px"
	 viewBox="0 0 512 512" style="enable-background:new 0 0 512 512;" xml:space="preserve">
<style type="text/css">
	.st0{fill:#FFFFFF;}
</style>
<g transform="translate(1)">
	<g>
		<g>
			<path class="st0" d="M510.8,421.4c-0.9-8.4-5.1-16-11.9-21.2l-98.7-76.3c-16.8-12.9-39.4-14.5-57.7-3.9l-18.1,10.5
				c-11.1,6.4-24.7,5.5-34.9-2.3C274.9,317,253,299.1,232,278.1c-20.8-20.8-38.3-42.3-49.4-56.6c-7.7-10.1-8.6-23.7-2.2-34.8
				l10.5-18.2c10.6-18.3,9.1-41-3.9-57.7l-76.3-98.7c-5.2-6.7-12.7-11-21.2-11.9c-8.5-1-16.7,1.5-23.2,6.9
				C49.6,21,28.1,39,20.6,46.5C5.5,61.7-1,81.5-1,112.9c0,36.6,67.3,172.9,148.2,250.5C225.1,444.8,361.4,512,398.1,512
				c31.4,0,51.2-6.5,66.4-21.6c8.1-8.1,28.2-32.2,39.4-45.8C509.3,438.1,511.7,429.8,510.8,421.4z M488.1,431.6
				c-18.7,22.7-32.6,38.9-38.1,44.3c-8.1,8.1-20,15.6-51.9,15.6c-28.1,0-160.2-63.1-236.4-142.5c-79.2-75.9-142.2-207.9-142.2-236
				C19.5,81,27,69.1,35.1,61c5.4-5.4,21.1-18.9,44.3-38.1c1.9-1.6,4.3-2.4,6.7-2.4c0.4,0,0.8,0,1.2,0.1c2.9,0.3,5.4,1.8,7.2,4.1
				l76.3,98.6c7.8,10.1,8.7,23.9,2.3,35l-10.5,18.2c-10.5,18.3-9.1,40.9,3.7,57.5c11.4,14.8,29.5,37.1,51.1,58.7
				c21.7,21.7,44.4,40.2,59.5,51.9c16.6,12.9,39.3,14.4,57.6,3.8c0,0,0,0,0,0l18.1-10.5c11.1-6.4,24.8-5.4,35,2.4l98.6,76.2
				c2.3,1.8,3.7,4.4,4.1,7.3C490.8,426.5,489.9,429.3,488.1,431.6z"/>
			<path class="st0" d="M354.3,40.3c54.2,19.8,96.6,62.2,116.3,116.4c1.5,4.2,5.4,6.7,9.6,6.7c1.2,0,2.3-0.2,3.5-0.6
				c5.3-1.9,8.1-7.8,6.1-13.1C468.1,89.8,421.2,42.9,361.3,21.1c-5.2-1.9-11.2,0.8-13.1,6.1C346.2,32.5,349,38.4,354.3,40.3z"/>
			<path class="st0" d="M326.3,117.4c31,11.2,56.2,36.4,67.4,67.4c1.5,4.2,5.4,6.8,9.6,6.8c1.2,0,2.3-0.2,3.5-0.6
				c5.3-1.9,8.1-7.8,6.2-13.1c-13.3-36.6-43-66.4-79.7-79.7c-5.3-1.9-11.2,0.8-13.1,6.1C318.2,109.6,321,115.4,326.3,117.4z"/>
			<path class="st0" d="M298.3,194.4c8.6,3.1,15.3,9.8,18.4,18.4c1.5,4.2,5.4,6.8,9.6,6.8c1.1,0,2.3-0.2,3.4-0.6
				c5.3-1.9,8.1-7.8,6.2-13.1c-5.1-14.4-16.4-25.6-30.8-30.8c-5.3-1.9-11.2,0.9-13.1,6.2C290.2,186.6,292.9,192.5,298.3,194.4z"/>
		</g>
	</g>
</g>
</svg>
