<svg width="20" height="20" viewBox="0 0 20 20" fill="none" xmlns="http://www.w3.org/2000/svg">
<g clip-path="url(#clip0_1164_3750)">
<path d="M16.875 6.91406H13.5938V8.47656H16.875V6.91406Z" fill="#DDDFE0"/>
<path d="M17.6562 3.78906H12.8516C12.7605 3.78906 12.6786 3.73941 12.6364 3.65914L11.8412 1.98832C11.8391 1.98371 11.8369 1.97918 11.8346 1.97465C11.5268 1.35902 10.908 0.976562 10.2197 0.976562H5.97469C5.28637 0.976562 4.66758 1.35902 4.35973 1.97461C4.3575 1.97918 4.35527 1.98371 4.35309 1.98828L3.55789 3.65914C3.51574 3.73941 3.43379 3.78906 3.34277 3.78906H2.34375C1.05141 3.78906 0 4.84047 0 6.13281V16.6797C0 17.972 1.05141 19.0234 2.34375 19.0234H17.6562C18.9486 19.0234 20 17.972 20 16.6797V6.13281C20 4.84047 18.9486 3.78906 17.6562 3.78906ZM18.4375 16.6797C18.4375 17.1105 18.087 17.4609 17.6562 17.4609H2.34375C1.91297 17.4609 1.5625 17.1105 1.5625 16.6797V6.13281C1.5625 5.70203 1.91297 5.35156 2.34375 5.35156H3.34277C4.03109 5.35156 4.64988 4.9691 4.95773 4.35352C4.95996 4.34895 4.96219 4.34441 4.96438 4.33984L5.75957 2.66898C5.80172 2.58871 5.88367 2.53906 5.97469 2.53906H10.2196C10.3107 2.53906 10.3926 2.58871 10.4348 2.66898L11.23 4.3398C11.2321 4.34441 11.2344 4.34895 11.2366 4.35348C11.5445 4.9691 12.1632 5.35156 12.8516 5.35156H17.6562C18.087 5.35156 18.4375 5.70203 18.4375 6.13281V16.6797Z" fill="#DDDFE0"/>
<path d="M8.00781 6.13281C5.31543 6.13281 3.125 8.32324 3.125 11.0156C3.125 13.708 5.31543 15.8984 8.00781 15.8984C10.7002 15.8984 12.8906 13.708 12.8906 11.0156C12.8906 8.32324 10.7002 6.13281 8.00781 6.13281ZM8.00781 14.3359C6.17699 14.3359 4.6875 12.8464 4.6875 11.0156C4.6875 9.1848 6.17699 7.69531 8.00781 7.69531C9.83863 7.69531 11.3281 9.1848 11.3281 11.0156C11.3281 12.8464 9.83863 14.3359 8.00781 14.3359Z" fill="#DDDFE0"/>
</g>
<defs>
<clipPath id="clip0_1164_3750">
<rect width="20" height="20" fill="white"/>
</clipPath>
</defs>
</svg>
