<svg width="22" height="22" viewBox="0 0 22 22" fill="none" xmlns="http://www.w3.org/2000/svg">
<g clip-path="url(#clip0)">
<path d="M10.4662 21.762C10.1627 21.4239 3.03247 13.4198 3.03247 7.96752C3.03251 3.57423 6.60674 0 11.0001 0C15.3934 0 18.9676 3.57423 18.9676 7.96752C18.9676 13.4197 11.8374 21.4239 11.5338 21.762C11.2487 22.0797 10.7508 22.079 10.4662 21.762Z" fill="#C3162E"/>
<path d="M18.9675 7.96752C18.9675 3.57423 15.3933 0 11.0001 0V22C11.1957 22 11.3913 21.9208 11.5339 21.762C11.8374 21.424 18.9675 13.4198 18.9675 7.96752Z" fill="#AC2B24"/>
<path d="M11 11.9762C8.78959 11.9762 6.99139 10.1779 6.99139 7.96752C6.99139 5.75712 8.78968 3.95883 11 3.95883C13.2103 3.95883 15.0086 5.75712 15.0086 7.96752C15.0086 10.1779 13.2103 11.9762 11 11.9762Z" fill="#EFEFEF"/>
<path d="M11.0001 3.95889V11.9762C13.2105 11.9762 15.0087 10.1779 15.0087 7.96753C15.0087 5.75713 13.2104 3.95889 11.0001 3.95889Z" fill="#C5D8DF"/>
</g>
<defs>
<clipPath id="clip0">
<rect width="22" height="22" fill="white"/>
</clipPath>
</defs>
</svg>
