<svg width="54" height="54" viewBox="0 0 54 54" fill="none" xmlns="http://www.w3.org/2000/svg">
<path d="M34.4485 14.0339C35.9024 14.0339 37.0852 12.8511 37.0852 11.3972C37.0852 9.94331 35.9024 8.76038 34.4485 8.76038C32.9946 8.76038 31.8118 9.94331 31.8118 11.3972C31.8118 11.991 32.0092 12.5394 32.3418 12.9807L28.0096 19.0347C27.7446 18.9476 27.4675 18.9032 27.1886 18.9032C26.4958 18.9032 25.8648 19.1723 25.3938 19.6108L22.5062 17.9722C22.5455 17.79 22.5653 17.6042 22.5654 17.4178C22.5654 15.9639 21.3825 14.7811 19.9286 14.7811C18.4748 14.7811 17.2919 15.9639 17.2919 17.4178C17.2919 17.6079 17.3126 17.7934 17.3511 17.9722L14.4635 19.6108C13.9924 19.1723 13.3615 18.9033 12.6687 18.9033C11.2148 18.9033 10.032 20.0862 10.032 21.5401C10.032 22.994 11.2148 24.177 12.6687 24.177C14.1226 24.177 15.3054 22.994 15.3054 21.5401C15.3054 21.3537 15.2855 21.1679 15.2463 20.9857L18.1339 19.3471C18.6049 19.7857 19.2358 20.0547 19.9286 20.0547C20.6215 20.0547 21.2523 19.7857 21.7234 19.3472L24.611 20.9858C24.5717 21.168 24.5519 21.3538 24.5519 21.5402C24.5519 22.9941 25.7347 24.1771 27.1886 24.1771C28.6426 24.1771 29.8254 22.9941 29.8254 21.5402C29.826 20.9687 29.6398 20.4126 29.2953 19.9565L33.6276 13.9025C33.8925 13.9896 34.1696 14.0339 34.4485 14.0339ZM34.4485 10.3424C35.0301 10.3424 35.5032 10.8155 35.5032 11.3972C35.5032 11.9788 35.0301 12.4519 34.4485 12.4519C33.867 12.4519 33.3938 11.9788 33.3938 11.3972C33.3937 10.8155 33.8669 10.3424 34.4485 10.3424ZM12.6684 22.5947C12.0868 22.5947 11.6137 22.1216 11.6137 21.5399C11.6137 20.9583 12.0868 20.4851 12.6684 20.4851C13.2499 20.4851 13.7231 20.9583 13.7231 21.5399C13.7231 22.1216 13.2499 22.5947 12.6684 22.5947ZM19.9284 18.4725C19.3469 18.4725 18.8737 17.9993 18.8737 17.4177C18.8737 16.8361 19.3469 16.363 19.9284 16.363C20.51 16.363 20.9831 16.8361 20.9831 17.4177C20.9832 17.9993 20.51 18.4725 19.9284 18.4725ZM27.1885 22.5947C26.6069 22.5947 26.1338 22.1216 26.1338 21.5399C26.1338 20.9583 26.6069 20.4851 27.1885 20.4851C27.7701 20.4851 28.2433 20.9583 28.2433 21.5399C28.2433 22.1216 27.77 22.5947 27.1885 22.5947Z" fill="#1862E5"/>
<path d="M44.1699 39.758H2.23752C2.06373 39.7578 1.89712 39.6887 1.77424 39.5658C1.65135 39.4429 1.58223 39.2763 1.58203 39.1025V6.46849C1.58223 6.2947 1.65135 6.12809 1.77424 6.00521C1.89712 5.88232 2.06373 5.8132 2.23752 5.813H5.96647C6.40332 5.813 6.75749 5.45894 6.75749 5.02199C6.75749 4.58503 6.40332 4.23097 5.96647 4.23097H2.23752C1.00375 4.23097 0 5.23472 0 6.46849V39.1025C0 40.3363 1.00375 41.34 2.23752 41.34H7.69163V43.0809C7.69163 44.0726 8.49846 44.8795 9.49018 44.8795H17.4081L13.6809 52.1566C13.5875 52.3431 13.5716 52.5588 13.6365 52.757C13.7015 52.9552 13.842 53.1197 14.0276 53.2147C14.2132 53.3098 14.4288 53.3277 14.6276 53.2646C14.8263 53.2015 14.9921 53.0625 15.0889 52.8778L19.1856 44.8795H27.9313L32.028 52.8778C32.0753 52.9703 32.1404 53.0525 32.2195 53.1198C32.2987 53.1871 32.3903 53.2382 32.4891 53.2701C32.588 53.302 32.6922 53.3141 32.7957 53.3058C32.8993 53.2974 33.0002 53.2687 33.0926 53.2213C33.1851 53.174 33.2673 53.1088 33.3346 53.0297C33.4019 52.9506 33.453 52.859 33.4848 52.7601C33.5167 52.6612 33.5288 52.557 33.5205 52.4535C33.5121 52.3499 33.4834 52.2491 33.436 52.1566L29.7088 44.8795H37.6267C38.6184 44.8795 39.4253 44.0727 39.4253 43.0809V41.34H44.1699C44.6067 41.34 44.9609 40.986 44.9609 40.549C44.9609 40.1121 44.6067 39.758 44.1699 39.758ZM37.8432 43.0809C37.8432 43.1383 37.8204 43.1934 37.7798 43.234C37.7392 43.2746 37.6841 43.2974 37.6267 43.2974H9.49018C9.43278 43.2974 9.37773 43.2746 9.33714 43.234C9.29654 43.1934 9.27371 43.1383 9.27366 43.0809V41.34H37.8432V43.0809ZM9.13054 5.813H44.8793C45.0531 5.8132 45.2197 5.88232 45.3426 6.00521C45.4654 6.12809 45.5346 6.2947 45.5348 6.46849V13.9896C45.5348 14.4265 45.8889 14.7806 46.3258 14.7806C46.7626 14.7806 47.1168 14.4265 47.1168 13.9896V6.46849C47.1168 5.23472 46.1131 4.23097 44.8793 4.23097H27.9487V2.67615C27.9487 1.58191 27.0584 0.69165 25.9641 0.69165H21.1528C20.0586 0.69165 19.1682 1.58191 19.1682 2.67615V4.23097H9.13054C8.69368 4.23097 8.33952 4.58503 8.33952 5.02199C8.33952 5.45894 8.69368 5.813 9.13054 5.813ZM20.7502 2.67615C20.7504 2.56943 20.7928 2.4671 20.8683 2.39165C20.9438 2.31619 21.0461 2.27377 21.1528 2.27368H25.9641C26.0708 2.27379 26.1731 2.31623 26.2486 2.39168C26.3241 2.46713 26.3665 2.56943 26.3667 2.67615V4.23097H20.7503V2.67615H20.7502Z" fill="#1862E5"/>
<path d="M11.0639 28.2209C10.8541 28.2209 10.6529 28.3043 10.5045 28.4526C10.3562 28.601 10.2729 28.8022 10.2729 29.012V36.0016C10.2729 36.2114 10.3562 36.4126 10.5045 36.5609C10.6529 36.7093 10.8541 36.7926 11.0639 36.7926H14.273C14.4828 36.7926 14.684 36.7093 14.8323 36.5609C14.9806 36.4126 15.064 36.2114 15.064 36.0016V29.012C15.064 28.8022 14.9806 28.601 14.8323 28.4526C14.684 28.3043 14.4828 28.2209 14.273 28.2209H11.0639ZM13.482 35.2107H11.8549V29.8031H13.482V35.2107ZM18.3238 24.1785C18.114 24.1785 17.9128 24.2619 17.7645 24.4102C17.6161 24.5586 17.5328 24.7598 17.5328 24.9695V36.0017C17.5328 36.2115 17.6161 36.4127 17.7645 36.561C17.9128 36.7094 18.114 36.7927 18.3238 36.7927H21.5329C21.7427 36.7927 21.9439 36.7094 22.0922 36.561C22.2406 36.4127 22.3239 36.2115 22.3239 36.0017V24.9695C22.3239 24.7598 22.2406 24.5586 22.0922 24.4102C21.9439 24.2619 21.7427 24.1785 21.5329 24.1785H18.3238ZM20.742 35.2107H19.1149V25.7606H20.742V35.2107ZM25.5839 28.2209C25.3741 28.2209 25.1729 28.3043 25.0245 28.4526C24.8762 28.601 24.7928 28.8022 24.7928 29.012V36.0016C24.7928 36.2114 24.8762 36.4126 25.0245 36.5609C25.1729 36.7093 25.3741 36.7926 25.5839 36.7926H28.793C29.0027 36.7926 29.2039 36.7093 29.3523 36.5609C29.5006 36.4126 29.584 36.2114 29.584 36.0016V29.012C29.584 28.8022 29.5006 28.601 29.3523 28.4526C29.2039 28.3043 29.0027 28.2209 28.793 28.2209H25.5839ZM28.0019 35.2107H26.3749V29.8031H28.0019V35.2107ZM32.8439 32.8886C32.6341 32.8886 32.4329 32.9719 32.2846 33.1202C32.1362 33.2686 32.0529 33.4698 32.0529 33.6796V36.0017C32.0529 36.2115 32.1362 36.4127 32.2846 36.561C32.4329 36.7094 32.6341 36.7927 32.8439 36.7927H36.053C36.4899 36.7927 36.844 36.4386 36.844 36.0017C36.844 35.5647 36.4899 35.2107 36.053 35.2107H33.6349V33.6796C33.6349 33.4698 33.5516 33.2686 33.4032 33.1202C33.2549 32.9719 33.0537 32.8886 32.8439 32.8886ZM53.5966 40.502L49.0586 32.6419C50.2083 31.4164 51.0455 29.9191 51.4927 28.2502C52.2074 25.5827 51.8406 22.7966 50.4598 20.405C47.6094 15.4677 41.2738 13.7703 36.3368 16.6206C31.3997 19.4709 29.7022 25.8065 32.5526 30.7436C33.9334 33.1353 36.1629 34.846 38.8303 35.5608C39.7084 35.797 40.6137 35.9169 41.5229 35.9175C42.3078 35.9175 43.0882 35.8272 43.8514 35.6486L48.3884 43.509C48.9446 44.4726 49.9573 45.0119 50.9974 45.0118C51.5071 45.0118 52.0235 44.8822 52.4959 44.6096C53.4236 44.0742 54 43.0757 54 42.0039C54 41.4788 53.8606 40.9596 53.5966 40.502ZM39.2397 34.0327C36.9805 33.4273 35.0921 31.9783 33.9225 29.9526C31.5084 25.771 32.9462 20.405 37.1277 17.9907C38.5034 17.1965 40.0066 16.8193 41.4914 16.8193C44.5199 16.8193 47.4697 18.3901 49.0897 21.196C50.2591 23.2216 50.5698 25.5814 49.9644 27.8407C49.359 30.1001 47.91 31.9883 45.8844 33.1578C43.8589 34.3274 41.4991 34.6379 39.2397 34.0327ZM51.7052 43.2394C51.0246 43.6323 50.1513 43.3984 49.7587 42.7181L45.3935 35.1556C45.8346 34.9757 46.263 34.766 46.6756 34.528C47.0881 34.2892 47.4838 34.0226 47.86 33.73L52.2264 41.2928C52.3514 41.5091 52.4175 41.7543 52.418 42.004C52.4176 42.2543 52.3516 42.5001 52.2266 42.7169C52.1015 42.9337 51.9217 43.1138 51.7052 43.2394Z" fill="#1862E5"/>
<path d="M48.6783 27.8027C49.2367 26.0039 49.1037 24.078 48.3037 22.38C48.2602 22.2849 48.1982 22.1994 48.1214 22.1285C48.0445 22.0575 47.9544 22.0025 47.8562 21.9666C47.758 21.9307 47.6536 21.9147 47.5491 21.9194C47.4447 21.924 47.3422 21.9494 47.2476 21.994C47.153 22.0385 47.0681 22.1014 46.998 22.179C46.9279 22.2565 46.8738 22.3472 46.8389 22.4458C46.804 22.5444 46.7891 22.6489 46.7949 22.7534C46.8007 22.8578 46.8271 22.96 46.8726 23.0541C47.5037 24.3936 47.6084 25.9133 47.1674 27.3335C46.724 28.7616 45.7662 29.96 44.4703 30.7082C43.099 31.5001 41.5012 31.7102 39.9718 31.3004C38.4423 30.8906 37.1638 29.9096 36.3722 28.5383C34.7377 25.7074 35.7112 22.0746 38.5421 20.4402C39.5517 19.8556 40.7114 19.5824 41.8758 19.6548C43.0401 19.7271 44.1571 20.1419 45.0865 20.847C45.1693 20.9097 45.2637 20.9555 45.3642 20.9817C45.4647 21.0079 45.5694 21.0141 45.6723 20.9998C45.7752 20.9856 45.8743 20.9512 45.9639 20.8986C46.0535 20.8461 46.1319 20.7764 46.1946 20.6935C46.3211 20.5262 46.3761 20.3155 46.3473 20.1077C46.3185 19.8999 46.2083 19.712 46.041 19.5855C44.8637 18.6923 43.4488 18.1668 41.9739 18.0751C40.4989 17.9834 39.0298 18.3296 37.751 19.07C36.0137 20.0731 34.7709 21.6926 34.2517 23.6303C33.7325 25.568 33.999 27.5919 35.002 29.3292C36.005 31.0666 37.6246 32.3092 39.5623 32.8285C40.2002 33.0001 40.8578 33.0872 41.5183 33.0877C42.8196 33.0877 44.1041 32.7464 45.2612 32.0782C46.903 31.1305 48.1165 29.6122 48.6783 27.8027Z" fill="#1862E5"/>
</svg>
