<svg width="8" height="10" viewBox="0 0 8 10" fill="none" xmlns="http://www.w3.org/2000/svg">
<path d="M0.564 8.332C0.436 8.332 0.328 8.296 0.24 8.224C0.16 8.152 0.12 8.06 0.12 7.948C0.12 7.836 0.16 7.744 0.24 7.672C0.328 7.6 0.436 7.564 0.564 7.564H4.248C4.376 7.564 4.48 7.6 4.56 7.672C4.648 7.744 4.692 7.836 4.692 7.948C4.692 8.06 4.648 8.152 4.56 8.224C4.48 8.296 4.376 8.332 4.248 8.332H0.564ZM0.564 6.688C0.436 6.688 0.328 6.648 0.24 6.568C0.16 6.48 0.12 6.372 0.12 6.244C0.12 6.108 0.16 6 0.24 5.92C0.328 5.832 0.436 5.788 0.564 5.788H2.808V6.688H0.564ZM1.764 10C1.628 10 1.516 9.956 1.428 9.868C1.34 9.78 1.296 9.668 1.296 9.532V1.096C1.296 0.959999 1.34 0.847999 1.428 0.76C1.516 0.672 1.628 0.628 1.764 0.628H4.164C4.756 0.628 5.28 0.76 5.736 1.024C6.192 1.28 6.548 1.636 6.804 2.092C7.068 2.548 7.2 3.076 7.2 3.676C7.2 4.26 7.068 4.78 6.804 5.236C6.548 5.684 6.192 6.04 5.736 6.304C5.28 6.56 4.756 6.688 4.164 6.688H2.232V9.532C2.232 9.668 2.188 9.78 2.1 9.868C2.012 9.956 1.9 10 1.764 10ZM2.232 5.788H4.164C4.58 5.788 4.944 5.7 5.256 5.524C5.576 5.34 5.824 5.088 6 4.768C6.184 4.448 6.276 4.084 6.276 3.676C6.276 3.252 6.184 2.88 6 2.56C5.824 2.24 5.576 1.988 5.256 1.804C4.944 1.62 4.58 1.528 4.164 1.528H2.232V5.788Z" fill="#1F313D"/>
</svg>
