<svg width="16" height="18" viewBox="0 0 16 18" fill="none" xmlns="http://www.w3.org/2000/svg">
<path d="M15.4404 17.2481L14.3451 5.05022C14.3152 4.7171 14.036 4.46195 13.7016 4.46195H11.4429V3.44322C11.4429 1.54463 9.89831 0 7.9998 0C6.10139 0 4.55702 1.54463 4.55702 3.44322V4.46195H2.29671C1.9623 4.46195 1.68312 4.7171 1.65322 5.05022L0.553609 17.2961C0.537414 17.4769 0.597886 17.6559 0.720295 17.7898C0.842704 17.9237 1.01577 17.9999 1.1971 17.9999H14.8013C14.8018 17.9999 14.8025 17.9999 14.803 17.9999C15.1599 17.9999 15.4491 17.7106 15.4491 17.3538C15.449 17.3179 15.4461 17.2825 15.4404 17.2481ZM5.84916 3.44322C5.84916 2.25712 6.81396 1.29214 7.99989 1.29214C9.18591 1.29214 10.1508 2.25712 10.1508 3.44322V4.46195H5.84916V3.44322ZM1.90381 16.7079L2.88739 5.75409H4.55702V6.90944C4.55702 7.26624 4.8462 7.55551 5.20309 7.55551C5.55998 7.55551 5.84916 7.26624 5.84916 6.90944V5.75409H10.1508V6.90944C10.1508 7.26624 10.44 7.55551 10.7969 7.55551C11.1538 7.55551 11.4429 7.26624 11.4429 6.90944V5.75409H13.111L14.0946 16.7079H1.90381Z" fill="white"/>
</svg>
