<svg width="81" height="81" viewBox="0 0 81 81" fill="none" xmlns="http://www.w3.org/2000/svg">
<path d="M40.4992 0C18.1669 0 0 18.1683 0 40.5C0 62.8317 18.1669 81 40.4992 81C62.8315 81 81 62.8317 81 40.5C81 18.1683 62.8315 0 40.4992 0ZM40.4992 75.6884C21.0965 75.6884 5.31157 59.9027 5.31157 40.5C5.31157 21.0971 21.0962 5.31178 40.4992 5.31178C59.9021 5.31178 75.6878 21.0973 75.6878 40.5C75.688 59.9027 59.9019 75.6884 40.4992 75.6884Z" fill="#00DD80"/>
<path d="M55.162 27.2415L34.278 48.1245L25.836 39.6843C24.7986 38.6481 23.118 38.6475 22.0806 39.6849C21.0428 40.7227 21.0428 42.4035 22.0806 43.4409L32.4006 53.7593C32.9192 54.2773 33.5986 54.5365 34.278 54.5365C34.9574 54.5365 35.6386 54.2773 36.157 53.7585C36.1586 53.7562 36.1598 53.754 36.1625 53.7514L58.9172 30.9969C59.955 29.9601 59.955 28.2781 58.9172 27.2413C57.88 26.2039 56.1982 26.2039 55.162 27.2415Z" fill="#00DD80"/>
</svg>
