<svg width="20" height="20" viewBox="0 0 20 20" fill="none" xmlns="http://www.w3.org/2000/svg">
<path d="M10.7812 8.70801H9.21875V16.8721H10.7812V8.70801Z" fill="#DDDFE0"/>
<path d="M13.9062 8.70801H12.3438V16.8721H13.9062V8.70801Z" fill="#DDDFE0"/>
<path d="M7.65625 8.70801H6.09375V16.8721H7.65625V8.70801Z" fill="#DDDFE0"/>
<path d="M16.0938 2.84895H13.7109V2.34375C13.7109 1.05141 12.6595 0 11.3672 0H8.63281C7.34047 0 6.28906 1.05141 6.28906 2.34375V2.84895H3.90625C2.61391 2.84895 1.5625 3.90035 1.5625 5.1927V7.14844H3.125V17.6562C3.125 18.9486 4.17641 20 5.46875 20H14.5312C15.8236 20 16.875 18.9486 16.875 17.6562V7.14844H18.4375V5.1927C18.4375 3.90035 17.3861 2.84895 16.0938 2.84895ZM7.85156 2.34375C7.85156 1.91297 8.20203 1.5625 8.63281 1.5625H11.3672C11.798 1.5625 12.1484 1.91297 12.1484 2.34375V2.84895H7.85156V2.34375ZM15.3125 17.6562C15.3125 18.087 14.962 18.4375 14.5312 18.4375H5.46875C5.03797 18.4375 4.6875 18.087 4.6875 17.6562V7.14844H15.3125V17.6562ZM16.875 5.58594H3.125V5.1927C3.125 4.76191 3.47547 4.41145 3.90625 4.41145H16.0938C16.5245 4.41145 16.875 4.76191 16.875 5.1927V5.58594Z" fill="#DDDFE0"/>
</svg>
