<?xml version="1.0" encoding="utf-8"?>
<!-- Generator: Adobe Illustrator 22.1.0, SVG Export Plug-In . SVG Version: 6.00 Build 0)  -->
<svg version="1.1" id="Capa_1" xmlns="http://www.w3.org/2000/svg" xmlns:xlink="http://www.w3.org/1999/xlink" x="0px" y="0px"
	 viewBox="0 0 496 496" style="enable-background:new 0 0 496 496;" xml:space="preserve">
<g>
	<path d="M387.9,245.3c-22.4,0-40.7-18.2-40.7-40.7s18.2-40.7,40.7-40.7s40.7,18.2,40.7,40.7S410.3,245.3,387.9,245.3z M387.9,177.6
		c-14.9,0-27.1,12.2-27.1,27.1c0,14.9,12.2,27.1,27.1,27.1s27.1-12.2,27.1-27.1C414.9,189.7,402.8,177.6,387.9,177.6z"/>
	<path d="M227.5,203.9H79.4c-3.8,0-6.8-3-6.8-6.8s3-6.8,6.8-6.8h148.1c3.8,0,6.8,3,6.8,6.8S231.3,203.9,227.5,203.9z"/>
	<path d="M292.7,235.4H79.4c-3.8,0-6.8-3-6.8-6.8s3-6.8,6.8-6.8h213.2c3.8,0,6.8,3,6.8,6.8C299.5,232.4,296.4,235.4,292.7,235.4z"/>
	<path d="M451.7,378.6h-95.8c-3.8,0-6.8-3-6.8-6.8c0-3.8,3-6.8,6.8-6.8h95.8c4.3,0,7.8-3.5,7.8-7.8V187.2c0-3.8,3-6.8,6.8-6.8
		s6.8,3,6.8,6.8v170.1C473.1,369,463.5,378.6,451.7,378.6z"/>
	<path d="M325.9,378.6H44.3c-11.8,0-21.4-9.6-21.4-21.4V138.8c0-11.8,9.6-21.4,21.4-21.4h407.5c11.8,0,21.4,9.6,21.4,21.4V157
		c0,3.8-3,6.8-6.8,6.8s-6.8-3-6.8-6.8v-18.3c0-4.3-3.5-7.8-7.8-7.8H44.3c-4.3,0-7.8,3.5-7.8,7.8v218.5c0,4.3,3.5,7.8,7.8,7.8h281.6
		c3.8,0,6.8,3,6.8,6.8C332.6,375.6,329.6,378.6,325.9,378.6L325.9,378.6z"/>
	<path d="M387.9,245.3c-22.4,0-40.7-18.2-40.7-40.7s18.2-40.7,40.7-40.7s40.7,18.2,40.7,40.7S410.3,245.3,387.9,245.3z M387.9,177.6
		c-14.9,0-27.1,12.2-27.1,27.1c0,14.9,12.2,27.1,27.1,27.1s27.1-12.2,27.1-27.1C414.9,189.7,402.8,177.6,387.9,177.6z"/>
	<path d="M292.7,235.4H79.4c-3.8,0-6.8-3-6.8-6.8s3-6.8,6.8-6.8h213.2c3.8,0,6.8,3,6.8,6.8C299.5,232.4,296.4,235.4,292.7,235.4z"/>
	<path d="M191.8,301.4H79.4c-3.8,0-6.8-3-6.8-6.8s3-6.8,6.8-6.8h112.3c3.8,0,6.8,3,6.8,6.8S195.5,301.4,191.8,301.4z"/>
</g>
</svg>
