<svg width="175" height="16" viewBox="0 0 175 16" fill="none" xmlns="http://www.w3.org/2000/svg">
<g id="new_logo">
<g id="&#208;&#161;&#208;&#187;&#208;&#190;&#208;&#185;_1">
<g id="Group">
<path id="Vector" d="M26.4625 11.9119H18.1384L16.4206 15.8235H14.1217L21.2078 0.189453H23.4183L30.5297 15.8235H28.1803L26.4625 11.9119ZM25.6793 10.1201L22.3068 2.46075L18.9342 10.1201H25.6793Z" fill="white"/>
<path id="Vector_2" d="M86.8275 9.06011C87.3706 9.70364 87.6485 10.5365 87.6485 11.5459C87.6485 12.8961 87.1559 13.956 86.158 14.7005C85.1601 15.445 83.7202 15.8235 81.8255 15.8235H74.6635V0.189453H81.396C83.1139 0.189453 84.4528 0.530141 85.4127 1.22415C86.3727 1.91815 86.8527 2.915 86.8527 4.20206C86.8527 5.04749 86.638 5.77936 86.2212 6.37242C85.7917 6.96548 85.198 7.41974 84.4149 7.70996C85.4885 7.96232 86.2843 8.41658 86.8275 9.06011ZM76.8866 7.06643H81.2444C82.3307 7.06643 83.1644 6.85192 83.7328 6.4229C84.3012 5.99388 84.5917 5.36296 84.5917 4.53015C84.5917 3.69734 84.3012 3.0538 83.7202 2.62478C83.1391 2.18314 82.3055 1.96863 81.2318 1.96863H76.874V7.06643H76.8866ZM85.3875 11.3819C85.3875 10.486 85.0843 9.82984 84.478 9.40081C83.8717 8.97179 82.9749 8.7699 81.7876 8.7699H76.8866V14.0696H81.7876C84.1875 14.057 85.3875 13.1611 85.3875 11.3819Z" fill="white"/>
<path id="Vector_3" d="M107.189 14.9653C105.926 14.2713 104.928 13.3123 104.208 12.0883C103.488 10.8644 103.122 9.50159 103.122 8.00001C103.122 6.49843 103.488 5.13565 104.208 3.91167C104.928 2.6877 105.926 1.7287 107.189 1.03469C108.452 0.340688 109.88 0 111.458 0C113.025 0 114.439 0.340688 115.703 1.03469C116.966 1.7287 117.964 2.67508 118.671 3.89906C119.391 5.11042 119.745 6.47319 119.745 8.00001C119.745 9.52682 119.391 10.8896 118.671 12.101C117.951 13.3123 116.966 14.2713 115.703 14.9653C114.439 15.6593 113.025 16 111.458 16C109.88 16 108.465 15.6593 107.189 14.9653ZM114.566 13.2366C115.488 12.7193 116.208 12 116.738 11.0789C117.269 10.1577 117.534 9.13565 117.534 8.01262C117.534 6.87698 117.269 5.85489 116.738 4.94637C116.208 4.02523 115.488 3.30599 114.566 2.78864C113.644 2.27129 112.62 2.00631 111.471 2.00631C110.322 2.00631 109.286 2.27129 108.351 2.78864C107.416 3.30599 106.684 4.02523 106.153 4.94637C105.623 5.86751 105.358 6.88959 105.358 8.01262C105.358 9.14827 105.623 10.1703 106.153 11.0789C106.684 12 107.416 12.7193 108.351 13.2366C109.286 13.754 110.322 14.0189 111.471 14.0189C112.608 14.0189 113.644 13.754 114.566 13.2366Z" fill="white"/>
<path id="Vector_4" d="M141.496 14.9653C140.232 14.2713 139.235 13.3123 138.515 12.0883C137.795 10.8644 137.428 9.50159 137.428 8.00001C137.428 6.49843 137.795 5.13565 138.515 3.91167C139.235 2.6877 140.232 1.7287 141.496 1.03469C142.759 0.340688 144.186 0 145.765 0C147.331 0 148.746 0.340688 150.009 1.03469C151.272 1.7287 152.27 2.67508 152.977 3.89906C153.697 5.11042 154.051 6.47319 154.051 8.00001C154.051 9.52682 153.697 10.8896 152.977 12.101C152.257 13.3123 151.272 14.2713 150.009 14.9653C148.746 15.6593 147.331 16 145.765 16C144.186 16 142.771 15.6593 141.496 14.9653ZM148.872 13.2366C149.794 12.7193 150.514 12 151.045 11.0789C151.575 10.1577 151.841 9.13565 151.841 8.01262C151.841 6.87698 151.575 5.85489 151.045 4.94637C150.514 4.02523 149.794 3.30599 148.872 2.78864C147.95 2.27129 146.927 2.00631 145.778 2.00631C144.628 2.00631 143.592 2.27129 142.658 2.78864C141.723 3.30599 140.99 4.02523 140.46 4.94637C139.929 5.86751 139.664 6.88959 139.664 8.01262C139.664 9.14827 139.929 10.1703 140.46 11.0789C140.99 12 141.723 12.7193 142.658 13.2366C143.592 13.754 144.628 14.0189 145.778 14.0189C146.914 14.0189 147.95 13.754 148.872 13.2366Z" fill="white"/>
<path id="Vector_5" d="M52.8493 11.8488V0.189453H50.6514V13.8803H44.1463V0.189453H41.9611V13.8803H35.4434V0.189453H33.2329V15.8235H51.1061L52.8493 11.8488Z" fill="white"/>
<path id="Vector_6" d="M101.909 0.214684V0.189453H89.0125V2.13267H94.3556V15.8235H96.5534V2.13267H101.075L101.909 0.214684Z" fill="white"/>
<g id="Group_2">
<path id="Vector_7" d="M2.21047 7.73519V2.0822H10.9639L11.8102 0.239929V0.189453H0V12.6185L2.21047 7.73519Z" fill="white"/>
<path id="Vector_8" d="M11.3428 7.70971C10.3702 6.93999 8.95552 6.54883 7.09872 6.54883H5.46928L4.68614 8.31539H6.61873C9.24604 8.31539 10.5597 9.26176 10.5597 11.1545C10.5597 12.1135 10.2186 12.8327 9.54919 13.3249C8.87973 13.817 7.90713 14.0567 6.61873 14.0567H2.21042V13.9305L1.9199 14.5993L1.37675 15.8233H6.70715C8.665 15.8233 10.1681 15.4195 11.2165 14.5993C12.2649 13.7791 12.7954 12.6056 12.7954 11.0662C12.7954 9.60245 12.3028 8.49204 11.3428 7.70971Z" fill="white"/>
</g>
<g id="Group_3">
<path id="Vector_9" d="M64.7226 0.189453H62.6385L55.5523 15.8235H57.8512L64.7226 0.189453Z" fill="white"/>
<path id="Vector_10" d="M69.3836 10.1196H62.6638L62.6512 10.1575L61.8807 11.9114H67.8932L69.6236 15.8231H71.9731L69.3836 10.1196Z" fill="white"/>
</g>
<g id="Group_4">
<path id="Vector_11" d="M174.375 0.164062H173.794L171.015 6.44798L172.228 4.41644L172.253 15.8108H174.4L174.375 0.164062Z" fill="white"/>
<path id="Vector_12" d="M165.95 10.9023L159.571 0.164062H157.727V15.8108H159.874V4.47953L164.99 13.0095L165.95 10.9023Z" fill="white"/>
</g>
<g id="Group_5">
<path id="Vector_13" d="M133.803 0.189453L128.157 8.00019L133.904 15.8109L133.917 15.8235H136.468L130.607 7.76043L136.203 0.189453H133.803Z" fill="white"/>
<path id="Vector_14" d="M125.58 6.97809V0.189453H123.382V15.8235H125.58V8.94656V6.97809Z" fill="white"/>
</g>
</g>
</g>
</g>
</svg>
