<svg width="250" height="30" viewBox="0 0 250 30" fill="none" xmlns="http://www.w3.org/2000/svg">
<path d="M224.705 18.4539V0.000488281H210.726V30.0003H249.999V18.4539H224.705Z" fill="white"/>
<path d="M30.2426 8.86313H13.9793V0.000488281H0V30.0003H13.9793V20.4095H30.2426V30.0003H44.2219V0.000488281H30.2426V8.86313Z" fill="white"/>
<path d="M87.3227 0.000488281H86.4979H70.3403L78.4191 13.773L87.936 30.0003H104.94L87.3439 0.000488281H87.3227Z" fill="white"/>
<path d="M52.5962 29.9997H68.9018L77.5728 15.2286L69.4305 1.3313L52.5962 29.9997Z" fill="white"/>
<path d="M184.734 0.000976562H183.909H167.73L175.83 13.7734L185.347 30.0008H202.33H202.351L184.734 0.000976562Z" fill="white"/>
<path d="M150.008 29.9999H166.292L174.963 15.2288L166.821 1.33154L150.008 29.9999Z" fill="white"/>
<path d="M153.645 0H136.662L127.124 16.2274L119.045 29.9998H135.203H136.028H136.049L153.666 0H153.645Z" fill="white"/>
<path d="M117.608 0.000488281H101.302L118.137 28.6688L126.279 14.7924L117.608 0.000488281Z" fill="white"/>
</svg>
