<svg width="30" height="31" viewBox="0 0 30 31" fill="none" xmlns="http://www.w3.org/2000/svg">
<g clip-path="url(#clip0_31_154)">
<path d="M14.9908 6.47803C11.5292 6.47803 8.71826 9.29513 8.71826 12.7505C8.71826 16.2059 11.5292 19.0292 14.9908 19.0292C18.4523 19.0292 21.2633 16.2121 21.2633 12.7567C21.2633 9.30127 18.4523 6.47803 14.9908 6.47803ZM14.9908 17.5255C12.3578 17.5255 10.2219 15.3835 10.2219 12.7567C10.2219 10.1298 12.3639 7.98785 14.9908 7.98785C17.6176 7.98785 19.7596 10.1298 19.7596 12.7567C19.7596 15.3835 17.6237 17.5255 14.9908 17.5255Z" fill="#000001"/>
<path d="M14.9909 0.5C14.8497 0.5 14.7024 0.5 14.5612 0.506137C8.50968 0.714812 3.50763 5.41612 2.93071 11.437C2.82024 12.6031 2.87547 13.7754 3.09029 14.8924C3.09029 14.8924 3.1087 15.0336 3.17621 15.2975C3.36033 16.126 3.63652 16.93 3.98636 17.6788C5.23227 20.6309 7.96344 25.1788 13.8922 30.1011C14.2053 30.3588 14.5981 30.5 15.0031 30.5C15.4082 30.5 15.801 30.3588 16.114 30.1011C22.0367 25.1849 24.7679 20.6309 26.0076 17.7034C26.3636 16.9362 26.6398 16.126 26.8239 15.3036C26.8607 15.1563 26.8853 15.0336 26.9037 14.9169C27.051 14.162 27.1247 13.3887 27.1247 12.6154C27.1124 5.93781 21.6746 0.5 14.9909 0.5ZM25.4123 14.6592C25.4123 14.6714 25.3939 14.7758 25.3509 14.966C25.1852 15.6903 24.9458 16.3961 24.6267 17.0957C23.4422 19.8944 20.8399 24.2214 15.1504 28.9411C15.0952 28.984 15.04 28.9963 14.997 28.9963C14.9602 28.9963 14.8988 28.984 14.8436 28.9411C9.15411 24.2152 6.54569 19.8883 5.35502 17.0712C5.042 16.3961 4.80264 15.6903 4.63693 14.9599C4.60011 14.8003 4.58169 14.7021 4.57556 14.6714C4.57556 14.6592 4.56942 14.6469 4.56942 14.6346C4.37916 13.6342 4.33006 12.6031 4.42826 11.5843C4.93767 6.31219 9.31369 2.19394 14.6165 2.00982C20.6373 1.80115 25.6087 6.63748 25.6087 12.6215C25.6087 13.2966 25.5412 13.9718 25.4123 14.6592Z" fill="#000001"/>
</g>
<defs>
<clipPath id="clip0_31_154">
<rect width="30" height="30" fill="white" transform="translate(0 0.5)"/>
</clipPath>
</defs>
</svg>
