<svg width="30" height="31" viewBox="0 0 30 31" fill="none" xmlns="http://www.w3.org/2000/svg">
<g clip-path="url(#clip0_31_162)">
<path d="M6.11305 20.442C9.07202 23.9791 12.634 26.764 16.6995 28.7346C18.2473 29.4681 20.3174 30.3384 22.6236 30.4876C22.7666 30.4938 22.9033 30.5 23.0463 30.5C24.5942 30.5 25.8375 29.9654 26.8507 28.8651C26.8569 28.8589 26.8694 28.8465 26.8756 28.834C27.2361 28.3989 27.6464 28.0073 28.0753 27.5908C28.3675 27.311 28.6659 27.0189 28.9518 26.7205C30.2759 25.3404 30.2759 23.5874 28.9394 22.2509L25.2034 18.5149C24.5693 17.856 23.8109 17.5079 23.0152 17.5079C22.2196 17.5079 21.4549 17.856 20.8022 18.5087L18.5768 20.7341C18.3716 20.616 18.1603 20.5104 17.9614 20.4109C17.7127 20.2866 17.4827 20.1685 17.2776 20.0379C15.251 18.7511 13.411 17.0727 11.6518 14.9157C10.7629 13.7905 10.1661 12.8456 9.7496 11.8821C10.3339 11.3537 10.881 10.8005 11.4094 10.2596C11.5958 10.0669 11.7886 9.87422 11.9813 9.68152C12.6526 9.01015 13.0132 8.23311 13.0132 7.44364C13.0132 6.65416 12.6588 5.87712 11.9813 5.20576L10.1288 3.35329C9.91122 3.13572 9.70609 2.92437 9.49473 2.7068C9.08445 2.28409 8.65553 1.84894 8.23281 1.45731C7.59253 0.829465 6.84036 0.5 6.04467 0.5C5.25519 0.5 4.4968 0.829465 3.83165 1.46353L1.50675 3.78844C0.661327 4.63386 0.18267 5.65955 0.0832087 6.84687C-0.0349016 8.33257 0.238617 9.91152 0.947278 11.8199C2.03514 14.7727 3.67625 17.5141 6.11305 20.442ZM1.59999 6.97741C1.67459 6.15064 1.99162 5.46063 2.58839 4.86386L4.90086 2.55139C5.26141 2.20327 5.65926 2.023 6.04467 2.023C6.42386 2.023 6.80928 2.20327 7.16361 2.56382C7.5801 2.94923 7.97173 3.35329 8.39444 3.78222C8.60579 3.99979 8.82337 4.21736 9.04094 4.44115L10.8934 6.29362C11.2788 6.67903 11.4777 7.07066 11.4777 7.45607C11.4777 7.84148 11.2788 8.23311 10.8934 8.61853C10.7007 8.81123 10.508 9.01015 10.3153 9.20286C9.73717 9.78719 9.19635 10.3404 8.59958 10.8688L8.5685 10.8999C8.05254 11.4159 8.13335 11.907 8.25768 12.2799C8.2639 12.2986 8.27011 12.311 8.27633 12.3297C8.75499 13.4797 9.42013 14.5738 10.4583 15.8792C12.3232 18.1792 14.2875 19.9633 16.4508 21.3371C16.7181 21.5112 17.0041 21.6479 17.2714 21.7847C17.52 21.909 17.75 22.0271 17.9552 22.1577C17.98 22.1701 17.9987 22.1826 18.0235 22.195C18.2287 22.3007 18.4276 22.3504 18.6265 22.3504C19.1238 22.3504 19.4471 22.0334 19.5527 21.9277L21.8777 19.6028C22.2382 19.2422 22.6298 19.0495 23.0152 19.0495C23.4877 19.0495 23.8731 19.3417 24.1155 19.6028L27.864 23.345C28.6099 24.091 28.6037 24.8991 27.8453 25.6886C27.5842 25.9683 27.3107 26.2356 27.0186 26.5153C26.5834 26.938 26.1296 27.3732 25.7193 27.8643C25.0045 28.6351 24.1528 28.9956 23.0525 28.9956C22.9469 28.9956 22.835 28.9894 22.7293 28.9832C20.6903 28.8527 18.7944 28.057 17.3708 27.3794C13.5043 25.5083 10.1101 22.8539 7.29415 19.4847C4.97546 16.6935 3.41516 14.0951 2.38325 11.3102C1.74297 9.6007 1.50053 8.2269 1.59999 6.97741Z" fill="#000001"/>
</g>
<defs>
<clipPath id="clip0_31_162">
<rect width="30" height="30" fill="white" transform="translate(0 0.5)"/>
</clipPath>
</defs>
</svg>
