<svg width="25" height="25" viewBox="0 0 25 25" fill="none" xmlns="http://www.w3.org/2000/svg">
<path fill-rule="evenodd" clip-rule="evenodd" d="M16.7874 5.73059H8.21279C6.84431 5.73059 5.73071 6.84412 5.73071 8.21267V16.7873C5.73071 18.156 6.84431 19.2696 8.21279 19.2696H16.7874C18.1561 19.2696 19.2697 18.156 19.2697 16.7873V8.21267C19.2697 6.84419 18.1561 5.73059 16.7874 5.73059ZM12.4999 16.957C10.0426 16.957 8.04308 14.9574 8.04308 12.4998C8.04308 10.0425 10.0426 8.04295 12.4999 8.04295C14.9576 8.04295 16.9571 10.0425 16.9571 12.4998C16.9571 14.9574 14.9576 16.957 12.4999 16.957ZM17.1005 8.96459C16.5187 8.96459 16.0456 8.49151 16.0456 7.91006C16.0456 7.32853 16.5187 6.85545 17.1005 6.85545C17.682 6.85545 18.155 7.32853 18.155 7.91006C18.155 8.49158 17.682 8.96459 17.1005 8.96459Z" fill="black" fill-opacity="0.75"/>
<path fill-rule="evenodd" clip-rule="evenodd" d="M12.4999 9.92664C11.0812 9.92664 9.92603 11.0813 9.92603 12.4999C9.92603 13.9191 11.0812 15.074 12.4999 15.074C13.919 15.074 15.0734 13.9191 15.0734 12.4999C15.0734 11.0813 13.919 9.92664 12.4999 9.92664Z" fill="black" fill-opacity="0.75"/>
<path fill-rule="evenodd" clip-rule="evenodd" d="M5 0C2.23858 0 0 2.23858 0 5V20C0 22.7614 2.23858 25 5 25H20C22.7614 25 25 22.7614 25 20V5C25 2.23858 22.7614 0 20 0H5ZM21.1527 16.7873C21.1527 19.1948 19.1948 21.1527 16.7874 21.1527H8.21271C5.8055 21.1527 3.84725 19.1948 3.84725 16.7873V8.21271C3.84725 5.8055 5.8055 3.84725 8.21271 3.84725H16.7874C19.1948 3.84725 21.1527 5.8055 21.1527 8.21271V16.7873Z" fill="black" fill-opacity="0.75"/>
</svg>
