<svg width="25" height="25" viewBox="0 0 25 25" fill="none" xmlns="http://www.w3.org/2000/svg">
<path fill-rule="evenodd" clip-rule="evenodd" d="M25 3C25 1.34315 23.6569 0 22 0H3C1.34315 0 0 1.34315 0 3V22C0 23.6569 1.34315 25 3 25H22C23.6569 25 25 23.6569 25 22V3ZM12.4991 12.6242C15.5423 12.6242 18.0273 10.246 18.0273 7.31824C18.0273 4.37824 15.5423 1.99999 12.4991 1.99999C9.45493 1.99999 6.96993 4.37824 6.96993 7.31824C6.96993 10.246 9.45493 12.6242 12.4991 12.6242ZM12.4991 4.69412C13.9944 4.69412 15.2142 5.86749 15.2142 7.31824C15.2142 8.75674 13.9944 9.93012 12.4991 9.93012C11.0037 9.93012 9.78393 8.75674 9.78393 7.31824C9.78305 5.86662 11.0028 4.69412 12.4991 4.69412ZM6.13097 13.2708C5.5946 14.3252 6.2036 14.8292 7.5931 15.6902C8.7743 16.4199 10.4061 16.6868 11.4544 16.7936C11.4544 16.7936 11.4544 16.7937 11.4544 16.7937C11.3233 16.9197 11.4157 16.8308 11.446 16.8016L7.3236 20.767C6.12135 21.9193 8.05685 23.7682 9.25822 22.6404L12.451 19.561C12.4843 19.5289 12.537 19.5288 12.5703 19.5609C13.7938 20.738 14.9622 21.8621 15.763 22.6447C16.9652 23.777 18.8998 21.9438 17.7107 20.7713C17.6714 20.7339 16.8096 19.9074 15.881 19.0169L15.8805 19.0164L15.8805 19.0164C15.3314 18.4897 14.7589 17.9407 14.3194 17.5193C13.8277 17.0478 13.9594 16.7705 14.6299 16.6498C15.543 16.4856 16.5813 16.1969 17.4022 15.6949C17.4025 15.6948 17.4025 15.6944 17.4023 15.6942C17.4021 15.6939 17.4021 15.6936 17.4024 15.6934C18.7915 14.8282 19.4003 14.3251 18.8718 13.2708C18.5533 12.6738 17.6957 12.1743 16.5538 13.0308C16.5482 13.035 16.5433 13.0387 16.5377 13.0428C16.4191 13.1307 14.8969 14.2228 12.501 14.2228C10.0866 14.2228 8.56039 13.1146 8.46181 13.0411C8.45824 13.0384 8.45483 13.0358 8.45128 13.0331C7.30861 12.1691 6.44635 12.6733 6.13097 13.2708Z" fill="black" fill-opacity="0.75"/>
</svg>
