<svg width="25" height="25" viewBox="0 0 25 25" fill="none" xmlns="http://www.w3.org/2000/svg">
<path fill-rule="evenodd" clip-rule="evenodd" d="M5 0C2.23858 0 0 2.23858 0 5V20C0 22.7614 2.23858 25 5 25H20C22.7614 25 25 22.7614 25 20V5C25 2.23858 22.7614 0 20 0H5ZM18.7416 13.8312C19.3155 14.391 19.9224 14.9182 20.4375 15.5371C20.6651 15.8107 20.8804 16.0928 21.0445 16.4097C21.2774 16.8638 21.0663 17.3613 20.6607 17.3887L18.1401 17.3876C17.4895 17.441 16.971 17.1787 16.5337 16.7336C16.186 16.3792 15.861 15.9999 15.5254 15.6335C15.3888 15.4826 15.2443 15.3415 15.0727 15.229C14.7284 15.0058 14.4297 15.0736 14.2329 15.4322C14.0327 15.7975 13.9857 16.2031 13.9672 16.6099C13.9398 17.2037 13.7606 17.3591 13.1646 17.3876C11.8895 17.4467 10.6801 17.253 9.55698 16.611C8.56511 16.0447 7.79753 15.2441 7.12929 14.3387C5.82698 12.5737 4.82956 10.6359 3.93401 8.64242C3.73159 8.19313 3.87945 7.95236 4.37352 7.94368C5.19714 7.92742 6.02044 7.9294 6.84291 7.94258C7.17747 7.94819 7.39945 8.1394 7.52742 8.45544C7.97253 9.54918 8.51698 10.5901 9.20039 11.5558C9.38319 11.8128 9.56907 12.0687 9.83247 12.2501C10.1245 12.4514 10.3476 12.3856 10.4853 12.0586C10.5729 11.8509 10.6113 11.6301 10.6297 11.408C10.6952 10.648 10.7031 9.88709 10.5903 9.12929C10.5203 8.6556 10.2524 8.34934 9.78011 8.25978C9.53934 8.21385 9.57544 8.12538 9.69137 7.98736C9.89489 7.75027 10.0864 7.60242 10.4657 7.60242H12.8314C13.1527 7.60242 13.5294 7.56689 13.742 7.80782C13.8477 7.92757 13.8925 8.09916 13.9255 8.34401L13.9278 11.5099C13.9225 11.6848 14.0154 12.203 14.3292 12.3178C14.5806 12.4009 14.748 12.1985 14.8989 12.039C15.5812 11.315 16.068 10.459 16.503 9.57319C16.6955 9.18379 16.8619 8.77929 17.0237 8.37445C17.1429 8.07489 17.3288 7.92736 17.6667 7.93269L20.4093 7.93604C20.4902 7.93604 20.5734 7.93604 20.6532 7.94918C21.1145 8.02896 21.2414 8.22802 21.098 8.67956C20.8741 9.38698 20.4354 9.97764 20.0079 10.5692C19.5496 11.2024 19.062 11.8135 18.6071 12.4501C18.1916 13.033 18.2243 13.3261 18.7416 13.8312Z" fill="black" fill-opacity="0.75"/>
</svg>
